<svg width="102" height="113" viewBox="0 0 102 113" fill="none" xmlns="http://www.w3.org/2000/svg">
<g clip-path="url(#clip0_23_806)">
<path d="M79.5994 92.4186L86.6426 108.321C86.6426 108.321 87.6392 111.051 84.3452 112.142C84.3452 112.142 82.2147 112.959 79.9125 110.506L68.3535 98.9114L79.5994 92.4186Z" fill="#356B00"/>
<path d="M19.5539 92.4186L12.5107 108.321C12.5107 108.321 11.5113 111.051 14.8053 112.142C14.8053 112.142 16.9358 112.959 19.2401 110.506L30.797 98.9114L19.5539 92.4186Z" fill="#356B00"/>
<path d="M69.3267 28.199L76.2264 31.9137L83.0327 20.4834L76.1309 16.7707L69.3267 28.199Z" fill="#356B00"/>
<path d="M62.5342 9.37947C67.9303 0.554821 79.8058 -2.52341 89.1747 2.51812C98.5437 7.55965 101.879 18.8228 96.6965 27.7639L62.5342 9.37947Z" fill="#356B00"/>
<path d="M29.8258 28.199L22.9246 31.9137L16.1177 20.4834L23.0195 16.7707L29.8258 28.199Z" fill="#356B00"/>
<path d="M36.616 9.37947C31.2199 0.554821 19.3464 -2.52341 9.97543 2.51812C0.607182 7.55965 -2.72635 18.8228 2.45576 27.7639L36.616 9.37947Z" fill="#356B00"/>
<path d="M96.841 61.3204C96.841 86.1358 75.6803 106.252 49.5765 106.252C23.4707 106.252 2.31006 86.1358 2.31006 61.3204C2.31006 36.503 23.4707 16.3869 49.5765 16.3869C75.6803 16.3869 96.841 36.503 96.841 61.3204Z" fill="#356B00"/>
<path d="M87.8554 61.3204C87.8554 81.4167 70.716 97.7102 49.5762 97.7102C28.4343 97.7102 11.2949 81.4167 11.2949 61.3204C11.2949 41.2221 28.4343 24.9286 49.5762 24.9286C70.716 24.9286 87.8554 41.2221 87.8554 61.3204Z" fill="white"/>
<rect x="47.6978" y="61.2083" width="24.2143" height="3.66906" transform="rotate(-90 47.6978 61.2083)" fill="#7AA500"/>
<rect width="20.1075" height="3.43315" transform="matrix(0.898481 0.439012 -0.502731 0.864443 50.3428 60.113)" fill="#7AA500"/>
<path d="M53.7437 61.3204C53.7437 63.5088 51.8785 65.2825 49.5763 65.2825C47.274 65.2825 45.4067 63.5088 45.4067 61.3204C45.4067 59.132 47.274 57.3563 49.5763 57.3563C51.8785 57.3563 53.7437 59.132 53.7437 61.3204Z" fill="#356B00"/>
<path d="M51.8715 92.4186C51.8715 93.6224 50.8423 94.6004 49.5762 94.6004C48.308 94.6004 47.2788 93.6224 47.2788 92.4186C47.2788 91.2128 48.308 90.2368 49.5762 90.2368C50.8423 90.2368 51.8715 91.2128 51.8715 92.4186Z" fill="#356B00"/>
<path d="M51.8715 30.2202C51.8715 31.426 50.8423 32.404 49.5762 32.404C48.308 32.404 47.2788 31.426 47.2788 30.2202C47.2788 29.0164 48.308 28.0378 49.5762 28.0378C50.8423 28.0378 51.8715 29.0164 51.8715 30.2202Z" fill="#356B00"/>
<path d="M16.8617 63.5022C15.5956 63.5022 14.5664 62.5242 14.5664 61.3204C14.5664 60.1146 15.5956 59.1366 16.8617 59.1366C18.1299 59.1366 19.1591 60.1146 19.1591 61.3204C19.1591 62.5242 18.1299 63.5022 16.8617 63.5022Z" fill="#356B00"/>
<path d="M82.2899 63.5022C81.0211 63.5022 79.9946 62.5242 79.9946 61.3204C79.9946 60.1146 81.0211 59.1366 82.2899 59.1366C83.556 59.1366 84.5846 60.1146 84.5846 61.3204C84.5846 62.5242 83.556 63.5022 82.2899 63.5022Z" fill="#356B00"/>
<path d="M33.7871 88.6427C33.0994 89.6563 31.6781 89.9478 30.6136 89.2963C29.5477 88.6427 29.2388 87.2928 29.9265 86.2792C30.6136 85.2657 32.0334 84.9741 33.0994 85.6277C34.166 86.2792 34.4721 87.6311 33.7871 88.6427Z" fill="#356B00"/>
<path d="M69.2251 36.3615C68.5394 37.3731 67.1182 37.6667 66.0516 37.0131C64.9877 36.3589 64.6788 35.0097 65.3666 33.9961C66.0536 32.9825 67.4735 32.691 68.5394 33.3425C69.6033 33.9961 69.9122 35.348 69.2251 36.3615Z" fill="#356B00"/>
<path d="M22.4502 78.8394C21.3538 79.4442 19.9485 79.0914 19.3119 78.0509C18.6754 77.009 19.0474 75.6729 20.1417 75.0674C21.2381 74.4599 22.6434 74.8134 23.2799 75.8559C23.9185 76.8984 23.5473 78.2345 22.4502 78.8394Z" fill="#356B00"/>
<path d="M79.0094 47.5733C77.913 48.1782 76.507 47.8248 75.8705 46.7829C75.2319 45.7423 75.6059 44.4063 76.7002 43.7994C77.7966 43.1939 79.2019 43.5474 79.8384 44.5899C80.477 45.6324 80.1058 46.9685 79.0094 47.5733Z" fill="#356B00"/>
<path d="M19.468 48.9647C18.3411 48.4105 17.902 47.0916 18.4831 46.0227C19.0662 44.9519 20.4529 44.5346 21.577 45.0868C22.7038 45.641 23.143 46.9573 22.5619 48.0281C21.9794 49.099 20.5921 49.5169 19.468 48.9647Z" fill="#356B00"/>
<path d="M77.5739 77.552C76.447 76.9978 76.0079 75.6815 76.589 74.6107C77.1722 73.5392 78.5588 73.1219 79.6829 73.6761C80.8098 74.2283 81.251 75.5466 80.6685 76.6154C80.0853 77.6869 78.7008 78.1062 77.5739 77.552Z" fill="#356B00"/>
<path d="M30.8599 35.7211C30.2095 34.6852 30.5669 33.3445 31.6564 32.7285C32.7459 32.1124 34.1539 32.4501 34.8043 33.486C35.4526 34.522 35.0973 35.86 34.0078 36.4787C32.9183 37.0947 31.5082 36.7545 30.8599 35.7211Z" fill="#356B00"/>
<path d="M64.3461 89.1528C63.6978 88.1168 64.0559 86.7788 65.1433 86.1621C66.2328 85.5441 67.6429 85.8844 68.2905 86.9196C68.9388 87.9556 68.5835 89.2936 67.494 89.9123C66.4045 90.5284 64.9965 90.1881 64.3461 89.1528Z" fill="#356B00"/>
</g>
<defs>
<clipPath id="clip0_23_806">
<rect width="102" height="113" fill="white"/>
</clipPath>
</defs>
</svg>
