<svg width="143" height="112" viewBox="0 0 143 112" fill="none" xmlns="http://www.w3.org/2000/svg">
<g clip-path="url(#clip0_26_120)">
<mask id="mask0_26_120" style="mask-type:luminance" maskUnits="userSpaceOnUse" x="0" y="31" width="143" height="81">
<path d="M0 31.8525H143V111.921H0V31.8525Z" fill="white"/>
</mask>
<g mask="url(#mask0_26_120)">
<path d="M0.0473633 31.8785V99.4447C0.0473633 106.355 7.12677 111.918 15.921 111.918H127.033C135.827 111.918 142.906 106.355 142.906 99.4447V31.8785H0.0473633Z" fill="#7AA500"/>
</g>
<mask id="mask1_26_120" style="mask-type:luminance" maskUnits="userSpaceOnUse" x="0" y="8" width="143" height="25">
<path d="M0 8.97589H143V32.0114H0V8.97589Z" fill="white"/>
</mask>
<g mask="url(#mask1_26_120)">
<path d="M0.0473633 31.8785H142.906V21.484C142.906 14.5734 135.827 9.01001 127.033 9.01001H15.921C7.12677 9.01001 0.0473633 14.5734 0.0473633 21.484V31.8785Z" fill="#356B00"/>
</g>
<path d="M124.418 80.4739H131.487C133.444 80.4739 135.02 81.7492 135.02 83.3329V89.0502C135.02 90.6332 133.444 91.9085 131.487 91.9085H124.418C122.46 91.9085 120.884 90.6332 120.884 89.0502V83.3329C120.884 81.7492 122.46 80.4739 124.418 80.4739Z" fill="#356B00"/>
<path d="M124.418 66.181H131.487C133.444 66.181 135.02 67.4563 135.02 69.04V74.7573C135.02 76.3403 133.444 77.6156 131.487 77.6156H124.418C122.46 77.6156 120.884 76.341 120.884 74.7573V69.04C120.884 67.4563 122.46 66.181 124.418 66.181Z" fill="#356B00"/>
<path d="M124.418 51.8887H131.487C133.444 51.8887 135.02 53.1634 135.02 54.7471V60.4637C135.02 62.0474 133.444 63.3227 131.487 63.3227H124.418C122.46 63.3227 120.884 62.0474 120.884 60.4637V54.7471C120.884 53.1634 122.46 51.8887 124.418 51.8887Z" fill="#356B00"/>
<path d="M124.418 37.5952H131.487C133.444 37.5952 135.02 38.8705 135.02 40.4542V46.1715C135.02 47.7545 133.444 49.0298 131.487 49.0298H124.418C122.46 49.0298 120.884 47.7545 120.884 46.1715V40.4542C120.884 38.8705 122.46 37.5952 124.418 37.5952Z" fill="#356B00"/>
<path d="M105.593 80.4739H112.661C114.619 80.4739 116.196 81.7492 116.196 83.3329V89.0502C116.196 90.6332 114.619 91.9085 112.661 91.9085H105.593C103.636 91.9085 102.059 90.6332 102.059 89.0502V83.3329C102.059 81.7492 103.636 80.4739 105.593 80.4739Z" fill="white"/>
<path d="M105.593 66.181H112.661C114.619 66.181 116.196 67.4563 116.196 69.04V74.7573C116.196 76.3403 114.619 77.6156 112.661 77.6156H105.593C103.636 77.6156 102.059 76.341 102.059 74.7573V69.04C102.059 67.4563 103.636 66.181 105.593 66.181Z" fill="white"/>
<path d="M105.593 51.8887H112.661C114.619 51.8887 116.196 53.1634 116.196 54.7471V60.4637C116.196 62.0474 114.619 63.3227 112.661 63.3227H105.593C103.636 63.3227 102.059 62.0474 102.059 60.4637V54.7471C102.059 53.1634 103.636 51.8887 105.593 51.8887Z" fill="white"/>
<path d="M105.593 37.5952H112.661C114.619 37.5952 116.196 38.8705 116.196 40.4542V46.1715C116.196 47.7545 114.619 49.0298 112.661 49.0298H105.593C103.636 49.0298 102.059 47.7545 102.059 46.1715V40.4542C102.059 38.8705 103.636 37.5952 105.593 37.5952Z" fill="white"/>
<path d="M86.7679 94.7675H93.836C95.7944 94.7675 97.3701 96.0421 97.3701 97.6258V103.342C97.3701 104.926 95.7944 106.201 93.836 106.201H86.7679C84.8096 106.201 83.2339 104.926 83.2339 103.342V97.6258C83.2339 96.0421 84.8096 94.7675 86.7679 94.7675Z" fill="white"/>
<path d="M86.7679 80.4739H93.836C95.7944 80.4739 97.3701 81.7492 97.3701 83.3329V89.0502C97.3701 90.6332 95.7944 91.9085 93.836 91.9085H86.7679C84.8096 91.9085 83.2339 90.6332 83.2339 89.0502V83.3329C83.2339 81.7492 84.8096 80.4739 86.7679 80.4739Z" fill="white"/>
<path d="M86.7679 66.181H93.836C95.7944 66.181 97.3701 67.4563 97.3701 69.04V74.7573C97.3701 76.3403 95.7944 77.6156 93.836 77.6156H86.7679C84.8096 77.6156 83.2339 76.341 83.2339 74.7573V69.04C83.2339 67.4563 84.8096 66.181 86.7679 66.181Z" fill="white"/>
<path d="M86.7679 51.8887H93.836C95.7944 51.8887 97.3701 53.1634 97.3701 54.7471V60.4637C97.3701 62.0474 95.7944 63.3227 93.836 63.3227H86.7679C84.8096 63.3227 83.2339 62.0474 83.2339 60.4637V54.7471C83.2339 53.1634 84.8096 51.8887 86.7679 51.8887Z" fill="white"/>
<path d="M86.7679 37.5952H93.836C95.7944 37.5952 97.3701 38.8705 97.3701 40.4542V46.1715C97.3701 47.7545 95.7944 49.0298 93.836 49.0298H86.7679C84.8096 49.0298 83.2339 47.7545 83.2339 46.1715V40.4542C83.2339 38.8705 84.8096 37.5952 86.7679 37.5952Z" fill="white"/>
<path d="M67.9427 94.7675H75.0116C76.9685 94.7675 78.5449 96.0421 78.5449 97.6258V103.342C78.5449 104.926 76.9685 106.201 75.0116 106.201H67.9427C65.9851 106.201 64.4087 104.926 64.4087 103.342V97.6258C64.4087 96.0421 65.9851 94.7675 67.9427 94.7675Z" fill="white"/>
<path d="M67.9427 80.4739H75.0116C76.9685 80.4739 78.5449 81.7492 78.5449 83.3329V89.0502C78.5449 90.6332 76.9685 91.9085 75.0116 91.9085H67.9427C65.9851 91.9085 64.4087 90.6332 64.4087 89.0502V83.3329C64.4087 81.7492 65.9851 80.4739 67.9427 80.4739Z" fill="white"/>
<path d="M67.9427 66.181H75.0116C76.9685 66.181 78.5449 67.4563 78.5449 69.04V74.7573C78.5449 76.3403 76.9685 77.6156 75.0116 77.6156H67.9427C65.9851 77.6156 64.4087 76.341 64.4087 74.7573V69.04C64.4087 67.4563 65.9851 66.181 67.9427 66.181Z" fill="white"/>
<path d="M67.9427 51.8887H75.0116C76.9685 51.8887 78.5449 53.1634 78.5449 54.7471V60.4637C78.5449 62.0474 76.9685 63.3227 75.0116 63.3227H67.9427C65.9851 63.3227 64.4087 62.0474 64.4087 60.4637V54.7471C64.4087 53.1634 65.9851 51.8887 67.9427 51.8887Z" fill="white"/>
<path d="M49.1176 94.7675H56.1857C58.144 94.7675 59.7204 96.0421 59.7204 97.6258V103.342C59.7204 104.926 58.144 106.201 56.1857 106.201H49.1176C47.1599 106.201 45.5835 104.926 45.5835 103.342V97.6258C45.5835 96.0421 47.1599 94.7675 49.1176 94.7675Z" fill="white"/>
<path d="M49.1176 80.4739H56.1857C58.144 80.4739 59.7204 81.7492 59.7204 83.3329V89.0502C59.7204 90.6332 58.144 91.9085 56.1857 91.9085H49.1176C47.1599 91.9085 45.5835 90.6332 45.5835 89.0502V83.3329C45.5835 81.7492 47.1599 80.4739 49.1176 80.4739Z" fill="white"/>
<path d="M49.1176 66.181H56.1857C58.144 66.181 59.7204 67.4563 59.7204 69.04V74.7573C59.7204 76.3403 58.144 77.6156 56.1857 77.6156H49.1176C47.1599 77.6156 45.5835 76.341 45.5835 74.7573V69.04C45.5835 67.4563 47.1599 66.181 49.1176 66.181Z" fill="white"/>
<path d="M49.1176 51.8887H56.1857C58.144 51.8887 59.7204 53.1634 59.7204 54.7471V60.4637C59.7204 62.0474 58.144 63.3227 56.1857 63.3227H49.1176C47.1599 63.3227 45.5835 62.0474 45.5835 60.4637V54.7471C45.5835 53.1634 47.1599 51.8887 49.1176 51.8887Z" fill="white"/>
<path d="M30.2931 94.7675H37.3612C39.3188 94.7675 40.8952 96.0421 40.8952 97.6258V103.342C40.8952 104.926 39.3188 106.201 37.3612 106.201H30.2931C28.3347 106.201 26.7583 104.926 26.7583 103.342V97.6258C26.7583 96.0421 28.3347 94.7675 30.2931 94.7675Z" fill="white"/>
<path d="M30.2931 80.4739H37.3612C39.3188 80.4739 40.8952 81.7492 40.8952 83.3329V89.0502C40.8952 90.6332 39.3188 91.9085 37.3612 91.9085H30.2931C28.3347 91.9085 26.7583 90.6332 26.7583 89.0502V83.3329C26.7583 81.7492 28.3347 80.4739 30.2931 80.4739Z" fill="white"/>
<path d="M30.2931 66.181H37.3612C39.3188 66.181 40.8952 67.4563 40.8952 69.04V74.7573C40.8952 76.3403 39.3188 77.6156 37.3612 77.6156H30.2931C28.3347 77.6156 26.7583 76.341 26.7583 74.7573V69.04C26.7583 67.4563 28.3347 66.181 30.2931 66.181Z" fill="white"/>
<path d="M30.2931 51.8887H37.3612C39.3188 51.8887 40.8952 53.1634 40.8952 54.7471V60.4637C40.8952 62.0474 39.3188 63.3227 37.3612 63.3227H30.2931C28.3347 63.3227 26.7583 62.0474 26.7583 60.4637V54.7471C26.7583 53.1634 28.3347 51.8887 30.2931 51.8887Z" fill="white"/>
<path d="M11.4676 94.7675H18.5358C20.4934 94.7675 22.0698 96.0421 22.0698 97.6258V103.342C22.0698 104.926 20.4934 106.201 18.5358 106.201H11.4676C9.5093 106.201 7.93359 104.926 7.93359 103.342V97.6258C7.93359 96.0421 9.5093 94.7675 11.4676 94.7675Z" fill="white"/>
<path d="M11.4676 80.4739H18.5358C20.4934 80.4739 22.0698 81.7492 22.0698 83.3329V89.0502C22.0698 90.6332 20.4934 91.9085 18.5358 91.9085H11.4676C9.5093 91.9085 7.93359 90.6332 7.93359 89.0502V83.3329C7.93359 81.7492 9.5093 80.4739 11.4676 80.4739Z" fill="white"/>
<path d="M11.4676 66.181H18.5358C20.4934 66.181 22.0698 67.4563 22.0698 69.04V74.7573C22.0698 76.3403 20.4934 77.6156 18.5358 77.6156H11.4676C9.5093 77.6156 7.93359 76.341 7.93359 74.7573V69.04C7.93359 67.4563 9.5093 66.181 11.4676 66.181Z" fill="white"/>
<path d="M11.4676 51.8887H18.5358C20.4934 51.8887 22.0698 53.1634 22.0698 54.7471V60.4637C22.0698 62.0474 20.4934 63.3227 18.5358 63.3227H11.4676C9.5093 63.3227 7.93359 62.0474 7.93359 60.4637V54.7471C7.93359 53.1634 9.5093 51.8887 11.4676 51.8887Z" fill="white"/>
<path d="M105.593 94.7675H112.661C114.619 94.7675 116.196 96.0421 116.196 97.6258V103.342C116.196 104.926 114.619 106.201 112.661 106.201H105.593C103.636 106.201 102.059 104.926 102.059 103.342V97.6258C102.059 96.0421 103.636 94.7675 105.593 94.7675Z" fill="white"/>
<path d="M35.2544 17.006C35.2593 13.4744 38.7842 10.6067 43.1506 10.5825C47.5163 10.5577 51.0899 13.385 51.1569 16.9167C51.2233 20.4477 47.757 23.3613 43.3913 23.4438C39.0264 23.5269 35.3956 20.7468 35.2579 17.217" fill="#7AA500"/>
<path d="M43.2059 0.291046C46.3877 0.291046 48.9489 2.52261 48.9489 5.29406V16.728C48.9489 19.4995 46.3877 21.7304 43.2059 21.7304C40.0241 21.7304 37.4629 19.4995 37.4629 16.728V5.29406C37.4629 2.52261 40.0241 0.291046 43.2059 0.291046Z" fill="#7AA500"/>
<path d="M63.5269 17.006C63.5325 13.4744 67.0574 10.6067 71.4238 10.5825C75.7894 10.5577 79.3637 13.385 79.4301 16.9167C79.4958 20.4477 76.0295 23.3613 71.6645 23.4438C67.2995 23.5269 63.6688 20.7468 63.5311 17.217" fill="#7AA500"/>
<path d="M71.4789 0.291046C74.6599 0.291046 77.2219 2.52261 77.2219 5.29406V16.728C77.2219 19.4995 74.6599 21.7304 71.4789 21.7304C68.2971 21.7304 65.7358 19.4995 65.7358 16.728V5.29406C65.7358 2.52261 68.2971 0.291046 71.4789 0.291046Z" fill="#7AA500"/>
<path d="M91.7998 17.006C91.8047 13.4744 95.3303 10.6067 99.696 10.5825C104.062 10.5577 107.636 13.385 107.702 16.9167C107.769 20.4477 104.302 23.3613 99.9374 23.4438C95.5725 23.5269 91.9417 20.7468 91.8033 17.217" fill="#7AA500"/>
<path d="M99.752 0.291046C102.933 0.291046 105.494 2.52261 105.494 5.29406V16.728C105.494 19.4995 102.933 21.7304 99.752 21.7304C96.5702 21.7304 94.0083 19.4995 94.0083 16.728V5.29406C94.0083 2.52261 96.5702 0.291046 99.752 0.291046Z" fill="#7AA500"/>
<path d="M120.072 17.006C120.079 13.4744 123.603 10.6067 127.969 10.5825C132.335 10.5577 135.909 13.385 135.976 16.9167C136.042 20.4477 132.576 23.3613 128.21 23.4438C123.845 23.5269 120.214 20.7468 120.077 17.217" fill="#7AA500"/>
<path d="M128.025 0.291046C131.206 0.291046 133.767 2.52261 133.767 5.29406V16.728C133.767 19.4995 131.206 21.7304 128.025 21.7304C124.842 21.7304 122.281 19.4995 122.281 16.728V5.29406C122.281 2.52261 124.842 0.291046 128.025 0.291046Z" fill="#7AA500"/>
<path d="M6.97705 16.795C6.9827 13.2634 10.5076 10.3957 14.8733 10.3709C19.2396 10.3467 22.8139 13.174 22.8796 16.705C22.9459 20.2367 19.4797 23.1503 15.1147 23.2328C10.7497 23.3153 7.11895 20.5358 6.98129 17.006" fill="#7AA500"/>
<mask id="mask2_26_120" style="mask-type:luminance" maskUnits="userSpaceOnUse" x="9" y="0" width="12" height="22">
<path d="M9.12646 0.0800476H20.693V21.5262H9.12646V0.0800476Z" fill="white"/>
</mask>
<g mask="url(#mask2_26_120)">
<path d="M14.9286 0.0800476C18.1103 0.0800476 20.6716 2.31161 20.6716 5.08244V16.517C20.6716 19.2885 18.1103 21.5194 14.9286 21.5194C11.7468 21.5194 9.18555 19.2885 9.18555 16.517V5.08244C9.18555 2.31161 11.7468 0.0800476 14.9286 0.0800476Z" fill="#7AA500"/>
</g>
</g>
<defs>
<clipPath id="clip0_26_120">
<rect width="143" height="112" fill="white"/>
</clipPath>
</defs>
</svg>
