<svg width="150" height="150" viewBox="0 0 150 150" fill="none" xmlns="http://www.w3.org/2000/svg">
<g clip-path="url(#clip0_42_309)">
<mask id="mask0_42_309" style="mask-type:luminance" maskUnits="userSpaceOnUse" x="0" y="0" width="150" height="150">
<path d="M0.108398 0.108734H149.891V149.891H0.108398V0.108734Z" fill="white"/>
</mask>
<g mask="url(#mask0_42_309)">
<mask id="mask1_42_309" style="mask-type:luminance" maskUnits="userSpaceOnUse" x="0" y="0" width="150" height="150">
<path d="M74.9997 0.108734C116.361 0.108734 149.891 33.6389 149.891 75C149.891 116.361 116.361 149.891 74.9997 149.891C33.6386 149.891 0.108398 116.361 0.108398 75C0.108398 33.6389 33.6386 0.108734 74.9997 0.108734V30.0656C50.1828 30.0656 30.0652 50.1832 30.0652 75C30.0652 99.8168 50.1828 119.934 74.9997 119.934C99.8165 119.934 119.934 99.8168 119.934 75C119.934 50.1832 99.8165 30.0656 74.9997 30.0656V0.108734Z" fill="white"/>
</mask>
<g mask="url(#mask1_42_309)">
<path d="M0.108398 0.108734H149.891V149.891H0.108398V0.108734Z" fill="#7AA500"/>
</g>
</g>
<mask id="mask2_42_309" style="mask-type:luminance" maskUnits="userSpaceOnUse" x="5" y="1" width="145" height="149">
<path d="M5.83496 1.98073H149.946V149.946H5.83496V1.98073Z" fill="white"/>
</mask>
<g mask="url(#mask2_42_309)">
<mask id="mask3_42_309" style="mask-type:luminance" maskUnits="userSpaceOnUse" x="5" y="2" width="145" height="148">
<path d="M93.7231 2.48679C127.367 11.1734 150.617 41.8621 149.874 76.6018C149.131 111.342 124.589 141.008 90.604 148.248C56.6179 155.488 22.1166 138.4 7.27955 106.979C3.7472 99.499 6.94748 90.5715 14.4279 87.0391C21.9075 83.5068 30.835 86.707 34.3674 94.1875C43.2698 113.04 63.9712 123.293 84.3623 118.949C104.753 114.605 119.478 96.8056 119.924 75.9611C120.37 55.1174 106.421 36.7045 86.2335 31.4917C78.2236 29.424 73.4073 21.2544 75.4758 13.2445C77.5435 5.23538 85.7132 0.419068 93.7231 2.48679Z" fill="white"/>
</mask>
<g mask="url(#mask3_42_309)">
<path d="M0.108398 0.108749H149.891V149.891H0.108398V0.108749Z" fill="#EE0C00"/>
</g>
</g>
</g>
<defs>
<clipPath id="clip0_42_309">
<rect width="150" height="150" fill="white"/>
</clipPath>
</defs>
</svg>
