<svg width="48" height="48" viewBox="0 0 48 48" fill="none" xmlns="http://www.w3.org/2000/svg">
<g clip-path="url(#clip0_8_86)">
<mask id="mask0_8_86" style="mask-type:luminance" maskUnits="userSpaceOnUse" x="0" y="0" width="48" height="48">
<path d="M0.02005 0.020052H47.9701V47.97H0.02005V0.020052Z" fill="white"/>
</mask>
<g mask="url(#mask0_8_86)">
<path d="M47.1711 0.020052H0.819269C0.766925 0.020052 0.714842 0.0252603 0.66354 0.0354165C0.611977 0.0458332 0.561977 0.0609373 0.51354 0.0809895C0.465102 0.101042 0.419008 0.125781 0.375258 0.154948C0.331769 0.184114 0.291404 0.217187 0.254165 0.254167C0.217185 0.291406 0.184113 0.331771 0.154946 0.37526C0.125779 0.41901 0.10104 0.465104 0.0809876 0.513542C0.0609354 0.561979 0.0458313 0.611979 0.0354146 0.663541C0.0252584 0.714844 0.02005 0.766927 0.02005 0.819271V47.1711C0.02005 47.2234 0.0252584 47.2755 0.0354146 47.3268C0.0458313 47.3784 0.0609354 47.4284 0.0809876 47.4768C0.10104 47.5253 0.125779 47.5714 0.154946 47.6151C0.184113 47.6586 0.217185 47.699 0.254165 47.7362C0.291404 47.7732 0.331769 47.8062 0.375258 47.8354C0.419008 47.8646 0.465102 47.8893 0.51354 47.9094C0.561977 47.9294 0.611977 47.9445 0.66354 47.9547C0.714842 47.9651 0.766925 47.97 0.819269 47.97H47.1711C47.2234 47.97 47.2755 47.9651 47.3268 47.9547C47.3784 47.9445 47.4284 47.9294 47.4768 47.9094C47.5253 47.8893 47.5714 47.8646 47.6151 47.8354C47.6586 47.8062 47.699 47.7732 47.7362 47.7362C47.7732 47.699 47.8063 47.6586 47.8354 47.6151C47.8646 47.5714 47.8893 47.5253 47.9094 47.4768C47.9294 47.4284 47.9445 47.3784 47.9547 47.3268C47.9651 47.2755 47.9701 47.2234 47.9701 47.1711V0.819271C47.9701 0.766927 47.9651 0.714844 47.9547 0.663541C47.9445 0.611979 47.9294 0.561979 47.9094 0.513542C47.8893 0.465104 47.8646 0.41901 47.8354 0.37526C47.8063 0.331771 47.7732 0.291406 47.7362 0.254167C47.699 0.217187 47.6586 0.184114 47.6151 0.154948C47.5714 0.125781 47.5253 0.101042 47.4768 0.0809895C47.4284 0.0609373 47.3784 0.0458332 47.3268 0.0354165C47.2755 0.0252603 47.2234 0.020052 47.1711 0.020052ZM46.3719 10.4094V46.3719H1.61849V1.61849H46.3719V10.4094Z" fill="#7AA500"/>
</g>
<path d="M2.41772 17.6018H8.81095C8.90965 17.6018 9.00522 17.5841 9.09741 17.5487C9.18959 17.5135 9.27241 17.4628 9.34558 17.3966L15.0393 12.2724C15.094 12.3099 15.1497 12.3458 15.2068 12.3799C15.2636 12.4141 15.3214 12.4464 15.3802 12.4771C15.4391 12.5076 15.499 12.5365 15.5594 12.5635C15.6201 12.5906 15.6815 12.6156 15.7435 12.6391C15.8057 12.6622 15.8685 12.6839 15.9318 12.7034C15.9953 12.7229 16.0591 12.7404 16.1237 12.7562C16.188 12.7719 16.2529 12.7854 16.3182 12.7974C16.3836 12.8091 16.4492 12.8187 16.5151 12.8266C16.581 12.8344 16.6469 12.8401 16.7133 12.844C16.7794 12.8479 16.8458 12.8497 16.912 12.8495C16.9784 12.8492 17.0448 12.8471 17.1109 12.843C17.1771 12.8388 17.2432 12.8326 17.3091 12.8242C17.3747 12.8161 17.4404 12.806 17.5057 12.7937C17.5708 12.7818 17.6357 12.7677 17.7 12.7516C17.7643 12.7354 17.8281 12.7174 17.8914 12.6977C17.9547 12.6779 18.0175 12.656 18.0794 12.6323C18.1414 12.6086 18.2026 12.5831 18.263 12.5557C18.3234 12.5284 18.3831 12.4992 18.4417 12.4682C18.5003 12.4372 18.5581 12.4044 18.6149 12.3701C18.6714 12.3357 18.7271 12.2995 18.7815 12.2617C18.8362 12.224 18.8893 12.1844 18.9417 12.1435C18.9938 12.1023 19.0445 12.0599 19.0943 12.0156C19.1438 11.9716 19.1919 11.926 19.2388 11.8792C19.2857 11.832 19.331 11.7836 19.3747 11.7339C19.4188 11.6841 19.4609 11.6331 19.5018 11.5807C19.5427 11.5286 19.582 11.475 19.6195 11.4203C19.657 11.3656 19.693 11.3099 19.7271 11.2531C19.7615 11.1964 19.794 11.1385 19.8247 11.0797C19.8555 11.0208 19.8844 10.9612 19.9115 10.9005C19.9386 10.8401 19.9638 10.7786 19.9872 10.7167C20.0107 10.6547 20.0323 10.5919 20.0518 10.5286C20.0716 10.4651 20.0893 10.4013 20.105 10.3367C20.1208 10.2724 20.1346 10.2076 20.1466 10.1422C20.1583 10.0771 20.1682 10.0115 20.1763 9.94557C20.1841 9.87969 20.1901 9.81354 20.194 9.74739C20.1979 9.68125 20.1997 9.61484 20.1997 9.54844C20.1997 9.48203 20.1977 9.41588 20.1935 9.34974C20.1893 9.28333 20.1833 9.21745 20.1753 9.15156C20.1672 9.08568 20.157 9.02005 20.1451 8.95495C20.1331 8.88958 20.119 8.82474 20.1031 8.76042C20.0872 8.69609 20.0693 8.63203 20.0495 8.56875C20.0297 8.50547 20.0081 8.44271 19.9846 8.38073C19.9609 8.31875 19.9354 8.25755 19.9083 8.19713C19.881 8.13646 19.8518 8.07682 19.8211 8.01823C19.7901 7.95937 19.7576 7.90182 19.7232 7.84505C19.6888 7.78828 19.6529 7.73255 19.6151 7.67786C19.5774 7.62344 19.538 7.57005 19.4971 7.51771C19.4563 7.46562 19.4138 7.41458 19.3698 7.3651C19.3258 7.31536 19.2802 7.26719 19.2333 7.22031C19.1865 7.17318 19.138 7.12786 19.0883 7.08385C19.0388 7.03984 18.9878 6.99739 18.9354 6.95651C18.8833 6.91562 18.83 6.8763 18.7753 6.83854C18.7206 6.80104 18.6649 6.76484 18.6081 6.73073C18.5513 6.69635 18.4935 6.6638 18.4349 6.63281C18.3761 6.60208 18.3164 6.57318 18.256 6.54583C18.1956 6.51849 18.1341 6.49323 18.0721 6.46979C18.0102 6.44609 17.9474 6.42448 17.8841 6.40469C17.8208 6.38489 17.757 6.36719 17.6925 6.3513C17.6281 6.33542 17.5633 6.32135 17.4979 6.30937C17.4328 6.29739 17.3672 6.2875 17.3013 6.27943C17.2354 6.27135 17.1695 6.26536 17.1031 6.26146C17.037 6.25729 16.9706 6.25521 16.9044 6.25521C16.838 6.25521 16.7716 6.25729 16.7055 6.2612C16.6393 6.2651 16.5732 6.27109 16.5073 6.2789C16.4414 6.28698 16.3758 6.29687 16.3107 6.30885C16.2453 6.32083 16.1805 6.33463 16.1162 6.35052C16.0516 6.36614 15.9878 6.38411 15.9245 6.40364C15.8609 6.42344 15.7984 6.44505 15.7362 6.46849C15.6742 6.49193 15.613 6.51719 15.5524 6.54427C15.4919 6.57161 15.4323 6.60052 15.3734 6.63125C15.3146 6.66198 15.2568 6.69453 15.2 6.7289C15.1432 6.76302 15.0875 6.79896 15.0328 6.83672C14.9781 6.87422 14.9247 6.91354 14.8724 6.95443C14.8201 6.99531 14.7693 7.03776 14.7195 7.08151C14.6698 7.12552 14.6214 7.17083 14.5745 7.21771C14.5274 7.26458 14.482 7.31276 14.4378 7.3625C14.3938 7.41198 14.3513 7.46276 14.3102 7.5151C14.2693 7.56719 14.23 7.62057 14.1922 7.675C14.1544 7.72969 14.1182 7.78542 14.0839 7.84193C14.0495 7.8987 14.0167 7.95651 13.9857 8.0151C13.955 8.07396 13.9258 8.13333 13.8984 8.19375C13.8711 8.25443 13.8456 8.31562 13.8219 8.3776C13.7982 8.43958 13.7766 8.50208 13.7568 8.56536C13.7367 8.62864 13.7188 8.69271 13.7029 8.75703C13.687 8.82135 13.6729 8.8862 13.6607 8.95156C13.6487 9.01667 13.6386 9.08229 13.6305 9.14818C13.6221 9.2138 13.6162 9.27995 13.612 9.34609C13.6078 9.4125 13.6057 9.47864 13.6055 9.54505C13.6055 9.61146 13.6073 9.6776 13.6109 9.74375C13.6149 9.81016 13.6208 9.87604 13.6287 9.94193C13.6365 10.0078 13.6464 10.0734 13.6581 10.1388C13.6698 10.2042 13.6836 10.269 13.6992 10.3333C13.7151 10.3979 13.7328 10.4617 13.7524 10.5253C13.7719 10.5885 13.7932 10.6513 13.8167 10.7135C13.8401 10.7755 13.8654 10.837 13.8925 10.8974C13.9195 10.9581 13.9482 11.0177 13.9789 11.0766L8.50418 16.0034H2.41772C2.36511 16.0034 2.31329 16.0086 2.26173 16.0187C2.21043 16.0292 2.16043 16.0443 2.11173 16.0643C2.06329 16.0844 2.0172 16.1091 1.97371 16.1383C1.92996 16.1674 1.88959 16.2005 1.85261 16.2375C1.81537 16.2747 1.7823 16.3151 1.75314 16.3586C1.72397 16.4023 1.69949 16.4484 1.67944 16.4969C1.65939 16.5453 1.64402 16.5953 1.63386 16.6469C1.62371 16.6982 1.6185 16.7503 1.6185 16.8026C1.6185 16.8552 1.62371 16.907 1.63386 16.9586C1.64402 17.0102 1.65939 17.0599 1.67944 17.1086C1.69949 17.157 1.72397 17.2031 1.75314 17.2466C1.7823 17.2904 1.81537 17.3307 1.85261 17.3677C1.88959 17.4049 1.92996 17.438 1.97371 17.4672C2.0172 17.4964 2.06329 17.5208 2.11173 17.5409C2.16043 17.5612 2.21043 17.5763 2.26173 17.5865C2.31329 17.5966 2.36511 17.6018 2.41772 17.6018ZM16.8026 8.01172C16.855 8.01172 16.9073 8.01432 16.9594 8.01953C17.0115 8.02474 17.063 8.03229 17.1146 8.04245C17.1659 8.05286 17.2167 8.06536 17.2667 8.08073C17.3167 8.09583 17.3659 8.11354 17.4143 8.13359C17.4628 8.15364 17.5099 8.17578 17.556 8.20052C17.6024 8.22526 17.6471 8.25208 17.6906 8.28125C17.7341 8.31016 17.7761 8.34141 17.8167 8.37474C17.857 8.40781 17.8958 8.44297 17.9328 8.47995C17.9698 8.51693 18.005 8.55573 18.0383 8.59609C18.0714 8.63672 18.1026 8.67864 18.1315 8.72213C18.1607 8.76562 18.1875 8.81068 18.2122 8.85677C18.237 8.90286 18.2594 8.95026 18.2794 8.99844C18.2995 9.04687 18.3169 9.09609 18.3323 9.14609C18.3474 9.19635 18.3602 9.24687 18.3703 9.29844C18.3805 9.34974 18.3883 9.4013 18.3932 9.45338C18.3984 9.50547 18.4011 9.55781 18.4011 9.61016C18.4011 9.6625 18.3984 9.71484 18.3932 9.76693C18.3883 9.81901 18.3805 9.87057 18.3703 9.92187C18.3602 9.97344 18.3474 10.024 18.3323 10.0742C18.3169 10.1242 18.2995 10.1734 18.2794 10.2219C18.2594 10.2703 18.237 10.3174 18.2122 10.3635C18.1875 10.4099 18.1607 10.4547 18.1315 10.4982C18.1026 10.5417 18.0714 10.5836 18.0383 10.6242C18.005 10.6646 17.9698 10.7034 17.9328 10.7404C17.8958 10.7773 17.857 10.8125 17.8167 10.8456C17.7761 10.8789 17.7341 10.9102 17.6906 10.9391C17.6471 10.9682 17.6024 10.9951 17.556 11.0198C17.5099 11.0445 17.4628 11.0669 17.4143 11.0867C17.3659 11.1068 17.3167 11.1245 17.2667 11.1396C17.2167 11.1549 17.1659 11.1674 17.1146 11.1779C17.063 11.188 17.0115 11.1956 16.9594 11.2008C16.9073 11.206 16.855 11.2086 16.8026 11.2086C16.7503 11.2086 16.6982 11.206 16.6461 11.2008C16.594 11.1956 16.5422 11.188 16.4909 11.1779C16.4396 11.1674 16.3888 11.1549 16.3388 11.1396C16.2886 11.1245 16.2393 11.1068 16.1909 11.0867C16.1427 11.0669 16.0953 11.0445 16.0492 11.0198C16.0031 10.9951 15.9581 10.9682 15.9146 10.9391C15.8711 10.9102 15.8292 10.8789 15.7888 10.8456C15.7482 10.8125 15.7094 10.7773 15.6724 10.7404C15.6354 10.7034 15.6003 10.6646 15.5672 10.6242C15.5339 10.5836 15.5029 10.5417 15.4737 10.4982C15.4445 10.4547 15.4177 10.4099 15.393 10.3635C15.3685 10.3174 15.3461 10.2703 15.3261 10.2219C15.306 10.1734 15.2883 10.1242 15.2732 10.0742C15.2581 10.024 15.2453 9.97344 15.2352 9.92187C15.2247 9.87057 15.2172 9.81901 15.212 9.76693C15.2068 9.71484 15.2044 9.6625 15.2044 9.61016C15.2044 9.55781 15.207 9.50573 15.2122 9.45364C15.2175 9.40156 15.225 9.34974 15.2354 9.29844C15.2456 9.24713 15.2583 9.19635 15.2734 9.14635C15.2888 9.09635 15.3063 9.04713 15.3263 8.9987C15.3464 8.95052 15.3688 8.90312 15.3935 8.85703C15.4182 8.81094 15.4451 8.76614 15.4742 8.72266C15.5034 8.67917 15.5344 8.63698 15.5677 8.59661C15.6008 8.55625 15.6359 8.51745 15.6729 8.48047C15.7099 8.44349 15.7487 8.40833 15.7891 8.375C15.8297 8.34193 15.8716 8.31068 15.9151 8.28177C15.9586 8.2526 16.0034 8.22578 16.0495 8.20104C16.0956 8.1763 16.143 8.15391 16.1912 8.13385C16.2396 8.1138 16.2888 8.09635 16.3388 8.08099C16.3891 8.06588 16.4396 8.05312 16.4909 8.04271C16.5422 8.03255 16.594 8.02474 16.6461 8.01979C16.6982 8.01458 16.7503 8.01198 16.8026 8.01172Z" fill="#7AA500"/>
<path d="M2.41772 20.7984H18.0701L21.8318 24.5602C21.9068 24.6352 21.9932 24.693 22.0909 24.7333C22.1888 24.774 22.2909 24.7943 22.3969 24.7943H28.9037C28.9393 24.931 28.9839 25.0648 29.0372 25.1958C29.0906 25.3266 29.1524 25.4534 29.2227 25.576C29.293 25.6984 29.3711 25.8159 29.4568 25.9281C29.5427 26.0406 29.6354 26.1466 29.7354 26.2466C29.8354 26.3464 29.9414 26.4393 30.0537 26.5253C30.1659 26.6109 30.2833 26.6891 30.406 26.7594C30.5287 26.8294 30.6555 26.8914 30.7862 26.9448C30.9172 26.9982 31.0508 27.0427 31.1878 27.0784V31.1878C31.1878 31.2401 31.1927 31.2922 31.2031 31.3435C31.2133 31.3951 31.2284 31.4451 31.2484 31.4935C31.2685 31.5419 31.2932 31.588 31.3224 31.6318C31.3516 31.6753 31.3846 31.7156 31.4216 31.7529C31.4589 31.7898 31.4992 31.8229 31.5427 31.8521C31.5865 31.8813 31.6326 31.906 31.681 31.926C31.7294 31.9461 31.7794 31.9612 31.831 31.9714C31.8823 31.9818 31.9344 31.9867 31.9867 31.9867H38.4938C38.5096 32.049 38.5276 32.1104 38.5474 32.1716C38.5672 32.2326 38.5886 32.293 38.612 32.3526C38.6354 32.4125 38.6604 32.4714 38.6875 32.5297C38.7143 32.5878 38.743 32.6453 38.7734 32.7018C38.8039 32.7583 38.8359 32.8138 38.8695 32.8682C38.9034 32.9229 38.9388 32.9763 38.9755 33.0289C39.0125 33.0813 39.051 33.1326 39.0912 33.1828C39.1313 33.2328 39.1727 33.2818 39.2156 33.3294C39.2586 33.3768 39.3029 33.4232 39.3487 33.4682C39.3945 33.513 39.4417 33.5568 39.4901 33.5987C39.5383 33.6409 39.588 33.6815 39.6388 33.7206C39.6896 33.7599 39.7417 33.7974 39.7948 33.8333C39.8479 33.8693 39.9018 33.9036 39.957 33.9365C40.0122 33.9693 40.0682 34.0003 40.1253 34.0297C40.1823 34.0591 40.2404 34.0867 40.299 34.1125C40.3576 34.1385 40.4172 34.1625 40.4774 34.1849C40.5375 34.207 40.5982 34.2276 40.6596 34.2464C40.7208 34.2648 40.7828 34.2818 40.8453 34.2966C40.9076 34.3115 40.9703 34.3245 41.0336 34.3357C41.0966 34.3469 41.1602 34.356 41.224 34.3635C41.2875 34.3708 41.3516 34.376 41.4156 34.3797C41.4797 34.3831 41.5438 34.3846 41.6078 34.3844C41.6721 34.3839 41.7362 34.3815 41.8 34.3773C41.8641 34.3732 41.9279 34.3669 41.9917 34.3589C42.0552 34.3508 42.1185 34.3409 42.1815 34.3289C42.2445 34.3169 42.3073 34.3031 42.3695 34.2875C42.4318 34.2719 42.4935 34.2544 42.5544 34.2349C42.6156 34.2156 42.6763 34.1943 42.7359 34.1714C42.7958 34.1484 42.855 34.1234 42.9135 34.0969C42.9719 34.0703 43.0294 34.0422 43.0859 34.012C43.1427 33.982 43.1984 33.9503 43.2531 33.9169C43.3081 33.8833 43.3617 33.8484 43.4143 33.8117C43.4669 33.7753 43.5185 33.737 43.569 33.6971C43.6193 33.6576 43.6685 33.6161 43.7162 33.5737C43.7641 33.531 43.8107 33.4867 43.856 33.4414C43.9011 33.3958 43.9451 33.349 43.9872 33.3008C44.0297 33.2526 44.0706 33.2034 44.1102 33.1529C44.1495 33.1021 44.1875 33.0505 44.2237 32.9977C44.2602 32.9445 44.2948 32.8906 44.3279 32.8357C44.3609 32.7807 44.3925 32.725 44.4221 32.668C44.4518 32.6112 44.4797 32.5534 44.506 32.4951C44.5323 32.4365 44.5565 32.3771 44.5794 32.3172C44.6021 32.257 44.6229 32.1964 44.6419 32.1352C44.6609 32.074 44.6779 32.0122 44.6932 31.9497C44.7086 31.8875 44.7219 31.8247 44.7336 31.7617C44.7451 31.6987 44.7547 31.6352 44.7622 31.5716C44.7701 31.5078 44.7758 31.444 44.7797 31.3799C44.7836 31.3159 44.7854 31.2518 44.7854 31.1878C44.7854 31.1234 44.7836 31.0594 44.7797 30.9953C44.7758 30.9313 44.7701 30.8674 44.7622 30.8039C44.7547 30.7401 44.7451 30.6768 44.7336 30.6135C44.7219 30.5505 44.7086 30.4878 44.6932 30.4255C44.6779 30.3633 44.6609 30.3013 44.6419 30.2401C44.6229 30.1789 44.6021 30.1182 44.5792 30.0583C44.5565 29.9982 44.5323 29.9391 44.506 29.8805C44.4797 29.8219 44.4518 29.7641 44.4221 29.7073C44.3925 29.6505 44.3609 29.5945 44.3279 29.5396C44.2948 29.4846 44.2602 29.4307 44.2237 29.3779C44.1875 29.325 44.1495 29.2732 44.1102 29.2227C44.0706 29.1719 44.0297 29.1227 43.9872 29.0745C43.9451 29.0263 43.9011 28.9794 43.856 28.9341C43.8107 28.8885 43.7641 28.8445 43.7162 28.8018C43.6685 28.7591 43.6193 28.718 43.569 28.6781C43.5185 28.6383 43.4669 28.6003 43.4143 28.5635C43.3617 28.5268 43.3081 28.4919 43.2531 28.4586C43.1984 28.425 43.1427 28.3935 43.0859 28.3633C43.0294 28.3333 42.9719 28.3049 42.9135 28.2784C42.855 28.2518 42.7958 28.2271 42.7359 28.2039C42.6763 28.181 42.6156 28.1596 42.5544 28.1404C42.4935 28.1211 42.4318 28.1034 42.3695 28.0878C42.3073 28.0721 42.2445 28.0583 42.1815 28.0464C42.1185 28.0346 42.0552 28.0245 41.9917 28.0164C41.9279 28.0083 41.8641 28.0023 41.8 27.9979C41.7362 27.9938 41.6721 27.9914 41.6078 27.9911C41.5438 27.9906 41.4797 27.9922 41.4156 27.9956C41.3516 27.9992 41.2875 28.0047 41.224 28.012C41.1602 28.0193 41.0966 28.0284 41.0336 28.0396C40.9703 28.0508 40.9076 28.0638 40.8451 28.0786C40.7828 28.0935 40.7208 28.1104 40.6596 28.1292C40.5982 28.1477 40.5375 28.1682 40.4774 28.1904C40.4172 28.2128 40.3576 28.237 40.299 28.2628C40.2404 28.2885 40.1823 28.3164 40.1253 28.3456C40.0682 28.375 40.0122 28.406 39.957 28.4388C39.9018 28.4716 39.8479 28.506 39.7948 28.5419C39.7417 28.5779 39.6896 28.6156 39.6388 28.6547C39.588 28.6938 39.5383 28.7344 39.4901 28.7766C39.4417 28.8188 39.3945 28.8622 39.3487 28.907C39.3029 28.9521 39.2586 28.9984 39.2156 29.0461C39.1727 29.0938 39.1313 29.1424 39.0912 29.1927C39.051 29.2427 39.0125 29.294 38.9755 29.3464C38.9388 29.399 38.9034 29.4523 38.8695 29.507C38.8359 29.5615 38.8039 29.6172 38.7734 29.6737C38.743 29.7302 38.7143 29.7875 38.6875 29.8456C38.6604 29.9039 38.6354 29.9628 38.612 30.0227C38.5886 30.0823 38.5672 30.1427 38.5474 30.2036C38.5276 30.2648 38.5096 30.3263 38.4938 30.3885H32.7859V27.0784C32.8763 27.0552 32.9656 27.0281 33.0537 26.9971C33.1417 26.9661 33.2281 26.9313 33.313 26.8927C33.3982 26.8539 33.4813 26.8117 33.5625 26.7659C33.6438 26.7201 33.7229 26.6706 33.7997 26.6177C33.8766 26.5648 33.951 26.5089 34.0232 26.4495C34.0951 26.3901 34.1643 26.3276 34.231 26.2622C34.2974 26.1966 34.3609 26.1284 34.4216 26.0573C34.482 25.9865 34.5393 25.9128 34.5935 25.8367C34.6474 25.7607 34.6982 25.6826 34.7453 25.6018C34.7925 25.5214 34.8362 25.4391 34.876 25.3547C34.9162 25.2703 34.9524 25.1844 34.9846 25.0969C35.0172 25.0094 35.0456 24.9206 35.0703 24.8305C35.0951 24.7406 35.1156 24.6497 35.1323 24.5578C35.149 24.4659 35.1615 24.3737 35.1701 24.2807C35.1787 24.1878 35.1831 24.0945 35.1833 24.0013C35.1839 23.9081 35.1802 23.8148 35.1724 23.7219C35.1646 23.6289 35.1526 23.5362 35.1367 23.4443C35.1208 23.3523 35.1008 23.2612 35.0771 23.1711C35.0531 23.081 35.0253 22.9919 34.9935 22.9042C34.9617 22.8164 34.9263 22.7302 34.887 22.6456C34.8477 22.5609 34.8047 22.4781 34.7583 22.3971C34.7117 22.3164 34.6617 22.2375 34.6083 22.1612C34.5547 22.0846 34.4982 22.0107 34.438 21.9391C34.3781 21.8674 34.3151 21.7987 34.2492 21.7328C34.1831 21.6669 34.1143 21.6039 34.043 21.544C33.9714 21.4839 33.8974 21.4273 33.8208 21.3737C33.7443 21.3203 33.6656 21.2703 33.5849 21.2237C33.5039 21.1771 33.4211 21.1344 33.3365 21.0951C33.2518 21.0557 33.1656 21.0201 33.0779 20.9885C32.9901 20.9568 32.9011 20.9289 32.8109 20.9049C32.7206 20.881 32.6297 20.8612 32.5375 20.8453C32.4456 20.8294 32.3531 20.8174 32.2602 20.8096C32.1672 20.8018 32.074 20.7982 31.9807 20.7984C31.8875 20.799 31.7943 20.8034 31.7013 20.812C31.6083 20.8206 31.5159 20.8331 31.4242 20.8497C31.3323 20.8664 31.2414 20.887 31.1513 20.9117C31.0615 20.9365 30.9727 20.9648 30.8852 20.9974C30.7977 21.0297 30.7117 21.0659 30.6274 21.106C30.543 21.1458 30.4607 21.1896 30.38 21.2367C30.2995 21.2839 30.2214 21.3346 30.1453 21.3885C30.0693 21.4427 29.9956 21.5 29.9245 21.5604C29.8537 21.6211 29.7854 21.6846 29.7198 21.751C29.6544 21.8177 29.5919 21.887 29.5326 21.9589C29.4732 22.031 29.4172 22.1052 29.3643 22.1823C29.3115 22.2591 29.262 22.3383 29.2162 22.4195C29.1703 22.5008 29.1279 22.5839 29.0893 22.6687C29.0508 22.7539 29.0159 22.8404 28.9849 22.9284C28.9539 23.0164 28.9268 23.1055 28.9037 23.1961H22.7276L18.9659 19.4344C18.8912 19.3594 18.8047 19.3016 18.7068 19.2609C18.6089 19.2206 18.507 19.2003 18.4011 19.2003H2.41772C2.36511 19.2003 2.31329 19.2052 2.26173 19.2156C2.21043 19.2258 2.16043 19.2409 2.11173 19.2609C2.06329 19.281 2.0172 19.3057 1.97371 19.3349C1.92996 19.3641 1.88959 19.3971 1.85261 19.4341C1.81537 19.4714 1.7823 19.5117 1.75314 19.5552C1.72397 19.599 1.69949 19.6451 1.67944 19.6935C1.65939 19.7419 1.64402 19.7919 1.63386 19.8435C1.62371 19.8948 1.6185 19.9469 1.6185 19.9992C1.6185 20.0518 1.62371 20.1036 1.63386 20.1552C1.64402 20.2068 1.65939 20.2568 1.67944 20.3052C1.69949 20.3536 1.72397 20.3997 1.75314 20.4432C1.7823 20.487 1.81537 20.5273 1.85261 20.5643C1.88959 20.6016 1.92996 20.6346 1.97371 20.6638C2.0172 20.693 2.06329 20.7174 2.11173 20.7378C2.16043 20.7578 2.21043 20.7729 2.26173 20.7831C2.31329 20.7935 2.36511 20.7984 2.41772 20.7984ZM41.5768 29.5893C41.6292 29.5893 41.6815 29.5919 41.7336 29.5971C41.7857 29.6021 41.8372 29.6099 41.8885 29.6201C41.9401 29.6302 41.9906 29.643 42.0409 29.6581C42.0909 29.6734 42.1401 29.6909 42.1885 29.7109C42.2367 29.731 42.2841 29.7534 42.3302 29.7781C42.3766 29.8026 42.4214 29.8297 42.4649 29.8586C42.5083 29.8878 42.5503 29.919 42.5909 29.9521C42.6313 29.9854 42.6701 30.0206 42.707 30.0576C42.744 30.0945 42.7792 30.1333 42.8122 30.1737C42.8456 30.2141 42.8768 30.2563 42.9057 30.2997C42.9349 30.3432 42.9617 30.388 42.9865 30.4341C43.0112 30.4805 43.0333 30.5276 43.0534 30.576C43.0734 30.6245 43.0912 30.6737 43.1063 30.7237C43.1216 30.7737 43.1341 30.8245 43.1445 30.8758C43.1547 30.9271 43.1622 30.9789 43.1675 31.031C43.1727 31.0831 43.1753 31.1354 43.1753 31.1878C43.1753 31.2401 43.1727 31.2922 43.1675 31.3443C43.1622 31.3964 43.1547 31.4482 43.1445 31.4995C43.1341 31.5508 43.1216 31.6016 43.1063 31.6516C43.0912 31.7018 43.0734 31.751 43.0534 31.7992C43.0333 31.8477 43.0112 31.8951 42.9865 31.9411C42.9617 31.9872 42.9349 32.032 42.9057 32.0755C42.8768 32.1193 42.8456 32.1612 42.8122 32.2016C42.7792 32.2422 42.744 32.2807 42.707 32.318C42.6701 32.3549 42.6313 32.3901 42.5909 32.4232C42.5503 32.4565 42.5083 32.4875 42.4649 32.5167C42.4214 32.5458 42.3766 32.5727 42.3302 32.5974C42.2841 32.6219 42.2367 32.6443 42.1885 32.6643C42.1401 32.6844 42.0909 32.7021 42.0409 32.7172C41.9906 32.7323 41.9401 32.7451 41.8885 32.7552C41.8372 32.7656 41.7857 32.7732 41.7336 32.7784C41.6815 32.7833 41.6292 32.7859 41.5768 32.7859C41.5245 32.7859 41.4721 32.7833 41.4201 32.7784C41.368 32.7732 41.3164 32.7656 41.2651 32.7552C41.2136 32.7451 41.163 32.7323 41.1128 32.7172C41.0628 32.7021 41.0135 32.6844 40.9651 32.6643C40.9169 32.6443 40.8695 32.6219 40.8234 32.5974C40.7771 32.5727 40.7323 32.5458 40.6888 32.5167C40.6453 32.4875 40.6034 32.4565 40.5628 32.4232C40.5224 32.3901 40.4836 32.3549 40.4466 32.318C40.4096 32.2807 40.3745 32.2422 40.3414 32.2016C40.3081 32.1612 40.2768 32.1193 40.2479 32.0755C40.2188 32.032 40.1919 31.9872 40.1672 31.9411C40.1425 31.8951 40.1203 31.8477 40.1003 31.7992C40.0802 31.751 40.0625 31.7018 40.0474 31.6516C40.032 31.6016 40.0195 31.5508 40.0091 31.4995C39.999 31.4482 39.9914 31.3964 39.9862 31.3443C39.981 31.2922 39.9784 31.2401 39.9784 31.1878C39.9787 31.1354 39.9813 31.0831 39.9865 31.031C39.9914 30.9789 39.9992 30.9273 40.0094 30.876C40.0198 30.8247 40.0326 30.774 40.0477 30.724C40.063 30.6737 40.0805 30.6245 40.1005 30.5763C40.1206 30.5279 40.143 30.4807 40.1677 30.4346C40.1925 30.3883 40.2193 30.3435 40.2484 30.3C40.2774 30.2565 40.3086 30.2146 40.3417 30.1742C40.375 30.1336 40.4102 30.0951 40.4471 30.0578C40.4841 30.0208 40.5229 29.9859 40.5633 29.9526C40.6037 29.9195 40.6458 29.8883 40.6893 29.8591C40.7328 29.8302 40.7776 29.8031 40.8237 29.7786C40.8698 29.7539 40.9172 29.7315 40.9654 29.7115C41.0138 29.6914 41.063 29.6737 41.113 29.6586C41.163 29.6432 41.2138 29.6305 41.2651 29.6203C41.3164 29.6102 41.3682 29.6023 41.4203 29.5971C41.4724 29.5919 41.5245 29.5893 41.5768 29.5893ZM31.9867 22.3969C32.0391 22.3969 32.0914 22.3995 32.1435 22.4044C32.1956 22.4096 32.2474 22.4174 32.2987 22.4276C32.35 22.4378 32.4008 22.4505 32.4508 22.4656C32.5008 22.4807 32.55 22.4984 32.5984 22.5185C32.6469 22.5385 32.694 22.5609 32.7404 22.5857C32.7865 22.6102 32.8313 22.6372 32.8747 22.6661C32.9182 22.6953 32.9604 22.7263 33.0008 22.7596C33.0412 22.793 33.08 22.8279 33.1169 22.8648C33.1539 22.9021 33.1891 22.9406 33.2224 22.9813C33.2555 23.0216 33.2867 23.0635 33.3159 23.1073C33.3448 23.1508 33.3719 23.1956 33.3964 23.2417C33.4211 23.2878 33.4435 23.3352 33.4636 23.3836C33.4836 23.4318 33.501 23.481 33.5164 23.5312C33.5315 23.5813 33.5443 23.632 33.5544 23.6833C33.5646 23.7346 33.5724 23.7865 33.5774 23.8385C33.5826 23.8906 33.5852 23.9427 33.5852 23.9951C33.5852 24.0474 33.5826 24.0997 33.5774 24.1518C33.5724 24.2039 33.5646 24.2557 33.5544 24.307C33.5443 24.3583 33.5315 24.4091 33.5164 24.4591C33.501 24.5091 33.4836 24.5583 33.4636 24.6068C33.4435 24.6552 33.4211 24.7023 33.3964 24.7487C33.3719 24.7948 33.3448 24.8396 33.3159 24.8831C33.2867 24.9266 33.2555 24.9688 33.2224 25.0091C33.1891 25.0495 33.1539 25.0883 33.1169 25.1253C33.08 25.1622 33.0412 25.1974 33.0008 25.2307C32.9604 25.2638 32.9182 25.2951 32.8747 25.3242C32.8313 25.3531 32.7865 25.3802 32.7404 25.4047C32.694 25.4294 32.6469 25.4518 32.5984 25.4719C32.55 25.4919 32.5008 25.5094 32.4508 25.5247C32.4008 25.5398 32.35 25.5526 32.2987 25.5628C32.2474 25.5729 32.1956 25.5807 32.1435 25.5857C32.0914 25.5909 32.0391 25.5935 31.9867 25.5935C31.9344 25.5935 31.8823 25.5909 31.8302 25.5857C31.7781 25.5807 31.7263 25.5729 31.675 25.5628C31.6237 25.5526 31.5729 25.5398 31.5229 25.5247C31.4727 25.5094 31.4234 25.4919 31.3753 25.4719C31.3268 25.4518 31.2794 25.4294 31.2333 25.4047C31.1872 25.3802 31.1425 25.3531 31.099 25.3242C31.0552 25.2951 31.0133 25.2638 30.9729 25.2307C30.9323 25.1974 30.8938 25.1622 30.8565 25.1253C30.8195 25.0883 30.7846 25.0495 30.7513 25.0091C30.718 24.9688 30.687 24.9266 30.6578 24.8831C30.6287 24.8396 30.6018 24.7948 30.5774 24.7487C30.5526 24.7023 30.5302 24.6552 30.5102 24.6068C30.4901 24.5583 30.4724 24.5091 30.4573 24.4591C30.4422 24.4091 30.4294 24.3583 30.4193 24.307C30.4091 24.2557 30.4013 24.2039 30.3961 24.1518C30.3912 24.0997 30.3885 24.0474 30.3885 23.9951C30.3885 23.9427 30.3912 23.8906 30.3964 23.8385C30.4016 23.7865 30.4091 23.7349 30.4195 23.6833C30.4297 23.632 30.4425 23.5815 30.4576 23.5312C30.4729 23.4812 30.4906 23.432 30.5107 23.3839C30.5307 23.3354 30.5531 23.2883 30.5776 23.2419C30.6024 23.1958 30.6292 23.151 30.6583 23.1076C30.6875 23.0641 30.7185 23.0221 30.7518 22.9815C30.7849 22.9411 30.8201 22.9023 30.857 22.8654C30.894 22.8284 30.9328 22.7932 30.9732 22.7602C31.0138 22.7268 31.0557 22.6958 31.0992 22.6667C31.1427 22.6375 31.1875 22.6107 31.2336 22.5859C31.28 22.5615 31.3271 22.5391 31.3755 22.519C31.4237 22.499 31.4729 22.4813 31.5229 22.4659C31.5732 22.4508 31.6237 22.438 31.675 22.4279C31.7266 22.4174 31.7781 22.4099 31.8302 22.4047C31.8823 22.3995 31.9344 22.3969 31.9867 22.3969Z" fill="#7AA500"/>
<path d="M2.41772 23.9951H16.4719L20.2333 27.7568C20.3083 27.8318 20.3948 27.8896 20.4927 27.9302C20.5906 27.9706 20.6925 27.9909 20.7984 27.9909H26.3927V35.9825C26.3927 36.0352 26.3977 36.087 26.4081 36.1385C26.4182 36.1901 26.4333 36.2401 26.4534 36.2885C26.4737 36.337 26.4982 36.3831 26.5274 36.4266C26.5565 36.4703 26.5896 36.5107 26.6268 36.5477C26.6638 36.5849 26.7042 36.618 26.7479 36.6471C26.7914 36.6763 26.8375 36.7008 26.8859 36.7211C26.9344 36.7411 26.9844 36.7562 27.0359 36.7664C27.0875 36.7768 27.1393 36.7818 27.1919 36.7818C27.2443 36.7818 27.2964 36.7768 27.3477 36.7664C27.3992 36.7562 27.4492 36.7411 27.4977 36.7211C27.5461 36.7008 27.5922 36.6763 27.6359 36.6471C27.6794 36.618 27.7198 36.5849 27.757 36.5477C27.794 36.5107 27.8271 36.4703 27.8563 36.4266C27.8854 36.3831 27.9102 36.337 27.9302 36.2885C27.9503 36.2401 27.9654 36.1901 27.9755 36.1385C27.9859 36.087 27.9909 36.0352 27.9909 35.9825V27.1919C27.9909 27.1393 27.9859 27.0875 27.9755 27.0359C27.9654 26.9844 27.9503 26.9344 27.9302 26.8859C27.9102 26.8375 27.8854 26.7914 27.8563 26.7479C27.8271 26.7042 27.794 26.6638 27.757 26.6268C27.7198 26.5896 27.6794 26.5565 27.6359 26.5273C27.5922 26.4982 27.5461 26.4737 27.4977 26.4534C27.4492 26.4333 27.3992 26.4182 27.3477 26.4081C27.2964 26.3977 27.2443 26.3927 27.1919 26.3927H21.1294L17.3677 22.631C17.2927 22.556 17.2063 22.4982 17.1086 22.4578C17.0107 22.4172 16.9086 22.3969 16.8026 22.3969H2.41772C2.36511 22.3969 2.31329 22.4018 2.26173 22.4122C2.21043 22.4224 2.16043 22.4375 2.11173 22.4576C2.06329 22.4779 2.0172 22.5023 1.97371 22.5315C1.92996 22.5607 1.88959 22.5937 1.85261 22.631C1.81537 22.668 1.7823 22.7083 1.75314 22.7521C1.72397 22.7956 1.69949 22.8417 1.67944 22.8901C1.65939 22.9385 1.64402 22.9885 1.63386 23.0401C1.62371 23.0917 1.6185 23.1435 1.6185 23.1961C1.6185 23.2484 1.62371 23.3005 1.63386 23.3518C1.64402 23.4034 1.65939 23.4534 1.67944 23.5018C1.69949 23.5503 1.72397 23.5964 1.75314 23.6401C1.7823 23.6836 1.81537 23.724 1.85261 23.7612C1.88959 23.7982 1.92996 23.8312 1.97371 23.8604C2.0172 23.8896 2.06329 23.9143 2.11173 23.9344C2.16043 23.9544 2.21043 23.9695 2.26173 23.9797C2.31329 23.9901 2.36511 23.9951 2.41772 23.9951Z" fill="#7AA500"/>
<path d="M45.5727 16.0034H33.1169L29.5893 12.476V2.41771C29.5893 2.3651 29.5841 2.31328 29.574 2.26172C29.5638 2.21042 29.5487 2.16042 29.5284 2.11172C29.5083 2.06328 29.4839 2.01719 29.4547 1.9737C29.4255 1.92995 29.3925 1.88958 29.3552 1.8526C29.3182 1.81536 29.2779 1.78229 29.2341 1.75312C29.1906 1.72396 29.1445 1.69948 29.0961 1.67943C29.0474 1.65937 28.9977 1.64401 28.9461 1.63385C28.8945 1.6237 28.8427 1.61849 28.7901 1.61849C28.7378 1.61849 28.6857 1.6237 28.6341 1.63385C28.5828 1.64401 28.5328 1.65937 28.4844 1.67943C28.4359 1.69948 28.3898 1.72396 28.3461 1.75312C28.3026 1.78229 28.2622 1.81536 28.225 1.8526C28.188 1.88958 28.155 1.92995 28.1258 1.9737C28.0966 2.01719 28.0719 2.06328 28.0518 2.11172C28.0318 2.16042 28.0167 2.21042 28.0063 2.26172C27.9961 2.31328 27.9909 2.3651 27.9909 2.41771V12.8068C27.9912 12.9128 28.0112 13.0148 28.0518 13.1125C28.0925 13.2104 28.1503 13.2969 28.2253 13.3719L32.2211 17.3677C32.2958 17.4427 32.3823 17.5003 32.4802 17.5409C32.5781 17.5815 32.68 17.6018 32.7859 17.6018H45.5727C45.6253 17.6018 45.6771 17.5966 45.7287 17.5865C45.78 17.5763 45.83 17.5612 45.8784 17.5409C45.9271 17.5208 45.9729 17.4964 46.0167 17.4672C46.0602 17.438 46.1005 17.4049 46.1378 17.3677C46.1747 17.3307 46.2081 17.2904 46.2372 17.2466C46.2664 17.2031 46.2909 17.157 46.3109 17.1086C46.331 17.0599 46.3464 17.0102 46.3565 16.9586C46.3667 16.907 46.3719 16.8552 46.3719 16.8026C46.3719 16.7503 46.3667 16.6982 46.3565 16.6469C46.3464 16.5953 46.331 16.5453 46.3109 16.4969C46.2909 16.4484 46.2664 16.4023 46.2372 16.3586C46.2081 16.3151 46.1747 16.2747 46.1378 16.2375C46.1005 16.2005 46.0602 16.1674 46.0167 16.1383C45.9729 16.1091 45.9271 16.0844 45.8784 16.0643C45.83 16.0443 45.78 16.0292 45.7287 16.0188C45.6771 16.0086 45.6253 16.0034 45.5727 16.0034Z" fill="#7AA500"/>
<path d="M45.5727 12.8068H34.7151L32.7859 10.8776V2.41771C32.7859 2.3651 32.781 2.31328 32.7706 2.26172C32.7604 2.21042 32.7453 2.16042 32.7253 2.11172C32.7049 2.06328 32.6805 2.01719 32.6513 1.9737C32.6221 1.92995 32.5891 1.88958 32.5518 1.8526C32.5148 1.81536 32.4745 1.78229 32.4307 1.75312C32.3872 1.72396 32.3411 1.69948 32.2927 1.67943C32.2443 1.65937 32.1943 1.64401 32.1427 1.63385C32.0911 1.6237 32.0393 1.61849 31.9867 1.61849C31.9344 1.61849 31.8823 1.6237 31.831 1.63385C31.7794 1.64401 31.7294 1.65937 31.681 1.67943C31.6326 1.69948 31.5865 1.72396 31.5427 1.75312C31.4992 1.78229 31.4589 1.81536 31.4216 1.8526C31.3846 1.88958 31.3516 1.92995 31.3224 1.9737C31.2932 2.01719 31.2685 2.06328 31.2484 2.11172C31.2284 2.16042 31.2133 2.21042 31.2031 2.26172C31.1927 2.31328 31.1878 2.3651 31.1878 2.41771V11.2086C31.1878 11.3146 31.2081 11.4164 31.2484 11.5143C31.2891 11.6122 31.3469 11.6987 31.4219 11.7734L33.8193 14.1711C33.8943 14.2458 33.9807 14.3036 34.0786 14.3443C34.1763 14.3849 34.2784 14.4052 34.3844 14.4052H45.5727C45.6253 14.4052 45.6771 14.4 45.7286 14.3898C45.7799 14.3797 45.8299 14.3643 45.8784 14.3443C45.9271 14.3242 45.9729 14.2997 46.0167 14.2706C46.0602 14.2414 46.1005 14.2081 46.1378 14.1711C46.1747 14.1341 46.2081 14.0935 46.2372 14.05C46.2664 14.0062 46.2909 13.9604 46.3109 13.9117C46.331 13.8633 46.3464 13.8133 46.3565 13.762C46.3667 13.7104 46.3719 13.6586 46.3719 13.606C46.3719 13.5536 46.3667 13.5016 46.3565 13.45C46.3464 13.3987 46.331 13.3487 46.3109 13.3003C46.2909 13.2516 46.2664 13.2057 46.2372 13.162C46.2081 13.1185 46.1747 13.0781 46.1378 13.0409C46.1005 13.0039 46.0602 12.9706 46.0167 12.9414C45.9729 12.9122 45.9271 12.8878 45.8784 12.8677C45.8299 12.8477 45.7799 12.8326 45.7286 12.8221C45.6771 12.812 45.6253 12.8068 45.5727 12.8068Z" fill="#7AA500"/>
<path d="M2.41772 39.1794H7.21277C7.28178 39.1794 7.34949 39.1706 7.41616 39.1529C7.48308 39.1354 7.54636 39.1096 7.60626 39.0758C7.66642 39.0417 7.7211 39.0005 7.77058 38.9523C7.82006 38.9042 7.86251 38.8505 7.89793 38.7914L10.0628 35.1836H12.1211C12.1372 35.2456 12.155 35.3073 12.1747 35.3682C12.1945 35.4292 12.2162 35.4896 12.2396 35.5495C12.2628 35.6091 12.288 35.6682 12.3149 35.7263C12.3419 35.7846 12.3706 35.8419 12.4011 35.8984C12.4313 35.9549 12.4633 36.0104 12.4971 36.0651C12.5307 36.1195 12.5662 36.1732 12.6031 36.2255C12.6401 36.2779 12.6787 36.3292 12.7185 36.3794C12.7586 36.4294 12.8003 36.4784 12.8432 36.526C12.8862 36.5737 12.9305 36.6198 12.9763 36.6648C13.0221 36.7099 13.069 36.7534 13.1175 36.7956C13.1659 36.8375 13.2154 36.8781 13.2664 36.9174C13.3172 36.9565 13.369 36.994 13.4221 37.0299C13.4753 37.0661 13.5294 37.1005 13.5846 37.1331C13.6399 37.1659 13.6958 37.1969 13.7529 37.2263C13.8099 37.2557 13.8677 37.2833 13.9266 37.3091C13.9852 37.3352 14.0445 37.3591 14.1047 37.3815C14.1649 37.4039 14.2255 37.4242 14.287 37.443C14.3484 37.4617 14.4104 37.4784 14.4727 37.4932C14.5352 37.5083 14.5979 37.5214 14.6609 37.5323C14.7242 37.5435 14.7878 37.5529 14.8513 37.5602C14.9151 37.5674 14.9789 37.5729 15.043 37.5763C15.107 37.5797 15.1714 37.5812 15.2354 37.581C15.2995 37.5805 15.3636 37.5781 15.4276 37.574C15.4917 37.5698 15.5555 37.5635 15.619 37.5555C15.6828 37.5474 15.7461 37.5375 15.8091 37.5255C15.8721 37.5135 15.9349 37.5 15.9969 37.4841C16.0591 37.4685 16.1208 37.451 16.182 37.4315C16.2432 37.4122 16.3037 37.3911 16.3636 37.368C16.4234 37.345 16.4826 37.3203 16.5409 37.2937C16.5992 37.2669 16.6568 37.2388 16.7136 37.2086C16.7703 37.1786 16.8261 37.1469 16.8807 37.1135C16.9354 37.0802 16.9893 37.045 17.0419 37.0083C17.0945 36.9719 17.1461 36.9336 17.1964 36.894C17.2469 36.8542 17.2958 36.813 17.3438 36.7703C17.3917 36.7276 17.4383 36.6833 17.4833 36.638C17.5287 36.5924 17.5724 36.5456 17.6149 36.4974C17.6573 36.4495 17.6982 36.4 17.7378 36.3495C17.7771 36.2987 17.8149 36.2471 17.8513 36.1943C17.8875 36.1414 17.9224 36.0875 17.9555 36.0325C17.9886 35.9773 18.0198 35.9216 18.0495 35.8646C18.0792 35.8078 18.1073 35.7503 18.1333 35.6917C18.1596 35.6331 18.1841 35.5737 18.2068 35.5138C18.2294 35.4536 18.2503 35.3932 18.2693 35.3318C18.2883 35.2706 18.3055 35.2089 18.3208 35.1466C18.3362 35.0841 18.3495 35.0216 18.3609 34.9583C18.3724 34.8953 18.382 34.8318 18.3899 34.7682C18.3977 34.7044 18.4034 34.6406 18.4073 34.5766C18.4109 34.5125 18.413 34.4484 18.413 34.3844C18.413 34.32 18.4109 34.256 18.4073 34.1919C18.4034 34.1281 18.3977 34.0641 18.3899 34.0005C18.382 33.9367 18.3724 33.8734 18.3609 33.8102C18.3495 33.7471 18.3362 33.6844 18.3208 33.6221C18.3055 33.5599 18.2883 33.4982 18.2693 33.4367C18.2503 33.3755 18.2294 33.3148 18.2068 33.2549C18.1841 33.1948 18.1596 33.1357 18.1333 33.0771C18.1073 33.0185 18.0792 32.9609 18.0495 32.9039C18.0198 32.8471 17.9886 32.7911 17.9555 32.7362C17.9224 32.6812 17.8875 32.6273 17.8513 32.5745C17.8149 32.5216 17.7771 32.4698 17.7378 32.4193C17.6982 32.3687 17.6573 32.3193 17.6149 32.2711C17.5724 32.2229 17.5287 32.1763 17.4833 32.1307C17.4383 32.0852 17.3917 32.0411 17.3438 31.9984C17.2958 31.9557 17.2469 31.9146 17.1964 31.8747C17.1461 31.8352 17.0945 31.7969 17.0419 31.7602C16.9893 31.7237 16.9354 31.6885 16.8807 31.6552C16.8261 31.6219 16.7703 31.5901 16.7136 31.5599C16.6568 31.5299 16.5992 31.5016 16.5409 31.475C16.4826 31.4484 16.4234 31.4237 16.3636 31.4005C16.3037 31.3776 16.2432 31.3565 16.182 31.337C16.1208 31.3177 16.0591 31.3 15.9969 31.2844C15.9349 31.2687 15.8721 31.2549 15.8091 31.2432C15.7461 31.2312 15.6828 31.2211 15.619 31.213C15.5555 31.2049 15.4917 31.199 15.4276 31.1945C15.3636 31.1904 15.2995 31.188 15.2354 31.1878C15.1714 31.1872 15.107 31.1888 15.043 31.1924C14.9789 31.1958 14.9151 31.2013 14.8513 31.2086C14.7878 31.2159 14.7242 31.225 14.6609 31.2362C14.5979 31.2474 14.5352 31.2604 14.4727 31.2753C14.4104 31.2904 14.3484 31.307 14.287 31.3258C14.2255 31.3443 14.1649 31.3648 14.1047 31.3872C14.0445 31.4094 13.9852 31.4336 13.9266 31.4594C13.8677 31.4854 13.8099 31.513 13.7529 31.5422C13.6958 31.5716 13.6399 31.6029 13.5846 31.6354C13.5294 31.6682 13.4753 31.7026 13.4221 31.7385C13.369 31.7745 13.3172 31.8122 13.2664 31.8513C13.2154 31.8904 13.1659 31.931 13.1175 31.9732C13.069 32.0154 13.0221 32.0589 12.9763 32.1039C12.9305 32.1487 12.8862 32.195 12.8432 32.2427C12.8003 32.2904 12.7586 32.3391 12.7185 32.3893C12.6787 32.4393 12.6401 32.4906 12.6031 32.5432C12.5662 32.5956 12.5307 32.649 12.4971 32.7036C12.4633 32.7583 12.4313 32.8138 12.4011 32.8703C12.3706 32.9268 12.3419 32.9841 12.3149 33.0424C12.288 33.1005 12.2628 33.1596 12.2396 33.2193C12.2162 33.2789 12.1945 33.3393 12.1747 33.4005C12.155 33.4615 12.1372 33.5232 12.1211 33.5852H9.61017C9.54116 33.5852 9.47345 33.594 9.40652 33.6115C9.33985 33.6292 9.27657 33.6549 9.21642 33.6888C9.15652 33.7229 9.10157 33.7638 9.05235 33.812C9.00287 33.8602 8.96043 33.9138 8.92501 33.9729L6.75991 37.581H2.41772C2.36511 37.581 2.31329 37.5862 2.26173 37.5964C2.21043 37.6065 2.16043 37.6219 2.11173 37.6419C2.06329 37.662 2.0172 37.6865 1.97371 37.7156C1.92996 37.7448 1.88959 37.7779 1.85261 37.8151C1.81537 37.8521 1.7823 37.8924 1.75314 37.9362C1.72397 37.9797 1.69949 38.0258 1.67944 38.0742C1.65939 38.1229 1.64402 38.1727 1.63386 38.2242C1.62371 38.2758 1.6185 38.3276 1.6185 38.3802C1.6185 38.4325 1.62371 38.4846 1.63386 38.5362C1.64402 38.5875 1.65939 38.6375 1.67944 38.6859C1.69949 38.7344 1.72397 38.7805 1.75314 38.8242C1.7823 38.8677 1.81537 38.9081 1.85261 38.9453C1.88959 38.9823 1.92996 39.0154 1.97371 39.0445C2.0172 39.0737 2.06329 39.0984 2.11173 39.1185C2.16043 39.1385 2.21043 39.1536 2.26173 39.1641C2.31329 39.1742 2.36511 39.1794 2.41772 39.1794ZM15.2044 32.7859C15.2568 32.7859 15.3089 32.7885 15.3609 32.7937C15.413 32.7987 15.4649 32.8065 15.5162 32.8167C15.5675 32.8268 15.6182 32.8396 15.6682 32.8547C15.7185 32.87 15.7677 32.8875 15.8159 32.9075C15.8643 32.9276 15.9117 32.95 15.9578 32.9747C16.0039 32.9995 16.0487 33.0263 16.0922 33.0555C16.1359 33.0844 16.1779 33.1156 16.2182 33.1487C16.2589 33.182 16.2974 33.2172 16.3346 33.2542C16.3716 33.2911 16.4068 33.3299 16.4399 33.3703C16.4732 33.4109 16.5042 33.4529 16.5333 33.4964C16.5625 33.5398 16.5893 33.5846 16.6138 33.631C16.6386 33.6771 16.6609 33.7242 16.681 33.7727C16.7011 33.8211 16.7188 33.8703 16.7339 33.9203C16.749 33.9706 16.7617 34.0211 16.7719 34.0724C16.782 34.124 16.7899 34.1755 16.7951 34.2276C16.8 34.2797 16.8026 34.332 16.8026 34.3844C16.8026 34.4367 16.8 34.4888 16.7951 34.5409C16.7899 34.593 16.782 34.6448 16.7719 34.6961C16.7617 34.7474 16.749 34.7982 16.7339 34.8482C16.7188 34.8984 16.7011 34.9477 16.681 34.9961C16.6609 35.0443 16.6386 35.0917 16.6138 35.1378C16.5893 35.1839 16.5625 35.2289 16.5333 35.2724C16.5042 35.3159 16.4732 35.3578 16.4399 35.3982C16.4068 35.4388 16.3716 35.4776 16.3346 35.5146C16.2974 35.5516 16.2589 35.5867 16.2182 35.6198C16.1779 35.6531 16.1359 35.6841 16.0922 35.7133C16.0487 35.7424 16.0039 35.7693 15.9578 35.794C15.9117 35.8185 15.8643 35.8409 15.8159 35.8609C15.7677 35.881 15.7185 35.8987 15.6682 35.9138C15.6182 35.9289 15.5675 35.9417 15.5162 35.9518C15.4649 35.9622 15.413 35.9698 15.3609 35.975C15.3089 35.9802 15.2568 35.9825 15.2044 35.9825C15.1521 35.9825 15.0997 35.9802 15.0477 35.975C14.9956 35.9698 14.9438 35.9622 14.8925 35.9518C14.8412 35.9417 14.7904 35.9289 14.7404 35.9138C14.6904 35.8987 14.6412 35.881 14.5927 35.8609C14.5443 35.8409 14.4971 35.8185 14.4508 35.794C14.4047 35.7693 14.3599 35.7424 14.3164 35.7133C14.2729 35.6841 14.2307 35.6531 14.1904 35.6198C14.15 35.5867 14.1112 35.5516 14.0742 35.5146C14.0372 35.4776 14.0021 35.4388 13.9688 35.3982C13.9357 35.3578 13.9044 35.3159 13.8753 35.2724C13.8464 35.2289 13.8193 35.1839 13.7948 35.1378C13.7701 35.0917 13.7477 35.0443 13.7276 34.9961C13.7076 34.9477 13.6901 34.8984 13.6747 34.8482C13.6596 34.7982 13.6469 34.7474 13.6367 34.6961C13.6266 34.6448 13.6188 34.593 13.6138 34.5409C13.6086 34.4888 13.606 34.4367 13.606 34.3844C13.606 34.332 13.6086 34.2797 13.6138 34.2276C13.619 34.1755 13.6268 34.124 13.637 34.0727C13.6471 34.0214 13.6599 33.9706 13.6753 33.9206C13.6904 33.8706 13.7081 33.8214 13.7281 33.7729C13.7482 33.7245 13.7706 33.6773 13.7953 33.6312C13.8198 33.5852 13.8469 33.5401 13.8758 33.4966C13.905 33.4531 13.9362 33.4112 13.9693 33.3708C14.0026 33.3302 14.0375 33.2917 14.0745 33.2547C14.1117 33.2177 14.1503 33.1825 14.1909 33.1492C14.2313 33.1161 14.2732 33.0849 14.3167 33.0557C14.3602 33.0268 14.405 33 14.4513 32.9753C14.4974 32.9505 14.5445 32.9281 14.593 32.9081C14.6412 32.888 14.6904 32.8703 14.7406 32.8552C14.7906 32.8398 14.8414 32.8273 14.8927 32.8169C14.944 32.8068 14.9956 32.799 15.0477 32.7937C15.0997 32.7885 15.1521 32.7859 15.2044 32.7859Z" fill="#7AA500"/>
<path d="M2.41772 42.376H12.8068C12.8594 42.376 12.9112 42.3708 12.9628 42.3607C13.0143 42.3505 13.0641 42.3352 13.1128 42.3151C13.1612 42.2951 13.2073 42.2706 13.2508 42.2414C13.2945 42.2122 13.3349 42.1789 13.3719 42.1419C13.4091 42.1047 13.4422 42.0643 13.4714 42.0208C13.5005 41.9771 13.525 41.9312 13.5451 41.8826C13.5654 41.8341 13.5805 41.7841 13.5906 41.7328C13.6008 41.6812 13.606 41.6294 13.606 41.5768C13.606 41.5245 13.6008 41.4724 13.5906 41.4208C13.5805 41.3695 13.5654 41.3195 13.5451 41.2711C13.525 41.2224 13.5005 41.1766 13.4714 41.1328C13.4422 41.0893 13.4091 41.049 13.3719 41.0117C13.3349 40.9747 13.2945 40.9414 13.2508 40.9122C13.2073 40.8831 13.1612 40.8586 13.1128 40.8385C13.0641 40.8185 13.0143 40.8031 12.9628 40.793C12.9112 40.7828 12.8594 40.7776 12.8068 40.7776H2.41772C2.36511 40.7776 2.31329 40.7828 2.26173 40.793C2.21043 40.8031 2.16043 40.8185 2.11173 40.8385C2.06329 40.8586 2.0172 40.8831 1.97371 40.9122C1.92996 40.9414 1.88959 40.9747 1.85261 41.0117C1.81537 41.049 1.7823 41.0893 1.75314 41.1328C1.72397 41.1766 1.69949 41.2224 1.67944 41.2711C1.65939 41.3195 1.64402 41.3695 1.63386 41.4208C1.62371 41.4724 1.6185 41.5245 1.6185 41.5768C1.6185 41.6294 1.62371 41.6812 1.63386 41.7328C1.64402 41.7841 1.65939 41.8341 1.67944 41.8826C1.69949 41.9312 1.72397 41.9771 1.75314 42.0208C1.7823 42.0643 1.81537 42.1047 1.85261 42.1419C1.88959 42.1789 1.92996 42.2122 1.97371 42.2414C2.0172 42.2706 2.06329 42.2951 2.11173 42.3151C2.16043 42.3352 2.21043 42.3505 2.26173 42.3607C2.31329 42.3708 2.36511 42.376 2.41772 42.376Z" fill="#7AA500"/>
<path d="M23.1961 2.41771V12.9203C23.1338 12.9365 23.0724 12.9542 23.0112 12.974C22.9503 12.9938 22.8898 13.0154 22.8302 13.0388C22.7703 13.062 22.7114 13.0872 22.6531 13.1141C22.595 13.1411 22.5375 13.1698 22.481 13.2C22.4245 13.2305 22.369 13.2625 22.3146 13.2964C22.2599 13.3299 22.2065 13.3654 22.1539 13.4023C22.1016 13.4393 22.0503 13.4779 22 13.5177C21.95 13.5578 21.901 13.5992 21.8534 13.6422C21.806 13.6852 21.7596 13.7297 21.7146 13.7755C21.6698 13.8211 21.626 13.8682 21.5841 13.9167C21.5419 13.9651 21.5013 14.0146 21.4622 14.0654C21.4229 14.1164 21.3854 14.1682 21.3495 14.2214C21.3135 14.2745 21.2792 14.3286 21.2463 14.3839C21.2135 14.4388 21.1825 14.4951 21.1531 14.5521C21.1237 14.6091 21.0961 14.6669 21.0703 14.7255C21.0443 14.7844 21.0203 14.8438 20.9979 14.9039C20.9758 14.9641 20.9552 15.0247 20.9364 15.0862C20.918 15.1477 20.901 15.2094 20.8862 15.2719C20.8713 15.3341 20.8583 15.3971 20.8471 15.4602C20.8359 15.5234 20.8268 15.5867 20.8193 15.6505C20.812 15.7143 20.8068 15.7781 20.8031 15.8422C20.7997 15.9062 20.7982 15.9703 20.7984 16.0346C20.7989 16.0987 20.8013 16.1628 20.8055 16.2268C20.8096 16.2909 20.8159 16.3547 20.8239 16.4182C20.832 16.482 20.8419 16.5453 20.8539 16.6083C20.8659 16.6714 20.8797 16.7339 20.8953 16.7961C20.9109 16.8583 20.9284 16.9201 20.9479 16.9813C20.9672 17.0424 20.9885 17.1029 21.0114 17.1628C21.0344 17.2227 21.0594 17.2818 21.0859 17.3401C21.1125 17.3984 21.1409 17.456 21.1708 17.5128C21.2008 17.5695 21.2325 17.625 21.2659 17.6799C21.2995 17.7346 21.3344 17.7883 21.3711 17.8411C21.4075 17.8938 21.4458 17.9453 21.4857 17.9956C21.5253 18.0458 21.5667 18.0951 21.6094 18.143C21.6518 18.1909 21.6961 18.2372 21.7414 18.2826C21.787 18.3279 21.8338 18.3716 21.882 18.4141C21.9302 18.4565 21.9794 18.4974 22.0299 18.5367C22.0807 18.5763 22.1323 18.6141 22.1854 18.6505C22.2383 18.6867 22.2922 18.7214 22.3471 18.7544C22.4021 18.7875 22.4578 18.819 22.5148 18.8487C22.5716 18.8784 22.6294 18.9065 22.688 18.9326C22.7463 18.9589 22.8057 18.9833 22.8656 19.006C22.9258 19.0286 22.9864 19.0495 23.0476 19.0685C23.1088 19.0875 23.1706 19.1047 23.2331 19.1201C23.2953 19.1352 23.3581 19.1487 23.4211 19.1602C23.4841 19.1716 23.5476 19.1813 23.6112 19.1891C23.675 19.1966 23.7388 19.2026 23.8029 19.2063C23.8669 19.2102 23.931 19.2122 23.995 19.2122C24.0594 19.2122 24.1234 19.2102 24.1875 19.2063C24.2516 19.2026 24.3154 19.1966 24.3789 19.1891C24.4427 19.1813 24.506 19.1716 24.5693 19.1602C24.6323 19.1487 24.695 19.1352 24.7573 19.1201C24.8195 19.1047 24.8815 19.0875 24.9427 19.0685C25.0039 19.0495 25.0646 19.0286 25.1245 19.006C25.1846 18.9833 25.244 18.9589 25.3023 18.9326C25.3609 18.9065 25.4187 18.8784 25.4755 18.8487C25.5323 18.819 25.5883 18.7875 25.6432 18.7544C25.6982 18.7214 25.7521 18.6867 25.8049 18.6505C25.8578 18.6141 25.9096 18.5763 25.9601 18.5367C26.0109 18.4974 26.0601 18.4565 26.1083 18.4141C26.1565 18.3716 26.2034 18.3279 26.2487 18.2826C26.2943 18.2372 26.3383 18.1909 26.381 18.143C26.4237 18.0951 26.4651 18.0458 26.5047 17.9956C26.5445 17.9453 26.5825 17.8938 26.6193 17.8411C26.656 17.7883 26.6909 17.7346 26.7242 17.6799C26.7578 17.625 26.7896 17.5695 26.8195 17.5128C26.8495 17.456 26.8779 17.3984 26.9044 17.3401C26.931 17.2818 26.9557 17.2227 26.9789 17.1628C27.0018 17.1029 27.0232 17.0424 27.0424 16.9813C27.0617 16.9201 27.0794 16.8583 27.095 16.7961C27.1107 16.7339 27.1245 16.6714 27.1364 16.6083C27.1482 16.5453 27.1583 16.482 27.1664 16.4182C27.1745 16.3547 27.1805 16.2909 27.1849 16.2268C27.1891 16.1628 27.1914 16.0987 27.1917 16.0346C27.1922 15.9703 27.1906 15.9062 27.1872 15.8422C27.1836 15.7781 27.1781 15.7143 27.1708 15.6505C27.1635 15.5867 27.1544 15.5234 27.1432 15.4602C27.132 15.3971 27.119 15.3341 27.1042 15.2719C27.0893 15.2094 27.0724 15.1477 27.0536 15.0862C27.0351 15.0247 27.0146 14.9641 26.9924 14.9039C26.97 14.8438 26.9458 14.7844 26.92 14.7255C26.8943 14.6669 26.8667 14.6091 26.8372 14.5521C26.8078 14.4951 26.7768 14.4388 26.744 14.3839C26.7112 14.3286 26.6768 14.2745 26.6409 14.2214C26.6049 14.1682 26.5672 14.1164 26.5281 14.0654C26.4891 14.0146 26.4484 13.9651 26.4062 13.9167C26.3641 13.8682 26.3206 13.8211 26.2758 13.7755C26.2307 13.7297 26.1844 13.6852 26.1367 13.6422C26.0893 13.5992 26.0404 13.5578 25.9901 13.5177C25.9401 13.4779 25.8888 13.4393 25.8365 13.4023C25.7838 13.3654 25.7305 13.3299 25.6758 13.2964C25.6213 13.2625 25.5656 13.2305 25.5091 13.2C25.4529 13.1698 25.3953 13.1411 25.3372 13.1141C25.2789 13.0872 25.22 13.062 25.1601 13.0388C25.1005 13.0154 25.0401 12.9938 24.9792 12.974C24.918 12.9542 24.8565 12.9365 24.7943 12.9203V2.41771C24.7943 2.3651 24.7893 2.31328 24.7789 2.26172C24.7687 2.21042 24.7536 2.16042 24.7336 2.11172C24.7133 2.06328 24.6888 2.01719 24.6596 1.9737C24.6305 1.92995 24.5974 1.88958 24.5601 1.8526C24.5232 1.81536 24.4828 1.78229 24.4391 1.75312C24.3956 1.72396 24.3495 1.69948 24.301 1.67943C24.2526 1.65937 24.2026 1.64401 24.151 1.63385C24.0995 1.6237 24.0476 1.61849 23.995 1.61849C23.9427 1.61849 23.8906 1.6237 23.8393 1.63385C23.7878 1.64401 23.7378 1.65937 23.6893 1.67943C23.6409 1.69948 23.5948 1.72396 23.551 1.75312C23.5075 1.78229 23.4672 1.81536 23.4299 1.8526C23.393 1.88958 23.3599 1.92995 23.3307 1.9737C23.3016 2.01719 23.2768 2.06328 23.2568 2.11172C23.2367 2.16042 23.2216 2.21042 23.2114 2.26172C23.201 2.31328 23.1961 2.3651 23.1961 2.41771ZM25.5935 16.0034C25.5935 16.0557 25.5909 16.1081 25.5857 16.1602C25.5807 16.2122 25.5729 16.2641 25.5628 16.3154C25.5526 16.3667 25.5398 16.4174 25.5247 16.4674C25.5094 16.5174 25.4919 16.5667 25.4719 16.6151C25.4518 16.6635 25.4294 16.7107 25.4047 16.757C25.3802 16.8031 25.3531 16.8479 25.3242 16.8914C25.295 16.9349 25.2638 16.9771 25.2307 17.0174C25.1974 17.0578 25.1622 17.0966 25.1253 17.1336C25.0883 17.1708 25.0495 17.2057 25.0091 17.2391C24.9687 17.2721 24.9266 17.3034 24.8831 17.3326C24.8396 17.3615 24.7948 17.3885 24.7487 17.413C24.7023 17.4378 24.6552 17.4602 24.6068 17.4802C24.5583 17.5003 24.5091 17.5177 24.4591 17.5331C24.4091 17.5482 24.3583 17.5609 24.307 17.5711C24.2557 17.5813 24.2039 17.5891 24.1518 17.594C24.0997 17.5992 24.0474 17.6018 23.995 17.6018C23.9427 17.6018 23.8906 17.5992 23.8385 17.594C23.7864 17.5891 23.7346 17.5813 23.6833 17.5711C23.632 17.5609 23.5812 17.5482 23.5312 17.5331C23.481 17.5177 23.4318 17.5003 23.3836 17.4802C23.3351 17.4602 23.2878 17.4378 23.2417 17.413C23.1956 17.3885 23.1508 17.3615 23.1073 17.3326C23.0635 17.3034 23.0216 17.2721 22.9812 17.2391C22.9406 17.2057 22.9021 17.1708 22.8648 17.1336C22.8279 17.0966 22.793 17.0578 22.7596 17.0174C22.7263 16.9771 22.6953 16.9349 22.6661 16.8914C22.6372 16.8479 22.6101 16.8031 22.5857 16.757C22.5609 16.7107 22.5385 16.6635 22.5185 16.6151C22.4984 16.5667 22.4807 16.5174 22.4656 16.4674C22.4505 16.4174 22.4378 16.3667 22.4276 16.3154C22.4174 16.2641 22.4096 16.2122 22.4044 16.1602C22.3995 16.1081 22.3969 16.0557 22.3969 16.0034C22.3969 15.951 22.3995 15.899 22.4044 15.8469C22.4096 15.7948 22.4174 15.743 22.4276 15.6917C22.4378 15.6404 22.4505 15.5896 22.4656 15.5396C22.4807 15.4893 22.4984 15.4401 22.5185 15.3919C22.5385 15.3435 22.5609 15.2961 22.5857 15.25C22.6101 15.2039 22.6372 15.1591 22.6661 15.1156C22.6953 15.0719 22.7263 15.0299 22.7596 14.9896C22.793 14.949 22.8279 14.9104 22.8648 14.8732C22.9021 14.8362 22.9406 14.8013 22.9812 14.768C23.0216 14.7346 23.0635 14.7036 23.1073 14.6745C23.1508 14.6456 23.1956 14.6185 23.2417 14.594C23.2878 14.5693 23.3351 14.5469 23.3836 14.5268C23.4318 14.5068 23.481 14.4891 23.5312 14.474C23.5812 14.4589 23.632 14.4461 23.6833 14.4359C23.7346 14.4258 23.7864 14.418 23.8385 14.4128C23.8906 14.4078 23.9427 14.4052 23.995 14.4052C24.0474 14.4052 24.0997 14.4078 24.1518 14.413C24.2039 14.4182 24.2555 14.4258 24.3068 14.4362C24.3581 14.4464 24.4088 14.4591 24.4588 14.4742C24.5091 14.4896 24.5583 14.5073 24.6065 14.5273C24.6549 14.5474 24.7021 14.5698 24.7482 14.5943C24.7945 14.619 24.8393 14.6458 24.8828 14.675C24.9263 14.7042 24.9682 14.7352 25.0086 14.7685C25.0492 14.8016 25.0878 14.8367 25.125 14.8737C25.162 14.9107 25.1969 14.9495 25.2302 14.9898C25.2633 15.0305 25.2945 15.0724 25.3237 15.1159C25.3526 15.1594 25.3797 15.2042 25.4042 15.2503C25.4289 15.2966 25.4513 15.3438 25.4713 15.3922C25.4914 15.4404 25.5091 15.4896 25.5242 15.5396C25.5396 15.5898 25.5523 15.6404 25.5625 15.6917C25.5726 15.7432 25.5805 15.7948 25.5857 15.8469C25.5909 15.899 25.5935 15.951 25.5935 16.0034Z" fill="#7AA500"/>
<path d="M45.5727 36.7818H35.9826C35.8766 36.7818 35.7747 36.8021 35.6768 36.8427C35.5789 36.8833 35.4925 36.9411 35.4177 37.0159L31.656 40.7776H25.48C25.4443 40.6409 25.3998 40.507 25.3464 40.3763C25.293 40.2456 25.2313 40.1188 25.1609 39.9961C25.0906 39.8734 25.0128 39.756 24.9268 39.6438C24.8409 39.5315 24.7482 39.4255 24.6482 39.3255C24.5482 39.2255 24.4422 39.1326 24.33 39.0469C24.2177 38.9609 24.1003 38.8828 23.9776 38.8128C23.855 38.7424 23.7281 38.6807 23.5974 38.6273C23.4667 38.5737 23.3328 38.5292 23.1961 38.4938V30.3885C23.1961 30.3359 23.1909 30.2841 23.1807 30.2326C23.1703 30.181 23.1552 30.1313 23.1352 30.0826C23.1151 30.0341 23.0904 29.988 23.0612 29.9445C23.032 29.9008 22.999 29.8604 22.962 29.8234C22.9248 29.7862 22.8844 29.7531 22.8409 29.724C22.7971 29.6948 22.7511 29.6703 22.7026 29.6503C22.6542 29.6302 22.6042 29.6148 22.5526 29.6047C22.5013 29.5945 22.4492 29.5893 22.3969 29.5893H19.531L15.7693 25.8276C15.6945 25.7526 15.6081 25.6951 15.5102 25.6544C15.4123 25.6138 15.3104 25.5935 15.2044 25.5935H2.41772C2.36511 25.5935 2.31329 25.5987 2.26173 25.6089C2.21043 25.619 2.16043 25.6344 2.11173 25.6544C2.06329 25.6745 2.0172 25.699 1.97371 25.7281C1.92996 25.7573 1.88959 25.7904 1.85261 25.8276C1.81537 25.8646 1.7823 25.9049 1.75314 25.9487C1.72397 25.9922 1.69949 26.0383 1.67944 26.0867C1.65939 26.1354 1.64402 26.1852 1.63386 26.2367C1.62371 26.2883 1.6185 26.3401 1.6185 26.3927C1.6185 26.4451 1.62371 26.4971 1.63386 26.5487C1.64402 26.6 1.65939 26.65 1.67944 26.6984C1.69949 26.7469 1.72397 26.793 1.75314 26.8367C1.7823 26.8802 1.81537 26.9206 1.85261 26.9578C1.88959 26.9948 1.92996 27.0279 1.97371 27.057C2.0172 27.0862 2.06329 27.1109 2.11173 27.131C2.16043 27.151 2.21043 27.1661 2.26173 27.1766C2.31329 27.1867 2.36511 27.1919 2.41772 27.1919H14.8734L18.6352 30.9534C18.7102 31.0284 18.7964 31.0862 18.8943 31.1268C18.9922 31.1674 19.0943 31.1878 19.2003 31.1878H21.5977V38.4938C21.5073 38.5169 21.418 38.544 21.33 38.575C21.2419 38.606 21.1555 38.6409 21.0706 38.6794C20.9857 38.718 20.9024 38.7602 20.8211 38.8063C20.7399 38.8521 20.6609 38.9013 20.5839 38.9542C20.507 39.007 20.4326 39.0633 20.3604 39.1227C20.2886 39.182 20.2193 39.2443 20.1529 39.3099C20.0862 39.3753 20.0227 39.4435 19.9623 39.5146C19.9016 39.5857 19.8443 39.6591 19.7904 39.7352C19.7362 39.8112 19.6854 39.8896 19.6383 39.9701C19.5912 40.0505 19.5477 40.1331 19.5076 40.2175C19.4677 40.3016 19.4315 40.3875 19.399 40.475C19.3664 40.5625 19.338 40.6513 19.3133 40.7414C19.2888 40.8315 19.268 40.9224 19.2513 41.0141C19.2346 41.106 19.2221 41.1984 19.2136 41.2914C19.205 41.3841 19.2005 41.4773 19.2003 41.5706C19.1998 41.6641 19.2037 41.7573 19.2115 41.8503C19.2193 41.9432 19.231 42.0357 19.2469 42.1276C19.2628 42.2195 19.2828 42.3107 19.3068 42.4008C19.3305 42.4911 19.3583 42.5802 19.3901 42.668C19.4219 42.7557 19.4573 42.8419 19.4966 42.9266C19.5359 43.0112 19.5789 43.094 19.6255 43.1747C19.6719 43.2557 19.7219 43.3344 19.7755 43.4109C19.8289 43.4875 19.8857 43.5615 19.9456 43.6328C20.0055 43.7044 20.0685 43.7732 20.1344 43.8391C20.2005 43.9052 20.2693 43.9682 20.3406 44.0281C20.4123 44.088 20.4862 44.1448 20.5628 44.1982C20.6393 44.2516 20.718 44.3018 20.799 44.3482C20.8797 44.3948 20.9625 44.4378 21.0471 44.4771C21.1318 44.5164 21.218 44.5518 21.3057 44.5836C21.3935 44.6154 21.4826 44.643 21.5727 44.6669C21.663 44.6909 21.7542 44.7109 21.8461 44.7268C21.938 44.7427 22.0305 44.7544 22.1234 44.7622C22.2164 44.7701 22.3096 44.7737 22.4029 44.7734C22.4964 44.7732 22.5893 44.7685 22.6823 44.7602C22.7753 44.7516 22.8677 44.7388 22.9594 44.7221C23.0513 44.7055 23.1422 44.6849 23.2323 44.6604C23.3224 44.6357 23.4109 44.607 23.4984 44.5747C23.5859 44.5422 23.6719 44.506 23.7563 44.4661C23.8406 44.426 23.9232 44.3826 24.0037 44.3354C24.0841 44.288 24.1625 44.2375 24.2386 44.1833C24.3146 44.1294 24.388 44.0721 24.4591 44.0115C24.5302 43.951 24.5984 43.8875 24.6638 43.8208C24.7292 43.7544 24.7917 43.6852 24.8511 43.613C24.9104 43.5411 24.9667 43.4667 25.0195 43.3898C25.0721 43.3128 25.1216 43.2336 25.1675 43.1523C25.2136 43.0711 25.2557 42.988 25.2943 42.9031C25.3328 42.8182 25.3677 42.7318 25.3987 42.6438C25.4297 42.5557 25.4568 42.4664 25.48 42.376H31.9867C32.0927 42.376 32.1948 42.3557 32.2927 42.3151C32.3906 42.2745 32.4768 42.2167 32.5518 42.1419L36.3136 38.3802H45.5727C45.6253 38.3802 45.6771 38.375 45.7287 38.3648C45.78 38.3547 45.83 38.3393 45.8784 38.3193C45.9271 38.2992 45.9729 38.2747 46.0167 38.2456C46.0602 38.2164 46.1005 38.1831 46.1378 38.1461C46.1748 38.1089 46.2081 38.0685 46.2373 38.025C46.2664 37.9813 46.2909 37.9354 46.311 37.8867C46.331 37.8383 46.3464 37.7883 46.3565 37.737C46.3667 37.6854 46.3719 37.6336 46.3719 37.581C46.3719 37.5286 46.3667 37.4766 46.3565 37.425C46.3464 37.3737 46.331 37.3237 46.311 37.2753C46.2909 37.2266 46.2664 37.1807 46.2373 37.137C46.2081 37.0935 46.1748 37.0531 46.1378 37.0159C46.1005 36.9789 46.0602 36.9456 46.0167 36.9164C45.9729 36.8872 45.9271 36.8628 45.8784 36.8427C45.83 36.8227 45.78 36.8073 45.7287 36.7971C45.6771 36.787 45.6253 36.7818 45.5727 36.7818ZM22.3969 43.1753C22.3445 43.1753 22.2922 43.1727 22.2401 43.1674C22.188 43.1622 22.1365 43.1547 22.0849 43.1445C22.0336 43.1341 21.9831 43.1216 21.9328 43.1063C21.8828 43.0911 21.8336 43.0734 21.7852 43.0534C21.7367 43.0333 21.6896 43.0112 21.6435 42.9865C21.5971 42.9617 21.5524 42.9349 21.5089 42.9057C21.4654 42.8768 21.4234 42.8456 21.3828 42.8122C21.3425 42.7792 21.3037 42.744 21.2667 42.707C21.2297 42.6701 21.1945 42.6313 21.1612 42.5909C21.1281 42.5503 21.0969 42.5083 21.068 42.4648C21.0388 42.4214 21.012 42.3766 20.9873 42.3302C20.9625 42.2841 20.9401 42.2367 20.9201 42.1885C20.9 42.1401 20.8826 42.0909 20.8672 42.0409C20.8521 41.9906 20.8393 41.9401 20.8292 41.8885C20.819 41.8372 20.8112 41.7857 20.8063 41.7336C20.8011 41.6815 20.7984 41.6292 20.7984 41.5768C20.7984 41.5245 20.8011 41.4721 20.8063 41.4201C20.8112 41.368 20.819 41.3164 20.8292 41.2651C20.8393 41.2135 20.8521 41.163 20.8672 41.1128C20.8826 41.0628 20.9 41.0135 20.9201 40.9651C20.9401 40.9169 20.9625 40.8695 20.9873 40.8234C21.012 40.7771 21.0388 40.7323 21.068 40.6888C21.0969 40.6453 21.1281 40.6034 21.1612 40.5628C21.1945 40.5224 21.2297 40.4836 21.2667 40.4466C21.3037 40.4096 21.3425 40.3745 21.3828 40.3414C21.4234 40.3081 21.4654 40.2768 21.5089 40.2479C21.5524 40.2188 21.5971 40.1919 21.6435 40.1672C21.6896 40.1424 21.7367 40.1203 21.7852 40.1003C21.8336 40.0802 21.8828 40.0625 21.9328 40.0474C21.9831 40.032 22.0336 40.0195 22.0849 40.0091C22.1365 39.999 22.188 39.9914 22.2401 39.9862C22.2922 39.981 22.3445 39.9784 22.3969 39.9784C22.4492 39.9784 22.5013 39.981 22.5534 39.9862C22.6055 39.9914 22.6573 39.999 22.7086 40.0091C22.7599 40.0195 22.8107 40.032 22.8607 40.0474C22.9109 40.0625 22.9602 40.0802 23.0086 40.1003C23.0568 40.1203 23.1042 40.1424 23.1503 40.1672C23.1964 40.1919 23.2414 40.2188 23.2849 40.2479C23.3284 40.2768 23.3703 40.3081 23.4107 40.3414C23.4513 40.3745 23.4901 40.4096 23.5271 40.4466C23.5641 40.4836 23.5992 40.5224 23.6323 40.5628C23.6656 40.6034 23.6966 40.6453 23.7258 40.6888C23.755 40.7323 23.7818 40.7771 23.8065 40.8234C23.831 40.8695 23.8534 40.9169 23.8734 40.9651C23.8935 41.0135 23.9112 41.0628 23.9263 41.1128C23.9414 41.163 23.9542 41.2135 23.9643 41.2651C23.9748 41.3164 23.9823 41.368 23.9875 41.4201C23.9927 41.4721 23.9951 41.5245 23.9951 41.5768C23.9951 41.6292 23.9925 41.6813 23.9873 41.7333C23.982 41.7854 23.9745 41.8372 23.9641 41.8885C23.9539 41.9398 23.9412 41.9906 23.9261 42.0406C23.9107 42.0906 23.8932 42.1398 23.8732 42.1883C23.8531 42.2365 23.8307 42.2839 23.806 42.33C23.7813 42.376 23.7544 42.4208 23.7253 42.4643C23.6961 42.5081 23.6651 42.55 23.6318 42.5904C23.5987 42.6307 23.5636 42.6695 23.5266 42.7065C23.4896 42.7435 23.4508 42.7786 23.4104 42.812C23.3698 42.8451 23.3279 42.8763 23.2844 42.9052C23.2409 42.9344 23.1961 42.9612 23.15 42.9859C23.1039 43.0107 23.0565 43.0331 23.0083 43.0531C22.9599 43.0732 22.9107 43.0909 22.8607 43.106C22.8107 43.1211 22.7599 43.1339 22.7086 43.1443C22.6573 43.1544 22.6055 43.1622 22.5534 43.1674C22.5013 43.1724 22.4492 43.175 22.3969 43.1753Z" fill="#7AA500"/>
<path d="M45.5727 39.9784H37.581C37.475 39.9786 37.3732 39.9987 37.2753 40.0393C37.1774 40.0799 37.0909 40.1378 37.0159 40.2128L33.8193 43.4094C33.7818 43.4464 33.7479 43.4867 33.7182 43.5302C33.6885 43.574 33.6635 43.6201 33.643 43.6688C33.6224 43.7172 33.607 43.7674 33.5964 43.819C33.5857 43.8708 33.5802 43.9232 33.58 43.9758C33.58 44.0286 33.5849 44.081 33.5948 44.1328C33.605 44.1844 33.6201 44.2349 33.6401 44.2836C33.6602 44.3323 33.6849 44.3789 33.7143 44.4227C33.7435 44.4667 33.7768 44.5073 33.8141 44.5445C33.8513 44.5818 33.8919 44.6151 33.9359 44.6445C33.98 44.6737 34.0263 44.6984 34.075 44.7185C34.124 44.7385 34.1742 44.7536 34.226 44.7638C34.2779 44.774 34.33 44.7789 34.3828 44.7786C34.4357 44.7784 34.4878 44.7729 34.5396 44.7622C34.5912 44.7518 34.6414 44.7362 34.6901 44.7156C34.7385 44.6951 34.7846 44.6701 34.8284 44.6404C34.8721 44.6107 34.9122 44.5771 34.9492 44.5393L37.912 41.5768H45.5727C45.6253 41.5768 45.6771 41.5716 45.7287 41.5615C45.78 41.5513 45.83 41.5362 45.8784 41.5159C45.9271 41.4958 45.9729 41.4714 46.0167 41.4422C46.0602 41.413 46.1005 41.3799 46.1378 41.3427C46.1747 41.3057 46.2081 41.2654 46.2372 41.2216C46.2664 41.1781 46.2909 41.132 46.3109 41.0836C46.331 41.0349 46.3464 40.9852 46.3565 40.9336C46.3667 40.882 46.3719 40.8302 46.3719 40.7776C46.3719 40.7253 46.3667 40.6732 46.3565 40.6219C46.3464 40.5703 46.331 40.5203 46.3109 40.4719C46.2909 40.4234 46.2664 40.3773 46.2372 40.3336C46.2081 40.2901 46.1747 40.2497 46.1378 40.2125C46.1005 40.1755 46.0602 40.1424 46.0167 40.1133C45.9729 40.0841 45.9271 40.0594 45.8784 40.0393C45.83 40.0193 45.78 40.0042 45.7287 39.9938C45.6771 39.9836 45.6253 39.9784 45.5727 39.9784Z" fill="#7AA500"/>
<path d="M45.5727 9.61016H36.3135L35.9825 9.27917V2.41771C35.9825 2.3651 35.9776 2.31328 35.9672 2.26172C35.957 2.21042 35.9419 2.16042 35.9219 2.11172C35.9018 2.06328 35.8771 2.01719 35.8479 1.9737C35.8187 1.92995 35.7857 1.88958 35.7487 1.8526C35.7115 1.81536 35.6711 1.78229 35.6276 1.75312C35.5838 1.72396 35.5378 1.69948 35.4893 1.67943C35.4409 1.65937 35.3909 1.64401 35.3393 1.63385C35.288 1.6237 35.2359 1.61849 35.1836 1.61849C35.131 1.61849 35.0792 1.6237 35.0276 1.63385C34.976 1.64401 34.926 1.65937 34.8776 1.67943C34.8292 1.69948 34.7831 1.72396 34.7396 1.75312C34.6958 1.78229 34.6555 1.81536 34.6185 1.8526C34.5812 1.88958 34.5482 1.92995 34.519 1.9737C34.4898 2.01719 34.4654 2.06328 34.445 2.11172C34.425 2.16042 34.4099 2.21042 34.3997 2.26172C34.3893 2.31328 34.3844 2.3651 34.3844 2.41771V9.61016C34.3844 9.71615 34.4047 9.81797 34.4453 9.91589C34.4857 10.0138 34.5435 10.1003 34.6185 10.1753L35.4177 10.9742C35.4924 11.0492 35.5789 11.107 35.6768 11.1477C35.7747 11.1883 35.8766 11.2086 35.9825 11.2086H45.5727C45.6253 11.2086 45.6771 11.2034 45.7286 11.1932C45.7799 11.1828 45.8299 11.1677 45.8784 11.1477C45.9271 11.1276 45.9729 11.1029 46.0167 11.0737C46.0602 11.0445 46.1005 11.0115 46.1378 10.9745C46.1747 10.9372 46.2081 10.8969 46.2372 10.8534C46.2664 10.8096 46.2909 10.7635 46.3109 10.7151C46.331 10.6667 46.3463 10.6167 46.3565 10.5654C46.3667 10.5138 46.3719 10.4617 46.3719 10.4094C46.3719 10.3568 46.3667 10.3049 46.3565 10.2534C46.3463 10.2021 46.331 10.1521 46.3109 10.1034C46.2909 10.0549 46.2664 10.0089 46.2372 9.96536C46.2081 9.92161 46.1747 9.88125 46.1378 9.84427C46.1005 9.80703 46.0602 9.77396 46.0167 9.74479C45.9729 9.71562 45.9271 9.69115 45.8784 9.67109C45.8299 9.65104 45.7799 9.63568 45.7286 9.62552C45.6771 9.61536 45.6253 9.61016 45.5727 9.61016Z" fill="#7AA500"/>
<path d="M2.41772 7.21276H10.4094C10.4617 7.21276 10.5138 7.20755 10.5654 7.1974C10.6167 7.18698 10.6667 7.17187 10.7151 7.15182C10.7636 7.13177 10.8096 7.10703 10.8534 7.07786C10.8969 7.0487 10.9373 7.01562 10.9745 6.97865C11.0115 6.94141 11.0445 6.90104 11.0737 6.85755C11.1029 6.8138 11.1276 6.76771 11.1477 6.71927C11.1677 6.67083 11.1828 6.62083 11.1932 6.56953C11.2034 6.51797 11.2086 6.46588 11.2086 6.41354V2.41771C11.2086 2.3651 11.2034 2.31328 11.1932 2.26172C11.1828 2.21042 11.1677 2.16042 11.1477 2.11172C11.1276 2.06328 11.1029 2.01719 11.0737 1.9737C11.0445 1.92995 11.0115 1.88958 10.9745 1.8526C10.9373 1.81536 10.8969 1.78229 10.8534 1.75312C10.8096 1.72396 10.7636 1.69948 10.7151 1.67943C10.6667 1.65937 10.6167 1.64401 10.5654 1.63385C10.5138 1.6237 10.4617 1.61849 10.4094 1.61849C10.3568 1.61849 10.305 1.6237 10.2534 1.63385C10.2018 1.64401 10.1521 1.65937 10.1034 1.67943C10.055 1.69948 10.0089 1.72396 9.96537 1.75312C9.92163 1.78229 9.88126 1.81536 9.84428 1.8526C9.80704 1.88958 9.77397 1.92995 9.7448 1.9737C9.71564 2.01719 9.69116 2.06328 9.6711 2.11172C9.65079 2.16042 9.63569 2.21042 9.62553 2.26172C9.61538 2.31328 9.61017 2.3651 9.61017 2.41771V5.61432H2.41772C2.36511 5.61432 2.31329 5.61953 2.26173 5.62969C2.21043 5.63984 2.16043 5.65521 2.11173 5.67526C2.06329 5.69531 2.0172 5.71979 1.97371 5.74896C1.92996 5.77812 1.88959 5.8112 1.85261 5.84844C1.81537 5.88542 1.7823 5.92578 1.75314 5.96953C1.72397 6.01302 1.69949 6.05911 1.67944 6.10755C1.65939 6.15625 1.64402 6.20625 1.63386 6.25755C1.62371 6.30911 1.6185 6.36094 1.6185 6.41354C1.6185 6.46588 1.62371 6.51797 1.63386 6.56953C1.64402 6.62083 1.65939 6.67083 1.67944 6.71927C1.69949 6.76771 1.72397 6.8138 1.75314 6.85755C1.7823 6.90104 1.81537 6.94141 1.85261 6.97865C1.88959 7.01562 1.92996 7.0487 1.97371 7.07786C2.0172 7.10703 2.06329 7.13177 2.11173 7.15182C2.16043 7.17187 2.21043 7.18698 2.26173 7.1974C2.31329 7.20755 2.36511 7.21276 2.41772 7.21276Z" fill="#7AA500"/>
</g>
<defs>
<clipPath id="clip0_8_86">
<rect width="48" height="48" fill="white"/>
</clipPath>
</defs>
</svg>
