<svg width="254" height="76" viewBox="0 0 254 76" fill="none" xmlns="http://www.w3.org/2000/svg">
<path d="M97.1271 57V23.352H90.9351V18.12H110.327V23.352H104.231V57H97.1271ZM113.576 57V29.256H120.104V33.528C121.064 31.896 122.024 30.728 122.984 30.024C123.944 29.288 125 28.92 126.152 28.92C126.344 28.92 126.504 28.936 126.632 28.968C126.792 28.968 126.968 28.984 127.16 29.016V35.784C126.776 35.624 126.344 35.496 125.864 35.4C125.416 35.272 124.952 35.208 124.472 35.208C123.608 35.208 122.824 35.416 122.12 35.832C121.416 36.248 120.744 36.936 120.104 37.896V57H113.576ZM135.636 57.432C134.388 57.432 133.316 57.112 132.42 56.472C131.524 55.8 130.836 54.968 130.356 53.976C129.876 52.952 129.636 51.896 129.636 50.808C129.636 49.08 129.956 47.624 130.596 46.44C131.236 45.256 132.084 44.264 133.14 43.464C134.196 42.664 135.396 41.976 136.74 41.4C138.084 40.792 139.444 40.248 140.82 39.768V37.368C140.82 36.568 140.756 35.896 140.628 35.352C140.532 34.808 140.324 34.392 140.004 34.104C139.716 33.816 139.252 33.672 138.612 33.672C138.068 33.672 137.62 33.8 137.268 34.056C136.948 34.312 136.708 34.68 136.548 35.16C136.42 35.608 136.34 36.136 136.308 36.744L136.212 38.424L130.02 38.184C130.116 34.984 130.9 32.632 132.372 31.128C133.876 29.592 136.148 28.824 139.188 28.824C141.972 28.824 143.988 29.592 145.236 31.128C146.516 32.664 147.156 34.744 147.156 37.368V50.184C147.156 51.208 147.172 52.136 147.204 52.968C147.268 53.8 147.332 54.552 147.396 55.224C147.492 55.896 147.572 56.488 147.636 57H141.78C141.684 56.36 141.556 55.64 141.396 54.84C141.268 54.008 141.172 53.4 141.108 53.016C140.788 54.136 140.18 55.16 139.284 56.088C138.388 56.984 137.172 57.432 135.636 57.432ZM138.036 52.584C138.452 52.584 138.836 52.488 139.188 52.296C139.572 52.072 139.908 51.816 140.196 51.528C140.484 51.24 140.692 50.984 140.82 50.76V43.032C140.116 43.448 139.444 43.864 138.804 44.28C138.196 44.696 137.652 45.16 137.172 45.672C136.724 46.152 136.372 46.68 136.116 47.256C135.892 47.832 135.78 48.504 135.78 49.272C135.78 50.296 135.972 51.112 136.356 51.72C136.772 52.296 137.332 52.584 138.036 52.584ZM160.315 57.432C158.171 57.432 156.443 57.032 155.131 56.232C153.851 55.4 152.907 54.232 152.299 52.728C151.723 51.192 151.435 49.384 151.435 47.304V38.952C151.435 36.808 151.723 34.984 152.299 33.48C152.907 31.976 153.867 30.824 155.179 30.024C156.491 29.224 158.203 28.824 160.315 28.824C162.299 28.824 163.915 29.144 165.163 29.784C166.443 30.392 167.371 31.336 167.947 32.616C168.523 33.864 168.811 35.448 168.811 37.368V39.672H162.667V37.224C162.667 36.264 162.587 35.512 162.427 34.968C162.299 34.392 162.059 33.992 161.707 33.768C161.355 33.512 160.891 33.384 160.315 33.384C159.739 33.384 159.275 33.544 158.923 33.864C158.571 34.152 158.315 34.632 158.155 35.304C158.027 35.976 157.963 36.904 157.963 38.088V48.264C157.963 50.056 158.155 51.272 158.539 51.912C158.923 52.52 159.531 52.824 160.363 52.824C161.003 52.824 161.483 52.68 161.803 52.392C162.155 52.104 162.379 51.688 162.475 51.144C162.603 50.568 162.667 49.88 162.667 49.08V46.104H168.811V48.744C168.811 50.6 168.507 52.184 167.899 53.496C167.323 54.808 166.395 55.8 165.115 56.472C163.867 57.112 162.267 57.432 160.315 57.432ZM173.152 57V18.12H179.68V40.44L186.832 29.256H193.936L186.976 40.392L193.792 57H186.928L181.888 43.32L179.68 46.392V57H173.152ZM197.119 57V18.12H204.127V57H197.119ZM217.729 57.336C215.969 57.336 214.577 57.048 213.553 56.472C212.561 55.896 211.857 55.064 211.441 53.976C211.025 52.888 210.817 51.592 210.817 50.088V33.576H208.033V29.256H210.817V20.952H217.393V29.256H221.617V33.576H217.393V49.512C217.393 50.472 217.601 51.16 218.017 51.576C218.433 51.96 219.057 52.152 219.889 52.152C220.241 52.152 220.577 52.136 220.897 52.104C221.249 52.072 221.585 52.04 221.905 52.008V57C221.361 57.064 220.721 57.128 219.985 57.192C219.281 57.288 218.529 57.336 217.729 57.336Z" fill="white"/>
<g clip-path="url(#clip0_19_231)">
<mask id="mask0_19_231" style="mask-type:luminance" maskUnits="userSpaceOnUse" x="0" y="4" width="68" height="70">
<path d="M0.0282974 4.33081H67.6911V73.0893H0.0282974V4.33081Z" fill="white"/>
</mask>
<g mask="url(#mask0_19_231)">
<path d="M66.5637 4.33081H1.15608C1.08222 4.33081 1.00873 4.33828 0.936333 4.35284C0.863572 4.36778 0.793017 4.38944 0.724666 4.41819C0.656315 4.44695 0.591272 4.48242 0.529536 4.52425C0.468167 4.56607 0.411208 4.6135 0.358659 4.66652C0.306477 4.71992 0.259808 4.7778 0.21865 4.84017C0.177493 4.9029 0.142583 4.969 0.114287 5.03846C0.0859912 5.10791 0.0646776 5.17961 0.0499786 5.25355C0.0356469 5.32712 0.0282974 5.4018 0.0282974 5.47686V71.9436C0.0282974 72.0187 0.0356469 72.0934 0.0499786 72.1669C0.0646776 72.2409 0.0859912 72.3126 0.114287 72.382C0.142583 72.4515 0.177493 72.5176 0.21865 72.5803C0.259808 72.6427 0.306477 72.7006 0.358659 72.754C0.411208 72.807 0.468167 72.8544 0.529536 72.8962C0.591272 72.9381 0.656315 72.9735 0.724666 73.0023C0.793017 73.031 0.863572 73.0527 0.936333 73.0673C1.00873 73.0822 1.08222 73.0893 1.15608 73.0893H66.5637C66.6375 73.0893 66.711 73.0822 66.7834 73.0673C66.8562 73.0527 66.9267 73.031 66.9951 73.0023C67.0634 72.9735 67.1285 72.9381 67.1902 72.8962C67.2516 72.8544 67.3085 72.807 67.3611 72.754C67.4133 72.7006 67.4599 72.6427 67.5011 72.5803C67.5423 72.5176 67.5772 72.4515 67.6055 72.382C67.6338 72.3126 67.6551 72.2409 67.6694 72.1669C67.6841 72.0934 67.6911 72.0187 67.6911 71.9436V5.47686C67.6911 5.4018 67.6841 5.32712 67.6694 5.25355C67.6551 5.17961 67.6338 5.10791 67.6055 5.03846C67.5772 4.969 67.5423 4.9029 67.5011 4.84017C67.4599 4.7778 67.4133 4.71992 67.3611 4.66652C67.3085 4.6135 67.2516 4.56607 67.1902 4.52425C67.1285 4.48242 67.0634 4.44695 66.9951 4.41819C66.9267 4.38944 66.8562 4.36778 66.7834 4.35284C66.711 4.33828 66.6375 4.33081 66.5637 4.33081ZM65.4359 19.2287V70.7976H2.28387V6.62291H65.4359V19.2287Z" fill="white"/>
</g>
<path d="M3.41165 29.5423H12.4332C12.5725 29.5423 12.7073 29.517 12.8374 29.4662C12.9675 29.4158 13.0844 29.3429 13.1876 29.2481L21.2222 21.9001C21.2993 21.9539 21.378 22.0055 21.4584 22.0544C21.5386 22.1033 21.6201 22.1496 21.7032 22.1937C21.7862 22.2374 21.8708 22.2788 21.956 22.3176C22.0416 22.3565 22.1284 22.3923 22.2158 22.4259C22.3036 22.4592 22.3922 22.4902 22.4815 22.5182C22.5712 22.5462 22.6612 22.5712 22.7523 22.594C22.8431 22.6164 22.9346 22.6358 23.0268 22.653C23.1191 22.6698 23.2117 22.6836 23.3046 22.6948C23.3976 22.706 23.4906 22.7142 23.5843 22.7198C23.6776 22.7254 23.7713 22.728 23.8647 22.7277C23.9584 22.7273 24.0521 22.7243 24.1454 22.7183C24.2388 22.7124 24.3321 22.7034 24.4251 22.6914C24.5177 22.6799 24.6103 22.6653 24.7025 22.6477C24.7944 22.6306 24.8859 22.6104 24.9767 22.5873C25.0674 22.5641 25.1575 22.5383 25.2468 22.51C25.3361 22.4816 25.4246 22.4502 25.5121 22.4162C25.5995 22.3822 25.6859 22.3456 25.7711 22.3064C25.8564 22.2672 25.9406 22.2254 26.0232 22.181C26.1059 22.1365 26.1875 22.0895 26.2676 22.0402C26.3474 21.9909 26.426 21.939 26.5028 21.8848C26.58 21.8307 26.6549 21.7739 26.7288 21.7153C26.8023 21.6563 26.8739 21.5954 26.9441 21.5319C27.014 21.4688 27.0819 21.4035 27.1481 21.3363C27.2142 21.2687 27.2782 21.1992 27.3399 21.1279C27.402 21.0566 27.4615 20.9834 27.5192 20.9083C27.5769 20.8336 27.6324 20.7567 27.6853 20.6783C27.7383 20.5999 27.789 20.52 27.8371 20.4386C27.8856 20.3571 27.9315 20.2742 27.9749 20.1898C28.0183 20.1055 28.0591 20.0199 28.0973 19.9329C28.1355 19.8463 28.1711 19.7582 28.2042 19.6693C28.2373 19.5804 28.2678 19.4904 28.2953 19.3997C28.3233 19.3086 28.3483 19.2171 28.3703 19.1245C28.3927 19.0322 28.4122 18.9392 28.4291 18.8455C28.4456 18.7522 28.4596 18.658 28.471 18.5636C28.482 18.4691 28.4905 18.3742 28.496 18.2794C28.5015 18.1845 28.5041 18.0893 28.5041 17.9941C28.5041 17.8989 28.5011 17.804 28.4953 17.7092C28.4894 17.6139 28.4809 17.5195 28.4695 17.425C28.4581 17.3305 28.4438 17.2364 28.4269 17.1431C28.41 17.0493 28.3902 16.9563 28.3677 16.8641C28.3453 16.7719 28.32 16.68 28.292 16.5893C28.2641 16.4985 28.2336 16.4085 28.2005 16.3196C28.1671 16.2308 28.1311 16.143 28.0929 16.0564C28.0543 15.9694 28.0131 15.8839 27.9698 15.7998C27.926 15.7154 27.8801 15.6329 27.8316 15.5515C27.7831 15.4701 27.7324 15.3902 27.6791 15.3118C27.6258 15.2337 27.5703 15.1572 27.5126 15.0821C27.4549 15.0074 27.395 14.9342 27.3329 14.8633C27.2708 14.792 27.2065 14.7229 27.1404 14.6557C27.0742 14.5881 27.0059 14.5231 26.9357 14.46C26.8659 14.3969 26.7938 14.336 26.72 14.2774C26.6465 14.2187 26.5711 14.1624 26.494 14.1082C26.4168 14.0544 26.3382 14.0025 26.2581 13.9536C26.1779 13.9043 26.0964 13.8576 26.0137 13.8132C25.9306 13.7691 25.8465 13.7277 25.7612 13.6885C25.676 13.6493 25.5892 13.613 25.5018 13.5794C25.4143 13.5455 25.3258 13.5145 25.2365 13.4861C25.1472 13.4577 25.0571 13.4323 24.966 13.4095C24.8752 13.3867 24.7837 13.3666 24.6915 13.3494C24.5996 13.3322 24.507 13.318 24.4141 13.3065C24.3211 13.2949 24.2281 13.2863 24.1344 13.2807C24.0411 13.2747 23.9474 13.2717 23.854 13.2717C23.7603 13.2717 23.6666 13.2747 23.5733 13.2803C23.4799 13.2859 23.3866 13.2945 23.2936 13.3057C23.2006 13.3173 23.108 13.3315 23.0162 13.3487C22.9239 13.3658 22.8324 13.3856 22.7417 13.4084C22.6505 13.4308 22.5605 13.4566 22.4712 13.4846C22.3815 13.513 22.2933 13.544 22.2055 13.5776C22.1181 13.6112 22.0317 13.6474 21.9461 13.6862C21.8608 13.7254 21.7767 13.7669 21.6936 13.811C21.6106 13.855 21.529 13.9017 21.4489 13.951C21.3688 13.9999 21.2901 14.0514 21.213 14.1056C21.1358 14.1594 21.0605 14.2158 20.9866 14.2744C20.9127 14.333 20.8411 14.3939 20.7709 14.4566C20.7007 14.5197 20.6324 14.5847 20.5662 14.6519C20.4997 14.7191 20.4358 14.7882 20.3733 14.8595C20.3112 14.9305 20.2513 15.0033 20.1932 15.0784C20.1355 15.1531 20.08 15.2296 20.0268 15.3077C19.9735 15.3861 19.9224 15.466 19.8739 15.547C19.8254 15.6284 19.7791 15.7113 19.7353 15.7954C19.692 15.8797 19.6508 15.9649 19.6122 16.0515C19.5737 16.1385 19.5376 16.2263 19.5042 16.3152C19.4708 16.404 19.4403 16.4937 19.4123 16.5844C19.384 16.6751 19.3587 16.767 19.3363 16.8592C19.3138 16.9515 19.294 17.0445 19.2767 17.1382C19.2598 17.2316 19.2455 17.3257 19.2341 17.4201C19.2223 17.5142 19.2139 17.6091 19.208 17.7039C19.2021 17.7992 19.1992 17.894 19.1988 17.9892C19.1988 18.0845 19.2014 18.1793 19.2065 18.2742C19.2121 18.3694 19.2205 18.4639 19.2315 18.5583C19.2426 18.6528 19.2565 18.7469 19.2731 18.8407C19.2896 18.9344 19.3091 19.0274 19.3311 19.1196C19.3535 19.2122 19.3785 19.3037 19.4061 19.3948C19.4336 19.4856 19.4638 19.5756 19.4968 19.6648C19.5299 19.7537 19.5656 19.8418 19.6038 19.9284C19.642 20.0155 19.6824 20.101 19.7258 20.1854L12.0003 27.2502H3.41165C3.33742 27.2502 3.2643 27.2577 3.19153 27.2723C3.11914 27.2872 3.04859 27.3089 2.97987 27.3376C2.91152 27.3664 2.84647 27.4019 2.78511 27.4437C2.72337 27.4855 2.66641 27.5329 2.61423 27.586C2.56168 27.6394 2.51501 27.6972 2.47385 27.7596C2.4327 27.8223 2.39815 27.8884 2.36986 27.9579C2.34156 28.0273 2.31988 28.099 2.30555 28.173C2.29122 28.2465 2.28387 28.3212 2.28387 28.3963C2.28387 28.4717 2.29122 28.546 2.30555 28.62C2.31988 28.6939 2.34156 28.7652 2.36986 28.8351C2.39815 28.9045 2.4327 28.9706 2.47385 29.033C2.51501 29.0957 2.56168 29.1536 2.61423 29.2066C2.66641 29.26 2.72337 29.3075 2.78511 29.3493C2.84647 29.3911 2.91152 29.4262 2.97987 29.455C3.04859 29.4841 3.11914 29.5057 3.19153 29.5203C3.2643 29.5349 3.33742 29.5423 3.41165 29.5423ZM23.7103 15.7905C23.7842 15.7905 23.8581 15.7942 23.9316 15.8017C24.0051 15.8092 24.0778 15.82 24.1506 15.8346C24.223 15.8495 24.2946 15.8674 24.3652 15.8895C24.4357 15.9111 24.5052 15.9365 24.5735 15.9653C24.6419 15.994 24.7084 16.0258 24.7734 16.0612C24.8389 16.0967 24.9021 16.1352 24.9634 16.177C25.0248 16.2184 25.084 16.2633 25.1413 16.3111C25.1983 16.3585 25.253 16.4089 25.3052 16.4619C25.3574 16.5149 25.407 16.5706 25.454 16.6285C25.5007 16.6867 25.5448 16.7468 25.5856 16.8092C25.6267 16.8716 25.6646 16.9362 25.6995 17.0023C25.7344 17.0684 25.766 17.1363 25.7943 17.2054C25.8226 17.2749 25.8472 17.3455 25.8689 17.4171C25.8902 17.4892 25.9082 17.5617 25.9226 17.6356C25.9369 17.7092 25.9479 17.7831 25.9549 17.8578C25.9622 17.9325 25.9659 18.0075 25.9659 18.0826C25.9659 18.1577 25.9622 18.2327 25.9549 18.3074C25.9479 18.3821 25.9369 18.456 25.9226 18.5296C25.9082 18.6035 25.8902 18.676 25.8689 18.748C25.8472 18.8197 25.8226 18.8903 25.7943 18.9598C25.766 19.0292 25.7344 19.0968 25.6995 19.1629C25.6646 19.2294 25.6267 19.2936 25.5856 19.356C25.5448 19.4183 25.5007 19.4785 25.454 19.5367C25.407 19.5946 25.3574 19.6502 25.3052 19.7033C25.253 19.7563 25.1983 19.8067 25.1413 19.8541C25.084 19.9019 25.0248 19.9467 24.9634 19.9882C24.9021 20.03 24.8389 20.0685 24.7734 20.104C24.7084 20.1394 24.6419 20.1716 24.5735 20.1999C24.5052 20.2287 24.4357 20.2541 24.3652 20.2757C24.2946 20.2978 24.223 20.3157 24.1506 20.3306C24.0778 20.3452 24.0051 20.356 23.9316 20.3635C23.8581 20.371 23.7842 20.3747 23.7103 20.3747C23.6365 20.3747 23.563 20.371 23.4895 20.3635C23.416 20.356 23.3429 20.3452 23.2705 20.3306C23.1981 20.3157 23.1264 20.2978 23.0559 20.2757C22.9849 20.2541 22.9155 20.2287 22.8471 20.1999C22.7792 20.1716 22.7123 20.1394 22.6472 20.104C22.5822 20.0685 22.5186 20.03 22.4572 19.9882C22.3959 19.9467 22.3367 19.9019 22.2798 19.8541C22.2224 19.8067 22.1677 19.7563 22.1155 19.7033C22.0633 19.6502 22.0137 19.5946 21.967 19.5367C21.92 19.4785 21.8763 19.4183 21.8351 19.356C21.7939 19.2936 21.7561 19.2294 21.7212 19.1629C21.6866 19.0968 21.655 19.0292 21.6267 18.9598C21.5984 18.8903 21.5735 18.8197 21.5521 18.748C21.5308 18.676 21.5128 18.6035 21.4985 18.5296C21.4838 18.456 21.4731 18.3821 21.4658 18.3074C21.4584 18.2327 21.4551 18.1577 21.4551 18.0826C21.4551 18.0075 21.4588 17.9329 21.4662 17.8582C21.4735 17.7835 21.4842 17.7092 21.4989 17.6356C21.5132 17.562 21.5312 17.4892 21.5525 17.4175C21.5742 17.3458 21.5988 17.2752 21.6271 17.2058C21.6554 17.1367 21.687 17.0687 21.7219 17.0026C21.7568 16.9365 21.7947 16.8723 21.8358 16.81C21.877 16.7476 21.9207 16.6871 21.9678 16.6292C22.0144 16.5713 22.064 16.5157 22.1162 16.4627C22.1684 16.4096 22.2232 16.3592 22.2801 16.3114C22.3374 16.264 22.3966 16.2192 22.458 16.1777C22.5193 16.1359 22.5826 16.0975 22.6476 16.062C22.7126 16.0265 22.7795 15.9944 22.8475 15.9656C22.9159 15.9369 22.9853 15.9119 23.0559 15.8898C23.1268 15.8682 23.1981 15.8499 23.2705 15.8349C23.3429 15.8204 23.416 15.8092 23.4895 15.8021C23.563 15.7946 23.6365 15.7909 23.7103 15.7905Z" fill="white"/>
<path d="M3.41165 34.1262H25.4988L30.807 39.5204C30.9129 39.6279 31.0349 39.7108 31.1727 39.7687C31.3109 39.8269 31.4549 39.8561 31.6045 39.8561H40.7863C40.8366 40.0521 40.8994 40.2441 40.9748 40.4319C41.0501 40.6194 41.1372 40.8012 41.2364 40.9771C41.3356 41.1526 41.4459 41.321 41.5668 41.482C41.688 41.6433 41.8189 41.7953 41.96 41.9387C42.1011 42.0817 42.2506 42.215 42.409 42.3382C42.5674 42.4611 42.7331 42.5731 42.9062 42.674C43.0793 42.7744 43.2583 42.8633 43.4427 42.9398C43.6276 43.0164 43.8161 43.0802 44.0094 43.1314V49.0241C44.0094 49.0992 44.0164 49.1738 44.0311 49.2474C44.0454 49.3213 44.0667 49.393 44.095 49.4625C44.1233 49.532 44.1582 49.5981 44.1994 49.6608C44.2405 49.7232 44.2872 49.781 44.3394 49.8344C44.3919 49.8875 44.4489 49.9349 44.5103 49.9767C44.572 50.0185 44.637 50.054 44.7054 50.0828C44.7737 50.1115 44.8443 50.1332 44.9171 50.1477C44.9894 50.1627 45.0629 50.1698 45.1368 50.1698H54.319C54.3414 50.259 54.3667 50.3471 54.3946 50.4349C54.4226 50.5223 54.4527 50.6089 54.4858 50.6944C54.5189 50.7803 54.5541 50.8647 54.5924 50.9484C54.6302 51.0316 54.6706 51.1142 54.7136 51.1952C54.7566 51.2762 54.8018 51.3558 54.8492 51.4338C54.897 51.5122 54.947 51.5888 54.9988 51.6642C55.051 51.7393 55.1054 51.8129 55.1619 51.8849C55.2185 51.9566 55.277 52.0268 55.3376 52.0952C55.3982 52.1631 55.4607 52.2296 55.5254 52.2942C55.5901 52.3584 55.6566 52.4212 55.7249 52.4813C55.7929 52.5418 55.8631 52.6 55.9347 52.6561C56.0064 52.7124 56.0799 52.7662 56.1549 52.8177C56.2298 52.8693 56.3059 52.9186 56.3838 52.9656C56.4617 53.0127 56.5407 53.0571 56.6212 53.0993C56.7017 53.1415 56.7836 53.1811 56.8663 53.2181C56.949 53.2554 57.0331 53.2898 57.118 53.3219C57.2029 53.3536 57.2885 53.3831 57.3753 53.41C57.4616 53.4365 57.5491 53.4608 57.6373 53.4821C57.7251 53.5034 57.8137 53.522 57.903 53.5381C57.9919 53.5541 58.0815 53.5672 58.1716 53.578C58.2612 53.5885 58.3516 53.596 58.442 53.6012C58.5324 53.6061 58.6228 53.6083 58.7132 53.6079C58.804 53.6072 58.8944 53.6038 58.9844 53.5978C59.0748 53.5919 59.1649 53.5829 59.2549 53.5713C59.3446 53.5597 59.4339 53.5456 59.5228 53.5284C59.6117 53.5112 59.7003 53.4914 59.7881 53.469C59.8759 53.4466 59.963 53.4216 60.049 53.3936C60.1354 53.3659 60.221 53.3353 60.3051 53.3025C60.3897 53.2696 60.4731 53.2337 60.5558 53.1957C60.6381 53.1576 60.7193 53.1172 60.799 53.0739C60.8791 53.031 60.9578 52.9854 61.035 52.9376C61.1125 52.8894 61.1882 52.8394 61.2624 52.7868C61.3367 52.7345 61.4094 52.6796 61.4807 52.6224C61.5516 52.5657 61.6211 52.5063 61.6883 52.4454C61.7559 52.3842 61.8217 52.3207 61.8857 52.2557C61.9492 52.1904 62.0113 52.1232 62.0709 52.0541C62.1308 51.985 62.1885 51.9144 62.2443 51.842C62.2998 51.7692 62.3535 51.6952 62.4045 51.6194C62.456 51.5432 62.5049 51.4659 62.5515 51.3871C62.5982 51.3084 62.6427 51.2284 62.6846 51.1467C62.7265 51.0653 62.7658 50.9823 62.8029 50.8987C62.84 50.8147 62.8742 50.7295 62.9065 50.6437C62.9385 50.5574 62.9679 50.4704 62.9947 50.3826C63.0215 50.2949 63.0454 50.2064 63.0671 50.1167C63.0888 50.0275 63.1075 49.9375 63.1241 49.8471C63.1402 49.7568 63.1538 49.6656 63.1645 49.5745C63.1755 49.483 63.1836 49.3915 63.1891 49.2997C63.1946 49.2078 63.1972 49.116 63.1972 49.0241C63.1972 48.9319 63.1946 48.84 63.1891 48.7481C63.1836 48.6563 63.1755 48.5648 63.1645 48.4737C63.1538 48.3822 63.1402 48.2914 63.1241 48.2007C63.1075 48.1103 63.0888 48.0203 63.0671 47.9311C63.0454 47.8418 63.0215 47.7529 62.9947 47.6652C62.9679 47.5774 62.9385 47.4904 62.9061 47.4045C62.8742 47.3183 62.84 47.2335 62.8029 47.1495C62.7658 47.0655 62.7265 46.9826 62.6846 46.9012C62.6427 46.8198 62.5982 46.7395 62.5515 46.6607C62.5049 46.5819 62.456 46.5046 62.4045 46.4288C62.3535 46.353 62.2998 46.2787 62.2443 46.2062C62.1885 46.1334 62.1308 46.0628 62.0709 45.9937C62.0113 45.9246 61.9492 45.8574 61.8857 45.7925C61.8217 45.7271 61.7559 45.664 61.6883 45.6028C61.6211 45.5415 61.5516 45.4825 61.4807 45.4254C61.4094 45.3682 61.3367 45.3137 61.2624 45.2611C61.1882 45.2084 61.1125 45.1584 61.035 45.1106C60.9578 45.0624 60.8791 45.0172 60.799 44.9739C60.7193 44.931 60.6381 44.8903 60.5558 44.8522C60.4731 44.8141 60.3897 44.7786 60.3051 44.7454C60.221 44.7125 60.1354 44.6819 60.049 44.6542C59.963 44.6266 59.8759 44.6012 59.7881 44.5788C59.7003 44.5564 59.6117 44.5366 59.5228 44.5194C59.4339 44.5026 59.3446 44.4881 59.2549 44.4765C59.1649 44.4649 59.0748 44.4563 58.9844 44.45C58.8944 44.444 58.804 44.4406 58.7132 44.4403C58.6228 44.4395 58.5324 44.4418 58.442 44.4466C58.3516 44.4518 58.2612 44.4597 58.1716 44.4701C58.0815 44.4806 57.9919 44.4937 57.903 44.5097C57.8137 44.5258 57.7251 44.5445 57.6369 44.5657C57.5491 44.587 57.4616 44.6113 57.3753 44.6382C57.2885 44.6647 57.2029 44.6942 57.118 44.7259C57.0331 44.7581 56.949 44.7928 56.8663 44.8298C56.7836 44.8667 56.7017 44.9067 56.6212 44.9485C56.5407 44.9907 56.4617 45.0351 56.3838 45.0822C56.3059 45.1292 56.2298 45.1785 56.1549 45.2301C56.0799 45.2816 56.0064 45.3357 55.9347 45.3918C55.8631 45.4478 55.7929 45.506 55.7249 45.5665C55.6566 45.627 55.5901 45.6894 55.5254 45.7536C55.4607 45.8182 55.3982 45.8847 55.3376 45.953C55.277 46.0214 55.2185 46.0912 55.1619 46.1633C55.1054 46.235 55.051 46.3085 54.9988 46.3836C54.947 46.459 54.897 46.5356 54.8492 46.614C54.8018 46.692 54.7566 46.772 54.7136 46.853C54.6706 46.934 54.6302 47.0162 54.5924 47.0994C54.5541 47.1831 54.5189 47.2675 54.4858 47.3534C54.4527 47.4389 54.4226 47.5255 54.3946 47.6129C54.3667 47.7007 54.3414 47.7888 54.319 47.878H46.2646V43.1314C46.3921 43.0982 46.5182 43.0593 46.6424 43.0149C46.7666 42.9705 46.8886 42.9204 47.0084 42.8652C47.1285 42.8095 47.2458 42.749 47.3604 42.6833C47.4751 42.6176 47.5868 42.5466 47.6952 42.4708C47.8036 42.395 47.9087 42.3147 48.0105 42.2296C48.1119 42.1444 48.2096 42.0548 48.3037 41.9611C48.3974 41.867 48.4871 41.7691 48.5727 41.6672C48.658 41.5656 48.7388 41.4599 48.8153 41.3509C48.8913 41.2419 48.963 41.1298 49.0295 41.0141C49.096 40.8987 49.1577 40.7807 49.214 40.6597C49.2706 40.5387 49.3216 40.4155 49.3672 40.29C49.4131 40.1645 49.4532 40.0372 49.4881 39.908C49.523 39.7791 49.552 39.6488 49.5756 39.517C49.5991 39.3852 49.6167 39.253 49.6288 39.1197C49.641 38.9864 49.6472 38.8527 49.6476 38.719C49.6483 38.5853 49.6432 38.4516 49.6322 38.3183C49.6211 38.185 49.6042 38.052 49.5818 37.9202C49.5594 37.7884 49.5311 37.6577 49.4977 37.5285C49.4638 37.3993 49.4245 37.2716 49.3797 37.1457C49.3349 37.0199 49.2849 36.8963 49.2294 36.7749C49.1739 36.6536 49.1133 36.5348 49.0479 36.4187C48.9821 36.3029 48.9115 36.1898 48.8362 36.0803C48.7605 35.9706 48.6808 35.8645 48.5959 35.7618C48.5113 35.6591 48.4224 35.5605 48.3294 35.4661C48.2361 35.3716 48.1391 35.2812 48.0384 35.1953C47.9373 35.1091 47.833 35.028 47.7249 34.9511C47.6169 34.8745 47.5059 34.8028 47.392 34.736C47.2777 34.6692 47.1609 34.6079 47.0414 34.5515C46.922 34.4951 46.8004 34.444 46.6765 34.3988C46.5527 34.3532 46.427 34.3133 46.2999 34.2789C46.1724 34.2446 46.0441 34.2162 45.914 34.1934C45.7843 34.1706 45.6538 34.1535 45.5227 34.1423C45.3915 34.1311 45.2599 34.1258 45.1284 34.1262C44.9968 34.1269 44.8652 34.1333 44.7341 34.1456C44.6029 34.1579 44.4724 34.1759 44.3431 34.1998C44.2133 34.2237 44.0851 34.2532 43.9579 34.2886C43.8312 34.3241 43.7059 34.3648 43.5824 34.4115C43.4589 34.4578 43.3376 34.5097 43.2186 34.5672C43.0995 34.6244 42.9834 34.6871 42.8695 34.7547C42.7559 34.8223 42.6457 34.8951 42.5384 34.9724C42.4311 35.0501 42.3271 35.1322 42.2268 35.2188C42.1268 35.3059 42.0305 35.397 41.9379 35.4922C41.8457 35.5878 41.7575 35.6871 41.6737 35.7902C41.5899 35.8936 41.5109 36.0001 41.4363 36.1106C41.3617 36.2208 41.2919 36.3343 41.2272 36.4508C41.1625 36.5673 41.1026 36.6864 41.0483 36.8082C40.9939 36.9303 40.9446 37.0542 40.9009 37.1805C40.8572 37.3067 40.819 37.4344 40.7863 37.5643H32.0712L26.763 32.1702C26.6575 32.0626 26.5355 31.9797 26.3973 31.9215C26.2592 31.8636 26.1155 31.8345 25.9659 31.8345H3.41165C3.33742 31.8345 3.2643 31.8416 3.19153 31.8565C3.11914 31.8711 3.04859 31.8927 2.97987 31.9215C2.91152 31.9502 2.84647 31.9857 2.78511 32.0275C2.72337 32.0694 2.66641 32.1168 2.61423 32.1698C2.56168 32.2232 2.51501 32.2811 2.47385 32.3435C2.43269 32.4062 2.39815 32.4723 2.36986 32.5417C2.34156 32.6112 2.31988 32.6829 2.30555 32.7568C2.29122 32.8304 2.28387 32.9051 2.28387 32.9801C2.28387 33.0556 2.29122 33.1299 2.30555 33.2038C2.31988 33.2778 2.34156 33.3495 2.36986 33.4189C2.39815 33.4884 2.43269 33.5545 2.47385 33.6168C2.51501 33.6796 2.56168 33.7375 2.61423 33.7905C2.66641 33.8439 2.72337 33.8913 2.78511 33.9331C2.84647 33.975 2.91152 34.0101 2.97987 34.0392C3.04859 34.0679 3.11914 34.0896 3.19153 34.1042C3.2643 34.1191 3.33742 34.1262 3.41165 34.1262ZM58.6695 46.732C58.7434 46.732 58.8172 46.7357 58.8907 46.7432C58.9642 46.7503 59.037 46.7615 59.1094 46.7761C59.1821 46.7906 59.2534 46.8089 59.3244 46.8306C59.3949 46.8526 59.4644 46.8776 59.5327 46.9064C59.6007 46.9351 59.6676 46.9673 59.7326 47.0027C59.798 47.0378 59.8612 47.0767 59.9226 47.1181C59.984 47.1599 60.0431 47.2048 60.1005 47.2522C60.1574 47.3 60.2122 47.3504 60.2644 47.4034C60.3165 47.4564 60.3661 47.5121 60.4128 47.57C60.4599 47.6278 60.504 47.6883 60.5447 47.7507C60.5859 47.8131 60.6237 47.8773 60.6587 47.9434C60.6936 48.0099 60.7248 48.0775 60.7531 48.1469C60.7814 48.2164 60.8064 48.2869 60.8277 48.3586C60.8494 48.4303 60.867 48.5032 60.8817 48.5767C60.896 48.6503 60.9067 48.7246 60.9141 48.7993C60.9214 48.874 60.9251 48.949 60.9251 49.0241C60.9251 49.0992 60.9214 49.1738 60.9141 49.2485C60.9067 49.3232 60.896 49.3975 60.8817 49.4711C60.867 49.5447 60.8494 49.6175 60.8277 49.6892C60.8064 49.7612 60.7814 49.8318 60.7531 49.9009C60.7248 49.9704 60.6936 50.0383 60.6587 50.1044C60.6237 50.1705 60.5859 50.2347 60.5447 50.2971C60.504 50.3598 60.4599 50.42 60.4128 50.4778C60.3661 50.5361 60.3165 50.5914 60.2644 50.6448C60.2122 50.6978 60.1574 50.7482 60.1005 50.7956C60.0431 50.8434 59.984 50.8879 59.9226 50.9297C59.8612 50.9715 59.798 51.01 59.7326 51.0455C59.6676 51.0806 59.6007 51.1127 59.5327 51.1414C59.4644 51.1702 59.3949 51.1956 59.3244 51.2172C59.2534 51.2389 59.1821 51.2572 59.1094 51.2718C59.037 51.2867 58.9642 51.2975 58.8907 51.305C58.8172 51.3121 58.7434 51.3158 58.6695 51.3158C58.5956 51.3158 58.5218 51.3121 58.4483 51.305C58.3748 51.2975 58.302 51.2867 58.2296 51.2718C58.1569 51.2572 58.0856 51.2389 58.0147 51.2172C57.9441 51.1956 57.8747 51.1702 57.8063 51.1414C57.7383 51.1127 57.6714 51.0806 57.6064 51.0455C57.541 51.01 57.4778 50.9715 57.4164 50.9297C57.355 50.8879 57.2959 50.8434 57.2386 50.7956C57.1816 50.7482 57.1268 50.6978 57.0747 50.6448C57.0225 50.5914 56.9729 50.5361 56.9262 50.4778C56.8792 50.42 56.8351 50.3598 56.7943 50.2971C56.7531 50.2347 56.7153 50.1705 56.6804 50.1044C56.6454 50.0383 56.6142 49.9704 56.5859 49.9009C56.5576 49.8318 56.5326 49.7612 56.5113 49.6892C56.4896 49.6175 56.472 49.5447 56.4573 49.4711C56.443 49.3975 56.4323 49.3232 56.425 49.2485C56.4176 49.1738 56.4139 49.0992 56.4139 49.0241C56.4143 48.949 56.418 48.874 56.4253 48.7993C56.4323 48.7246 56.4433 48.6507 56.4577 48.5771C56.4724 48.5035 56.4904 48.4307 56.5117 48.359C56.5334 48.2869 56.558 48.2164 56.5863 48.1473C56.6146 48.0778 56.6462 48.0102 56.6811 47.9441C56.716 47.8777 56.7539 47.8134 56.795 47.7511C56.8358 47.6887 56.8799 47.6286 56.9266 47.5707C56.9736 47.5125 57.0232 47.4572 57.0754 47.4038C57.1276 47.3508 57.1823 47.3007 57.2393 47.2529C57.2962 47.2055 57.3558 47.1607 57.4171 47.1189C57.4785 47.0774 57.5417 47.0386 57.6068 47.0035C57.6718 46.968 57.7387 46.9359 57.8067 46.9071C57.875 46.8784 57.9445 46.853 58.015 46.8313C58.0856 46.8093 58.1572 46.791 58.2296 46.7764C58.302 46.7619 58.3752 46.7507 58.4487 46.7432C58.5222 46.7357 58.5956 46.732 58.6695 46.732ZM45.1368 36.4183C45.2107 36.4183 45.2845 36.422 45.358 36.4291C45.4315 36.4366 45.5047 36.4478 45.577 36.4624C45.6494 36.4769 45.7211 36.4952 45.7917 36.5169C45.8622 36.5385 45.9317 36.5639 46 36.5927C46.0684 36.6214 46.1349 36.6536 46.2003 36.689C46.2653 36.7241 46.3285 36.763 46.3899 36.8044C46.4513 36.8462 46.5108 36.8907 46.5678 36.9385C46.6247 36.9863 46.6795 37.0363 46.7317 37.0893C46.7838 37.1427 46.8334 37.198 46.8805 37.2563C46.9272 37.3142 46.9713 37.3743 47.0124 37.437C47.0532 37.4994 47.0914 37.5636 47.126 37.6297C47.1609 37.6958 47.1925 37.7638 47.2208 37.8332C47.2491 37.9023 47.2737 37.9729 47.2954 38.0449C47.3167 38.1166 47.3347 38.1895 47.349 38.263C47.3633 38.3366 47.3744 38.4109 47.3814 38.4856C47.3887 38.5603 47.3924 38.635 47.3924 38.71C47.3924 38.7851 47.3887 38.8601 47.3814 38.9348C47.3744 39.0095 47.3633 39.0838 47.349 39.1574C47.3347 39.231 47.3167 39.3038 47.2954 39.3755C47.2737 39.4472 47.2491 39.5177 47.2208 39.5872C47.1925 39.6567 47.1609 39.7243 47.126 39.7907C47.0914 39.8568 47.0532 39.921 47.0124 39.9834C46.9713 40.0458 46.9272 40.1063 46.8805 40.1642C46.8334 40.222 46.7838 40.2777 46.7317 40.3307C46.6795 40.3837 46.6247 40.4341 46.5678 40.4819C46.5108 40.5294 46.4513 40.5742 46.3899 40.616C46.3285 40.6574 46.2653 40.6963 46.2003 40.7314C46.1349 40.7669 46.0684 40.799 46 40.8277C45.9317 40.8565 45.8622 40.8815 45.7917 40.9035C45.7211 40.9252 45.6494 40.9435 45.577 40.9581C45.5047 40.9726 45.4315 40.9838 45.358 40.9909C45.2845 40.9984 45.2107 41.0021 45.1368 41.0021C45.0629 41.0021 44.9894 40.9984 44.916 40.9909C44.8425 40.9838 44.7693 40.9726 44.6969 40.9581C44.6245 40.9435 44.5529 40.9252 44.4823 40.9035C44.4114 40.8815 44.342 40.8565 44.274 40.8277C44.2056 40.799 44.1387 40.7669 44.0737 40.7314C44.0087 40.6963 43.9454 40.6574 43.8841 40.616C43.8223 40.5742 43.7632 40.5294 43.7062 40.4819C43.6489 40.4341 43.5945 40.3837 43.542 40.3307C43.4898 40.2777 43.4405 40.222 43.3935 40.1642C43.3465 40.1063 43.3027 40.0458 43.2616 39.9834C43.2204 39.921 43.1826 39.8568 43.148 39.7907C43.1131 39.7243 43.0815 39.6567 43.0532 39.5872C43.0249 39.5177 42.9999 39.4472 42.9786 39.3755C42.9573 39.3038 42.9393 39.231 42.925 39.1574C42.9106 39.0838 42.8996 39.0095 42.8923 38.9348C42.8853 38.8601 42.8816 38.7851 42.8816 38.71C42.8816 38.635 42.8853 38.5603 42.8926 38.4856C42.9 38.4109 42.9106 38.337 42.9253 38.263C42.9397 38.1895 42.9577 38.117 42.979 38.0449C43.0007 37.9732 43.0257 37.9027 43.0539 37.8336C43.0822 37.7641 43.1138 37.6965 43.1484 37.6301C43.1833 37.564 43.2211 37.4997 43.2623 37.4374C43.3035 37.375 43.3472 37.3149 43.3942 37.2566C43.4409 37.1988 43.4905 37.1431 43.5427 37.0901C43.5949 37.0371 43.6496 36.9867 43.7066 36.9392C43.7639 36.8914 43.8231 36.847 43.8844 36.8052C43.9458 36.7633 44.009 36.7249 44.0741 36.6894C44.1395 36.6543 44.206 36.6222 44.2743 36.5934C44.3423 36.5647 44.4118 36.5393 44.4823 36.5173C44.5533 36.4956 44.6245 36.4773 44.6969 36.4627C44.7697 36.4478 44.8425 36.437 44.916 36.4295C44.9894 36.422 45.0629 36.4183 45.1368 36.4183Z" fill="white"/>
<path d="M3.41165 38.7099H23.2436L28.5515 44.1041C28.6573 44.2116 28.7793 44.2945 28.9175 44.3528C29.0557 44.4107 29.1993 44.4398 29.3489 44.4398H37.243V55.8996C37.243 55.975 37.25 56.0493 37.2647 56.1232C37.2791 56.1972 37.3004 56.2689 37.3287 56.3383C37.3573 56.4078 37.3919 56.4739 37.433 56.5363C37.4742 56.599 37.5209 56.6569 37.5734 56.7099C37.6256 56.7633 37.6825 56.8107 37.7443 56.8525C37.8057 56.8944 37.8707 56.9295 37.939 56.9586C38.0074 56.9874 38.0779 57.009 38.1507 57.0236C38.2235 57.0385 38.2966 57.0456 38.3708 57.0456C38.4447 57.0456 38.5182 57.0385 38.5906 57.0236C38.6633 57.009 38.7339 56.9874 38.8022 56.9586C38.8706 56.9295 38.9356 56.8944 38.9974 56.8525C39.0587 56.8107 39.1157 56.7633 39.1683 56.7099C39.2204 56.6569 39.2671 56.599 39.3083 56.5363C39.3494 56.4739 39.3843 56.4078 39.4126 56.3383C39.4409 56.2689 39.4622 56.1972 39.4766 56.1232C39.4913 56.0493 39.4982 55.975 39.4982 55.8996V43.2941C39.4982 43.2187 39.4913 43.1444 39.4766 43.0705C39.4622 42.9965 39.4409 42.9248 39.4126 42.8554C39.3843 42.7859 39.3494 42.7198 39.3083 42.6574C39.2671 42.5947 39.2204 42.5368 39.1683 42.4838C39.1157 42.4304 39.0587 42.383 38.9974 42.3411C38.9356 42.2993 38.8706 42.2642 38.8022 42.2351C38.7339 42.2063 38.6633 42.1847 38.5906 42.1701C38.5182 42.1552 38.4447 42.1481 38.3708 42.1481H29.816L24.5078 36.7539C24.4019 36.6464 24.2799 36.5635 24.1421 36.5056C24.004 36.4473 23.8599 36.4182 23.7103 36.4182H3.41165C3.33742 36.4182 3.2643 36.4253 3.19153 36.4402C3.11914 36.4548 3.04859 36.4765 2.97987 36.5052C2.91152 36.5343 2.84647 36.5695 2.78511 36.6113C2.72337 36.6531 2.66641 36.7005 2.61423 36.7539C2.56168 36.807 2.51501 36.8648 2.47385 36.9276C2.4327 36.9899 2.39815 37.056 2.36986 37.1255C2.34156 37.1949 2.31988 37.2666 2.30555 37.3406C2.29122 37.4145 2.28387 37.4888 2.28387 37.5643C2.28387 37.6393 2.29122 37.714 2.30555 37.7876C2.31988 37.8615 2.34156 37.9332 2.36986 38.0027C2.39815 38.0721 2.4327 38.1382 2.47385 38.201C2.51501 38.2633 2.56168 38.3212 2.61423 38.3746C2.66641 38.4276 2.72337 38.4751 2.78511 38.5169C2.84647 38.5587 2.91152 38.5942 2.97987 38.6229C3.04859 38.6517 3.11914 38.6733 3.19153 38.6879C3.2643 38.7028 3.33742 38.7099 3.41165 38.7099Z" fill="white"/>
<path d="M64.3081 27.2502H46.7317L41.7538 22.1921V7.76885C41.7538 7.69342 41.7465 7.61911 41.7322 7.54517C41.7178 7.4716 41.6965 7.39991 41.6678 7.33007C41.6395 7.26062 41.605 7.19452 41.5638 7.13216C41.5227 7.06942 41.476 7.01154 41.4235 6.95851C41.3713 6.90511 41.3143 6.85769 41.2526 6.81586C41.1912 6.77404 41.1262 6.73894 41.0578 6.71018C40.9891 6.68143 40.9189 6.6594 40.8462 6.64483C40.7734 6.63027 40.7003 6.6228 40.626 6.6228C40.5522 6.6228 40.4787 6.63027 40.4059 6.64483C40.3335 6.6594 40.263 6.68143 40.1946 6.71018C40.1263 6.73894 40.0612 6.77404 39.9995 6.81586C39.9381 6.85769 39.8812 6.90511 39.8286 6.95851C39.7764 7.01154 39.7298 7.06942 39.6886 7.13216C39.6475 7.19452 39.6125 7.26062 39.5843 7.33007C39.556 7.39991 39.5346 7.4716 39.5199 7.54517C39.5056 7.61911 39.4983 7.69342 39.4983 7.76885V22.6664C39.4986 22.8184 39.5269 22.9647 39.5843 23.1048C39.6416 23.2452 39.7232 23.3692 39.829 23.4767L45.4676 29.2066C45.573 29.3141 45.695 29.3967 45.8332 29.4549C45.9714 29.5132 46.115 29.5423 46.2646 29.5423H64.3081C64.3823 29.5423 64.4555 29.5348 64.5282 29.5203C64.6006 29.5057 64.6712 29.484 64.7395 29.4549C64.8082 29.4262 64.8729 29.3911 64.9346 29.3492C64.996 29.3074 65.053 29.26 65.1055 29.2066C65.1577 29.1536 65.2047 29.0957 65.2459 29.0329C65.2871 28.9706 65.3216 28.9045 65.3499 28.835C65.3782 28.7652 65.3999 28.6939 65.4142 28.6199C65.4285 28.546 65.4359 28.4717 65.4359 28.3962C65.4359 28.3212 65.4285 28.2465 65.4142 28.1729C65.3999 28.099 65.3782 28.0273 65.3499 27.9578C65.3216 27.8884 65.2871 27.8223 65.2459 27.7596C65.2047 27.6972 65.1577 27.6393 65.1055 27.5859C65.053 27.5329 64.996 27.4855 64.9346 27.4436C64.8729 27.4018 64.8082 27.3663 64.7395 27.3376C64.6712 27.3088 64.6006 27.2872 64.5282 27.2722C64.4555 27.2577 64.3823 27.2502 64.3081 27.2502Z" fill="white"/>
<path d="M64.3081 22.6664H48.9869L46.2646 19.9V7.76885C46.2646 7.69342 46.2576 7.61911 46.2429 7.54517C46.2286 7.4716 46.2073 7.39991 46.179 7.33007C46.1503 7.26062 46.1158 7.19452 46.0746 7.13216C46.0335 7.06942 45.9868 7.01154 45.9342 6.95851C45.8821 6.90511 45.8251 6.85769 45.7634 6.81586C45.702 6.77404 45.637 6.73894 45.5686 6.71018C45.5003 6.68143 45.4297 6.6594 45.3569 6.64483C45.2842 6.63027 45.211 6.6228 45.1368 6.6228C45.063 6.6228 44.9895 6.63027 44.9171 6.64483C44.8443 6.6594 44.7738 6.68143 44.7054 6.71018C44.637 6.73894 44.572 6.77404 44.5103 6.81586C44.4489 6.85769 44.3919 6.90511 44.3394 6.95851C44.2872 7.01154 44.2405 7.06942 44.1994 7.13216C44.1582 7.19452 44.1233 7.26062 44.095 7.33007C44.0667 7.39991 44.0454 7.4716 44.0311 7.54517C44.0164 7.61911 44.0094 7.69342 44.0094 7.76885V20.3746C44.0094 20.5266 44.0381 20.6726 44.095 20.8131C44.1523 20.9535 44.2339 21.0774 44.3398 21.1846L47.7228 24.6228C47.8286 24.7299 47.9506 24.8128 48.0888 24.8711C48.2266 24.9293 48.3706 24.9585 48.5202 24.9585H64.3081C64.3823 24.9585 64.4554 24.951 64.5282 24.9364C64.6006 24.9219 64.6712 24.8998 64.7395 24.8711C64.8082 24.8423 64.8729 24.8072 64.9346 24.7654C64.996 24.7236 65.053 24.6758 65.1055 24.6228C65.1577 24.5697 65.2047 24.5115 65.2459 24.4491C65.287 24.3864 65.3216 24.3207 65.3499 24.2508C65.3782 24.1814 65.3999 24.1097 65.4142 24.0361C65.4285 23.9622 65.4359 23.8879 65.4359 23.8124C65.4359 23.7374 65.4285 23.6627 65.4142 23.5887C65.3999 23.5152 65.3782 23.4435 65.3499 23.374C65.3216 23.3042 65.287 23.2385 65.2459 23.1757C65.2047 23.1134 65.1577 23.0555 65.1055 23.0021C65.053 22.9491 64.996 22.9013 64.9346 22.8594C64.8729 22.8176 64.8082 22.7825 64.7395 22.7538C64.6712 22.725 64.6006 22.7033 64.5282 22.6884C64.4554 22.6738 64.3823 22.6664 64.3081 22.6664Z" fill="white"/>
<path d="M3.41165 60.4838H10.178C10.2754 60.4838 10.3709 60.4711 10.465 60.4457C10.5594 60.4207 10.6487 60.3837 10.7333 60.3352C10.8181 60.2863 10.8953 60.2273 10.9651 60.1582C11.035 60.0891 11.0949 60.0122 11.1448 59.9274L14.1997 54.7539H17.1042C17.127 54.8428 17.152 54.9313 17.1799 55.0187C17.2078 55.1061 17.2383 55.1927 17.2714 55.2786C17.3041 55.3641 17.3398 55.4489 17.3776 55.5322C17.4158 55.6158 17.4563 55.698 17.4992 55.779C17.5419 55.86 17.5871 55.9396 17.6348 56.018C17.6822 56.096 17.7322 56.173 17.7844 56.248C17.8366 56.3231 17.891 56.3966 17.9472 56.4687C18.0038 56.5404 18.0626 56.6106 18.1232 56.679C18.1839 56.7473 18.2463 56.8134 18.311 56.878C18.3757 56.9426 18.4418 57.005 18.5102 57.0655C18.5785 57.1256 18.6483 57.1838 18.7204 57.2402C18.792 57.2962 18.8652 57.35 18.9401 57.4015C19.0151 57.4534 19.0915 57.5027 19.1694 57.5494C19.2473 57.5965 19.3263 57.6409 19.4068 57.6831C19.4873 57.7253 19.5689 57.7649 19.6519 57.8019C19.7346 57.8392 19.8184 57.8736 19.9033 57.9057C19.9882 57.9378 20.0738 57.9669 20.1605 57.9938C20.2472 58.0207 20.3347 58.0446 20.4225 58.0659C20.5107 58.0875 20.5993 58.1062 20.6882 58.1219C20.7775 58.1379 20.8672 58.1514 20.9568 58.1618C21.0469 58.1723 21.1369 58.1801 21.2273 58.185C21.3177 58.1898 21.4085 58.1921 21.4989 58.1917C21.5893 58.191 21.6797 58.1876 21.7701 58.1816C21.8605 58.1757 21.9505 58.1667 22.0402 58.1551C22.1302 58.1435 22.2195 58.1294 22.3084 58.1122C22.3973 58.095 22.4859 58.0756 22.5734 58.0528C22.6612 58.0304 22.7483 58.0054 22.8346 57.9774C22.921 57.9497 23.0063 57.9195 23.0908 57.8863C23.1753 57.8534 23.2587 57.8179 23.341 57.7798C23.4233 57.7414 23.5046 57.701 23.5847 57.6577C23.6648 57.6148 23.7434 57.5692 23.8206 57.5214C23.8978 57.4736 23.9738 57.4232 24.048 57.3705C24.1223 57.3183 24.195 57.2634 24.266 57.2066C24.3373 57.1495 24.4063 57.0905 24.474 57.0292C24.5416 56.968 24.6073 56.9045 24.6709 56.8395C24.7349 56.7742 24.7966 56.707 24.8565 56.6379C24.9164 56.5692 24.9741 56.4982 25.0299 56.4258C25.0854 56.353 25.1387 56.279 25.1902 56.2032C25.2412 56.1274 25.2905 56.0501 25.3372 55.9713C25.3838 55.8921 25.4279 55.8122 25.4698 55.7305C25.5117 55.649 25.5514 55.5665 25.5881 55.4825C25.6253 55.3985 25.6598 55.3133 25.6918 55.2274C25.7237 55.1412 25.7531 55.0545 25.78 54.9664C25.8068 54.8787 25.831 54.7902 25.8527 54.7009C25.8744 54.6113 25.8932 54.5217 25.9093 54.4309C25.9255 54.3406 25.9391 54.2494 25.9501 54.1583C25.9611 54.0668 25.9692 53.9753 25.9747 53.8835C25.9799 53.7916 25.9828 53.6998 25.9828 53.6079C25.9828 53.5157 25.9799 53.4238 25.9747 53.3319C25.9692 53.2404 25.9611 53.1486 25.9501 53.0575C25.9391 52.966 25.9255 52.8752 25.9093 52.7845C25.8932 52.6941 25.8744 52.6041 25.8527 52.5149C25.831 52.4256 25.8068 52.3371 25.78 52.249C25.7531 52.1612 25.7237 52.0742 25.6918 51.9883C25.6598 51.9021 25.6253 51.8173 25.5881 51.7333C25.5514 51.6493 25.5117 51.5667 25.4698 51.485C25.4279 51.4035 25.3838 51.3233 25.3372 51.2445C25.2905 51.1657 25.2412 51.0884 25.1902 51.0126C25.1387 50.9368 25.0854 50.8625 25.0299 50.79C24.9741 50.7176 24.9164 50.6466 24.8565 50.5775C24.7966 50.5084 24.7349 50.4416 24.6709 50.3762C24.6073 50.3109 24.5416 50.2478 24.474 50.1865C24.4063 50.1253 24.3373 50.0663 24.266 50.0092C24.195 49.9524 24.1223 49.8975 24.048 49.8449C23.9738 49.7926 23.8978 49.7422 23.8206 49.6944C23.7434 49.6466 23.6648 49.601 23.5847 49.5577C23.5046 49.5147 23.4233 49.474 23.341 49.436C23.2587 49.3979 23.1753 49.3624 23.0908 49.3292C23.0063 49.2963 22.921 49.266 22.8346 49.238C22.7483 49.2104 22.6612 49.185 22.5734 49.1626C22.4859 49.1402 22.3973 49.1204 22.3084 49.1036C22.2195 49.0864 22.1302 49.0719 22.0402 49.0603C21.9505 49.0487 21.8605 49.0401 21.7701 49.0338C21.6797 49.0278 21.5893 49.0244 21.4989 49.0241C21.4085 49.0233 21.3177 49.0256 21.2273 49.0308C21.1369 49.0356 21.0469 49.0435 20.9568 49.0539C20.8672 49.0644 20.7775 49.0775 20.6882 49.0935C20.5993 49.1096 20.5107 49.1283 20.4225 49.1495C20.3347 49.1712 20.2472 49.1951 20.1605 49.222C20.0738 49.2485 19.9882 49.278 19.9033 49.3101C19.8184 49.3419 19.7346 49.3766 19.6519 49.4136C19.5689 49.4509 19.4873 49.4905 19.4068 49.5323C19.3263 49.5745 19.2473 49.6193 19.1694 49.666C19.0915 49.713 19.0151 49.7623 18.9401 49.8139C18.8652 49.8654 18.792 49.9195 18.7204 49.9756C18.6483 50.0316 18.5785 50.0898 18.5102 50.1503C18.4418 50.2108 18.3757 50.2732 18.311 50.3378C18.2463 50.402 18.1839 50.4685 18.1232 50.5368C18.0626 50.6052 18.0038 50.675 17.9472 50.7471C17.891 50.8188 17.8366 50.8923 17.7844 50.9678C17.7322 51.0428 17.6822 51.1194 17.6348 51.1978C17.5871 51.2762 17.5419 51.3557 17.4992 51.4368C17.4563 51.5178 17.4158 51.6 17.3776 51.6836C17.3398 51.7669 17.3041 51.8517 17.2714 51.9372C17.2383 52.0227 17.2078 52.1093 17.1799 52.1971C17.152 52.2845 17.127 52.373 17.1042 52.4618H13.561C13.4636 52.4618 13.3681 52.4745 13.2736 52.4996C13.1796 52.525 13.0903 52.5619 13.0054 52.6105C12.9209 52.6594 12.8433 52.718 12.7739 52.7871C12.704 52.8562 12.6441 52.9331 12.5942 53.0179L9.53896 58.1917H3.41165C3.33742 58.1917 3.2643 58.1992 3.19153 58.2137C3.11914 58.2283 3.04859 58.2503 2.97987 58.2791C2.91152 58.3079 2.84647 58.343 2.78511 58.3848C2.72337 58.4266 2.66641 58.474 2.61423 58.5274C2.56168 58.5805 2.51501 58.6383 2.47385 58.7011C2.4327 58.7634 2.39815 58.8295 2.36986 58.899C2.34156 58.9688 2.31988 59.0401 2.30555 59.1141C2.29122 59.188 2.28387 59.2623 2.28387 59.3378C2.28387 59.4128 2.29122 59.4875 2.30555 59.5614C2.31988 59.635 2.34156 59.7067 2.36986 59.7762C2.39815 59.8456 2.4327 59.9117 2.47385 59.9745C2.51501 60.0368 2.56168 60.0947 2.61423 60.1481C2.66641 60.2011 2.72337 60.2486 2.78511 60.2904C2.84647 60.3322 2.91152 60.3677 2.97987 60.3964C3.04859 60.4252 3.11914 60.4468 3.19153 60.4618C3.2643 60.4763 3.33742 60.4838 3.41165 60.4838ZM21.4551 51.3158C21.529 51.3158 21.6025 51.3195 21.676 51.327C21.7495 51.3341 21.8226 51.3453 21.895 51.3599C21.9674 51.3744 22.0391 51.3927 22.1096 51.4144C22.1805 51.4364 22.25 51.4614 22.318 51.4902C22.3863 51.5189 22.4532 51.5511 22.5182 51.5865C22.5833 51.622 22.6465 51.6605 22.7079 51.7023C22.7696 51.7437 22.8288 51.7886 22.8857 51.836C22.943 51.8838 22.9974 51.9342 23.05 51.9872C23.1022 52.0402 23.1518 52.0959 23.1984 52.1538C23.2455 52.212 23.2892 52.2721 23.3304 52.3345C23.3715 52.3969 23.4094 52.4611 23.4439 52.5276C23.4788 52.5937 23.5104 52.6613 23.5387 52.7307C23.567 52.8002 23.592 52.8707 23.6133 52.9424C23.6346 53.0145 23.6526 53.087 23.667 53.1605C23.6813 53.2345 23.6923 53.3084 23.6997 53.3831C23.7067 53.4578 23.7103 53.5328 23.7103 53.6079C23.7103 53.6829 23.7067 53.7576 23.6997 53.8323C23.6923 53.907 23.6813 53.9813 23.667 54.0549C23.6526 54.1284 23.6346 54.2013 23.6133 54.273C23.592 54.345 23.567 54.4156 23.5387 54.4851C23.5104 54.5542 23.4788 54.6221 23.4439 54.6882C23.4094 54.7543 23.3715 54.8189 23.3304 54.8813C23.2892 54.9436 23.2455 55.0038 23.1984 55.0616C23.1518 55.1199 23.1022 55.1755 23.05 55.2286C22.9974 55.2816 22.943 55.332 22.8857 55.3794C22.8288 55.4272 22.7696 55.4717 22.7079 55.5135C22.6465 55.5553 22.5833 55.5938 22.5182 55.6293C22.4532 55.6644 22.3863 55.6965 22.318 55.7252C22.25 55.754 22.1805 55.7794 22.1096 55.801C22.0391 55.8227 21.9674 55.841 21.895 55.8556C21.8226 55.8705 21.7495 55.8813 21.676 55.8888C21.6025 55.8963 21.529 55.8996 21.4551 55.8996C21.3813 55.8996 21.3074 55.8963 21.2339 55.8888C21.1604 55.8813 21.0873 55.8705 21.0149 55.8556C20.9425 55.841 20.8708 55.8227 20.8003 55.801C20.7297 55.7794 20.6603 55.754 20.5919 55.7252C20.5236 55.6965 20.4571 55.6644 20.3917 55.6293C20.3266 55.5938 20.2634 55.5553 20.202 55.5135C20.1407 55.4717 20.0811 55.4272 20.0242 55.3794C19.9672 55.332 19.9125 55.2816 19.8603 55.2286C19.8081 55.1755 19.7585 55.1199 19.7115 55.0616C19.6648 55.0038 19.6207 54.9436 19.5795 54.8813C19.5387 54.8189 19.5005 54.7543 19.466 54.6882C19.4311 54.6221 19.3995 54.5542 19.3712 54.4851C19.3429 54.4156 19.3183 54.345 19.2966 54.273C19.2753 54.2013 19.2573 54.1284 19.2429 54.0549C19.2286 53.9813 19.2176 53.907 19.2106 53.8323C19.2032 53.7576 19.1996 53.6829 19.1996 53.6079C19.1996 53.5328 19.2032 53.4578 19.2106 53.3831C19.2179 53.3084 19.229 53.2345 19.2433 53.1609C19.2576 53.0873 19.2756 53.0145 19.2973 52.9428C19.3186 52.8711 19.3436 52.8005 19.3719 52.7311C19.4002 52.6616 19.4318 52.594 19.4667 52.5279C19.5013 52.4618 19.5395 52.3972 19.5803 52.3349C19.6214 52.2725 19.6655 52.2124 19.7122 52.1545C19.7592 52.0963 19.8085 52.041 19.8607 51.988C19.9132 51.9349 19.9676 51.8845 20.0249 51.8367C20.0819 51.7893 20.141 51.7445 20.2024 51.7027C20.2638 51.6612 20.327 51.6227 20.3924 51.5873C20.4574 51.5518 20.5239 51.5197 20.5923 51.4909C20.6603 51.4622 20.7297 51.4368 20.8007 51.4151C20.8712 51.3931 20.9429 51.3752 21.0153 51.3602C21.0877 51.3457 21.1604 51.3345 21.2339 51.327C21.3074 51.3195 21.3813 51.3158 21.4551 51.3158Z" fill="white"/>
<path d="M3.41165 65.0677H18.0718C18.146 65.0677 18.2191 65.0603 18.2919 65.0457C18.3647 65.0311 18.4348 65.0091 18.5036 64.9804C18.5719 64.9516 18.637 64.9165 18.6983 64.8747C18.7601 64.8328 18.817 64.785 18.8692 64.732C18.9217 64.6786 18.9684 64.6207 19.0096 64.5584C19.0507 64.4956 19.0853 64.4299 19.1136 64.3601C19.1422 64.2906 19.1635 64.2189 19.1779 64.1454C19.1922 64.0714 19.1996 63.9971 19.1996 63.9217C19.1996 63.8466 19.1922 63.7719 19.1779 63.698C19.1635 63.6244 19.1422 63.5527 19.1136 63.4833C19.0853 63.4134 19.0507 63.3477 19.0096 63.285C18.9684 63.2226 18.9217 63.1647 18.8692 63.1113C18.817 63.0583 18.7601 63.0105 18.6983 62.9687C18.637 62.9269 18.5719 62.8918 18.5036 62.863C18.4348 62.8343 18.3647 62.8122 18.2919 62.7977C18.2191 62.7831 18.146 62.7756 18.0718 62.7756H3.41165C3.33742 62.7756 3.2643 62.7831 3.19153 62.7977C3.11914 62.8122 3.04859 62.8343 2.97987 62.863C2.91152 62.8918 2.84647 62.9269 2.78511 62.9687C2.72337 63.0105 2.66641 63.0583 2.61423 63.1113C2.56168 63.1647 2.51501 63.2226 2.47385 63.285C2.4327 63.3477 2.39815 63.4134 2.36986 63.4833C2.34156 63.5527 2.31988 63.6244 2.30555 63.698C2.29122 63.7719 2.28387 63.8466 2.28387 63.9217C2.28387 63.9971 2.29122 64.0714 2.30555 64.1454C2.31988 64.2189 2.34156 64.2906 2.36986 64.3601C2.39815 64.4299 2.4327 64.4956 2.47385 64.5584C2.51501 64.6207 2.56168 64.6786 2.61423 64.732C2.66641 64.785 2.72337 64.8328 2.78511 64.8747C2.84647 64.9165 2.91152 64.9516 2.97987 64.9804C3.04859 65.0091 3.11914 65.0311 3.19153 65.0457C3.2643 65.0603 3.33742 65.0677 3.41165 65.0677Z" fill="white"/>
<path d="M32.7323 7.76885V22.8292C32.6444 22.8523 32.5577 22.8777 32.4714 22.9061C32.3854 22.9345 32.3001 22.9655 32.216 22.9991C32.1314 23.0323 32.0484 23.0686 31.9661 23.107C31.8841 23.1459 31.8029 23.1869 31.7232 23.2302C31.6434 23.2739 31.5652 23.3199 31.4884 23.3684C31.4112 23.4166 31.3358 23.4674 31.2616 23.5204C31.1878 23.5734 31.1154 23.6287 31.0444 23.6858C30.9739 23.7433 30.9048 23.8027 30.8375 23.8643C30.7707 23.9259 30.7053 23.9898 30.6417 24.0555C30.5785 24.1209 30.5167 24.1885 30.4576 24.2579C30.398 24.3274 30.3407 24.3983 30.2856 24.4711C30.2301 24.5443 30.1772 24.6187 30.1265 24.6948C30.0758 24.771 30.0273 24.8487 29.981 24.9279C29.9347 25.0066 29.8909 25.0873 29.8494 25.1691C29.8079 25.2509 29.7689 25.3338 29.7325 25.4178C29.6958 25.5022 29.662 25.5873 29.6304 25.6736C29.5992 25.7598 29.5701 25.8469 29.5437 25.935C29.5176 26.0231 29.4937 26.1116 29.4727 26.2012C29.4518 26.2905 29.4334 26.3809 29.4176 26.4712C29.4018 26.562 29.389 26.6527 29.3783 26.7442C29.368 26.8357 29.3607 26.9272 29.3555 27.019C29.3507 27.1109 29.3485 27.2028 29.3489 27.295C29.3496 27.3869 29.3529 27.4787 29.3588 27.5706C29.3647 27.6625 29.3735 27.754 29.3849 27.8451C29.3963 27.9366 29.4103 28.0273 29.4272 28.1177C29.4441 28.208 29.4636 28.2977 29.4856 28.3869C29.5077 28.4762 29.5323 28.5647 29.5598 28.6524C29.587 28.7402 29.6172 28.8268 29.6495 28.9127C29.6818 28.9986 29.7171 29.0834 29.7546 29.167C29.7921 29.2507 29.8321 29.3332 29.8744 29.4146C29.9167 29.496 29.9615 29.5755 30.0085 29.6543C30.0559 29.7327 30.1052 29.8097 30.157 29.8855C30.2084 29.9609 30.2624 30.0348 30.3187 30.1069C30.3745 30.179 30.433 30.2496 30.4932 30.3183C30.5531 30.387 30.6156 30.4535 30.6795 30.5184C30.7438 30.5834 30.81 30.6461 30.878 30.707C30.946 30.7679 31.0154 30.8265 31.0867 30.8829C31.1584 30.9397 31.2311 30.9938 31.3061 31.0461C31.3807 31.098 31.4567 31.1477 31.5343 31.1951C31.6118 31.2425 31.6905 31.2877 31.7709 31.3303C31.8511 31.3728 31.9326 31.4132 32.0153 31.4505C32.0976 31.4882 32.1814 31.5233 32.2659 31.5558C32.3508 31.5883 32.4364 31.6182 32.5228 31.6454C32.6092 31.6727 32.6962 31.6973 32.7844 31.7194C32.8723 31.741 32.9608 31.7605 33.0498 31.7769C33.1387 31.7933 33.2284 31.8071 33.318 31.8183C33.4081 31.8292 33.4981 31.8378 33.5885 31.843C33.6789 31.8486 33.7693 31.8516 33.8597 31.8516C33.9504 31.8516 34.0408 31.8486 34.1312 31.843C34.2216 31.8378 34.3117 31.8292 34.4013 31.8183C34.4914 31.8071 34.5807 31.7933 34.67 31.7769C34.7589 31.7605 34.8475 31.741 34.9353 31.7194C35.0231 31.6973 35.1106 31.6727 35.1969 31.6454C35.2833 31.6182 35.3689 31.5883 35.4534 31.5558C35.5383 31.5233 35.6221 31.4882 35.7044 31.4505C35.7871 31.4132 35.8687 31.3728 35.9488 31.3303C36.0289 31.2877 36.1079 31.2425 36.1854 31.1951C36.263 31.1477 36.339 31.098 36.4136 31.0461C36.4882 30.9938 36.5614 30.9397 36.6327 30.8829C36.7043 30.8265 36.7738 30.7679 36.8418 30.707C36.9097 30.6461 36.9759 30.5834 37.0398 30.5184C37.1041 30.4535 37.1662 30.387 37.2265 30.3183C37.2868 30.2496 37.3452 30.179 37.4011 30.1069C37.4573 30.0348 37.5109 29.9609 37.5627 29.8855C37.6146 29.8097 37.6638 29.7327 37.7108 29.6543C37.7582 29.5755 37.8031 29.496 37.8453 29.4146C37.8876 29.3332 37.9276 29.2507 37.9651 29.167C38.0026 29.0834 38.0375 28.9986 38.0702 28.9127C38.1026 28.8268 38.1327 28.7402 38.1599 28.6524C38.1871 28.5647 38.2121 28.4762 38.2341 28.3869C38.2562 28.2977 38.2756 28.208 38.2926 28.1177C38.3091 28.0273 38.3234 27.9366 38.3348 27.8451C38.3462 27.754 38.3547 27.6625 38.3609 27.5706C38.3668 27.4787 38.3701 27.3869 38.3705 27.295C38.3712 27.2028 38.369 27.1109 38.3642 27.019C38.3591 26.9272 38.3513 26.8357 38.3411 26.7442C38.3308 26.6527 38.3179 26.562 38.3021 26.4712C38.2863 26.3809 38.2679 26.2905 38.247 26.2012C38.226 26.1116 38.2022 26.0231 38.1757 25.935C38.1496 25.8469 38.1206 25.7598 38.0893 25.6736C38.0577 25.5873 38.0236 25.5022 37.9872 25.4178C37.9508 25.3338 37.9118 25.2509 37.8703 25.1691C37.8288 25.0873 37.7851 25.0066 37.7388 24.9279C37.6925 24.8487 37.644 24.771 37.5932 24.6948C37.5425 24.6187 37.4892 24.5443 37.4341 24.4711C37.379 24.3983 37.3217 24.3274 37.2621 24.2579C37.2026 24.1885 37.1412 24.1209 37.078 24.0555C37.0145 23.9898 36.9491 23.9259 36.8818 23.8643C36.8149 23.8027 36.7458 23.7433 36.6749 23.6858C36.6044 23.6287 36.532 23.5734 36.4581 23.5204C36.3839 23.4674 36.3085 23.4166 36.2314 23.3684C36.1546 23.3199 36.0759 23.2739 35.9962 23.2302C35.9168 23.1869 35.8356 23.1459 35.7537 23.107C35.6713 23.0686 35.5883 23.0323 35.5038 22.9991C35.4196 22.9655 35.3344 22.9345 35.2484 22.9061C35.162 22.8777 35.0753 22.8523 34.9875 22.8292V7.76885C34.9875 7.69342 34.9805 7.61911 34.9658 7.54517C34.9515 7.4716 34.9301 7.39991 34.9018 7.33007C34.8732 7.26062 34.8386 7.19452 34.7975 7.13216C34.7563 7.06942 34.7097 7.01154 34.6571 6.95851C34.6049 6.90511 34.548 6.85769 34.4862 6.81586C34.4249 6.77404 34.3598 6.73894 34.2915 6.71018C34.2231 6.68143 34.1526 6.6594 34.0798 6.64483C34.007 6.63027 33.9339 6.6228 33.8597 6.6228C33.7858 6.6228 33.7123 6.63027 33.6399 6.64483C33.5672 6.6594 33.4966 6.68143 33.4283 6.71018C33.3599 6.73894 33.2949 6.77404 33.2331 6.81586C33.1718 6.85769 33.1148 6.90511 33.0623 6.95851C33.0101 7.01154 32.9634 7.06942 32.9222 7.13216C32.8811 7.19452 32.8462 7.26062 32.8179 7.33007C32.7896 7.39991 32.7683 7.4716 32.7539 7.54517C32.7392 7.61911 32.7323 7.69342 32.7323 7.76885ZM36.1153 27.2502C36.1153 27.3253 36.1116 27.4003 36.1042 27.475C36.0972 27.5497 36.0862 27.624 36.0719 27.6976C36.0576 27.7711 36.0396 27.8439 36.0182 27.9156C35.9966 27.9873 35.9719 28.0579 35.9436 28.1274C35.9153 28.1968 35.8837 28.2644 35.8488 28.3309C35.8143 28.397 35.7761 28.4612 35.7353 28.5236C35.6941 28.5859 35.65 28.6464 35.6034 28.7043C35.5563 28.7622 35.5067 28.8178 35.4545 28.8709C35.4023 28.9243 35.3476 28.9743 35.2906 29.0221C35.2337 29.0695 35.1741 29.1143 35.1128 29.1562C35.0514 29.1976 34.9882 29.2365 34.9232 29.2716C34.8577 29.307 34.7912 29.3392 34.7229 29.3679C34.6545 29.3967 34.5851 29.4217 34.5145 29.4437C34.444 29.4654 34.3723 29.4837 34.2999 29.4982C34.2275 29.5128 34.1544 29.524 34.0809 29.5311C34.0074 29.5386 33.9335 29.5423 33.8597 29.5423C33.7858 29.5423 33.7123 29.5386 33.6388 29.5311C33.5653 29.524 33.4922 29.5128 33.4198 29.4982C33.3474 29.4837 33.2758 29.4654 33.2052 29.4437C33.1343 29.4217 33.0648 29.3967 32.9968 29.3679C32.9285 29.3392 32.8616 29.307 32.7966 29.2716C32.7315 29.2365 32.6683 29.1976 32.607 29.1562C32.5452 29.1143 32.4861 29.0695 32.4291 29.0221C32.3718 28.9743 32.3174 28.9243 32.2648 28.8709C32.2126 28.8178 32.1634 28.7622 32.1164 28.7043C32.0693 28.6464 32.0256 28.5859 31.9844 28.5236C31.9437 28.4612 31.9054 28.397 31.8709 28.3309C31.836 28.2644 31.8044 28.1968 31.7761 28.1274C31.7478 28.0579 31.7228 27.9873 31.7015 27.9156C31.6802 27.8439 31.6622 27.7711 31.6478 27.6976C31.6335 27.624 31.6225 27.5497 31.6151 27.475C31.6081 27.4003 31.6045 27.3253 31.6045 27.2502C31.6045 27.1751 31.6081 27.1005 31.6151 27.0258C31.6225 26.9511 31.6335 26.8768 31.6478 26.8032C31.6622 26.7296 31.6802 26.6568 31.7015 26.5851C31.7228 26.5131 31.7478 26.4425 31.7761 26.3734C31.8044 26.3039 31.836 26.236 31.8709 26.1699C31.9054 26.1038 31.9437 26.0395 31.9844 25.9772C32.0256 25.9144 32.0693 25.8543 32.1164 25.7964C32.1634 25.7382 32.2126 25.6829 32.2648 25.6295C32.3174 25.5765 32.3718 25.5265 32.4291 25.4787C32.4861 25.4309 32.5452 25.3864 32.607 25.3446C32.6683 25.3031 32.7315 25.2643 32.7966 25.2292C32.8616 25.1937 32.9285 25.1616 32.9968 25.1329C33.0648 25.1041 33.1343 25.0787 33.2052 25.0571C33.2758 25.0354 33.3474 25.0171 33.4198 25.0025C33.4922 24.988 33.5653 24.9768 33.6388 24.9693C33.7123 24.9622 33.7858 24.9585 33.8597 24.9585C33.9335 24.9585 34.0074 24.9622 34.0809 24.9697C34.1544 24.9771 34.2272 24.988 34.2995 25.0029C34.3719 25.0175 34.4436 25.0358 34.5142 25.0574C34.5851 25.0795 34.6545 25.1049 34.7225 25.1336C34.7909 25.1624 34.8574 25.1945 34.9224 25.2296C34.9878 25.2651 35.051 25.3035 35.1124 25.3453C35.1738 25.3872 35.2329 25.4316 35.2899 25.4794C35.3472 25.5268 35.4016 25.5772 35.4542 25.6303C35.5063 25.6833 35.5556 25.7389 35.6026 25.7968C35.6493 25.8551 35.6934 25.9152 35.7345 25.9776C35.7753 26.0399 35.8136 26.1041 35.8481 26.1702C35.883 26.2367 35.9146 26.3043 35.9429 26.3738C35.9712 26.4428 35.9962 26.5134 36.0175 26.5851C36.0392 26.6572 36.0572 26.7296 36.0715 26.8032C36.0859 26.8771 36.0969 26.9511 36.1042 27.0258C36.1116 27.1005 36.1153 27.1751 36.1153 27.2502Z" fill="white"/>
<path d="M64.3081 57.0458H50.7754C50.6258 57.0458 50.4821 57.0749 50.344 57.1332C50.2058 57.1914 50.0838 57.2743 49.9783 57.3815L44.6701 62.7756H35.955C35.9047 62.5796 35.8419 62.3877 35.7665 62.2002C35.6912 62.0127 35.6041 61.8309 35.5049 61.655C35.4057 61.4791 35.2958 61.3107 35.1745 61.1497C35.0532 60.9888 34.9224 60.8368 34.7813 60.6934C34.6402 60.55 34.4906 60.4167 34.3323 60.2938C34.1739 60.1706 34.0081 60.0586 33.8351 59.9581C33.662 59.8573 33.483 59.7688 33.2985 59.6923C33.1141 59.6153 32.9252 59.5515 32.7323 59.5007V47.8781C32.7323 47.8027 32.7249 47.7284 32.7106 47.6544C32.6959 47.5805 32.6746 47.5092 32.6463 47.4393C32.618 47.3699 32.5831 47.3038 32.5419 47.2414C32.5008 47.1787 32.4541 47.1208 32.4019 47.0678C32.3494 47.0144 32.2924 46.967 32.231 46.9251C32.1693 46.8833 32.1042 46.8482 32.0359 46.8195C31.9675 46.7907 31.897 46.7687 31.8242 46.7541C31.7518 46.7395 31.6783 46.7321 31.6045 46.7321H27.5604L22.2522 41.3379C22.1467 41.2304 22.0247 41.1478 21.8866 41.0896C21.7484 41.0313 21.6047 41.0022 21.4551 41.0022H3.41165C3.33742 41.0022 3.2643 41.0097 3.19153 41.0242C3.11914 41.0388 3.04859 41.0608 2.97987 41.0896C2.91152 41.1183 2.84647 41.1534 2.78511 41.1953C2.72337 41.2371 2.66641 41.2845 2.61423 41.3379C2.56168 41.3909 2.51501 41.4488 2.47385 41.5116C2.4327 41.5739 2.39815 41.64 2.36986 41.7095C2.34156 41.7793 2.31988 41.8506 2.30555 41.9246C2.29122 41.9985 2.28387 42.0728 2.28387 42.1482C2.28387 42.2233 2.29122 42.298 2.30555 42.3719C2.31988 42.4455 2.34156 42.5172 2.36986 42.5867C2.39815 42.6561 2.4327 42.7222 2.47385 42.7849C2.51501 42.8473 2.56168 42.9052 2.61423 42.9586C2.66641 43.0116 2.72337 43.059 2.78511 43.1009C2.84647 43.1427 2.91152 43.1782 2.97987 43.2069C3.04859 43.2357 3.11914 43.2573 3.19153 43.2723C3.2643 43.2868 3.33742 43.2943 3.41165 43.2943H20.9881L26.2963 48.6881C26.4021 48.7956 26.5237 48.8785 26.6619 48.9368C26.8001 48.995 26.9441 49.0242 27.0937 49.0242H30.4767V59.5007C30.3492 59.5339 30.2231 59.5728 30.0989 59.6172C29.9747 59.6616 29.8527 59.7117 29.7329 59.7669C29.6131 59.8222 29.4955 59.8827 29.3809 59.9488C29.2662 60.0145 29.1549 60.0851 29.0461 60.1609C28.9377 60.2367 28.8326 60.3174 28.7308 60.4025C28.6294 60.4877 28.5316 60.5769 28.4379 60.671C28.3439 60.7647 28.2542 60.8626 28.1689 60.9645C28.0833 61.0665 28.0025 61.1718 27.9264 61.2808C27.85 61.3899 27.7783 61.5023 27.7118 61.6176C27.6453 61.733 27.5839 61.8514 27.5273 61.9724C27.4711 62.093 27.42 62.2163 27.3741 62.3417C27.3281 62.4672 27.2881 62.5945 27.2532 62.7237C27.2186 62.8529 27.1892 62.9833 27.1657 63.1147C27.1422 63.2465 27.1246 63.3791 27.1124 63.5124C27.1003 63.6454 27.0941 63.779 27.0937 63.9127C27.093 64.0468 27.0985 64.1805 27.1095 64.3138C27.1205 64.4471 27.1371 64.5797 27.1595 64.7115C27.1819 64.8433 27.2102 64.974 27.244 65.1032C27.2774 65.2328 27.3168 65.3605 27.3616 65.4864C27.4064 65.6122 27.4564 65.7358 27.5119 65.8572C27.5674 65.9785 27.628 66.0973 27.6938 66.213C27.7592 66.3292 27.8298 66.442 27.9055 66.5517C27.9808 66.6615 28.0609 66.7676 28.1454 66.8699C28.2299 66.9726 28.3189 67.0712 28.4118 67.1657C28.5052 67.2605 28.6022 67.3509 28.7029 67.4368C28.8039 67.5227 28.9083 67.6041 29.0163 67.6806C29.1244 67.7572 29.2354 67.8292 29.3496 67.8957C29.4636 67.9626 29.5804 68.0242 29.6998 68.0806C29.8193 68.1369 29.9409 68.1877 30.0648 68.2333C30.1886 68.2789 30.3143 68.3184 30.4414 68.3528C30.5689 68.3871 30.6975 68.4159 30.8273 68.4387C30.957 68.4615 31.0874 68.4783 31.2186 68.4895C31.3498 68.5007 31.4814 68.5059 31.6129 68.5055C31.7449 68.5051 31.876 68.4984 32.0072 68.4865C32.1384 68.4742 32.2689 68.4559 32.3982 68.432C32.5279 68.4081 32.6562 68.3786 32.7833 68.3435C32.9105 68.308 33.0354 68.2669 33.1589 68.2206C33.2824 68.1739 33.4036 68.122 33.5227 68.0649C33.6418 68.0074 33.7583 67.945 33.8718 67.8774C33.9854 67.8095 34.096 67.737 34.2033 67.6593C34.3106 67.582 34.4142 67.4999 34.5145 67.4129C34.6148 67.3262 34.7111 67.2351 34.8034 67.1395C34.8956 67.0443 34.9838 66.945 35.0676 66.8415C35.1514 66.7385 35.2307 66.6317 35.3053 66.5215C35.3796 66.411 35.4494 66.2974 35.5141 66.1809C35.5791 66.0644 35.6386 65.9453 35.693 65.8236C35.7474 65.7018 35.7967 65.5778 35.8404 65.4516C35.8841 65.3254 35.9223 65.1973 35.955 65.0677H45.1368C45.2864 65.0677 45.4304 65.0386 45.5686 64.9804C45.7068 64.9221 45.8284 64.8392 45.9342 64.732L51.2424 59.3379H64.3081C64.3823 59.3379 64.4554 59.3304 64.5282 59.3158C64.6006 59.3013 64.6712 59.2792 64.7395 59.2505C64.8082 59.2217 64.8729 59.1866 64.9346 59.1448C64.996 59.103 65.053 59.0552 65.1055 59.0022C65.1577 58.9488 65.2047 58.8909 65.2459 58.8285C65.287 58.7658 65.3216 58.7001 65.3499 58.6302C65.3782 58.5608 65.3999 58.4891 65.4142 58.4155C65.4285 58.3416 65.4359 58.2673 65.4359 58.1918C65.4359 58.1168 65.4285 58.0421 65.4142 57.9681C65.3999 57.8946 65.3782 57.8229 65.3499 57.7534C65.3216 57.6836 65.287 57.6179 65.2459 57.5551C65.2047 57.4928 65.1577 57.4349 65.1055 57.3815C65.053 57.3285 64.996 57.2807 64.9346 57.2388C64.8729 57.197 64.8082 57.1619 64.7395 57.1332C64.6712 57.1044 64.6006 57.0824 64.5282 57.0678C64.4554 57.0532 64.3823 57.0458 64.3081 57.0458ZM31.6045 66.2138C31.5306 66.2138 31.4568 66.2101 31.3833 66.2026C31.3098 66.1951 31.237 66.1843 31.1642 66.1697C31.0918 66.1548 31.0206 66.1369 30.9496 66.1148C30.8791 66.0932 30.8096 66.0678 30.7413 66.039C30.6729 66.0103 30.6064 65.9785 30.5414 65.9431C30.476 65.9076 30.4128 65.8691 30.3514 65.8273C30.29 65.7858 30.2309 65.741 30.1735 65.6932C30.1166 65.6458 30.0618 65.5954 30.0096 65.5424C29.9574 65.4893 29.9078 65.4337 29.8608 65.3758C29.8141 65.3176 29.77 65.2574 29.7292 65.1951C29.6881 65.1327 29.6502 65.0685 29.6153 65.002C29.5804 64.9359 29.5488 64.868 29.5205 64.7989C29.4922 64.7294 29.4676 64.6588 29.4459 64.5871C29.4246 64.5151 29.4066 64.4426 29.3923 64.3687C29.3779 64.2951 29.3669 64.2212 29.3599 64.1465C29.3526 64.0718 29.3489 63.9968 29.3489 63.9217C29.3489 63.8466 29.3526 63.7716 29.3599 63.6969C29.3669 63.6222 29.3779 63.5483 29.3923 63.4747C29.4066 63.4008 29.4246 63.3283 29.4459 63.2562C29.4676 63.1845 29.4922 63.114 29.5205 63.0445C29.5488 62.9754 29.5804 62.9075 29.6153 62.8414C29.6502 62.7749 29.6881 62.7107 29.7292 62.6483C29.77 62.5859 29.8141 62.5258 29.8608 62.4676C29.9078 62.4097 29.9574 62.354 30.0096 62.301C30.0618 62.248 30.1166 62.1976 30.1735 62.1502C30.2309 62.1024 30.29 62.0575 30.3514 62.0161C30.4128 61.9743 30.476 61.9358 30.5414 61.9003C30.6064 61.8649 30.6729 61.8331 30.7413 61.8044C30.8096 61.7756 30.8791 61.7502 30.9496 61.7286C31.0206 61.7065 31.0918 61.6886 31.1642 61.6737C31.237 61.6591 31.3098 61.6483 31.3833 61.6408C31.4568 61.6333 31.5306 61.6296 31.6045 61.6296C31.6783 61.6296 31.7518 61.6333 31.8253 61.6408C31.8988 61.6483 31.972 61.6591 32.0443 61.6737C32.1167 61.6886 32.1884 61.7065 32.259 61.7286C32.3299 61.7502 32.3993 61.7756 32.4677 61.8044C32.5357 61.8331 32.6025 61.8649 32.6676 61.9003C32.7326 61.9358 32.7962 61.9743 32.8576 62.0161C32.9189 62.0575 32.9781 62.1024 33.0351 62.1502C33.0924 62.1976 33.1471 62.248 33.1993 62.301C33.2515 62.354 33.3011 62.4097 33.3478 62.4676C33.3948 62.5258 33.4386 62.5859 33.4797 62.6483C33.5209 62.7107 33.5587 62.7749 33.5936 62.8414C33.6282 62.9075 33.6598 62.9754 33.6881 63.0445C33.7164 63.114 33.7414 63.1845 33.7627 63.2562C33.784 63.3283 33.802 63.4008 33.8163 63.4747C33.831 63.5483 33.8417 63.6222 33.849 63.6969C33.8564 63.7716 33.8597 63.8466 33.8597 63.9217C33.8597 63.9968 33.856 64.0714 33.8487 64.1461C33.8413 64.2208 33.8307 64.2951 33.816 64.3687C33.8016 64.4423 33.7836 64.5151 33.7623 64.5868C33.7406 64.6585 33.716 64.729 33.6877 64.7985C33.6594 64.8676 33.6278 64.9356 33.5929 65.0016C33.558 65.0677 33.5201 65.132 33.479 65.1943C33.4378 65.2571 33.3941 65.3172 33.3471 65.3751C33.3004 65.433 33.2508 65.4886 33.1986 65.5416C33.1464 65.5947 33.0917 65.6451 33.0347 65.6929C32.9774 65.7403 32.9182 65.7851 32.8568 65.8265C32.7955 65.8684 32.7323 65.9068 32.6672 65.9423C32.6022 65.9778 32.5353 66.0099 32.4673 66.0387C32.399 66.0674 32.3295 66.0928 32.259 66.1145C32.1884 66.1361 32.1167 66.1544 32.0443 66.1694C31.972 66.1839 31.8988 66.1951 31.8253 66.2026C31.7518 66.2097 31.6783 66.2134 31.6045 66.2138Z" fill="white"/>
<path d="M64.3081 61.6294H53.031C52.8814 61.6298 52.7377 61.6585 52.5995 61.7168C52.4614 61.775 52.3394 61.8579 52.2335 61.9655L47.7228 66.5493C47.6698 66.6023 47.6221 66.6602 47.5802 66.7226C47.5383 66.7853 47.503 66.8514 47.474 66.9212C47.4449 66.9907 47.4233 67.0628 47.4082 67.1367C47.3931 67.211 47.3854 67.2861 47.385 67.3615C47.385 67.4373 47.392 67.5124 47.406 67.5867C47.4203 67.6606 47.4416 67.7331 47.4699 67.8029C47.4982 67.8727 47.5331 67.9396 47.5747 68.0023C47.6158 68.0654 47.6629 68.1237 47.7154 68.1771C47.768 68.2305 47.8253 68.2783 47.8874 68.3205C47.9495 68.3623 48.0149 68.3978 48.0836 68.4265C48.1527 68.4553 48.2236 68.4769 48.2968 68.4915C48.3699 68.5061 48.4434 68.5132 48.518 68.5128C48.5926 68.5124 48.6661 68.5046 48.7392 68.4893C48.812 68.4743 48.8829 68.4519 48.9516 68.4224C49.0199 68.3929 49.085 68.3571 49.1467 68.3145C49.2085 68.2719 49.2651 68.2238 49.3172 68.1696L53.498 63.9215H64.3081C64.3823 63.9215 64.4554 63.914 64.5282 63.8995C64.6006 63.8849 64.6712 63.8632 64.7395 63.8341C64.8082 63.8054 64.8729 63.7703 64.9346 63.7284C64.996 63.6866 65.053 63.6392 65.1055 63.5858C65.1577 63.5328 65.2047 63.4749 65.2459 63.4121C65.287 63.3498 65.3216 63.2837 65.3499 63.2142C65.3782 63.1444 65.3999 63.0731 65.4142 62.9991C65.4285 62.9252 65.4359 62.8509 65.4359 62.7754C65.4359 62.7004 65.4285 62.6257 65.4142 62.5521C65.3999 62.4782 65.3782 62.4065 65.3499 62.337C65.3216 62.2676 65.287 62.2015 65.2459 62.1387C65.2047 62.0764 65.1577 62.0185 65.1055 61.9651C65.053 61.9121 64.996 61.8647 64.9346 61.8228C64.8729 61.781 64.8082 61.7455 64.7395 61.7168C64.6712 61.688 64.6006 61.6664 64.5282 61.6514C64.4554 61.6369 64.3823 61.6294 64.3081 61.6294Z" fill="white"/>
<path d="M64.3081 18.0826H51.2424L50.7754 17.6079V7.76885C50.7754 7.69342 50.7684 7.61911 50.7537 7.54517C50.7394 7.4716 50.7181 7.39991 50.6898 7.33007C50.6615 7.26062 50.6265 7.19452 50.5854 7.13216C50.5442 7.06942 50.4976 7.01154 50.4454 6.95851C50.3928 6.90511 50.3359 6.85769 50.2745 6.81586C50.2128 6.77404 50.1477 6.73894 50.0794 6.71018C50.011 6.68143 49.9405 6.6594 49.8677 6.64483C49.7953 6.63027 49.7218 6.6228 49.648 6.6228C49.5737 6.6228 49.5006 6.63027 49.4278 6.64483C49.3551 6.6594 49.2845 6.68143 49.2162 6.71018C49.1478 6.73894 49.0828 6.77404 49.0214 6.81586C48.9597 6.85769 48.9027 6.90511 48.8505 6.95851C48.798 7.01154 48.7513 7.06942 48.7102 7.13216C48.669 7.19452 48.6345 7.26062 48.6058 7.33007C48.5775 7.39991 48.5562 7.4716 48.5419 7.54517C48.5272 7.61911 48.5202 7.69342 48.5202 7.76885V18.0826C48.5202 18.2345 48.5488 18.3805 48.6062 18.521C48.6631 18.6614 48.7447 18.7853 48.8505 18.8929L49.9783 20.0386C50.0838 20.1461 50.2058 20.229 50.344 20.2873C50.4821 20.3455 50.6258 20.3747 50.7754 20.3747H64.3081C64.3823 20.3747 64.4554 20.3672 64.5282 20.3526C64.6006 20.3377 64.6711 20.316 64.7395 20.2873C64.8082 20.2585 64.8729 20.223 64.9346 20.1812C64.996 20.1394 65.053 20.092 65.1055 20.0389C65.1577 19.9855 65.2047 19.9277 65.2459 19.8653C65.287 19.8026 65.3216 19.7365 65.3499 19.667C65.3782 19.5975 65.3999 19.5259 65.4142 19.4523C65.4285 19.3783 65.4359 19.3037 65.4359 19.2286C65.4359 19.1532 65.4285 19.0789 65.4142 19.0049C65.3999 18.9314 65.3782 18.8597 65.3499 18.7898C65.3216 18.7204 65.287 18.6543 65.2459 18.5919C65.2047 18.5292 65.1577 18.4713 65.1055 18.4183C65.053 18.3649 64.996 18.3174 64.9346 18.2756C64.8729 18.2338 64.8082 18.1987 64.7395 18.1699C64.6711 18.1412 64.6006 18.1191 64.5282 18.1046C64.4554 18.09 64.3823 18.0826 64.3081 18.0826Z" fill="white"/>
<path d="M3.41165 14.6448H14.6888C14.7626 14.6448 14.8361 14.6373 14.9089 14.6227C14.9813 14.6078 15.0519 14.5861 15.1202 14.5574C15.1886 14.5286 15.2536 14.4932 15.3153 14.4513C15.3767 14.4095 15.4337 14.3621 15.4862 14.3091C15.5384 14.2557 15.5851 14.1978 15.6262 14.1354C15.6674 14.0727 15.7023 14.0066 15.7306 13.9371C15.7589 13.8677 15.7802 13.796 15.7949 13.7224C15.8092 13.6485 15.8166 13.5738 15.8166 13.4987V7.76885C15.8166 7.69342 15.8092 7.61911 15.7949 7.54517C15.7802 7.4716 15.7589 7.39991 15.7306 7.33007C15.7023 7.26062 15.6674 7.19452 15.6262 7.13216C15.5851 7.06942 15.5384 7.01154 15.4862 6.95851C15.4337 6.90511 15.3767 6.85769 15.3153 6.81586C15.2536 6.77404 15.1886 6.73894 15.1202 6.71018C15.0519 6.68143 14.9813 6.6594 14.9089 6.64483C14.8361 6.63027 14.7626 6.6228 14.6888 6.6228C14.6146 6.6228 14.5414 6.63027 14.4687 6.64483C14.3959 6.6594 14.3257 6.68143 14.257 6.71018C14.1886 6.73894 14.1236 6.77404 14.0622 6.81586C14.0005 6.85769 13.9435 6.90511 13.8914 6.95851C13.8388 7.01154 13.7921 7.06942 13.751 7.13216C13.7098 7.19452 13.6753 7.26062 13.647 7.33007C13.6183 7.39991 13.597 7.4716 13.5827 7.54517C13.5683 7.61911 13.561 7.69342 13.561 7.76885V12.3527H3.41165C3.33742 12.3527 3.2643 12.3601 3.19153 12.3747C3.11914 12.3893 3.04859 12.4113 2.97987 12.4401C2.91152 12.4688 2.84647 12.5039 2.78511 12.5457C2.72337 12.5876 2.66641 12.635 2.61423 12.6884C2.56168 12.7414 2.51501 12.7993 2.47385 12.862C2.4327 12.9244 2.39815 12.9905 2.36986 13.0599C2.34156 13.1298 2.31988 13.2015 2.30555 13.275C2.29122 13.349 2.28387 13.4233 2.28387 13.4987C2.28387 13.5738 2.29122 13.6485 2.30555 13.7224C2.31988 13.796 2.34156 13.8677 2.36986 13.9371C2.39815 14.0066 2.4327 14.0727 2.47385 14.1354C2.51501 14.1978 2.56168 14.2557 2.61423 14.3091C2.66641 14.3621 2.72337 14.4095 2.78511 14.4513C2.84647 14.4932 2.91152 14.5286 2.97987 14.5574C3.04859 14.5861 3.11914 14.6078 3.19153 14.6227C3.2643 14.6373 3.33742 14.6448 3.41165 14.6448Z" fill="white"/>
</g>
<defs>
<clipPath id="clip0_19_231">
<rect width="67.7333" height="68.8302" fill="white" transform="translate(0 4.302)"/>
</clipPath>
</defs>
</svg>
