<svg width="625" height="535" viewBox="0 0 625 535" fill="none" xmlns="http://www.w3.org/2000/svg">
<g clip-path="url(#clip0_17_131)">
<mask id="mask0_17_131" style="mask-type:luminance" maskUnits="userSpaceOnUse" x="202" y="96" width="323" height="429">
<path d="M202.977 96.3964H524.405V524.321H202.977V96.3964Z" fill="white"/>
</mask>
<g mask="url(#mask0_17_131)">
<path d="M494.591 524.445H232.977C216.492 524.445 203.14 511.13 203.14 494.712V126.81C203.14 110.381 216.492 97.0655 232.977 97.0655H494.591C511.074 97.0655 524.429 110.381 524.429 126.81V494.712C524.429 511.13 511.074 524.445 494.591 524.445Z" fill="#7AA500"/>
</g>
<path d="M494.635 484.334H232.922V137.185H494.635V484.334Z" fill="#FAFAFA"/>
<mask id="mask1_17_131" style="mask-type:luminance" maskUnits="userSpaceOnUse" x="281" y="64" width="165" height="86">
<path d="M281.436 64.9546H445.871V149.785H281.436V64.9546Z" fill="white"/>
</mask>
<g mask="url(#mask1_17_131)">
<path d="M445.801 149.119H281.767V88.0459C281.767 75.2838 292.152 64.9258 304.969 64.9258H422.599C435.416 64.9258 445.801 75.2838 445.801 88.0459V149.119Z" fill="#192746"/>
</g>
<path d="M344.471 79.0288H319.4C311.858 79.0288 305.74 85.126 305.74 92.6425C305.74 100.159 311.858 106.247 319.4 106.247H344.471V79.0288Z" fill="white"/>
<path d="M408.165 79.0288H383.094V106.247H408.165C415.711 106.247 421.829 100.159 421.829 92.6425C421.829 85.126 415.711 79.0288 408.165 79.0288Z" fill="white"/>
<path d="M350.537 209.43H454.976" stroke="#192746" stroke-width="12.4925" stroke-miterlimit="10" stroke-linecap="round"/>
<path d="M350.537 252.896H454.976" stroke="#192746" stroke-width="12.4925" stroke-miterlimit="10" stroke-linecap="round"/>
<path d="M350.537 296.373H454.976" stroke="#192746" stroke-width="12.4925" stroke-miterlimit="10" stroke-linecap="round"/>
<path d="M350.537 339.841H454.976" stroke="#192746" stroke-width="12.4925" stroke-miterlimit="10" stroke-linecap="round"/>
<path d="M350.537 383.306H454.976" stroke="#192746" stroke-width="12.4925" stroke-miterlimit="10" stroke-linecap="round"/>
<path d="M350.537 426.783H454.976" stroke="#192746" stroke-width="12.4925" stroke-miterlimit="10" stroke-linecap="round"/>
<path d="M300.839 247.441H262.695V209.43H300.839V247.441Z" stroke="#192746" stroke-width="12.4925" stroke-miterlimit="10" stroke-linecap="round" stroke-linejoin="round"/>
<path d="M300.839 334.375H262.695V296.372H300.839V334.375Z" stroke="#192746" stroke-width="12.4925" stroke-miterlimit="10" stroke-linecap="round" stroke-linejoin="round"/>
<path d="M300.839 421.32H262.695V383.306H300.839V421.32Z" stroke="#192746" stroke-width="12.4925" stroke-miterlimit="10" stroke-linecap="round" stroke-linejoin="round"/>
<path d="M272.165 221.633L286.906 235.716L320.083 179.388" stroke="#D64151" stroke-width="12.4925" stroke-miterlimit="10" stroke-linecap="round" stroke-linejoin="round"/>
<path d="M272.165 308.694L286.906 322.777L320.083 266.448" stroke="#D64151" stroke-width="12.4925" stroke-miterlimit="10" stroke-linecap="round" stroke-linejoin="round"/>
<path d="M272.165 395.755L286.906 409.838L320.083 353.509" stroke="#D64151" stroke-width="12.4925" stroke-miterlimit="10" stroke-linecap="round" stroke-linejoin="round"/>
<mask id="mask2_17_131" style="mask-type:luminance" maskUnits="userSpaceOnUse" x="424" y="0" width="201" height="201">
<path d="M424.008 0.414185H624.901V200.622H424.008V0.414185Z" fill="white"/>
</mask>
<g mask="url(#mask2_17_131)">
<path d="M625.09 100.617C625.09 155.952 580.081 200.816 524.548 200.816C469.017 200.816 424.008 155.952 424.008 100.617C424.008 45.2756 469.017 0.414185 524.548 0.414185C580.081 0.414185 625.09 45.2756 625.09 100.617Z" fill="#356B00"/>
</g>
<path d="M589.847 46.4806C574.19 27.9544 550.758 16.1742 524.548 16.1742C477.42 16.1742 439.212 54.2461 439.212 101.21C439.212 134.839 458.804 163.894 487.223 177.696C498.5 183.176 511.161 186.252 524.548 186.252C571.676 186.252 609.881 148.175 609.881 101.21C609.881 80.3612 602.336 61.2789 589.847 46.4806Z" fill="#FFFFFD"/>
<path d="M526.271 49.6638C526.271 50.133 525.504 50.5096 524.548 50.5096C523.597 50.5096 522.824 50.133 522.824 49.6638V25.8457C522.824 25.3822 523.597 25.0057 524.548 25.0057C525.504 25.0057 526.271 25.3822 526.271 25.8457V49.6638Z" fill="#6D8896"/>
<path d="M526.271 178.203C526.271 178.666 525.504 179.046 524.548 179.046C523.597 179.046 522.824 178.666 522.824 178.203V154.382C522.824 153.916 523.597 153.536 524.548 153.536C525.504 153.536 526.271 153.916 526.271 154.382V178.203Z" fill="#6D8896"/>
<path d="M577.878 103.739C577.41 103.739 577.032 102.974 577.032 102.024C577.032 101.074 577.41 100.304 577.878 100.304H601.778C602.251 100.304 602.623 101.074 602.623 102.024C602.623 102.974 602.251 103.739 601.778 103.739H577.878Z" fill="#6D8896"/>
<path d="M520.144 101.404L522.385 105.46L470.846 133.825L465.498 134.237L468.593 129.77L520.144 101.404Z" fill="#EC3223"/>
<path d="M447.667 103.739C447.202 103.739 446.821 102.972 446.821 102.024C446.821 101.074 447.202 100.304 447.667 100.304H471.563C472.031 100.304 472.415 101.074 472.415 102.024C472.415 102.972 472.031 103.739 471.563 103.739H447.667Z" fill="#6D8896"/>
<path d="M522.153 97.3146C526.704 97.3146 530.39 100.993 530.39 105.529C530.39 110.065 526.704 113.744 522.153 113.744C517.598 113.744 513.904 110.065 513.904 105.529C513.904 100.993 517.598 97.3146 522.153 97.3146Z" fill="#0C1A23"/>
<path d="M522.74 99.4175L515.805 105.529L494.896 81.6328V74.1685L501.831 75.5182L522.74 99.4175Z" fill="#0C1A23"/>
<path d="M526.062 105.911L522.147 99.991L578.317 63.0834L584.836 62.8604L582.238 69.0039L526.062 105.911Z" fill="#0C1A23"/>
<path d="M48.3137 525.502C48.3137 525.502 157.851 513.053 189.575 493.881C221.296 474.709 192.267 361.156 179.214 358.15C166.161 355.143 37.0134 379.581 37.0134 379.581L48.3137 525.502Z" fill="#FFAE3A"/>
<path d="M12.0879 372.56C12.0879 372.56 -1.88333 507.471 0.758617 513.079C3.40347 518.695 25.3064 525.838 34.3686 527.718C43.4309 529.598 48.7177 526.412 49.4763 523.68C50.232 520.952 37.0135 379.575 37.0135 379.575L12.0937 372.557L12.0879 372.56Z" fill="#FFD49C"/>
<path d="M32.4823 336.715L37.0105 379.581L232.622 352.51L226.577 314.907L32.4823 336.715Z" fill="#7CB539"/>
<path d="M232.622 352.51C232.622 352.51 237.156 408.155 246.594 444.626C256.034 481.096 259.809 493.293 259.809 493.293C259.809 493.293 233.753 512.677 182.021 524.335C130.284 535.994 66.0923 534.484 66.0923 534.484C66.0923 534.484 40.7918 426.951 37.0134 379.575L232.628 352.504L232.622 352.51Z" fill="#FFEED9"/>
<path d="M150.516 469.423L105.446 476.748L103.853 467.033L121.05 441.923C125.215 435.293 127.017 430.267 126.462 426.852C126.006 424.083 125.055 422.079 123.608 420.831C122.155 419.585 120.283 419.151 117.975 419.524C115.697 419.895 114.005 421.161 112.901 423.319C111.796 425.479 111.485 428.005 111.956 430.887L96.9645 433.323C96.3164 429.378 96.7088 425.572 98.1416 421.908C99.5745 418.247 101.897 415.185 105.108 412.726C108.32 410.273 112.095 408.685 116.443 407.979C123.422 406.843 129.06 407.576 133.362 410.174C137.655 412.772 140.297 417.074 141.282 423.081C141.697 425.613 141.631 428.159 141.076 430.711C140.52 433.262 139.462 436.02 137.899 438.98C136.338 441.94 133.699 445.99 129.987 451.128L123.218 462.068L148.638 457.935L150.521 469.42L150.516 469.423Z" fill="#7CB539"/>
<path d="M193.897 413.992C194.409 417.111 194.083 419.993 192.921 422.626C191.758 425.265 189.939 427.53 187.454 429.41C190.773 430.412 193.554 432.069 195.783 434.383C198.016 436.698 199.419 439.635 200.006 443.195C200.951 448.938 199.701 453.793 196.272 457.77C192.836 461.744 187.634 464.299 180.652 465.437C173.642 466.578 167.838 465.802 163.237 463.117C158.636 460.438 155.869 456.238 154.93 450.526C154.367 447.079 154.753 443.887 156.093 440.947C157.43 438.01 159.604 435.51 162.609 433.448C159.621 432.451 157.145 430.89 155.189 428.758C153.23 426.629 151.995 424.002 151.486 420.883C150.568 415.287 151.751 410.562 155.035 406.698C158.319 402.84 163.199 400.381 169.675 399.333C176.211 398.269 181.652 399.049 185.994 401.667C190.343 404.286 192.973 408.393 193.891 413.986L193.897 413.992ZM171.558 410.82C169.544 411.145 168.123 412.048 167.289 413.531C166.452 415.014 166.225 416.92 166.609 419.243C166.986 421.543 167.823 423.31 169.12 424.55C170.416 425.789 172.096 426.244 174.168 425.908C176.206 425.575 177.621 424.622 178.412 423.041C179.199 421.459 179.406 419.524 179.028 417.224C178.65 414.925 177.83 413.201 176.563 412.048C175.299 410.893 173.628 410.484 171.558 410.82ZM184.812 444.446C184.376 441.796 183.355 439.869 181.745 438.659C180.138 437.457 178.208 437.037 175.961 437.399C173.715 437.767 172.015 438.775 170.858 440.426C169.701 442.079 169.344 444.234 169.774 446.882C170.192 449.445 171.227 451.357 172.875 452.617C174.526 453.877 176.485 454.32 178.763 453.949C180.984 453.587 182.649 452.559 183.768 450.865C184.89 449.17 185.239 447.027 184.812 444.44V444.446Z" fill="#7CB539"/>
<path d="M52.682 389.539C63.9794 388.326 75.268 386.976 86.5362 385.49C89.681 385.076 92.8199 384.647 95.956 384.213C96.9442 384.074 96.5227 382.582 95.5433 382.721C84.4407 384.259 73.3177 385.664 62.1803 386.935C59.0152 387.297 55.8472 387.648 52.682 387.99C51.6968 388.094 51.6851 389.647 52.682 389.539Z" fill="#DD423A"/>
<path d="M101.17 382.535C115.525 381.157 129.746 378.672 143.839 375.679C157.936 372.69 171.921 369.209 185.922 365.794C193.973 363.833 202.023 361.869 210.071 359.905C211.042 359.667 210.632 358.176 209.656 358.413C195.484 361.869 181.321 365.356 167.143 368.765C153.23 372.105 139.265 375.294 125.154 377.721C117.202 379.089 109.201 380.21 101.17 380.986C100.185 381.079 100.176 382.634 101.17 382.535Z" fill="#DD423A"/>
<path d="M58.7361 480.519C66.4556 488.572 74.9947 495.827 84.1965 502.145C86.8007 503.932 89.4572 505.641 92.1601 507.28C93.0146 507.802 93.7994 506.458 92.942 505.942C83.4699 500.207 74.5936 493.525 66.4963 485.988C64.2148 483.865 61.9942 481.675 59.8348 479.424C59.1401 478.7 58.0444 479.795 58.7361 480.519Z" fill="#DD423A"/>
<path d="M100.804 501.339C108.21 505.87 115.993 509.763 124.053 513.007C124.983 513.38 125.387 511.883 124.468 511.515C116.536 508.317 108.881 504.459 101.592 500.001C100.734 499.48 99.9524 500.818 100.807 501.339H100.804Z" fill="#DD423A"/>
<path d="M76.4161 510.91C79.4446 511.883 82.476 512.859 85.5103 513.829C86.4636 514.133 86.8734 512.642 85.923 512.338C82.8945 511.364 79.866 510.388 76.8317 509.418C75.8755 509.114 75.4656 510.605 76.4161 510.91Z" fill="#DD423A"/>
<path d="M239.868 480.322C237.203 484.412 232.622 486.99 228.504 489.415C223.892 492.12 219.108 494.521 214.274 496.804C211.56 498.087 208.825 499.326 206.098 500.566C205.189 500.977 205.979 502.31 206.88 501.901C211.865 499.645 216.846 497.371 221.718 494.883C226.589 492.392 231.201 489.892 235.511 486.784C237.706 485.197 239.723 483.384 241.208 481.107C241.752 480.27 240.409 479.491 239.865 480.328L239.868 480.322Z" fill="#DD423A"/>
<path d="M80.4269 331.018C80.4472 331.29 80.4676 331.461 80.4763 331.539C80.4676 331.409 80.4618 331.284 80.4501 331.157C80.4414 331.111 80.4356 331.064 80.4269 331.018Z" fill="white" stroke="black" stroke-width="0.929201" stroke-miterlimit="10"/>
<path d="M58.095 340.402C58.095 340.402 58.0768 340.382 58.0676 340.365C58.0676 340.365 58.0676 340.376 58.0676 340.382C58.0707 340.391 58.0828 340.402 58.0889 340.408L58.095 340.402Z" fill="white" stroke="black" stroke-width="0.929201" stroke-miterlimit="10"/>
<path d="M89.245 330.34C89.1462 329.494 89.0008 328.64 88.809 327.794C87.6319 322.708 84.3564 318.291 79.9589 315.507C75.6777 312.805 70.5595 311.973 65.604 312.7C60.4277 313.462 56.0128 316.503 52.932 320.611C50.7202 323.548 49.2641 327.252 48.6711 330.867C48.4473 332.237 48.3253 333.59 48.3195 334.937L57.1696 333.946C57.1754 333.822 57.1841 333.688 57.2015 333.552C57.2044 333.518 57.2364 333.254 57.2567 333.089C57.2887 332.892 57.3236 332.675 57.341 332.608C57.4137 332.205 57.5009 331.809 57.5997 331.409C57.7973 330.615 58.0444 329.833 58.3263 329.069C58.3786 328.935 58.4978 328.718 58.5327 328.567C58.6373 328.342 58.7419 328.118 58.8437 327.898C59.1256 327.339 59.4366 326.786 59.7679 326.256C59.919 326.018 60.0702 325.79 60.2358 325.564C60.2504 325.532 60.2823 325.491 60.3172 325.445C60.4015 325.346 60.4887 325.234 60.541 325.181C60.7328 324.958 60.9363 324.735 61.1368 324.524C61.4711 324.179 61.8286 323.849 62.1861 323.539C62.218 323.516 62.2587 323.481 62.311 323.441C62.4099 323.368 62.5058 323.29 62.5581 323.255C62.9417 322.992 63.337 322.748 63.741 322.525C63.9125 322.427 64.1247 322.288 64.3397 322.163C64.3688 322.157 64.4124 322.143 64.4938 322.117C64.5781 322.088 64.6653 322.05 64.7437 322.018C64.9414 321.946 65.1419 321.871 65.3395 321.813C65.79 321.662 66.258 321.535 66.7259 321.43C66.9642 321.378 67.1909 321.332 67.4264 321.291C67.5136 321.286 67.6124 321.277 67.6647 321.271C67.9292 321.251 68.1995 321.233 68.464 321.225C68.9145 321.207 69.3591 321.207 69.8009 321.228L70.4229 321.277C70.4229 321.277 70.481 321.28 70.5217 321.291C70.6467 321.306 70.7717 321.326 70.8327 321.343C71.042 321.378 71.2483 321.416 71.446 321.468C71.911 321.569 72.3702 321.694 72.8207 321.845C72.9922 321.897 73.1637 321.963 73.3293 322.036C73.3584 322.05 73.3962 322.056 73.4282 322.065C73.527 322.088 73.6258 322.123 73.7217 322.169C73.7391 322.175 73.745 322.175 73.7595 322.183C73.8322 322.215 73.9135 322.241 73.9978 322.267C73.931 322.253 73.8787 322.236 73.8263 322.221C74.0182 322.308 74.2042 322.407 74.3873 322.499C74.7855 322.708 75.1691 322.934 75.5499 323.177C75.7242 323.284 75.9015 323.403 76.073 323.522C76.0875 323.527 76.105 323.542 76.1079 323.554C76.7531 324.107 77.3809 324.66 77.9448 325.3C78.0349 325.407 78.1337 325.52 78.2209 325.63C78.5173 326.042 78.7818 326.462 79.0347 326.896C79.2439 327.261 79.4183 327.638 79.6072 328.006C79.6944 328.229 79.7758 328.449 79.8485 328.666C80.0374 329.251 80.1972 329.839 80.3222 330.433C80.3571 330.624 80.3949 330.815 80.4269 331.006C80.421 330.919 80.4094 330.833 80.4036 330.714C80.421 330.861 80.4414 331.001 80.4559 331.145L80.4763 331.255C80.4763 331.255 80.4821 331.29 80.4821 331.31C80.514 331.502 80.5024 331.704 80.4763 331.522C80.5286 332.168 80.5489 332.825 80.546 333.477C80.5402 333.926 80.5228 334.375 80.4937 334.824C80.4763 335.05 80.4559 335.273 80.4356 335.502C80.4298 335.597 80.3542 336.096 80.3542 336.145C80.3571 336.142 80.3571 336.124 80.3687 336.098C80.3309 336.342 80.2961 336.579 80.2496 336.823C80.1595 337.318 80.0577 337.813 79.9473 338.311C79.7351 339.241 79.4823 340.165 79.2003 341.078C78.9213 341.999 78.6103 342.908 78.2674 343.8C78.1104 344.22 77.9506 344.643 77.7849 345.06C77.7006 345.272 77.6134 345.48 77.535 345.686C77.5204 345.732 77.4884 345.796 77.4623 345.871C77.4332 345.941 77.4071 346.01 77.3751 346.08V346.094C77.3751 346.094 77.3548 346.146 77.3402 346.167C77.3402 346.167 77.3228 346.213 77.317 346.225C76.9246 347.23 76.7124 348.16 77.0234 349.28C77.3024 350.303 78.1017 351.415 79.0608 351.916C80.9558 352.919 84.1645 352.609 85.1295 350.335C87.8034 344.032 90.0472 337.199 89.2508 330.32L89.245 330.34ZM64.4676 322.108C64.6536 321.998 64.8513 321.917 65.0227 321.885C64.9414 321.92 64.6449 322.036 64.4676 322.108Z" fill="#731932"/>
<path d="M73.3352 322.036C73.1172 321.978 73.0911 322.004 73.8322 322.221C73.8061 322.21 73.7857 322.195 73.7596 322.184C73.62 322.134 73.4747 322.088 73.3352 322.036Z" fill="#731932"/>
<path d="M100.607 334.256C100.607 334.256 100.589 334.236 100.58 334.219C100.58 334.219 100.58 334.23 100.58 334.236C100.586 334.244 100.595 334.256 100.601 334.261L100.607 334.256Z" fill="white" stroke="black" stroke-width="0.929201" stroke-miterlimit="10"/>
<path d="M131.877 325.546C131.804 324.246 131.618 322.939 131.322 321.642C130.144 316.558 126.872 312.138 122.463 309.355C118.182 306.652 113.072 305.821 108.108 306.551C102.94 307.313 98.5253 310.357 95.4328 314.458C93.2239 317.401 91.7649 321.1 91.1807 324.715C90.8785 326.554 90.7651 328.373 90.8465 330.155L99.6239 329.167V329.08C99.6297 328.678 99.6472 328.269 99.6704 327.866C99.6879 327.71 99.6937 327.557 99.7082 327.412C99.7082 327.377 99.7431 327.113 99.7605 326.942C99.7954 326.746 99.8332 326.528 99.8419 326.462C99.9262 326.059 100.013 325.662 100.106 325.263C100.304 324.472 100.554 323.693 100.833 322.928C100.885 322.795 101.004 322.566 101.042 322.421C101.144 322.201 101.24 321.972 101.353 321.752C101.632 321.193 101.937 320.64 102.275 320.11C102.426 319.872 102.577 319.643 102.734 319.417C102.754 319.394 102.783 319.348 102.821 319.299C102.902 319.2 102.992 319.09 103.033 319.035C103.231 318.812 103.434 318.589 103.629 318.389C103.972 318.041 104.327 317.711 104.687 317.396C104.719 317.375 104.76 317.341 104.809 317.297C104.911 317.225 105.004 317.149 105.068 317.112C105.451 316.854 105.844 316.611 106.251 316.385C106.422 316.286 106.628 316.156 106.846 316.034C106.867 316.028 106.919 316.011 106.998 315.982C107.085 315.95 107.169 315.915 107.256 315.884C107.448 315.811 107.651 315.745 107.846 315.678C108.305 315.527 108.77 315.403 109.238 315.298C109.465 315.249 109.703 315.197 109.939 315.159C110.026 315.154 110.113 315.139 110.177 315.139C110.442 315.119 110.712 315.093 110.976 315.087C111.421 315.073 111.869 315.081 112.313 315.104C112.523 315.107 112.729 315.125 112.935 315.151C112.959 315.151 112.994 315.151 113.025 315.154C113.15 315.177 113.284 315.191 113.342 315.206C113.549 315.243 113.746 315.29 113.953 315.33C114.409 315.435 114.871 315.559 115.327 315.707C115.499 315.765 115.67 315.831 115.836 315.898C115.955 315.93 116.118 315.982 116.257 316.049C116.287 316.063 116.31 316.081 116.33 316.083C116.522 316.182 116.708 316.272 116.891 316.364C117.289 316.576 117.673 316.796 118.051 317.039C118.228 317.149 118.399 317.268 118.577 317.393C118.591 317.396 118.597 317.407 118.612 317.413C119.254 317.969 119.879 318.522 120.437 319.162C120.536 319.267 120.626 319.374 120.719 319.493C121.009 319.895 121.28 320.324 121.521 320.758C121.736 321.12 121.916 321.497 122.099 321.871C122.181 322.091 122.259 322.314 122.338 322.531C122.53 323.105 122.689 323.704 122.82 324.292C122.855 324.483 122.887 324.675 122.922 324.866C122.919 324.819 122.919 324.779 122.919 324.732C122.934 324.819 122.939 324.918 122.948 325.005C122.954 325.042 122.966 325.077 122.968 325.112C123.006 325.32 123.006 325.578 122.974 325.387C123.006 325.769 123.027 326.152 123.032 326.534C123.038 326.798 123.038 327.07 123.038 327.345C123.032 327.794 123.006 328.243 122.98 328.692C122.966 328.915 122.948 329.141 122.928 329.364C122.922 329.451 122.855 329.851 122.855 329.984C122.835 330.227 122.788 330.453 122.748 330.691C122.657 331.192 122.556 331.684 122.445 332.179C122.233 333.115 121.98 334.033 121.692 334.954C121.413 335.867 121.102 336.77 120.771 337.671C120.614 338.1 120.454 338.517 120.289 338.934C120.199 339.143 120.117 339.348 120.039 339.56C120.024 339.606 119.992 339.67 119.966 339.745C119.946 339.797 119.92 339.849 119.899 339.902C119.893 339.916 119.893 339.922 119.882 339.936C119.879 339.936 119.879 339.942 119.879 339.942V339.959C119.861 339.988 119.856 340.009 119.841 340.029C119.835 340.061 119.835 340.078 119.821 340.087C119.425 341.089 119.213 342.013 119.524 343.146C119.806 344.168 120.605 345.278 121.559 345.79C123.457 346.781 126.668 346.477 127.627 344.2C130.13 338.314 132.254 331.962 131.871 325.543L131.877 325.546ZM106.899 315.997C107.123 315.878 107.343 315.771 107.541 315.747C107.442 315.785 107.059 315.936 106.899 315.997Z" fill="#731932"/>
<path d="M122.933 324.871C122.954 325.144 122.974 325.315 122.986 325.393C122.974 325.262 122.968 325.138 122.96 325.01C122.948 324.964 122.945 324.918 122.933 324.871Z" fill="white" stroke="black" stroke-width="0.929201" stroke-miterlimit="10"/>
<path d="M115.848 315.892C115.63 315.837 115.604 315.863 116.345 316.081C116.319 316.069 116.298 316.054 116.272 316.043C116.132 315.991 115.987 315.944 115.848 315.892Z" fill="white" stroke="black" stroke-width="0.929201" stroke-miterlimit="10"/>
<path d="M144.442 327.877C144.442 327.877 144.427 327.855 144.415 327.84C144.415 327.84 144.415 327.852 144.415 327.855C144.421 327.866 144.433 327.877 144.436 327.88L144.442 327.877Z" fill="white" stroke="black" stroke-width="0.929201" stroke-miterlimit="10"/>
<path d="M175.153 315.269C173.985 310.18 170.707 305.763 166.303 302.98C162.022 300.268 156.913 299.449 151.948 300.176C146.772 300.935 142.366 303.976 139.273 308.083C137.065 311.023 135.606 314.716 135.016 318.331C134.632 320.68 134.548 322.968 134.803 325.222L143.54 324.234C143.502 323.73 143.47 323.218 143.47 322.702C143.47 322.288 143.488 321.885 143.517 321.477C143.523 321.323 143.54 321.178 143.549 321.022C143.555 320.987 143.587 320.724 143.607 320.559C143.636 320.362 143.674 320.139 143.688 320.072C143.761 319.675 143.851 319.275 143.953 318.879C144.145 318.085 144.389 317.303 144.671 316.538C144.723 316.405 144.842 316.188 144.877 316.034C144.982 315.811 145.083 315.582 145.194 315.371C145.473 314.803 145.781 314.262 146.112 313.723C146.266 313.497 146.412 313.259 146.577 313.03C146.595 313.01 146.63 312.964 146.662 312.923C146.746 312.819 146.839 312.712 146.885 312.66C147.077 312.434 147.278 312.217 147.481 312.005C147.813 311.658 148.17 311.327 148.539 311.012C148.56 310.991 148.606 310.959 148.658 310.913C148.757 310.841 148.856 310.765 148.908 310.728C149.292 310.47 149.687 310.227 150.091 310.001C150.263 309.911 150.475 309.772 150.687 309.647C150.719 309.644 150.771 309.627 150.844 309.598C150.931 309.566 151.015 309.54 151.091 309.5C151.289 309.427 151.492 309.361 151.69 309.291C152.146 309.143 152.608 309.019 153.073 308.915C153.312 308.862 153.541 308.816 153.774 308.775C153.861 308.77 153.96 308.755 154.012 308.755C154.277 308.735 154.553 308.718 154.817 308.709C155.262 308.694 155.704 308.694 156.151 308.715C156.358 308.729 156.564 308.735 156.773 308.761C156.805 308.761 156.828 308.767 156.872 308.767C156.997 308.787 157.131 308.813 157.189 308.816C157.383 308.854 157.593 308.9 157.793 308.941C158.261 309.051 158.718 309.178 159.168 309.317C159.34 309.375 159.511 309.442 159.677 309.508C159.796 309.54 159.967 309.598 160.098 309.659H160.104C160.185 309.697 160.258 309.726 160.342 309.746C160.284 309.731 160.232 309.717 160.179 309.699C160.368 309.789 160.56 309.876 160.74 309.98C161.136 310.186 161.525 310.412 161.903 310.65C162.074 310.768 162.252 310.887 162.423 311.003C162.438 311.006 162.452 311.017 162.47 311.032C163.106 311.585 163.734 312.138 164.295 312.778C164.394 312.889 164.481 313.002 164.571 313.109H164.574C164.865 313.523 165.129 313.94 165.379 314.374C165.585 314.737 165.763 315.113 165.955 315.487C166.039 315.707 166.114 315.93 166.193 316.147C166.385 316.729 166.542 317.32 166.667 317.914C166.702 318.105 166.739 318.296 166.768 318.482C166.768 318.435 166.765 318.395 166.765 318.346C166.78 318.444 166.795 318.534 166.8 318.621C166.806 318.667 166.815 318.702 166.821 318.74C166.858 318.936 166.858 319.194 166.821 319.012C166.873 319.658 166.905 320.309 166.888 320.967C166.888 321.178 166.885 321.396 166.873 321.61C166.867 321.839 166.853 322.076 166.838 322.308C166.821 322.531 166.8 322.757 166.786 322.98C166.78 323.064 166.716 323.423 166.713 323.568V323.585C166.681 323.826 166.64 324.063 166.594 324.307C166.504 324.808 166.402 325.3 166.292 325.795C166.08 326.731 165.824 327.661 165.545 328.567C165.266 329.477 164.955 330.386 164.621 331.29C164.461 331.71 164.304 332.133 164.135 332.55C164.051 332.759 163.972 332.97 163.885 333.176C163.839 333.274 163.749 333.492 163.693 333.657C163.688 333.677 163.679 333.691 163.673 333.715C163.667 333.735 163.656 333.749 163.653 333.764C163.266 334.752 163.066 335.667 163.371 336.762C163.653 337.793 164.449 338.894 165.411 339.406C167.309 340.408 170.515 340.093 171.48 337.825C173.787 332.376 175.775 326.54 175.761 320.619C175.755 318.838 175.566 317.051 175.162 315.269H175.153ZM150.734 309.613C150.946 309.494 151.181 309.387 151.373 309.363C151.274 309.41 150.891 309.552 150.734 309.613Z" fill="#731932"/>
<path d="M159.677 309.508C159.459 309.453 159.432 309.479 160.177 309.697C160.15 309.685 160.13 309.671 160.104 309.659C159.964 309.607 159.819 309.56 159.677 309.508Z" fill="white" stroke="black" stroke-width="0.929201" stroke-miterlimit="10"/>
<path d="M166.768 318.488C166.789 318.76 166.812 318.931 166.821 319.009C166.812 318.879 166.806 318.754 166.795 318.627C166.786 318.58 166.78 318.534 166.768 318.488Z" fill="white" stroke="black" stroke-width="0.929201" stroke-miterlimit="10"/>
<path d="M188.617 323.217C188.617 323.217 188.599 323.197 188.59 323.183C188.59 323.183 188.59 323.191 188.59 323.197C188.593 323.205 188.605 323.217 188.611 323.223L188.617 323.217Z" fill="white" stroke="black" stroke-width="0.929201" stroke-miterlimit="10"/>
<path d="M210.946 313.833C210.97 314.105 210.99 314.276 210.999 314.354C210.99 314.224 210.984 314.102 210.972 313.972C210.964 313.925 210.958 313.879 210.946 313.833Z" fill="white" stroke="black" stroke-width="0.929201" stroke-miterlimit="10"/>
<path d="M203.857 304.851C203.639 304.793 203.613 304.819 204.354 305.036C204.328 305.024 204.308 305.01 204.282 305.001C204.142 304.949 203.997 304.903 203.857 304.851Z" fill="white" stroke="black" stroke-width="0.929201" stroke-miterlimit="10"/>
<path d="M219.331 310.603C218.154 305.517 214.879 301.1 210.47 298.316C206.191 295.614 201.082 294.782 196.115 295.512C190.95 296.271 186.535 299.313 183.443 303.42C181.234 306.36 179.775 310.062 179.188 313.676C178.824 315.915 178.731 318.105 178.941 320.257L187.68 319.275C187.66 318.864 187.634 318.45 187.634 318.041C187.64 317.639 187.654 317.23 187.68 316.828C187.686 316.674 187.701 316.518 187.718 316.364C187.718 316.327 187.753 316.069 187.77 315.898C187.805 315.701 187.843 315.487 187.852 315.417C187.936 315.015 188.023 314.618 188.116 314.221C188.314 313.43 188.564 312.645 188.843 311.881C188.889 311.756 189.014 311.53 189.049 311.379C189.154 311.151 189.247 310.931 189.363 310.707C189.642 310.148 189.947 309.598 190.284 309.065C190.436 308.828 190.587 308.599 190.741 308.373C190.761 308.341 190.793 308.306 190.831 308.254C190.912 308.156 191.002 308.043 191.043 307.991C191.241 307.768 191.441 307.547 191.639 307.336C191.982 306.988 192.331 306.658 192.697 306.348C192.729 306.328 192.769 306.29 192.816 306.25C192.921 306.177 193.014 306.099 193.077 306.064C193.455 305.801 193.854 305.557 194.255 305.334C194.429 305.239 194.638 305.097 194.862 304.975C194.882 304.969 194.935 304.955 195.01 304.929C195.1 304.897 195.182 304.859 195.272 304.83C195.464 304.758 195.664 304.68 195.862 304.622C196.318 304.474 196.786 304.35 197.251 304.24C197.481 304.19 197.719 304.144 197.949 304.106C198.045 304.092 198.135 304.086 198.19 304.074C198.454 304.054 198.725 304.04 198.989 304.028C199.437 304.014 199.887 304.025 200.329 304.045C200.535 304.048 200.745 304.066 200.951 304.08C200.971 304.086 201.009 304.086 201.038 304.095C201.163 304.112 201.3 304.132 201.355 304.147C201.564 304.185 201.759 304.231 201.968 304.271C202.425 304.376 202.887 304.5 203.343 304.648C203.515 304.7 203.686 304.773 203.852 304.839C203.881 304.845 203.907 304.857 203.95 304.871C204.038 304.891 204.136 304.929 204.224 304.969H204.229C204.229 304.969 204.25 304.984 204.267 304.99H204.27C204.354 305.022 204.433 305.048 204.509 305.077C204.453 305.056 204.401 305.042 204.349 305.025C204.54 305.114 204.726 305.213 204.91 305.305C205.308 305.517 205.691 305.74 206.072 305.98C206.247 306.09 206.418 306.209 206.595 306.328C206.601 306.342 206.616 306.348 206.63 306.36C207.275 306.91 207.897 307.469 208.458 308.104C208.557 308.214 208.644 308.327 208.737 308.434C209.028 308.848 209.298 309.268 209.542 309.7C209.749 310.067 209.935 310.444 210.118 310.82C210.199 311.032 210.278 311.255 210.356 311.484C210.548 312.054 210.705 312.645 210.839 313.245C210.877 313.436 210.906 313.627 210.943 313.818C210.938 313.729 210.926 313.642 210.923 313.529C210.926 313.668 210.952 313.807 210.97 313.957C210.972 313.992 210.984 314.03 210.99 314.065C211.025 314.27 211.025 314.531 210.996 314.34C211.045 314.986 211.068 315.64 211.063 316.292C211.063 316.411 211.057 316.53 211.045 316.637C211.042 316.978 211.025 317.314 210.999 317.645C210.984 317.868 210.97 318.088 210.949 318.317C210.943 318.415 210.859 318.919 210.859 318.963C210.865 318.945 210.879 318.905 210.897 318.826C210.859 319.102 210.807 319.365 210.76 319.637C210.673 320.13 210.568 320.631 210.449 321.126C210.243 322.056 209.984 322.98 209.702 323.895C209.423 324.814 209.112 325.723 208.778 326.615C208.624 327.035 208.464 327.458 208.296 327.878C208.208 328.09 208.127 328.295 208.049 328.501C208.028 328.547 207.996 328.62 207.976 328.692C207.956 328.744 207.929 328.796 207.909 328.848C207.886 328.901 207.86 328.947 207.851 328.982C207.845 329.014 207.836 329.028 207.831 329.04C207.429 330.045 207.223 330.974 207.534 332.095C207.813 333.121 208.612 334.23 209.569 334.74C211.467 335.733 214.678 335.429 215.637 333.15C217.989 327.615 220.006 321.662 219.918 315.64C219.895 313.96 219.709 312.269 219.326 310.589L219.331 310.603ZM194.984 304.917C195.176 304.81 195.368 304.72 195.545 304.694C195.464 304.732 195.167 304.845 194.984 304.917Z" fill="#731932"/>
<path d="M32.4823 336.715C32.4823 336.715 20.1445 337.819 18.8831 340.403C17.6246 342.983 11.3293 369.049 12.0879 372.56C12.8464 376.068 37.0106 379.581 37.0106 379.581C37.0106 379.581 34.9964 345.99 32.4765 336.718L32.4823 336.715Z" fill="#3B8C28"/>
<path d="M22.2866 385.015L21.5309 387.271C21.4001 387.654 21.6791 388.135 22.0744 388.227C22.5046 388.326 22.894 388.097 23.0335 387.686L23.7921 385.426C23.92 385.044 23.641 384.566 23.2457 384.47C22.8155 384.375 22.4261 384.601 22.2866 385.015Z" fill="#DD423A"/>
<path d="M18.8279 400.633C17.5926 412.932 16.5492 425.251 15.7151 437.581C14.878 449.909 14.2473 462.26 13.8142 474.61C13.573 481.536 13.3957 488.459 13.2824 495.39C13.2649 496.386 14.8228 496.386 14.8373 495.39C15.0437 483.028 15.4506 470.68 16.0609 458.335C16.6684 445.99 17.4822 433.653 18.4936 421.335C19.0604 414.429 19.694 407.53 20.3886 400.639C20.4874 399.648 18.9296 399.651 18.8308 400.639L18.8279 400.633Z" fill="#DD423A"/>
<path d="M25.1145 410.557C23.3183 423.814 22.4261 437.187 22.4784 450.572C22.4958 454.358 22.5888 458.138 22.7487 461.918C22.7894 462.911 24.3472 462.917 24.3065 461.918C23.7281 448.666 24.0653 435.374 25.3267 422.169C25.6842 418.426 26.1114 414.693 26.6142 410.968C26.6695 410.551 26.5154 410.142 26.0678 410.015C25.7045 409.911 25.1668 410.142 25.1087 410.557H25.1145Z" fill="#DD423A"/>
<path d="M22.6411 472.073C22.6411 481.649 22.6411 491.225 22.6411 500.804C22.6411 503.509 22.6411 506.214 22.6411 508.917C22.6411 509.913 24.1961 509.913 24.1961 508.917C24.1961 499.341 24.1961 489.765 24.1961 480.189C24.1961 477.481 24.1961 474.775 24.1961 472.073C24.1961 471.077 22.6411 471.077 22.6411 472.073Z" fill="#DD423A"/>
<path d="M38.8765 474.703C38.1034 482.321 37.7314 489.982 37.7459 497.635C37.7459 498.634 39.3037 498.634 39.3037 497.635C39.2863 489.976 39.667 482.321 40.4343 474.703C40.5332 473.71 38.9753 473.715 38.8765 474.703Z" fill="#DD423A"/>
</g>
<defs>
<clipPath id="clip0_17_131">
<rect width="625" height="535" fill="white"/>
</clipPath>
</defs>
</svg>
