<svg width="444" height="134" viewBox="0 0 444 134" fill="none" xmlns="http://www.w3.org/2000/svg">
<path d="M193.899 106V38.704H181.515V28.24H220.299V38.704H208.107V106H193.899ZM226.797 106V50.512H239.853V59.056C241.773 55.792 243.693 53.456 245.613 52.048C247.533 50.576 249.645 49.84 251.949 49.84C252.333 49.84 252.653 49.872 252.909 49.936C253.229 49.936 253.581 49.968 253.965 50.032V63.568C253.197 63.248 252.333 62.992 251.373 62.8C250.477 62.544 249.549 62.416 248.589 62.416C246.861 62.416 245.293 62.832 243.885 63.664C242.477 64.496 241.133 65.872 239.853 67.792V106H226.797ZM270.917 106.864C268.421 106.864 266.277 106.224 264.485 104.944C262.693 103.6 261.317 101.936 260.357 99.952C259.397 97.904 258.917 95.792 258.917 93.616C258.917 90.16 259.557 87.248 260.837 84.88C262.117 82.512 263.813 80.528 265.925 78.928C268.037 77.328 270.437 75.952 273.125 74.8C275.813 73.584 278.533 72.496 281.285 71.536V66.736C281.285 65.136 281.157 63.792 280.901 62.704C280.709 61.616 280.293 60.784 279.653 60.208C279.077 59.632 278.149 59.344 276.869 59.344C275.781 59.344 274.885 59.6 274.181 60.112C273.541 60.624 273.061 61.36 272.741 62.32C272.485 63.216 272.325 64.272 272.261 65.488L272.069 68.848L259.685 68.368C259.877 61.968 261.445 57.264 264.389 54.256C267.397 51.184 271.941 49.648 278.021 49.648C283.589 49.648 287.621 51.184 290.117 54.256C292.677 57.328 293.957 61.488 293.957 66.736V92.368C293.957 94.416 293.989 96.272 294.053 97.936C294.181 99.6 294.309 101.104 294.437 102.448C294.629 103.792 294.789 104.976 294.917 106H283.205C283.013 104.72 282.757 103.28 282.437 101.68C282.181 100.016 281.989 98.8 281.861 98.032C281.221 100.272 280.005 102.32 278.213 104.176C276.421 105.968 273.989 106.864 270.917 106.864ZM275.717 97.168C276.549 97.168 277.317 96.976 278.021 96.592C278.789 96.144 279.461 95.632 280.037 95.056C280.613 94.48 281.029 93.968 281.285 93.52V78.064C279.877 78.896 278.533 79.728 277.253 80.56C276.037 81.392 274.949 82.32 273.989 83.344C273.093 84.304 272.389 85.36 271.877 86.512C271.429 87.664 271.205 89.008 271.205 90.544C271.205 92.592 271.589 94.224 272.357 95.44C273.189 96.592 274.309 97.168 275.717 97.168ZM320.275 106.864C315.987 106.864 312.531 106.064 309.907 104.464C307.347 102.8 305.459 100.464 304.243 97.456C303.091 94.384 302.515 90.768 302.515 86.608V69.904C302.515 65.616 303.091 61.968 304.243 58.96C305.459 55.952 307.379 53.648 310.003 52.048C312.627 50.448 316.051 49.648 320.275 49.648C324.243 49.648 327.475 50.288 329.971 51.568C332.531 52.784 334.387 54.672 335.539 57.232C336.691 59.728 337.267 62.896 337.267 66.736V71.344H324.979V66.448C324.979 64.528 324.819 63.024 324.499 61.936C324.243 60.784 323.763 59.984 323.059 59.536C322.355 59.024 321.427 58.768 320.275 58.768C319.123 58.768 318.195 59.088 317.491 59.728C316.787 60.304 316.275 61.264 315.955 62.608C315.699 63.952 315.571 65.808 315.571 68.176V88.528C315.571 92.112 315.955 94.544 316.723 95.824C317.491 97.04 318.707 97.648 320.371 97.648C321.651 97.648 322.611 97.36 323.251 96.784C323.955 96.208 324.403 95.376 324.595 94.288C324.851 93.136 324.979 91.76 324.979 90.16V84.208H337.267V89.488C337.267 93.2 336.659 96.368 335.443 98.992C334.291 101.616 332.435 103.6 329.875 104.944C327.379 106.224 324.179 106.864 320.275 106.864ZM345.948 106V28.24H359.004V72.88L373.308 50.512H387.516L373.596 72.784L387.228 106H373.5L363.42 78.64L359.004 84.784V106H345.948ZM393.882 106V28.24H407.898V106H393.882ZM435.103 106.672C431.583 106.672 428.799 106.096 426.751 104.944C424.767 103.792 423.359 102.128 422.527 99.952C421.695 97.776 421.279 95.184 421.279 92.176V59.152H415.711V50.512H421.279V33.904H434.431V50.512H442.879V59.152H434.431V91.024C434.431 92.944 434.847 94.32 435.679 95.152C436.511 95.92 437.759 96.304 439.423 96.304C440.127 96.304 440.799 96.272 441.439 96.208C442.143 96.144 442.815 96.08 443.455 96.016V106C442.367 106.128 441.087 106.256 439.615 106.384C438.207 106.576 436.703 106.672 435.103 106.672Z" fill="#7AA500"/>
<mask id="mask0_104_282" style="mask-type:luminance" maskUnits="userSpaceOnUse" x="0" y="0" width="136" height="134">
<path d="M135.2 0.32077H0V133.453H135.2V0.32077Z" fill="white"/>
</mask>
<g mask="url(#mask0_104_282)">
<mask id="mask1_104_282" style="mask-type:luminance" maskUnits="userSpaceOnUse" x="0" y="0" width="136" height="134">
<path d="M0.0565186 0.376373H135.116V133.37H0.0565186V0.376373Z" fill="white"/>
</mask>
<g mask="url(#mask1_104_282)">
<path d="M132.865 0.376373H2.30765C2.16022 0.376373 2.01352 0.390823 1.86901 0.418993C1.72378 0.447883 1.58295 0.489773 1.44651 0.545393C1.31008 0.601003 1.18025 0.669623 1.05702 0.750523C0.934526 0.831413 0.820833 0.923153 0.715941 1.02571C0.611783 1.129 0.518628 1.24095 0.436475 1.36157C0.354322 1.48292 0.284639 1.61076 0.228159 1.74511C0.171679 1.87945 0.129136 2.0181 0.0997955 2.1611C0.0711886 2.3034 0.0565186 2.4479 0.0565186 2.5931V131.154C0.0565186 131.299 0.0711886 131.443 0.0997955 131.586C0.129136 131.729 0.171679 131.867 0.228159 132.002C0.284639 132.136 0.354322 132.264 0.436475 132.385C0.518628 132.506 0.611783 132.618 0.715941 132.721C0.820833 132.824 0.934526 132.915 1.05702 132.996C1.18025 133.077 1.31008 133.146 1.44651 133.201C1.58295 133.257 1.72378 133.299 1.86901 133.327C2.01352 133.356 2.16022 133.37 2.30765 133.37H132.865C133.013 133.37 133.159 133.356 133.304 133.327C133.449 133.299 133.59 133.257 133.726 133.201C133.863 133.146 133.993 133.077 134.116 132.996C134.238 132.915 134.352 132.824 134.457 132.721C134.561 132.618 134.654 132.506 134.736 132.385C134.819 132.264 134.888 132.136 134.945 132.002C135.001 131.867 135.044 131.729 135.072 131.586C135.102 131.443 135.116 131.299 135.116 131.154V2.5931C135.116 2.4479 135.102 2.3034 135.072 2.1611C135.044 2.0181 135.001 1.87945 134.945 1.74511C134.888 1.61076 134.819 1.48292 134.736 1.36157C134.654 1.24095 134.561 1.129 134.457 1.02571C134.352 0.923153 134.238 0.831413 134.116 0.750523C133.993 0.669623 133.863 0.601003 133.726 0.545393C133.59 0.489773 133.449 0.447883 133.304 0.418993C133.159 0.390823 133.013 0.376373 132.865 0.376373ZM130.614 29.192V128.937H4.55878V4.8098H130.614V29.192Z" fill="#7AA500"/>
</g>
<path d="M6.80985 49.1409H24.8174C25.0954 49.1409 25.3646 49.0918 25.6243 48.9936C25.884 48.8961 26.1172 48.7552 26.3233 48.5717L42.3607 34.3593C42.5148 34.4633 42.6717 34.563 42.8324 34.6576C42.9923 34.7522 43.1551 34.8418 43.3209 34.927C43.4867 35.0115 43.6554 35.0917 43.8255 35.1668C43.9964 35.2419 44.1696 35.3113 44.3441 35.3763C44.5194 35.4406 44.6962 35.5005 44.8745 35.5547C45.0534 35.6088 45.2331 35.6572 45.4151 35.7013C45.5962 35.7446 45.7789 35.7822 45.963 35.8154C46.1471 35.8479 46.3319 35.8746 46.5175 35.8963C46.7031 35.918 46.8887 35.9339 47.0757 35.9447C47.262 35.9555 47.4491 35.9606 47.6354 35.9599C47.8224 35.9592 48.0095 35.9534 48.1958 35.9418C48.3821 35.9303 48.5684 35.9129 48.754 35.8898C48.9388 35.8674 49.1237 35.8393 49.3078 35.8053C49.4911 35.7721 49.6738 35.7331 49.855 35.6883C50.0361 35.6435 50.2159 35.5937 50.3941 35.5388C50.5723 35.4839 50.7491 35.4232 50.9237 35.3575C51.0983 35.2918 51.2706 35.221 51.4408 35.1451C51.611 35.0693 51.779 34.9884 51.944 34.9024C52.109 34.8165 52.2719 34.7255 52.4318 34.6301C52.591 34.5348 52.7479 34.4344 52.9012 34.3297C53.0553 34.2249 53.2049 34.1152 53.3523 34.0018C53.499 33.8876 53.6421 33.7699 53.7822 33.6471C53.9215 33.525 54.0572 33.3986 54.1893 33.2686C54.3213 33.1379 54.4489 33.0036 54.5722 32.8656C54.6961 32.7276 54.8149 32.5861 54.9301 32.4409C55.0453 32.2964 55.156 32.1476 55.2617 31.996C55.3673 31.8443 55.4685 31.6897 55.5646 31.5323C55.6614 31.3748 55.7531 31.2144 55.8397 31.0512C55.9262 30.888 56.0076 30.7226 56.0839 30.5543C56.1602 30.3867 56.2313 30.2162 56.2974 30.0443C56.3634 29.8724 56.4243 29.6984 56.4793 29.5228C56.535 29.3466 56.5849 29.1696 56.6289 28.9905C56.6736 28.8121 56.7125 28.6323 56.7463 28.451C56.7793 28.2704 56.8071 28.0884 56.8299 27.9056C56.8519 27.7229 56.8688 27.5394 56.8798 27.356C56.8908 27.1725 56.8959 26.9883 56.8959 26.8042C56.8959 26.62 56.89 26.4365 56.8783 26.2531C56.8666 26.0689 56.8497 25.8861 56.827 25.7034C56.8042 25.5207 56.7756 25.3386 56.7419 25.1581C56.7081 24.9768 56.6685 24.7969 56.6238 24.6185C56.579 24.4401 56.5284 24.2624 56.4727 24.0869C56.4169 23.9114 56.356 23.7373 56.29 23.5654C56.2233 23.3935 56.1514 23.2238 56.0751 23.0562C55.9981 22.8879 55.9159 22.7225 55.8294 22.56C55.7421 22.3968 55.6504 22.2371 55.5536 22.0797C55.4568 21.9222 55.3555 21.7676 55.2492 21.616C55.1428 21.465 55.0321 21.3169 54.9169 21.1718C54.8017 21.0273 54.6822 20.8857 54.5582 20.7485C54.4343 20.6105 54.3059 20.4769 54.1739 20.3469C54.0418 20.2162 53.9054 20.0905 53.7653 19.9684C53.6259 19.8464 53.4822 19.7286 53.3347 19.6152C53.188 19.5018 53.0377 19.3928 52.8836 19.288C52.7296 19.184 52.5726 19.0836 52.4127 18.989C52.2528 18.8937 52.09 18.8034 51.9249 18.7174C51.7592 18.6322 51.5912 18.552 51.421 18.4762C51.2508 18.4003 51.0777 18.3303 50.9031 18.2653C50.7286 18.1995 50.5518 18.1396 50.3736 18.0847C50.1953 18.0298 50.0156 17.9807 49.8337 17.9366C49.6525 17.8926 49.4699 17.8536 49.2858 17.8203C49.1024 17.7871 48.9175 17.7597 48.732 17.7373C48.5464 17.7149 48.3608 17.6983 48.1738 17.6874C47.9875 17.6759 47.8004 17.6701 47.6141 17.6701C47.4271 17.6701 47.24 17.6759 47.0537 17.6867C46.8674 17.6976 46.6811 17.7142 46.4955 17.7358C46.3099 17.7582 46.1251 17.7857 45.9417 17.8189C45.7576 17.8521 45.575 17.8904 45.3938 17.9345C45.2119 17.9778 45.0322 18.0276 44.8539 18.0818C44.6749 18.1367 44.4989 18.1967 44.3236 18.2617C44.149 18.3267 43.9766 18.3967 43.8057 18.4718C43.6356 18.5477 43.4676 18.6279 43.3018 18.7131C43.136 18.7983 42.9732 18.8886 42.8133 18.9839C42.6534 19.0786 42.4964 19.1782 42.3424 19.283C42.1884 19.387 42.038 19.496 41.8906 19.6094C41.7431 19.7228 41.6001 19.8406 41.46 19.9619C41.3199 20.084 41.1834 20.2097 41.0514 20.3397C40.9187 20.4697 40.791 20.6033 40.6663 20.7413C40.5424 20.8785 40.4228 21.0194 40.3069 21.1645C40.1917 21.309 40.081 21.4571 39.9746 21.608C39.8683 21.7597 39.7663 21.9143 39.6695 22.071C39.5727 22.2285 39.4802 22.3888 39.393 22.5513C39.3064 22.7146 39.2243 22.8792 39.1472 23.0468C39.0702 23.2151 38.9983 23.3848 38.9316 23.5568C38.8648 23.7287 38.804 23.902 38.7482 24.0775C38.6917 24.253 38.6411 24.4307 38.5964 24.6091C38.5516 24.7875 38.512 24.9674 38.4775 25.1487C38.4438 25.3292 38.4152 25.5113 38.3925 25.694C38.369 25.876 38.3521 26.0595 38.3404 26.2429C38.3286 26.4271 38.3228 26.6106 38.322 26.7948C38.322 26.979 38.3272 27.1624 38.3374 27.3459C38.3484 27.5301 38.3653 27.7128 38.3873 27.8955C38.4093 28.0783 38.4372 28.2603 38.4702 28.4416C38.5032 28.6229 38.5421 28.8027 38.5861 28.9811C38.6308 29.1603 38.6807 29.3372 38.7357 29.5135C38.7907 29.689 38.8509 29.863 38.9169 30.0357C38.9829 30.2076 39.0541 30.378 39.1304 30.5456C39.2066 30.7139 39.2873 30.8793 39.3739 31.0425L23.9534 44.7075H6.80985C6.66168 44.7075 6.51571 44.722 6.37048 44.7501C6.22598 44.779 6.08514 44.8209 5.94798 44.8765C5.81155 44.9321 5.68171 45.0008 5.55922 45.0816C5.43599 45.1625 5.3223 45.2543 5.21814 45.3568C5.11325 45.4601 5.02009 45.5721 4.93794 45.6927C4.85579 45.814 4.78684 45.9419 4.73036 46.0762C4.67388 46.2106 4.6306 46.3493 4.60199 46.4923C4.57339 46.6346 4.55872 46.779 4.55872 46.9242C4.55872 47.0701 4.57339 47.2138 4.60199 47.3569C4.6306 47.4999 4.67388 47.6378 4.73036 47.7729C4.78684 47.9072 4.85579 48.0351 4.93794 48.1557C5.02009 48.2771 5.11325 48.389 5.21814 48.4916C5.3223 48.5949 5.43599 48.6866 5.55922 48.7675C5.68171 48.8484 5.81155 48.9163 5.94798 48.9719C6.08514 49.0282 6.22598 49.0701 6.37048 49.0983C6.51571 49.1265 6.66168 49.1409 6.80985 49.1409ZM47.3273 22.5419C47.4747 22.5419 47.6222 22.5492 47.7689 22.5636C47.9156 22.5781 48.0608 22.599 48.206 22.6272C48.3505 22.6561 48.4936 22.6907 48.6344 22.7333C48.7752 22.7752 48.9139 22.8244 49.0503 22.88C49.1867 22.9356 49.3195 22.997 49.4493 23.0656C49.5799 23.1342 49.7061 23.2086 49.8286 23.2895C49.9511 23.3697 50.0692 23.4564 50.1836 23.5488C50.2973 23.6405 50.4066 23.738 50.5107 23.8406C50.6149 23.9432 50.7139 24.0508 50.8078 24.1628C50.901 24.2754 50.989 24.3917 51.0704 24.5123C51.1525 24.633 51.2281 24.7579 51.2978 24.8858C51.3675 25.0136 51.4305 25.1451 51.487 25.2787C51.5435 25.413 51.5926 25.5495 51.6359 25.6882C51.6785 25.8276 51.7144 25.9677 51.743 26.1108C51.7716 26.2531 51.7936 26.3961 51.8076 26.5405C51.8222 26.685 51.8296 26.8302 51.8296 26.9753C51.8296 27.1205 51.8222 27.2657 51.8076 27.4102C51.7936 27.5546 51.7716 27.6976 51.743 27.8399C51.7144 27.9829 51.6785 28.1231 51.6359 28.2625C51.5926 28.4011 51.5435 28.5376 51.487 28.672C51.4305 28.8063 51.3675 28.9371 51.2978 29.0649C51.2281 29.1935 51.1525 29.3177 51.0704 29.4383C50.989 29.559 50.901 29.6753 50.8078 29.7879C50.7139 29.8999 50.6149 30.0075 50.5107 30.1101C50.4066 30.2126 50.2973 30.3101 50.1836 30.4019C50.0692 30.4943 49.9511 30.581 49.8286 30.6612C49.7061 30.7421 49.5799 30.8165 49.4493 30.8851C49.3195 30.9537 49.1867 31.0158 49.0503 31.0707C48.9139 31.1263 48.7752 31.1754 48.6344 31.2173C48.4936 31.2599 48.3505 31.2946 48.206 31.3235C48.0608 31.3517 47.9156 31.3726 47.7689 31.3871C47.6222 31.4015 47.4747 31.4087 47.3273 31.4087C47.1799 31.4087 47.0332 31.4015 46.8865 31.3871C46.7398 31.3726 46.5938 31.3517 46.4493 31.3235C46.3048 31.2946 46.1618 31.2599 46.0209 31.2173C45.8794 31.1754 45.7407 31.1263 45.6043 31.0707C45.4686 31.0158 45.3351 30.9537 45.2053 30.8851C45.0754 30.8165 44.9485 30.7421 44.826 30.6612C44.7035 30.581 44.5855 30.4943 44.4718 30.4019C44.3573 30.3101 44.248 30.2126 44.1439 30.1101C44.0397 30.0075 43.9407 29.8999 43.8475 29.7879C43.7537 29.6753 43.6664 29.559 43.5842 29.4383C43.5021 29.3177 43.4265 29.1935 43.3568 29.0649C43.2879 28.9371 43.2248 28.8063 43.1683 28.672C43.1118 28.5376 43.062 28.4011 43.0194 28.2625C42.9769 28.1231 42.9409 27.9829 42.9123 27.8399C42.883 27.6976 42.8617 27.5546 42.847 27.4102C42.8324 27.2657 42.8258 27.1205 42.8258 26.9753C42.8258 26.8302 42.8331 26.6857 42.8478 26.5412C42.8624 26.3968 42.8837 26.2531 42.9131 26.1108C42.9417 25.9685 42.9776 25.8276 43.0202 25.6889C43.0634 25.5503 43.1126 25.4138 43.1691 25.2794C43.2255 25.1458 43.2886 25.0143 43.3583 24.8865C43.428 24.7586 43.5035 24.6344 43.5857 24.5138C43.6678 24.3932 43.7551 24.2761 43.849 24.1642C43.9422 24.0522 44.0412 23.9446 44.1454 23.8421C44.2495 23.7395 44.3588 23.642 44.4725 23.5495C44.5869 23.4578 44.705 23.3711 44.8275 23.2909C44.95 23.2101 45.0762 23.1357 45.206 23.067C45.3358 22.9984 45.4693 22.9363 45.605 22.8807C45.7415 22.8251 45.8801 22.7767 46.0209 22.7341C46.1625 22.6922 46.3048 22.6568 46.4493 22.6279C46.5938 22.5997 46.7398 22.5781 46.8865 22.5643C47.0332 22.5499 47.1799 22.5427 47.3273 22.5419Z" fill="#7AA500"/>
<path d="M6.80985 58.007H50.8973L61.4928 68.4404C61.704 68.6485 61.9476 68.8088 62.2226 68.9208C62.4984 69.0334 62.786 69.0898 63.0845 69.0898H81.4119C81.5124 69.469 81.6378 69.8402 81.7882 70.2035C81.9386 70.5661 82.1124 70.9179 82.3104 71.2581C82.5085 71.5976 82.7285 71.9233 82.9699 72.2346C83.2119 72.5466 83.4731 72.8406 83.7547 73.118C84.0364 73.3946 84.3349 73.6525 84.6511 73.8908C84.9672 74.1285 85.298 74.3451 85.6435 74.5402C85.989 74.7345 86.3462 74.9064 86.7144 75.0544C87.0834 75.2025 87.4597 75.326 87.8455 75.425V86.8227C87.8455 86.9678 87.8594 87.1123 87.8888 87.2546C87.9174 87.3976 87.9599 87.5363 88.0164 87.6706C88.0729 87.805 88.1426 87.9328 88.2247 88.0542C88.3069 88.1748 88.4 88.2867 88.5042 88.39C88.6091 88.4926 88.7228 88.5843 88.8453 88.6652C88.9685 88.7461 89.0983 88.8147 89.2347 88.8703C89.3712 88.926 89.512 88.9679 89.6572 88.996C89.8018 89.0249 89.9484 89.0386 90.0959 89.0386H108.424C108.469 89.2113 108.519 89.3817 108.575 89.5515C108.631 89.7205 108.691 89.8881 108.757 90.0535C108.823 90.2196 108.893 90.3828 108.97 90.5446C109.045 90.7057 109.126 90.8653 109.212 91.022C109.298 91.1788 109.388 91.3326 109.482 91.4836C109.578 91.6353 109.678 91.7833 109.781 91.9292C109.885 92.074 109.994 92.217 110.107 92.356C110.22 92.495 110.336 92.631 110.457 92.763C110.578 92.894 110.703 93.023 110.832 93.148C110.961 93.272 111.094 93.393 111.23 93.51C111.366 93.627 111.506 93.739 111.649 93.848C111.792 93.957 111.939 94.061 112.089 94.16C112.238 94.26 112.39 94.355 112.546 94.446C112.701 94.537 112.859 94.623 113.019 94.705C113.18 94.787 113.344 94.863 113.509 94.935C113.674 95.007 113.842 95.073 114.011 95.135C114.181 95.197 114.351 95.254 114.525 95.306C114.697 95.357 114.872 95.404 115.048 95.445C115.223 95.487 115.4 95.523 115.578 95.554C115.755 95.585 115.934 95.61 116.114 95.631C116.293 95.651 116.474 95.666 116.654 95.676C116.834 95.685 117.015 95.689 117.195 95.689C117.376 95.687 117.557 95.681 117.737 95.669C117.917 95.658 118.097 95.64 118.276 95.618C118.455 95.596 118.634 95.568 118.811 95.535C118.989 95.502 119.165 95.463 119.341 95.42C119.516 95.377 119.69 95.328 119.862 95.274C120.034 95.221 120.205 95.161 120.373 95.098C120.542 95.034 120.708 94.965 120.873 94.891C121.037 94.818 121.2 94.74 121.359 94.656C121.519 94.573 121.676 94.485 121.83 94.392C121.984 94.299 122.135 94.202 122.284 94.1C122.432 93.999 122.577 93.893 122.719 93.783C122.861 93.673 123 93.558 123.134 93.44C123.269 93.322 123.4 93.199 123.528 93.073C123.655 92.947 123.779 92.817 123.897 92.683C124.017 92.55 124.132 92.413 124.244 92.273C124.354 92.132 124.461 91.9892 124.563 91.8426C124.666 91.6952 124.764 91.5457 124.857 91.3933C124.95 91.2409 125.039 91.0863 125.122 90.9281C125.206 90.7707 125.284 90.6103 125.358 90.4485C125.433 90.286 125.501 90.1213 125.565 89.9552C125.629 89.7884 125.688 89.6201 125.741 89.4503C125.795 89.2806 125.843 89.1094 125.886 88.9361C125.929 88.7635 125.967 88.5894 126 88.4146C126.032 88.2398 126.059 88.0636 126.08 87.8873C126.102 87.7104 126.118 87.5334 126.129 87.3557C126.14 87.178 126.146 87.0003 126.146 86.8227C126.146 86.6443 126.14 86.4666 126.129 86.2889C126.118 86.1112 126.102 85.9342 126.08 85.758C126.059 85.5811 126.032 85.4055 126 85.23C125.967 85.0552 125.929 84.8812 125.886 84.7085C125.843 84.5359 125.795 84.364 125.741 84.1943C125.688 84.0245 125.629 83.8562 125.565 83.6901C125.501 83.5233 125.433 83.3593 125.358 83.1968C125.284 83.0343 125.206 82.8739 125.122 82.7165C125.039 82.559 124.95 82.4037 124.857 82.2513C124.764 82.0989 124.666 81.9494 124.563 81.8028C124.461 81.6561 124.354 81.5124 124.244 81.3723C124.132 81.2314 124.017 81.0949 123.897 80.9613C123.779 80.8277 123.655 80.6977 123.528 80.572C123.4 80.4456 123.269 80.3235 123.134 80.2051C123 80.0866 122.861 79.9725 122.719 79.862C122.577 79.7515 122.432 79.646 122.284 79.5442C122.135 79.4423 121.984 79.3455 121.83 79.2531C121.676 79.1599 121.519 79.0725 121.359 78.9887C121.2 78.9057 121.037 78.8269 120.873 78.7533C120.708 78.6796 120.542 78.611 120.373 78.5467C120.205 78.4831 120.034 78.4239 119.862 78.3705C119.69 78.317 119.516 78.2679 119.341 78.2245C119.165 78.1812 118.989 78.1429 118.811 78.1097C118.634 78.0772 118.455 78.049 118.276 78.0266C118.097 78.0043 117.917 77.9876 117.737 77.9754C117.557 77.9638 117.376 77.9573 117.195 77.9566C117.015 77.9551 116.834 77.9595 116.654 77.9689C116.474 77.979 116.293 77.9941 116.114 78.0144C115.934 78.0346 115.755 78.0599 115.578 78.0909C115.4 78.122 115.223 78.1581 115.047 78.1993C114.872 78.2404 114.697 78.2874 114.525 78.3394C114.351 78.3907 114.181 78.4477 114.011 78.5091C113.842 78.5712 113.674 78.6384 113.509 78.7099C113.344 78.7814 113.18 78.8587 113.019 78.9396C112.859 79.0212 112.701 79.1072 112.546 79.1982C112.39 79.2892 112.238 79.3845 112.089 79.4842C111.939 79.5839 111.792 79.6886 111.649 79.797C111.506 79.9053 111.366 80.018 111.23 80.135C111.094 80.252 110.961 80.3726 110.832 80.4969C110.703 80.6218 110.578 80.7504 110.457 80.8826C110.336 81.0147 110.22 81.1498 110.107 81.2892C109.994 81.4279 109.885 81.5702 109.781 81.7154C109.678 81.8613 109.578 82.0093 109.482 82.161C109.388 82.312 109.298 82.4665 109.212 82.6233C109.126 82.78 109.045 82.9389 108.97 83.1C108.893 83.2618 108.823 83.425 108.757 83.5911C108.691 83.7565 108.631 83.9241 108.575 84.0931C108.519 84.2629 108.469 84.4333 108.424 84.606H92.347V75.425C92.6015 75.3607 92.8531 75.2856 93.1011 75.1996C93.349 75.1137 93.5925 75.0169 93.8316 74.91C94.0715 74.8023 94.3055 74.6853 94.5343 74.5582C94.7632 74.4311 94.9862 74.2939 95.2026 74.1472C95.4189 74.0006 95.6287 73.8453 95.8319 73.6806C96.0344 73.516 96.2295 73.3426 96.4172 73.1613C96.6043 72.9793 96.7833 72.7901 96.9542 72.5929C97.1244 72.3964 97.2857 72.192 97.4383 71.9811C97.5901 71.7702 97.7332 71.5535 97.8659 71.3296C97.9987 71.1064 98.1219 70.8782 98.2341 70.6441C98.3471 70.4101 98.4491 70.1718 98.54 69.9291C98.6317 69.6864 98.7117 69.4401 98.7813 69.1902C98.851 68.941 98.909 68.6889 98.9559 68.4339C99.0029 68.179 99.0381 67.9233 99.0623 67.6654C99.0865 67.4076 99.0989 67.149 99.0997 66.8904C99.1012 66.6318 99.0909 66.3733 99.0689 66.1154C99.0469 65.8575 99.0131 65.6004 98.9684 65.3454C98.9236 65.0905 98.8672 64.8377 98.8004 64.5878C98.7329 64.3378 98.6544 64.0908 98.565 63.8474C98.4755 63.604 98.3757 63.3649 98.265 63.1302C98.1542 62.8954 98.0332 62.6657 97.9026 62.4411C97.7713 62.2172 97.6305 61.9984 97.4801 61.7867C97.329 61.5744 97.1698 61.3692 97.0004 61.1706C96.8317 60.972 96.6542 60.7813 96.4686 60.5986C96.2823 60.4158 96.0886 60.241 95.8877 60.0749C95.6859 59.9081 95.4776 59.7513 95.262 59.6025C95.0463 59.4545 94.8248 59.3158 94.5974 59.1865C94.3693 59.0572 94.136 58.9387 93.8977 58.8297C93.6593 58.7206 93.4165 58.6217 93.1693 58.5343C92.9221 58.4461 92.6712 58.3689 92.4174 58.3024C92.1629 58.236 91.9069 58.1811 91.6473 58.137C91.3883 58.0929 91.1279 58.0597 90.8661 58.038C90.6042 58.0164 90.3416 58.0063 90.079 58.007C89.8164 58.0084 89.5538 58.0207 89.292 58.0445C89.0301 58.0684 88.7697 58.1031 88.5115 58.1493C88.2526 58.1955 87.9966 58.2526 87.7428 58.3212C87.4897 58.3898 87.2396 58.4685 86.9931 58.5588C86.7467 58.6484 86.5046 58.7488 86.267 58.86C86.0293 58.9705 85.7975 59.0919 85.5701 59.2226C85.3435 59.3533 85.1234 59.4942 84.9093 59.6437C84.6951 59.7939 84.4875 59.9528 84.2872 60.1204C84.0877 60.2887 83.8956 60.4649 83.7107 60.6491C83.5266 60.834 83.3506 61.0262 83.1833 61.2255C83.0161 61.4256 82.8584 61.6314 82.7095 61.8452C82.5606 62.0583 82.4212 62.2779 82.2921 62.5032C82.163 62.7286 82.0434 62.959 81.9349 63.1945C81.8263 63.4306 81.728 63.6704 81.6408 63.9146C81.5535 64.1587 81.4772 64.4057 81.4119 64.6571H64.016L53.4205 54.2236C53.21 54.0156 52.9665 53.8553 52.6907 53.7426C52.4149 53.6306 52.1281 53.5743 51.8296 53.5743H6.80985C6.66168 53.5743 6.51571 53.588 6.37048 53.6169C6.22598 53.6451 6.08514 53.687 5.94798 53.7426C5.81155 53.7982 5.68171 53.8668 5.55922 53.9477C5.43599 54.0286 5.3223 54.1204 5.21814 54.2229C5.11325 54.3262 5.02009 54.4382 4.93794 54.5588C4.85579 54.6801 4.78684 54.808 4.73036 54.9423C4.67388 55.0767 4.6306 55.2153 4.60199 55.3584C4.57339 55.5007 4.55872 55.6451 4.55872 55.7903C4.55872 55.9362 4.57339 56.0799 4.60199 56.2229C4.6306 56.366 4.67388 56.5046 4.73036 56.639C4.78684 56.7733 4.85579 56.9012 4.93794 57.0218C5.02009 57.1431 5.11325 57.2551 5.21814 57.3577C5.3223 57.4609 5.43599 57.5527 5.55922 57.6336C5.68171 57.7145 5.81155 57.7824 5.94798 57.8387C6.08514 57.8943 6.22598 57.9362 6.37048 57.9644C6.51571 57.9933 6.66168 58.007 6.80985 58.007ZM117.108 82.3893C117.255 82.3893 117.403 82.3965 117.55 82.4109C117.696 82.4247 117.842 82.4463 117.986 82.4745C118.131 82.5027 118.274 82.5381 118.415 82.5799C118.556 82.6226 118.695 82.671 118.831 82.7266C118.967 82.7822 119.1 82.8443 119.23 82.9129C119.361 82.9808 119.487 83.0559 119.609 83.1361C119.732 83.217 119.85 83.3037 119.964 83.3954C120.078 83.4879 120.187 83.5854 120.291 83.6879C120.396 83.7905 120.495 83.8981 120.588 84.0101C120.682 84.122 120.77 84.239 120.851 84.3597C120.933 84.4803 121.009 84.6045 121.078 84.7324C121.148 84.8609 121.211 84.9917 121.267 85.126C121.323 85.2604 121.373 85.3969 121.416 85.5355C121.459 85.6742 121.494 85.8151 121.524 85.9574C121.552 86.0997 121.574 86.2434 121.588 86.3878C121.603 86.5323 121.61 86.6775 121.61 86.8227C121.61 86.9678 121.603 87.1123 121.588 87.2568C121.574 87.4012 121.552 87.5449 121.524 87.6872C121.494 87.8295 121.459 87.9704 121.416 88.1091C121.373 88.2485 121.323 88.385 121.267 88.5186C121.211 88.6529 121.148 88.7844 121.078 88.9122C121.009 89.0401 120.933 89.1643 120.851 89.2849C120.77 89.4063 120.682 89.5226 120.588 89.6345C120.495 89.7472 120.396 89.8541 120.291 89.9574C120.187 90.06 120.078 90.1575 119.964 90.2492C119.85 90.3416 119.732 90.4276 119.609 90.5085C119.487 90.5894 119.361 90.6638 119.23 90.7324C119.1 90.8003 118.967 90.8624 118.831 90.918C118.695 90.9737 118.556 91.0228 118.415 91.0647C118.274 91.1066 118.131 91.1419 117.986 91.1701C117.842 91.199 117.696 91.22 117.55 91.2344C117.403 91.2481 117.255 91.2553 117.108 91.2553C116.961 91.2553 116.813 91.2481 116.666 91.2344C116.52 91.22 116.375 91.199 116.23 91.1701C116.085 91.1419 115.942 91.1066 115.801 91.0647C115.66 91.0228 115.521 90.9737 115.385 90.918C115.249 90.8624 115.116 90.8003 114.986 90.7324C114.855 90.6638 114.729 90.5894 114.607 90.5085C114.484 90.4276 114.366 90.3416 114.252 90.2492C114.138 90.1575 114.029 90.06 113.925 89.9574C113.82 89.8541 113.721 89.7472 113.628 89.6345C113.534 89.5226 113.446 89.4063 113.365 89.2849C113.283 89.1643 113.207 89.0401 113.138 88.9122C113.068 88.7844 113.006 88.6529 112.949 88.5186C112.893 88.385 112.843 88.2485 112.8 88.1091C112.757 87.9704 112.722 87.8295 112.692 87.6872C112.664 87.5449 112.642 87.4012 112.628 87.2568C112.613 87.1123 112.606 86.9678 112.606 86.8227C112.606 86.6775 112.614 86.5323 112.628 86.3878C112.642 86.2434 112.664 86.1004 112.693 85.9581C112.722 85.8158 112.758 85.6749 112.801 85.5363C112.844 85.3969 112.893 85.2604 112.95 85.1267C113.006 84.9924 113.069 84.8617 113.139 84.7338C113.209 84.6052 113.284 84.481 113.366 84.3604C113.448 84.2398 113.536 84.1235 113.629 84.0115C113.723 83.8988 113.822 83.7919 113.926 83.6887C114.03 83.5861 114.14 83.4893 114.253 83.3969C114.367 83.3051 114.486 83.2184 114.608 83.1376C114.731 83.0574 114.857 82.9823 114.987 82.9144C115.117 82.8457 115.25 82.7836 115.386 82.728C115.522 82.6724 115.661 82.6233 115.802 82.5814C115.942 82.5388 116.086 82.5034 116.23 82.4752C116.375 82.447 116.52 82.4254 116.667 82.4109C116.814 82.3965 116.961 82.3893 117.108 82.3893ZM90.0959 62.4404C90.2433 62.4404 90.3908 62.4476 90.5375 62.4613C90.6842 62.4758 90.8301 62.4975 90.9746 62.5256C91.1191 62.5538 91.2622 62.5892 91.403 62.6311C91.5438 62.673 91.6825 62.7221 91.8189 62.7777C91.9553 62.8333 92.0881 62.8954 92.2187 62.9641C92.3485 63.0319 92.4746 63.1071 92.5971 63.1872C92.7196 63.2681 92.8385 63.3541 92.9522 63.4465C93.0659 63.539 93.1751 63.6358 93.2793 63.7383C93.3835 63.8416 93.4825 63.9485 93.5764 64.0612C93.6695 64.1732 93.7576 64.2894 93.8397 64.4108C93.9211 64.5314 93.9974 64.6557 94.0664 64.7835C94.136 64.9113 94.1991 65.0428 94.2556 65.1771C94.3121 65.3108 94.3612 65.4473 94.4045 65.5867C94.447 65.7254 94.483 65.8662 94.5116 66.0085C94.5402 66.1508 94.5622 66.2945 94.5761 66.439C94.5908 66.5834 94.5982 66.7279 94.5982 66.8731C94.5982 67.0183 94.5908 67.1634 94.5761 67.3079C94.5622 67.4523 94.5402 67.5961 94.5116 67.7384C94.483 67.8807 94.447 68.0215 94.4045 68.1602C94.3612 68.2989 94.3121 68.4354 94.2556 68.5697C94.1991 68.7041 94.136 68.8348 94.0664 68.9634C93.9974 69.0912 93.9211 69.2155 93.8397 69.3361C93.7576 69.4567 93.6695 69.5737 93.5764 69.6857C93.4825 69.7976 93.3835 69.9052 93.2793 70.0078C93.1751 70.1104 93.0659 70.2079 92.9522 70.3003C92.8385 70.3921 92.7196 70.4787 92.5971 70.5596C92.4746 70.6398 92.3485 70.7149 92.2187 70.7828C92.0881 70.8514 91.9553 70.9136 91.8189 70.9692C91.6825 71.0248 91.5438 71.0732 91.403 71.1158C91.2622 71.1577 91.1191 71.1931 90.9746 71.2212C90.8301 71.2494 90.6842 71.2711 90.5375 71.2848C90.3908 71.2993 90.2433 71.3065 90.0959 71.3065C89.9484 71.3065 89.8018 71.2993 89.655 71.2848C89.5083 71.2711 89.3624 71.2494 89.2179 71.2212C89.0734 71.1931 88.9303 71.1577 88.7895 71.1158C88.6479 71.0732 88.5093 71.0248 88.3736 70.9692C88.2372 70.9136 88.1037 70.8514 87.9738 70.7828C87.844 70.7149 87.7179 70.6398 87.5954 70.5596C87.4721 70.4787 87.354 70.3921 87.2403 70.3003C87.1259 70.2079 87.0174 70.1104 86.9125 70.0078C86.8083 69.9052 86.71 69.7976 86.6161 69.6857C86.5222 69.5737 86.435 69.4567 86.3528 69.3361C86.2706 69.2155 86.1951 69.0912 86.1261 68.9634C86.0565 68.8348 85.9934 68.7041 85.9369 68.5697C85.8804 68.4354 85.8305 68.2989 85.788 68.1602C85.7455 68.0215 85.7095 67.8807 85.6809 67.7384C85.6523 67.5961 85.6303 67.4523 85.6156 67.3079C85.6017 67.1634 85.5944 67.0183 85.5944 66.8731C85.5944 66.7279 85.6017 66.5834 85.6164 66.439C85.631 66.2945 85.6523 66.1515 85.6816 66.0085C85.7103 65.8662 85.7462 65.7261 85.7887 65.5867C85.832 65.448 85.8819 65.3115 85.9384 65.1779C85.9949 65.0435 86.0579 64.9128 86.1269 64.7842C86.1966 64.6564 86.2721 64.5321 86.3543 64.4115C86.4364 64.2909 86.5237 64.1746 86.6176 64.0619C86.7108 63.95 86.8098 63.8424 86.9139 63.7398C87.0181 63.6372 87.1274 63.5397 87.2411 63.448C87.3555 63.3555 87.4736 63.2696 87.5961 63.1887C87.7186 63.1078 87.8447 63.0334 87.9746 62.9648C88.1051 62.8969 88.2379 62.8348 88.3743 62.7791C88.51 62.7235 88.6487 62.6744 88.7895 62.6318C88.9311 62.5899 89.0734 62.5545 89.2179 62.5263C89.3631 62.4975 89.5083 62.4765 89.655 62.4621C89.8018 62.4476 89.9484 62.4404 90.0959 62.4404Z" fill="#7AA500"/>
<path d="M6.80985 66.8731H46.3958L56.9905 77.3065C57.2018 77.5145 57.4453 77.6749 57.7211 77.7876C57.9969 77.8995 58.2837 77.9558 58.5822 77.9558H74.3394V100.121C74.3394 100.267 74.3534 100.411 74.3827 100.554C74.4113 100.697 74.4539 100.836 74.5103 100.97C74.5676 101.104 74.6365 101.232 74.7187 101.353C74.8008 101.474 74.894 101.586 74.9989 101.689C75.103 101.792 75.2167 101.884 75.3399 101.965C75.4624 102.046 75.5923 102.113 75.7287 102.17C75.8651 102.225 76.006 102.267 76.1512 102.295C76.2964 102.324 76.4424 102.338 76.5906 102.338C76.738 102.338 76.8847 102.324 77.0292 102.295C77.1744 102.267 77.3153 102.225 77.4517 102.17C77.5881 102.113 77.718 102.046 77.8412 101.965C77.9637 101.884 78.0774 101.792 78.1823 101.689C78.2864 101.586 78.3796 101.474 78.4618 101.353C78.5439 101.232 78.6136 101.104 78.6701 100.97C78.7265 100.836 78.7691 100.697 78.7977 100.554C78.827 100.411 78.841 100.267 78.841 100.121V75.7399C78.841 75.594 78.827 75.4502 78.7977 75.3072C78.7691 75.1642 78.7265 75.0255 78.6701 74.8912C78.6136 74.7568 78.5439 74.629 78.4618 74.5084C78.3796 74.387 78.2864 74.2751 78.1823 74.1725C78.0774 74.0692 77.9637 73.9775 77.8412 73.8966C77.718 73.8157 77.5881 73.7478 77.4517 73.6915C77.3153 73.6358 77.1744 73.594 77.0292 73.5658C76.8847 73.5369 76.738 73.5232 76.5906 73.5232H59.5145L48.919 63.0897C48.7078 62.8817 48.4642 62.7214 48.1892 62.6094C47.9134 62.4967 47.6258 62.4404 47.3273 62.4404H6.80985C6.66168 62.4404 6.51571 62.4541 6.37048 62.483C6.22598 62.5112 6.08514 62.5531 5.94798 62.6087C5.81155 62.665 5.68172 62.7329 5.55922 62.8138C5.43599 62.8947 5.3223 62.9864 5.21814 63.0897C5.11325 63.1923 5.02009 63.3042 4.93794 63.4256C4.85579 63.5462 4.78684 63.6741 4.73036 63.8084C4.67388 63.9427 4.6306 64.0814 4.60199 64.2244C4.57339 64.3674 4.55872 64.5112 4.55872 64.6571C4.55872 64.8023 4.57339 64.9467 4.60199 65.089C4.6306 65.232 4.67388 65.3707 4.73036 65.5051C4.78684 65.6394 4.85579 65.7672 4.93794 65.8886C5.02009 66.0092 5.11325 66.1212 5.21814 66.2244C5.3223 66.327 5.43599 66.4187 5.55922 66.4996C5.68172 66.5805 5.81155 66.6492 5.94798 66.7048C6.08514 66.7604 6.22598 66.8023 6.37048 66.8304C6.51571 66.8593 6.66168 66.8731 6.80985 66.8731Z" fill="#7AA500"/>
<path d="M128.363 44.7075H93.2794L83.3433 34.9241V7.02651C83.3433 6.88061 83.3287 6.73681 83.3001 6.59381C83.2714 6.45151 83.2289 6.31281 83.1717 6.17781C83.1152 6.04341 83.0463 5.91561 82.9641 5.79501C82.882 5.67361 82.7888 5.56171 82.6839 5.45911C82.5798 5.35581 82.4661 5.26411 82.3428 5.18321C82.2203 5.10231 82.0905 5.03441 81.9541 4.97881C81.8169 4.92321 81.6768 4.88061 81.5316 4.85241C81.3863 4.82421 81.2404 4.80981 81.0922 4.80981C80.9448 4.80981 80.7981 4.82421 80.6528 4.85241C80.5083 4.88061 80.3675 4.92321 80.2311 4.97881C80.0946 5.03441 79.9648 5.10231 79.8416 5.18321C79.7191 5.26411 79.6054 5.35581 79.5005 5.45911C79.3963 5.56171 79.3032 5.67361 79.221 5.79501C79.1389 5.91561 79.0692 6.04341 79.0127 6.17781C78.9562 6.31281 78.9137 6.45151 78.8843 6.59381C78.8557 6.73681 78.8411 6.88061 78.8411 7.02651V35.8414C78.8418 36.1354 78.8983 36.4185 79.0127 36.6894C79.1271 36.961 79.29 37.2008 79.5012 37.4088L90.7562 48.4916C90.9667 48.6996 91.2102 48.8592 91.486 48.9719C91.7618 49.0846 92.0486 49.1409 92.3471 49.1409H128.363C128.511 49.1409 128.657 49.1265 128.802 49.0983C128.947 49.0701 129.088 49.0282 129.224 48.9719C129.361 48.9163 129.49 48.8484 129.614 48.7675C129.736 48.6866 129.85 48.5949 129.955 48.4916C130.059 48.389 130.153 48.2771 130.235 48.1557C130.317 48.0351 130.386 47.9072 130.443 47.7729C130.499 47.6378 130.542 47.4999 130.571 47.3569C130.6 47.2138 130.614 47.0701 130.614 46.9242C130.614 46.779 130.6 46.6346 130.571 46.4923C130.542 46.3493 130.499 46.2106 130.443 46.0762C130.386 45.9419 130.317 45.814 130.235 45.6927C130.153 45.5721 130.059 45.4601 129.955 45.3568C129.85 45.2543 129.736 45.1625 129.614 45.0816C129.49 45.0008 129.361 44.9321 129.224 44.8765C129.088 44.8209 128.947 44.779 128.802 44.7501C128.657 44.7219 128.511 44.7075 128.363 44.7075Z" fill="#7AA500"/>
<path d="M128.363 35.8414H97.7809L92.3471 30.4907V7.02651C92.3471 6.88061 92.3332 6.73681 92.3038 6.59381C92.2752 6.45151 92.2327 6.31281 92.1762 6.17781C92.119 6.04341 92.05 5.91561 91.9679 5.79501C91.8857 5.67361 91.7926 5.56171 91.6877 5.45911C91.5835 5.35581 91.4698 5.26411 91.3466 5.18321C91.2241 5.10231 91.0943 5.03441 90.9579 4.97881C90.8214 4.92321 90.6806 4.88061 90.5354 4.85241C90.3901 4.82421 90.2441 4.80981 90.096 4.80981C89.9485 4.80981 89.8018 4.82421 89.6573 4.85241C89.5121 4.88061 89.3713 4.92321 89.2348 4.97881C89.0984 5.03441 88.9686 5.10231 88.8454 5.18321C88.7229 5.26411 88.6092 5.35581 88.5043 5.45911C88.4001 5.56171 88.307 5.67361 88.2248 5.79501C88.1427 5.91561 88.073 6.04341 88.0165 6.17781C87.96 6.31281 87.9175 6.45151 87.8889 6.59381C87.8595 6.73681 87.8456 6.88061 87.8456 7.02651V31.4087C87.8456 31.7027 87.9028 31.9851 88.0165 32.2567C88.1309 32.5283 88.2938 32.7681 88.505 32.9754L95.2577 39.6255C95.4689 39.8328 95.7124 39.9931 95.9882 40.1058C96.2633 40.2185 96.5508 40.2748 96.8494 40.2748H128.363C128.511 40.2748 128.657 40.2604 128.802 40.2322C128.947 40.204 129.088 40.1614 129.224 40.1058C129.361 40.0502 129.49 39.9823 129.614 39.9014C129.736 39.8205 129.85 39.728 129.955 39.6255C130.059 39.5229 130.153 39.4102 130.235 39.2896C130.317 39.1683 130.386 39.0412 130.443 38.9061C130.499 38.7717 130.542 38.6331 130.571 38.4908C130.599 38.3478 130.614 38.204 130.614 38.0581C130.614 37.9129 130.599 37.7685 130.571 37.6255C130.542 37.4832 130.499 37.3445 130.443 37.2102C130.386 37.0751 130.317 36.948 130.235 36.8266C130.153 36.706 130.059 36.594 129.955 36.4908C129.85 36.3882 129.736 36.2957 129.614 36.2148C129.49 36.1339 129.361 36.066 129.224 36.0104C129.088 35.9548 128.947 35.9129 128.802 35.884C128.657 35.8559 128.511 35.8414 128.363 35.8414Z" fill="#7AA500"/>
<path d="M6.80985 108.988H20.3159C20.5103 108.988 20.701 108.964 20.8888 108.915C21.0773 108.866 21.2555 108.795 21.4242 108.701C21.5937 108.606 21.7477 108.492 21.8871 108.358C22.0264 108.225 22.146 108.076 22.2458 107.912L28.3434 97.905H34.1411C34.1865 98.077 34.2364 98.249 34.2922 98.418C34.3479 98.587 34.4088 98.754 34.4748 98.92C34.5401 99.086 34.6112 99.25 34.6868 99.411C34.7631 99.572 34.8438 99.731 34.9296 99.888C35.0147 100.045 35.1049 100.199 35.2002 100.35C35.2949 100.501 35.3946 100.65 35.4988 100.795C35.6029 100.94 35.7115 101.083 35.8237 101.222C35.9367 101.361 36.054 101.497 36.1751 101.629C36.2961 101.761 36.4208 101.889 36.5499 102.014C36.679 102.139 36.811 102.259 36.9474 102.376C37.0839 102.493 37.2232 102.605 37.367 102.714C37.51 102.823 37.656 102.927 37.8056 103.026C37.9553 103.127 38.1079 103.222 38.2634 103.312C38.4189 103.403 38.5766 103.489 38.7372 103.571C38.8978 103.653 39.0607 103.729 39.2265 103.801C39.3915 103.873 39.5587 103.939 39.7282 104.002C39.8976 104.064 40.0685 104.12 40.2416 104.172C40.4147 104.224 40.5893 104.27 40.7646 104.311C40.9407 104.353 41.1174 104.389 41.2949 104.42C41.4732 104.451 41.6522 104.477 41.8311 104.497C42.0108 104.517 42.1906 104.532 42.371 104.542C42.5514 104.551 42.7326 104.556 42.9131 104.555C43.0935 104.553 43.2739 104.547 43.4544 104.535C43.6348 104.524 43.8145 104.506 43.9935 104.484C44.1732 104.462 44.3515 104.434 44.529 104.401C44.7065 104.368 44.8833 104.33 45.0578 104.286C45.2331 104.243 45.407 104.194 45.5794 104.14C45.7517 104.087 45.9219 104.028 46.0906 103.964C46.2593 103.9 46.4258 103.832 46.5901 103.758C46.7544 103.684 46.9165 103.606 47.0764 103.522C47.2364 103.439 47.3933 103.351 47.5474 103.258C47.7014 103.166 47.8532 103.068 48.0014 102.967C48.1496 102.865 48.2948 102.759 48.4364 102.649C48.5787 102.539 48.7166 102.425 48.8515 102.306C48.9865 102.188 49.1178 102.065 49.2447 101.939C49.3723 101.813 49.4956 101.683 49.6151 101.549C49.7347 101.416 49.8498 101.279 49.9613 101.139C50.0721 100.998 50.1784 100.855 50.2811 100.709C50.3831 100.562 50.4814 100.413 50.5745 100.26C50.6677 100.107 50.7557 99.952 50.8393 99.794C50.923 99.637 51.0022 99.477 51.0755 99.315C51.1496 99.152 51.2186 98.987 51.2824 98.821C51.3462 98.654 51.4049 98.487 51.4584 98.316C51.512 98.147 51.5604 97.976 51.6036 97.803C51.6469 97.63 51.6843 97.456 51.7166 97.281C51.7489 97.106 51.776 96.93 51.798 96.753C51.82 96.576 51.8362 96.399 51.8472 96.222C51.8574 96.044 51.8633 95.866 51.8633 95.689C51.8633 95.51 51.8574 95.333 51.8472 95.155C51.8362 94.978 51.82 94.8 51.798 94.624C51.776 94.447 51.7489 94.272 51.7166 94.096C51.6843 93.921 51.6469 93.747 51.6036 93.575C51.5604 93.402 51.512 93.231 51.4584 93.06C51.4049 92.891 51.3462 92.722 51.2824 92.556C51.2186 92.389 51.1496 92.225 51.0755 92.063C51.0022 91.9003 50.923 91.7407 50.8393 91.5825C50.7557 91.4251 50.6677 91.2698 50.5745 91.1174C50.4814 90.965 50.3831 90.8155 50.2811 90.6688C50.1784 90.5222 50.0721 90.3785 49.9613 90.2384C49.8498 90.0982 49.7347 89.961 49.6151 89.8274C49.4956 89.6938 49.3723 89.5645 49.2447 89.4381C49.1178 89.3117 48.9865 89.1896 48.8515 89.0711C48.7166 88.9527 48.5787 88.8386 48.4364 88.7281C48.2948 88.6183 48.1496 88.5121 48.0014 88.4102C47.8532 88.3091 47.7014 88.2116 47.5474 88.1192C47.3933 88.0267 47.2364 87.9386 47.0764 87.8548C46.9165 87.7717 46.7544 87.693 46.5901 87.6193C46.4258 87.5457 46.2593 87.4771 46.0906 87.4128C45.9219 87.3492 45.7517 87.2907 45.5794 87.2365C45.407 87.1831 45.2331 87.134 45.0578 87.0906C44.8833 87.0473 44.7065 87.009 44.529 86.9765C44.3515 86.9433 44.1732 86.9151 43.9935 86.8927C43.8145 86.8703 43.6348 86.8537 43.4544 86.8414C43.2739 86.8299 43.0935 86.8234 42.9131 86.8227C42.7326 86.8212 42.5514 86.8255 42.371 86.8357C42.1906 86.845 42.0108 86.8602 41.8311 86.8804C41.6522 86.9007 41.4732 86.9259 41.2949 86.957C41.1174 86.9881 40.9407 87.0242 40.7646 87.0653C40.5893 87.1072 40.4147 87.1535 40.2416 87.2055C40.0685 87.2568 39.8976 87.3138 39.7282 87.3759C39.5587 87.4373 39.3915 87.5045 39.2265 87.576C39.0607 87.6482 38.8978 87.7248 38.7372 87.8057C38.5766 87.8873 38.4189 87.974 38.2634 88.0643C38.1079 88.1553 37.9553 88.2506 37.8056 88.3503C37.656 88.45 37.51 88.5547 37.367 88.663C37.2232 88.7714 37.0839 88.8841 36.9474 89.0011C36.811 89.1181 36.679 89.2387 36.5499 89.3637C36.4208 89.4879 36.2961 89.6165 36.1751 89.7486C36.054 89.8808 35.9367 90.0159 35.8237 90.1553C35.7115 90.294 35.6029 90.4363 35.4988 90.5822C35.3946 90.7273 35.2949 90.8754 35.2002 91.0271C35.1049 91.1788 35.0147 91.3326 34.9296 91.4894C34.8438 91.6461 34.7631 91.805 34.6868 91.9668C34.6112 92.128 34.5401 92.292 34.4748 92.457C34.4088 92.623 34.3479 92.79 34.2922 92.96C34.2364 93.129 34.1865 93.3 34.1411 93.472H27.0686C26.8742 93.472 26.6835 93.497 26.495 93.545C26.3072 93.594 26.129 93.666 25.9595 93.76C25.7908 93.854 25.636 93.968 25.4974 94.101C25.358 94.235 25.2385 94.384 25.1387 94.548L19.0403 104.555H6.80985C6.66168 104.555 6.51571 104.569 6.37048 104.597C6.22598 104.626 6.08514 104.668 5.94798 104.724C5.81155 104.779 5.68171 104.847 5.55922 104.928C5.43599 105.009 5.3223 105.101 5.21814 105.204C5.11325 105.307 5.02009 105.419 4.93794 105.54C4.85579 105.661 4.78684 105.788 4.73036 105.923C4.67388 106.058 4.6306 106.196 4.60199 106.339C4.57339 106.482 4.55872 106.626 4.55872 106.772C4.55872 106.917 4.57339 107.061 4.60199 107.204C4.6306 107.346 4.67388 107.485 4.73036 107.619C4.78684 107.754 4.85579 107.882 4.93794 108.003C5.02009 108.124 5.11325 108.236 5.21814 108.339C5.3223 108.441 5.43599 108.533 5.55922 108.614C5.68171 108.695 5.81155 108.764 5.94798 108.819C6.08514 108.875 6.22598 108.917 6.37048 108.946C6.51571 108.974 6.66168 108.988 6.80985 108.988ZM42.8258 91.2553C42.9732 91.2553 43.1199 91.2626 43.2666 91.277C43.4133 91.2907 43.5593 91.3124 43.7038 91.3406C43.8483 91.3687 43.9913 91.4041 44.1321 91.446C44.2737 91.4886 44.4123 91.537 44.548 91.5926C44.6845 91.6483 44.818 91.7104 44.9478 91.779C45.0776 91.8476 45.2038 91.922 45.3263 92.003C45.4495 92.083 45.5676 92.17 45.6813 92.261C45.7957 92.354 45.9043 92.451 46.0092 92.554C46.1133 92.657 46.2124 92.764 46.3055 92.876C46.3994 92.989 46.4867 93.105 46.5689 93.226C46.651 93.346 46.7266 93.471 46.7955 93.599C46.8652 93.727 46.9283 93.858 46.9848 93.992C47.0412 94.126 47.0911 94.263 47.1337 94.402C47.1762 94.541 47.2121 94.681 47.2407 94.823C47.2694 94.966 47.2914 95.109 47.306 95.254C47.32 95.398 47.3273 95.544 47.3273 95.689C47.3273 95.834 47.32 95.978 47.306 96.123C47.2914 96.267 47.2694 96.411 47.2407 96.553C47.2121 96.696 47.1762 96.836 47.1337 96.975C47.0911 97.115 47.0412 97.251 46.9848 97.385C46.9283 97.519 46.8652 97.65 46.7955 97.778C46.7266 97.906 46.651 98.031 46.5689 98.152C46.4867 98.272 46.3994 98.389 46.3055 98.501C46.2124 98.613 46.1133 98.721 46.0092 98.823C45.9043 98.926 45.7957 99.024 45.6813 99.115C45.5676 99.208 45.4495 99.294 45.3263 99.375C45.2038 99.455 45.0776 99.53 44.9478 99.598C44.818 99.666 44.6845 99.728 44.548 99.784C44.4123 99.84 44.2737 99.889 44.1321 99.931C43.9913 99.973 43.8483 100.008 43.7038 100.036C43.5593 100.065 43.4133 100.086 43.2666 100.1C43.1199 100.115 42.9732 100.121 42.8258 100.121C42.6783 100.121 42.5309 100.115 42.3842 100.1C42.2375 100.086 42.0915 100.065 41.947 100.036C41.8025 100.008 41.6595 99.973 41.5187 99.931C41.3778 99.889 41.2392 99.84 41.1028 99.784C40.9663 99.728 40.8336 99.666 40.703 99.598C40.5732 99.53 40.447 99.455 40.3245 99.375C40.202 99.294 40.0832 99.208 39.9695 99.115C39.8558 99.024 39.7465 98.926 39.6424 98.823C39.5382 98.721 39.4392 98.613 39.3453 98.501C39.2521 98.389 39.1641 98.272 39.082 98.152C39.0005 98.031 38.9242 97.906 38.8553 97.778C38.7856 97.65 38.7225 97.519 38.6661 97.385C38.6096 97.251 38.5604 97.115 38.5172 96.975C38.4746 96.836 38.4387 96.696 38.4101 96.553C38.3815 96.411 38.3594 96.267 38.3455 96.123C38.3308 95.978 38.3235 95.834 38.3235 95.689C38.3235 95.544 38.3308 95.398 38.3455 95.254C38.3602 95.109 38.3822 94.966 38.4108 94.824C38.4394 94.682 38.4753 94.541 38.5186 94.402C38.5612 94.264 38.611 94.127 38.6675 93.993C38.724 93.858 38.7871 93.728 38.8568 93.6C38.9257 93.472 39.002 93.347 39.0834 93.226C39.1656 93.106 39.2536 92.99 39.3467 92.878C39.4406 92.765 39.5389 92.658 39.6431 92.555C39.748 92.453 39.8565 92.355 39.971 92.263C40.0847 92.171 40.2028 92.085 40.3252 92.004C40.4477 91.9235 40.5739 91.8491 40.7045 91.7804C40.8343 91.7118 40.9671 91.6497 41.1035 91.5941C41.2392 91.5385 41.3778 91.4894 41.5194 91.4475C41.6602 91.4049 41.8033 91.3702 41.9478 91.3413C42.0923 91.3131 42.2375 91.2915 42.3842 91.277C42.5309 91.2626 42.6783 91.2553 42.8258 91.2553Z" fill="#7AA500"/>
<path d="M6.80985 117.854H36.0724C36.2205 117.854 36.3665 117.84 36.5117 117.812C36.657 117.784 36.7971 117.741 36.9342 117.685C37.0707 117.63 37.2005 117.562 37.323 117.481C37.4462 117.4 37.5599 117.308 37.6641 117.205C37.769 117.102 37.8621 116.99 37.9443 116.869C38.0264 116.748 38.0954 116.621 38.1519 116.486C38.2091 116.351 38.2516 116.213 38.2802 116.07C38.3088 115.927 38.3235 115.784 38.3235 115.638C38.3235 115.492 38.3088 115.348 38.2802 115.205C38.2516 115.063 38.2091 114.924 38.1519 114.79C38.0954 114.655 38.0264 114.527 37.9443 114.406C37.8621 114.285 37.769 114.174 37.6641 114.07C37.5599 113.968 37.4462 113.875 37.323 113.794C37.2005 113.713 37.0707 113.646 36.9342 113.59C36.7971 113.534 36.657 113.492 36.5117 113.464C36.3665 113.435 36.2205 113.421 36.0724 113.421H6.80985C6.66168 113.421 6.51571 113.435 6.37048 113.464C6.22598 113.492 6.08514 113.534 5.94798 113.59C5.81155 113.646 5.68171 113.713 5.55922 113.794C5.43599 113.875 5.3223 113.968 5.21814 114.07C5.11325 114.174 5.02009 114.285 4.93794 114.406C4.85579 114.527 4.78684 114.655 4.73036 114.79C4.67388 114.924 4.6306 115.063 4.60199 115.205C4.57339 115.348 4.55872 115.492 4.55872 115.638C4.55872 115.784 4.57339 115.927 4.60199 116.07C4.6306 116.213 4.67388 116.351 4.73036 116.486C4.78684 116.621 4.85579 116.748 4.93794 116.869C5.02009 116.99 5.11325 117.102 5.21814 117.205C5.3223 117.308 5.43599 117.4 5.55922 117.481C5.68171 117.562 5.81155 117.63 5.94798 117.685C6.08514 117.741 6.22598 117.784 6.37048 117.812C6.51571 117.84 6.66168 117.854 6.80985 117.854Z" fill="#7AA500"/>
<path d="M65.3356 7.02651V36.1563C65.1603 36.2011 64.9872 36.2502 64.8148 36.3051C64.6432 36.36 64.473 36.42 64.3051 36.485C64.1363 36.5493 63.9706 36.6193 63.8063 36.6937C63.6427 36.7688 63.4806 36.8483 63.3214 36.9321C63.1622 37.0166 63.006 37.1054 62.8527 37.1993C62.6987 37.2925 62.5483 37.3907 62.4001 37.4933C62.2527 37.5959 62.1082 37.7028 61.9666 37.8133C61.8258 37.9245 61.6879 38.0393 61.5537 38.1585C61.4202 38.2777 61.2896 38.4012 61.1627 38.5283C61.0365 38.6547 60.9133 38.7855 60.7952 38.9198C60.6764 39.0542 60.562 39.1914 60.4519 39.3322C60.3412 39.4738 60.2356 39.6175 60.1343 39.7649C60.0331 39.9122 59.9363 40.0625 59.8439 40.2156C59.7514 40.368 59.6642 40.524 59.5813 40.6822C59.4984 40.8404 59.4206 41.0007 59.348 41.1632C59.2747 41.3265 59.2072 41.4912 59.1441 41.658C59.0818 41.8248 59.0238 41.9931 58.971 42.1636C58.9189 42.3341 58.8712 42.5052 58.8294 42.6786C58.7876 42.8512 58.7509 43.026 58.7194 43.2008C58.6879 43.3763 58.6622 43.5518 58.6409 43.7288C58.6204 43.9058 58.6057 44.0827 58.5954 44.2604C58.5859 44.4381 58.5815 44.6158 58.5822 44.7942C58.5837 44.9719 58.5903 45.1495 58.602 45.3272C58.6138 45.5049 58.6314 45.6819 58.6541 45.8581C58.6769 46.0351 58.7047 46.2106 58.7385 46.3854C58.7722 46.5602 58.8111 46.7335 58.8551 46.9061C58.8991 47.0788 58.9483 47.25 59.0033 47.4197C59.0575 47.5894 59.1177 47.757 59.1822 47.9231C59.2468 48.0892 59.3172 48.2532 59.392 48.415C59.4668 48.5768 59.5468 48.7364 59.6311 48.8939C59.7155 49.0513 59.805 49.2052 59.8989 49.3576C59.9935 49.5093 60.0918 49.6581 60.1952 49.8047C60.2979 49.9506 60.4057 50.0936 60.518 50.233C60.6294 50.3724 60.7461 50.5089 60.8664 50.6418C60.9859 50.7747 61.1106 50.9033 61.2383 51.029C61.3666 51.1546 61.4987 51.276 61.6344 51.3937C61.7701 51.5114 61.9087 51.6248 62.051 51.7339C62.194 51.8437 62.3393 51.9484 62.4889 52.0496C62.6378 52.15 62.7896 52.246 62.9444 52.3377C63.0992 52.4295 63.2561 52.5169 63.4168 52.5992C63.5767 52.6816 63.7395 52.7596 63.9046 52.8318C64.0689 52.9047 64.2361 52.9726 64.4048 53.0355C64.5742 53.0983 64.7452 53.1561 64.9175 53.2088C65.0899 53.2616 65.2637 53.3092 65.4398 53.3518C65.6151 53.3937 65.7919 53.4313 65.9694 53.4631C66.1469 53.4949 66.3259 53.5216 66.5048 53.5432C66.6845 53.5642 66.8643 53.5808 67.0447 53.5909C67.2251 53.6017 67.4056 53.6075 67.586 53.6075C67.7672 53.6075 67.9476 53.6017 68.1281 53.5909C68.3085 53.5808 68.4882 53.5642 68.6672 53.5432C68.8469 53.5216 69.0252 53.4949 69.2034 53.4631C69.3809 53.4313 69.5577 53.3937 69.733 53.3518C69.9083 53.3092 70.0829 53.2616 70.2553 53.2088C70.4276 53.1561 70.5985 53.0983 70.7672 53.0355C70.9367 52.9726 71.1039 52.9047 71.2682 52.8318C71.4333 52.7596 71.5961 52.6816 71.756 52.5992C71.9159 52.5169 72.0736 52.4295 72.2284 52.3377C72.3832 52.246 72.535 52.15 72.6839 52.0496C72.8328 51.9484 72.9788 51.8437 73.1211 51.7339C73.2641 51.6248 73.4027 51.5114 73.5384 51.3937C73.6741 51.276 73.8062 51.1546 73.9338 51.029C74.0622 50.9033 74.1861 50.7747 74.3064 50.6418C74.4267 50.5089 74.5433 50.3724 74.6548 50.233C74.7671 50.0936 74.8742 49.9506 74.9776 49.8047C75.081 49.6581 75.1793 49.5093 75.2732 49.3576C75.3678 49.2052 75.4573 49.0513 75.5416 48.8939C75.626 48.7364 75.706 48.5768 75.7808 48.415C75.8556 48.2532 75.9253 48.0892 75.9906 47.9231C76.0551 47.757 76.1152 47.5894 76.1695 47.4197C76.2238 47.25 76.2737 47.0788 76.3177 46.9061C76.3617 46.7335 76.4006 46.5602 76.4343 46.3854C76.4673 46.2106 76.4959 46.0351 76.5187 45.8581C76.5414 45.6819 76.5583 45.5049 76.5708 45.3272C76.5825 45.1495 76.5891 44.9719 76.5898 44.7942C76.5913 44.6158 76.5869 44.4381 76.5774 44.2604C76.5671 44.0827 76.5517 43.9058 76.5311 43.7288C76.5106 43.5518 76.4849 43.3763 76.4534 43.2008C76.4219 43.026 76.3852 42.8512 76.3434 42.6786C76.3016 42.5052 76.2539 42.3341 76.2011 42.1636C76.149 41.9931 76.091 41.8248 76.0287 41.658C75.9656 41.4912 75.8974 41.3265 75.8248 41.1632C75.7522 41.0007 75.6744 40.8404 75.5915 40.6822C75.5086 40.524 75.4214 40.368 75.3289 40.2156C75.2365 40.0625 75.1397 39.9122 75.0385 39.7649C74.9372 39.6175 74.8309 39.4738 74.7209 39.3322C74.6108 39.1914 74.4964 39.0542 74.3776 38.9198C74.2587 38.7855 74.1362 38.6547 74.0101 38.5283C73.8832 38.4012 73.7526 38.2777 73.6184 38.1585C73.4849 38.0393 73.347 37.9245 73.2054 37.8133C73.0646 37.7028 72.9201 37.5959 72.7727 37.4933C72.6245 37.3907 72.4741 37.2925 72.3201 37.1993C72.1668 37.1054 72.0098 37.0166 71.8506 36.9321C71.6922 36.8483 71.5301 36.7688 71.3665 36.6937C71.2022 36.6193 71.0364 36.5493 70.8677 36.485C70.6998 36.42 70.5296 36.36 70.358 36.3051C70.1856 36.2502 70.0125 36.2011 69.8372 36.1563V7.02651C69.8372 6.88061 69.8232 6.73681 69.7939 6.59381C69.7653 6.45151 69.7227 6.31281 69.6663 6.17781C69.609 6.04341 69.5401 5.91561 69.4579 5.79501C69.3758 5.67361 69.2826 5.56171 69.1777 5.45911C69.0736 5.35581 68.9599 5.26411 68.8367 5.18321C68.7142 5.10231 68.5843 5.03441 68.4479 4.97881C68.3115 4.92321 68.1706 4.88061 68.0254 4.85241C67.8802 4.82421 67.7342 4.80981 67.586 4.80981C67.4386 4.80981 67.2919 4.82421 67.1474 4.85241C67.0022 4.88061 66.8613 4.92321 66.7249 4.97881C66.5885 5.03441 66.4586 5.10231 66.3354 5.18321C66.2129 5.26411 66.0992 5.35581 65.9943 5.45911C65.8902 5.56171 65.797 5.67361 65.7149 5.79501C65.6327 5.91561 65.563 6.04341 65.5065 6.17781C65.4501 6.31281 65.4075 6.45151 65.3789 6.59381C65.3496 6.73681 65.3356 6.88061 65.3356 7.02651ZM72.0883 44.7075C72.0883 44.8527 72.081 44.9979 72.0663 45.1423C72.0524 45.2868 72.0303 45.4305 72.0017 45.5728C71.9731 45.7151 71.9372 45.8559 71.8946 45.9946C71.8514 46.1333 71.8022 46.2698 71.7457 46.4042C71.6893 46.5385 71.6262 46.6692 71.5565 46.7978C71.4876 46.9256 71.4113 47.0499 71.3298 47.1705C71.2477 47.2911 71.1597 47.4081 71.0665 47.5201C70.9726 47.632 70.8736 47.7397 70.7694 47.8422C70.6653 47.9455 70.556 48.0423 70.4423 48.1348C70.3286 48.2265 70.2098 48.3132 70.0873 48.3941C69.9648 48.4742 69.8386 48.5493 69.7088 48.6172C69.5782 48.6859 69.4455 48.748 69.309 48.8036C69.1726 48.8592 69.034 48.9076 68.8931 48.9502C68.7523 48.9921 68.6093 49.0275 68.4648 49.0557C68.3203 49.0838 68.1743 49.1055 68.0276 49.1192C67.8809 49.1337 67.7335 49.1409 67.586 49.1409C67.4386 49.1409 67.2919 49.1337 67.1452 49.1192C66.9985 49.1055 66.8525 49.0838 66.708 49.0557C66.5635 49.0275 66.4205 48.9921 66.2797 48.9502C66.1381 48.9076 65.9995 48.8592 65.8638 48.8036C65.7273 48.748 65.5938 48.6859 65.464 48.6172C65.3342 48.5493 65.208 48.4742 65.0855 48.3941C64.9623 48.3132 64.8442 48.2265 64.7305 48.1348C64.6161 48.0423 64.5075 47.9455 64.4026 47.8422C64.2985 47.7397 64.2002 47.632 64.1063 47.5201C64.0124 47.4081 63.9251 47.2911 63.8429 47.1705C63.7615 47.0499 63.6852 46.9256 63.6163 46.7978C63.5466 46.6692 63.4835 46.5385 63.427 46.4042C63.3706 46.2698 63.3207 46.1333 63.2781 45.9946C63.2356 45.8559 63.1997 45.7151 63.1711 45.5728C63.1424 45.4305 63.1204 45.2868 63.1058 45.1423C63.0918 44.9979 63.0845 44.8527 63.0845 44.7075C63.0845 44.5623 63.0918 44.4179 63.1058 44.2734C63.1204 44.1289 63.1424 43.9852 63.1711 43.8429C63.1997 43.7006 63.2356 43.5598 63.2781 43.4211C63.3207 43.2817 63.3706 43.1452 63.427 43.0116C63.4835 42.8772 63.5466 42.7458 63.6163 42.6179C63.6852 42.4901 63.7615 42.3658 63.8429 42.2452C63.9251 42.1239 64.0124 42.0076 64.1063 41.8956C64.2002 41.783 64.2985 41.6761 64.4026 41.5728C64.5075 41.4702 64.6161 41.3734 64.7305 41.281C64.8442 41.1885 64.9623 41.1026 65.0855 41.0217C65.208 40.9415 65.3342 40.8664 65.464 40.7985C65.5938 40.7299 65.7273 40.6677 65.8638 40.6121C65.9995 40.5565 66.1381 40.5074 66.2797 40.4655C66.4205 40.4236 66.5635 40.3882 66.708 40.3601C66.8525 40.3319 66.9985 40.3102 67.1452 40.2958C67.2919 40.282 67.4386 40.2748 67.586 40.2748C67.7335 40.2748 67.8809 40.282 68.0276 40.2965C68.1743 40.3109 68.3195 40.3319 68.464 40.3608C68.6085 40.3889 68.7516 40.4243 68.8924 40.4662C69.034 40.5088 69.1726 40.558 69.3083 40.6136C69.4447 40.6692 69.5775 40.7313 69.7073 40.7992C69.8379 40.8678 69.9641 40.9422 70.0866 41.0231C70.2091 41.104 70.3271 41.19 70.4408 41.2824C70.5553 41.3741 70.6638 41.4716 70.7687 41.5742C70.8729 41.6768 70.9712 41.7844 71.0651 41.8964C71.1582 42.009 71.2462 42.1253 71.3284 42.2459C71.4098 42.3666 71.4861 42.4908 71.555 42.6186C71.6247 42.7472 71.6878 42.8779 71.7443 43.0123C71.8008 43.1459 71.8506 43.2824 71.8932 43.4211C71.9365 43.5605 71.9724 43.7006 72.001 43.8429C72.0296 43.9859 72.0516 44.1289 72.0663 44.2734C72.081 44.4179 72.0883 44.5623 72.0883 44.7075Z" fill="#7AA500"/>
<path d="M128.363 102.338H101.351C101.052 102.338 100.765 102.394 100.49 102.507C100.214 102.62 99.9704 102.78 99.7598 102.987L89.1643 113.421H71.7685C71.668 113.042 71.5426 112.67 71.3922 112.308C71.2418 111.945 71.068 111.594 70.8699 111.253C70.6719 110.913 70.4526 110.587 70.2105 110.276C69.9685 109.965 69.7073 109.671 69.4257 109.393C69.144 109.116 68.8455 108.858 68.5293 108.621C68.2132 108.382 67.8824 108.166 67.5369 107.971C67.1914 107.776 66.8342 107.605 66.466 107.457C66.0977 107.308 65.7207 107.185 65.3356 107.086V84.606C65.3356 84.4601 65.321 84.3163 65.2924 84.1733C65.263 84.0303 65.2205 83.8924 65.164 83.7573C65.1075 83.6229 65.0378 83.4951 64.9557 83.3745C64.8735 83.2531 64.7804 83.1412 64.6762 83.0386C64.5713 82.9353 64.4576 82.8436 64.3351 82.7627C64.2119 82.6818 64.0821 82.6139 63.9456 82.5583C63.8092 82.5027 63.6684 82.4601 63.5231 82.4319C63.3786 82.4037 63.2319 82.3893 63.0845 82.3893H55.0123L44.4167 71.9558C44.2062 71.7478 43.9627 71.5882 43.6869 71.4755C43.4111 71.3628 43.1243 71.3065 42.8258 71.3065H6.80985C6.66168 71.3065 6.51571 71.3209 6.37048 71.3491C6.22598 71.3773 6.08514 71.4199 5.94798 71.4755C5.81155 71.5311 5.68171 71.599 5.55922 71.6799C5.43599 71.7608 5.3223 71.8525 5.21814 71.9558C5.11325 72.0584 5.02009 72.1703 4.93794 72.2917C4.85579 72.4123 4.78684 72.5402 4.73036 72.6745C4.67388 72.8096 4.6306 72.9475 4.60199 73.0905C4.57339 73.2336 4.55872 73.3773 4.55872 73.5232C4.55872 73.6684 4.57339 73.8128 4.60199 73.9558C4.6306 74.0981 4.67388 74.2368 4.73036 74.3712C4.78684 74.5055 4.85579 74.6333 4.93794 74.7547C5.02009 74.8753 5.11325 74.9873 5.21814 75.0906C5.3223 75.1931 5.43599 75.2848 5.55922 75.3657C5.68171 75.4466 5.81155 75.5153 5.94798 75.5709C6.08514 75.6265 6.22598 75.6684 6.37048 75.6973C6.51571 75.7254 6.66168 75.7399 6.80985 75.7399H41.8935L52.489 86.1726C52.7002 86.3806 52.943 86.541 53.2188 86.6537C53.4946 86.7663 53.7822 86.8227 54.0807 86.8227H60.8334V107.086C60.5788 107.151 60.3272 107.226 60.0793 107.312C59.8314 107.398 59.5879 107.495 59.3487 107.601C59.1096 107.708 58.8749 107.825 58.646 107.953C58.4172 108.08 58.1949 108.217 57.9778 108.363C57.7614 108.51 57.5517 108.666 57.3485 108.831C57.146 108.995 56.9509 109.168 56.7639 109.35C56.5761 109.531 56.3971 109.721 56.2269 109.918C56.056 110.115 55.8947 110.319 55.7428 110.53C55.5903 110.741 55.4472 110.958 55.3145 111.181C55.1817 111.404 55.0592 111.633 54.9462 111.867C54.834 112.101 54.7321 112.339 54.6404 112.582C54.5487 112.824 54.4687 113.071 54.399 113.321C54.3301 113.57 54.2714 113.823 54.2245 114.077C54.1775 114.332 54.1423 114.588 54.1181 114.846C54.0939 115.103 54.0814 115.362 54.0807 115.62C54.0792 115.88 54.0902 116.138 54.1122 116.396C54.1342 116.654 54.1673 116.91 54.212 117.165C54.2567 117.42 54.3132 117.673 54.3807 117.923C54.4475 118.174 54.5259 118.421 54.6154 118.664C54.7049 118.907 54.8047 119.146 54.9154 119.381C55.0262 119.616 55.1472 119.846 55.2785 120.07C55.4091 120.294 55.5499 120.512 55.701 120.725C55.8514 120.937 56.0113 121.142 56.18 121.34C56.3487 121.539 56.5262 121.729 56.7118 121.912C56.8981 122.096 57.0917 122.27 57.2927 122.437C57.4944 122.603 57.7028 122.76 57.9184 122.908C58.1341 123.056 58.3556 123.196 58.5837 123.324C58.8111 123.453 59.0443 123.573 59.2827 123.682C59.5211 123.791 59.7639 123.889 60.0111 123.977C60.2583 124.065 60.5092 124.142 60.763 124.208C61.0175 124.275 61.2742 124.33 61.5331 124.374C61.7921 124.418 62.0525 124.451 62.3143 124.473C62.5762 124.494 62.8388 124.504 63.1014 124.504C63.3647 124.503 63.6266 124.49 63.8884 124.467C64.1503 124.443 64.4107 124.408 64.6689 124.361C64.9278 124.315 65.1838 124.258 65.4376 124.19C65.6914 124.122 65.9408 124.042 66.1872 123.953C66.4337 123.862 66.6758 123.762 66.9134 123.651C67.1511 123.54 67.3836 123.42 67.6102 123.289C67.8369 123.157 68.0577 123.017 68.2719 122.867C68.486 122.717 68.6929 122.559 68.8931 122.39C69.0934 122.223 69.2856 122.046 69.4697 121.862C69.6538 121.677 69.8298 121.485 69.9971 121.285C70.1643 121.086 70.3227 120.879 70.4716 120.666C70.6198 120.452 70.7592 120.233 70.8883 120.007C71.0181 119.782 71.1369 119.552 71.2455 119.316C71.3541 119.081 71.4523 118.841 71.5396 118.597C71.6269 118.353 71.7032 118.105 71.7685 117.854H90.0959C90.3944 117.854 90.682 117.798 90.9578 117.685C91.2336 117.573 91.4763 117.412 91.6876 117.205L102.283 106.772H128.363C128.511 106.772 128.657 106.757 128.802 106.729C128.947 106.701 129.088 106.658 129.224 106.603C129.361 106.547 129.49 106.479 129.614 106.398C129.736 106.317 129.85 106.225 129.955 106.122C130.059 106.019 130.153 105.907 130.235 105.786C130.317 105.665 130.386 105.538 130.442 105.403C130.499 105.268 130.542 105.13 130.571 104.987C130.599 104.844 130.614 104.701 130.614 104.555C130.614 104.41 130.599 104.265 130.571 104.122C130.542 103.98 130.499 103.841 130.442 103.707C130.386 103.572 130.317 103.445 130.235 103.323C130.153 103.203 130.059 103.091 129.955 102.987C129.85 102.885 129.736 102.792 129.614 102.712C129.49 102.631 129.361 102.563 129.224 102.507C129.088 102.452 128.947 102.409 128.802 102.381C128.657 102.353 128.511 102.338 128.363 102.338ZM63.0845 120.071C62.9371 120.071 62.7896 120.064 62.6429 120.049C62.4962 120.035 62.351 120.014 62.2058 119.986C62.0613 119.957 61.919 119.922 61.7774 119.88C61.6366 119.838 61.4979 119.789 61.3615 119.733C61.2251 119.677 61.0923 119.616 60.9625 119.547C60.8319 119.479 60.7057 119.404 60.5832 119.323C60.4607 119.243 60.3427 119.157 60.2282 119.064C60.1145 118.972 60.0052 118.875 59.9011 118.772C59.7969 118.67 59.6979 118.562 59.604 118.45C59.5109 118.338 59.4228 118.221 59.3414 118.101C59.2593 117.98 59.1837 117.856 59.114 117.727C59.0443 117.599 58.9813 117.468 58.9248 117.334C58.8683 117.2 58.8192 117.063 58.7759 116.925C58.7333 116.785 58.6974 116.645 58.6688 116.502C58.6402 116.36 58.6182 116.217 58.6042 116.072C58.5896 115.928 58.5822 115.783 58.5822 115.638C58.5822 115.492 58.5896 115.347 58.6042 115.203C58.6182 115.058 58.6402 114.915 58.6688 114.773C58.6974 114.63 58.7333 114.49 58.7759 114.351C58.8192 114.212 58.8683 114.075 58.9248 113.941C58.9813 113.807 59.0443 113.676 59.114 113.548C59.1837 113.419 59.2593 113.295 59.3414 113.175C59.4228 113.054 59.5109 112.938 59.604 112.825C59.6979 112.713 59.7969 112.605 59.9011 112.503C60.0052 112.4 60.1145 112.303 60.2282 112.211C60.3427 112.119 60.4607 112.032 60.5832 111.952C60.7057 111.871 60.8319 111.796 60.9625 111.728C61.0923 111.659 61.2251 111.598 61.3615 111.542C61.4979 111.487 61.6366 111.438 61.7774 111.396C61.919 111.353 62.0613 111.318 62.2058 111.289C62.351 111.261 62.4962 111.24 62.6429 111.226C62.7896 111.211 62.9371 111.204 63.0845 111.204C63.2319 111.204 63.3786 111.211 63.5253 111.226C63.672 111.24 63.818 111.261 63.9625 111.289C64.107 111.318 64.25 111.353 64.3909 111.396C64.5324 111.438 64.6711 111.487 64.8075 111.542C64.9432 111.598 65.0767 111.659 65.2065 111.728C65.3364 111.796 65.4633 111.871 65.5858 111.952C65.7083 112.032 65.8263 112.119 65.94 112.211C66.0545 112.303 66.1638 112.4 66.2679 112.503C66.3721 112.605 66.4711 112.713 66.5643 112.825C66.6581 112.938 66.7454 113.054 66.8276 113.175C66.9097 113.295 66.9853 113.419 67.055 113.548C67.1239 113.676 67.187 113.807 67.2435 113.941C67.3 114.075 67.3498 114.212 67.3924 114.351C67.4349 114.49 67.4709 114.63 67.4995 114.773C67.5288 114.915 67.5501 115.058 67.5648 115.203C67.5794 115.347 67.586 115.492 67.586 115.638C67.586 115.783 67.5787 115.927 67.564 116.072C67.5494 116.216 67.5281 116.36 67.4987 116.502C67.4701 116.644 67.4342 116.785 67.3917 116.924C67.3484 117.063 67.2992 117.199 67.2428 117.334C67.1863 117.467 67.1232 117.599 67.0535 117.726C66.9838 117.854 66.9083 117.979 66.8261 118.099C66.744 118.221 66.6567 118.337 66.5628 118.449C66.4696 118.561 66.3706 118.668 66.2665 118.771C66.1623 118.873 66.053 118.971 65.9393 119.063C65.8249 119.155 65.7068 119.242 65.5843 119.322C65.4618 119.403 65.3356 119.477 65.2058 119.546C65.076 119.615 64.9425 119.677 64.8068 119.732C64.6703 119.788 64.5317 119.837 64.3909 119.879C64.25 119.921 64.107 119.956 63.9625 119.985C63.818 120.013 63.672 120.035 63.5253 120.049C63.3786 120.063 63.2319 120.07 63.0845 120.071Z" fill="#7AA500"/>
<path d="M128.363 111.204H105.853C105.555 111.205 105.268 111.261 104.992 111.373C104.716 111.486 104.473 111.646 104.261 111.854L95.2576 120.72C95.152 120.823 95.0566 120.935 94.973 121.056C94.8894 121.177 94.819 121.305 94.761 121.44C94.7031 121.574 94.6598 121.714 94.6297 121.857C94.5996 122 94.5842 122.145 94.5835 122.291C94.5835 122.438 94.5974 122.583 94.6253 122.727C94.6539 122.87 94.6965 123.01 94.7529 123.145C94.8094 123.28 94.8791 123.409 94.962 123.531C95.0441 123.653 95.138 123.766 95.2429 123.869C95.3478 123.972 95.4622 124.065 95.5862 124.146C95.7102 124.227 95.8407 124.296 95.9779 124.351C96.1158 124.407 96.2574 124.449 96.4033 124.477C96.5493 124.505 96.696 124.519 96.8449 124.518C96.9938 124.517 97.1405 124.502 97.2865 124.473C97.4317 124.444 97.5733 124.4 97.7104 124.343C97.8469 124.286 97.9767 124.217 98.0999 124.135C98.2232 124.052 98.3361 123.959 98.4403 123.854L106.785 115.638H128.363C128.511 115.638 128.657 115.623 128.802 115.595C128.947 115.567 129.088 115.525 129.224 115.469C129.361 115.413 129.49 115.345 129.614 115.264C129.736 115.183 129.85 115.092 129.955 114.988C130.059 114.886 130.153 114.774 130.235 114.652C130.317 114.532 130.386 114.404 130.442 114.27C130.499 114.135 130.542 113.997 130.571 113.854C130.599 113.711 130.614 113.567 130.614 113.421C130.614 113.276 130.599 113.131 130.571 112.989C130.542 112.846 130.499 112.707 130.442 112.573C130.386 112.439 130.317 112.311 130.235 112.189C130.153 112.069 130.059 111.957 129.955 111.854C129.85 111.751 129.736 111.659 129.614 111.578C129.49 111.497 129.361 111.429 129.224 111.373C129.088 111.318 128.947 111.276 128.802 111.247C128.657 111.219 128.511 111.204 128.363 111.204Z" fill="#7AA500"/>
<path d="M128.363 26.9753H102.283L101.351 26.0573V7.02651C101.351 6.88061 101.337 6.73681 101.308 6.59381C101.279 6.45151 101.236 6.31281 101.18 6.17781C101.124 6.04341 101.054 5.91561 100.972 5.79501C100.89 5.67361 100.796 5.56171 100.692 5.45911C100.587 5.35581 100.474 5.26411 100.351 5.18321C100.228 5.10231 100.098 5.03441 99.9616 4.97881C99.8252 4.92321 99.6844 4.88061 99.5391 4.85241C99.3946 4.82421 99.2479 4.80981 99.1005 4.80981C98.9523 4.80981 98.8064 4.82421 98.6611 4.85241C98.5159 4.88061 98.3751 4.92321 98.2386 4.97881C98.1022 5.03441 97.9724 5.10231 97.8499 5.18321C97.7266 5.26411 97.6129 5.35581 97.5088 5.45911C97.4039 5.56171 97.3107 5.67361 97.2286 5.79501C97.1464 5.91561 97.0775 6.04341 97.0203 6.17781C96.9638 6.31281 96.9212 6.45151 96.8926 6.59381C96.8633 6.73681 96.8494 6.88061 96.8494 7.02651V26.9753C96.8494 27.2693 96.9066 27.5517 97.021 27.8233C97.1347 28.0949 97.2975 28.3347 97.5088 28.5427L99.7599 30.7587C99.9704 30.9667 100.214 31.127 100.49 31.2397C100.766 31.3524 101.052 31.4087 101.351 31.4087H128.363C128.511 31.4087 128.657 31.3943 128.802 31.3661C128.947 31.3372 129.088 31.2953 129.224 31.2397C129.361 31.1841 129.49 31.1155 129.614 31.0346C129.736 30.9537 129.85 30.862 129.955 30.7594C130.059 30.6561 130.153 30.5442 130.235 30.4235C130.317 30.3022 130.386 30.1744 130.443 30.04C130.499 29.9057 130.542 29.767 130.571 29.6247C130.599 29.4817 130.614 29.3372 130.614 29.192C130.614 29.0461 130.599 28.9024 130.571 28.7594C130.542 28.6171 130.499 28.4784 130.443 28.3434C130.386 28.209 130.317 28.0812 130.235 27.9605C130.153 27.8392 130.059 27.7272 129.955 27.6247C129.85 27.5214 129.736 27.4297 129.614 27.3488C129.49 27.2679 129.361 27.2 129.224 27.1444C129.088 27.0887 128.947 27.0461 128.802 27.018C128.657 26.9898 128.511 26.9753 128.363 26.9753Z" fill="#7AA500"/>
<path d="M6.80985 20.326H29.3197C29.4671 20.326 29.6138 20.3115 29.7591 20.2833C29.9036 20.2544 30.0444 20.2126 30.1808 20.1569C30.3173 20.1013 30.4471 20.0327 30.5703 19.9518C30.6928 19.8709 30.8065 19.7792 30.9114 19.6766C31.0156 19.5733 31.1087 19.4614 31.1909 19.3408C31.273 19.2194 31.3427 19.0916 31.3992 18.9572C31.4557 18.8229 31.4982 18.6842 31.5276 18.5419C31.5562 18.3989 31.5708 18.2544 31.5708 18.1093V7.02651C31.5708 6.88061 31.5562 6.73681 31.5276 6.59381C31.4982 6.45151 31.4557 6.31281 31.3992 6.17781C31.3427 6.04341 31.273 5.91561 31.1909 5.79501C31.1087 5.67361 31.0156 5.56171 30.9114 5.45911C30.8065 5.35581 30.6928 5.26411 30.5703 5.18321C30.4471 5.10231 30.3173 5.03441 30.1808 4.97881C30.0444 4.92321 29.9036 4.88061 29.7591 4.85241C29.6138 4.82421 29.4671 4.80981 29.3197 4.80981C29.1715 4.80981 29.0256 4.82421 28.8803 4.85241C28.7351 4.88061 28.595 4.92321 28.4578 4.97881C28.3214 5.03441 28.1916 5.10231 28.0691 5.18321C27.9459 5.26411 27.8322 5.35581 27.728 5.45911C27.6231 5.56171 27.53 5.67361 27.4478 5.79501C27.3656 5.91561 27.2967 6.04341 27.2402 6.17781C27.183 6.31281 27.1405 6.45151 27.1119 6.59381C27.0832 6.73681 27.0686 6.88061 27.0686 7.02651V15.8926H6.80985C6.66168 15.8926 6.51571 15.907 6.37048 15.9352C6.22598 15.9633 6.08514 16.006 5.94798 16.0616C5.81155 16.1172 5.68171 16.1851 5.55922 16.266C5.43599 16.3469 5.3223 16.4386 5.21814 16.5419C5.11325 16.6445 5.02009 16.7564 4.93794 16.8778C4.85579 16.9984 4.78684 17.1262 4.73036 17.2606C4.67388 17.3956 4.6306 17.5343 4.60199 17.6766C4.57339 17.8196 4.55872 17.9634 4.55872 18.1093C4.55872 18.2544 4.57339 18.3989 4.60199 18.5419C4.6306 18.6842 4.67388 18.8229 4.73036 18.9572C4.78684 19.0916 4.85579 19.2194 4.93794 19.3408C5.02009 19.4614 5.11325 19.5733 5.21814 19.6766C5.3223 19.7792 5.43599 19.8709 5.55922 19.9518C5.68171 20.0327 5.81155 20.1013 5.94798 20.1569C6.08514 20.2126 6.22598 20.2544 6.37048 20.2833C6.51571 20.3115 6.66168 20.326 6.80985 20.326Z" fill="#7AA500"/>
</g>
</svg>
