<svg width="200" height="200" viewBox="0 0 200 200" fill="none" xmlns="http://www.w3.org/2000/svg">
<g clip-path="url(#clip0_54_1410)">
<mask id="mask0_54_1410" style="mask-type:luminance" maskUnits="userSpaceOnUse" x="0" y="0" width="200" height="200">
<path d="M0.0795898 0.158691H200V200H0.0795898V0.158691Z" fill="white"/>
</mask>
<g mask="url(#mask0_54_1410)">
<path fill-rule="evenodd" clip-rule="evenodd" d="M99.6406 -0.354736C44.3712 -0.354736 -0.434082 44.4338 -0.434082 99.6826C-0.434082 154.931 44.3712 199.72 99.6406 199.72C154.911 199.72 199.715 154.931 199.715 99.6826C199.715 44.4338 154.911 -0.354736 99.6406 -0.354736Z" fill="#7AA500"/>
</g>
<path fill-rule="evenodd" clip-rule="evenodd" d="M99.6403 40.6857C78.3828 40.6857 61.1504 57.9128 61.1504 79.1624C61.1504 100.412 78.3828 117.638 99.6403 117.638C120.899 117.638 138.13 100.412 138.13 79.1624C138.13 57.9128 120.899 40.6857 99.6403 40.6857Z" fill="#E9FFAB"/>
<path fill-rule="evenodd" clip-rule="evenodd" d="M170.296 170.527L168.497 167.574C154.742 143.868 129.061 127.899 99.6406 127.899C70.1883 127.899 44.4832 143.903 30.7412 167.652L30.6688 167.779L29.0894 170.632C47.1821 188.61 72.1133 199.72 99.6406 199.72C127.22 199.72 152.195 188.567 170.296 170.527Z" fill="#E9FFAB"/>
</g>
<defs>
<clipPath id="clip0_54_1410">
<rect width="200" height="200" fill="white"/>
</clipPath>
</defs>
</svg>
