<svg width="180" height="53" viewBox="0 0 180 53" fill="none" xmlns="http://www.w3.org/2000/svg">
<path d="M69.112 43V17.764H64.468V13.84H79.012V17.764H74.44V43H69.112ZM81.4488 43V22.192H86.3448V25.396C87.0648 24.172 87.7848 23.296 88.5048 22.768C89.2248 22.216 90.0168 21.94 90.8808 21.94C91.0248 21.94 91.1448 21.952 91.2408 21.976C91.3608 21.976 91.4928 21.988 91.6368 22.012V27.088C91.3488 26.968 91.0248 26.872 90.6648 26.8C90.3288 26.704 89.9808 26.656 89.6208 26.656C88.9728 26.656 88.3848 26.812 87.8568 27.124C87.3288 27.436 86.8248 27.952 86.3448 28.672V43H81.4488ZM97.9938 43.324C97.0578 43.324 96.2538 43.084 95.5818 42.604C94.9098 42.1 94.3938 41.476 94.0338 40.732C93.6738 39.964 93.4938 39.172 93.4938 38.356C93.4938 37.06 93.7338 35.968 94.2138 35.08C94.6938 34.192 95.3298 33.448 96.1218 32.848C96.9138 32.248 97.8138 31.732 98.8218 31.3C99.8298 30.844 100.85 30.436 101.882 30.076V28.276C101.882 27.676 101.834 27.172 101.738 26.764C101.666 26.356 101.51 26.044 101.27 25.828C101.054 25.612 100.706 25.504 100.226 25.504C99.8178 25.504 99.4818 25.6 99.2178 25.792C98.9778 25.984 98.7978 26.26 98.6778 26.62C98.5818 26.956 98.5218 27.352 98.4978 27.808L98.4258 29.068L93.7818 28.888C93.8538 26.488 94.4418 24.724 95.5458 23.596C96.6738 22.444 98.3778 21.868 100.658 21.868C102.746 21.868 104.258 22.444 105.194 23.596C106.154 24.748 106.634 26.308 106.634 28.276V37.888C106.634 38.656 106.646 39.352 106.67 39.976C106.718 40.6 106.766 41.164 106.814 41.668C106.886 42.172 106.946 42.616 106.994 43H102.602C102.53 42.52 102.434 41.98 102.314 41.38C102.218 40.756 102.146 40.3 102.098 40.012C101.858 40.852 101.402 41.62 100.73 42.316C100.058 42.988 99.1458 43.324 97.9938 43.324ZM99.7938 39.688C100.106 39.688 100.394 39.616 100.658 39.472C100.946 39.304 101.198 39.112 101.414 38.896C101.63 38.68 101.786 38.488 101.882 38.32V32.524C101.354 32.836 100.85 33.148 100.37 33.46C99.9138 33.772 99.5058 34.12 99.1458 34.504C98.8098 34.864 98.5458 35.26 98.3538 35.692C98.1858 36.124 98.1018 36.628 98.1018 37.204C98.1018 37.972 98.2458 38.584 98.5338 39.04C98.8458 39.472 99.2658 39.688 99.7938 39.688ZM116.503 43.324C114.895 43.324 113.599 43.024 112.615 42.424C111.655 41.8 110.947 40.924 110.491 39.796C110.059 38.644 109.843 37.288 109.843 35.728V29.464C109.843 27.856 110.059 26.488 110.491 25.36C110.947 24.232 111.667 23.368 112.651 22.768C113.635 22.168 114.919 21.868 116.503 21.868C117.991 21.868 119.203 22.108 120.139 22.588C121.099 23.044 121.795 23.752 122.227 24.712C122.659 25.648 122.875 26.836 122.875 28.276V30.004H118.267V28.168C118.267 27.448 118.207 26.884 118.087 26.476C117.991 26.044 117.811 25.744 117.547 25.576C117.283 25.384 116.935 25.288 116.503 25.288C116.071 25.288 115.723 25.408 115.459 25.648C115.195 25.864 115.003 26.224 114.883 26.728C114.787 27.232 114.739 27.928 114.739 28.816V36.448C114.739 37.792 114.883 38.704 115.171 39.184C115.459 39.64 115.915 39.868 116.539 39.868C117.019 39.868 117.379 39.76 117.619 39.544C117.883 39.328 118.051 39.016 118.123 38.608C118.219 38.176 118.267 37.66 118.267 37.06V34.828H122.875V36.808C122.875 38.2 122.647 39.388 122.191 40.372C121.759 41.356 121.063 42.1 120.103 42.604C119.167 43.084 117.967 43.324 116.503 43.324ZM126.131 43V13.84H131.027V30.58L136.391 22.192H141.719L136.499 30.544L141.611 43H136.463L132.683 32.74L131.027 35.044V43H126.131ZM144.106 43V13.84H149.362V43H144.106ZM159.564 43.252C158.244 43.252 157.2 43.036 156.432 42.604C155.688 42.172 155.16 41.548 154.848 40.732C154.536 39.916 154.38 38.944 154.38 37.816V25.432H152.292V22.192H154.38V15.964H159.312V22.192H162.48V25.432H159.312V37.384C159.312 38.104 159.468 38.62 159.78 38.932C160.092 39.22 160.56 39.364 161.184 39.364C161.448 39.364 161.7 39.352 161.94 39.328C162.204 39.304 162.456 39.28 162.696 39.256V43C162.288 43.048 161.808 43.096 161.256 43.144C160.728 43.216 160.164 43.252 159.564 43.252Z" fill="#356B00"/>
<g clip-path="url(#clip0_8_105)">
<mask id="mask0_8_105" style="mask-type:luminance" maskUnits="userSpaceOnUse" x="0" y="3" width="48" height="48">
<path d="M0.02005 3.02005H47.9701V50.97H0.02005V3.02005Z" fill="white"/>
</mask>
<g mask="url(#mask0_8_105)">
<path d="M47.1711 3.02005H0.819269C0.766925 3.02005 0.714842 3.02526 0.66354 3.03541C0.611977 3.04583 0.561977 3.06094 0.51354 3.08099C0.465102 3.10104 0.419008 3.12578 0.375258 3.15495C0.331769 3.18411 0.291404 3.21719 0.254165 3.25416C0.217185 3.2914 0.184113 3.33177 0.154946 3.37526C0.125779 3.41901 0.10104 3.4651 0.0809876 3.51354C0.0609354 3.56198 0.0458313 3.61198 0.0354146 3.66354C0.0252584 3.71484 0.02005 3.76693 0.02005 3.81927V50.1711C0.02005 50.2234 0.0252584 50.2755 0.0354146 50.3268C0.0458313 50.3784 0.0609354 50.4284 0.0809876 50.4768C0.10104 50.5253 0.125779 50.5714 0.154946 50.6151C0.184113 50.6586 0.217185 50.699 0.254165 50.7362C0.291404 50.7732 0.331769 50.8062 0.375258 50.8354C0.419008 50.8646 0.465102 50.8893 0.51354 50.9094C0.561977 50.9294 0.611977 50.9445 0.66354 50.9547C0.714842 50.9651 0.766925 50.97 0.819269 50.97H47.1711C47.2234 50.97 47.2755 50.9651 47.3268 50.9547C47.3784 50.9445 47.4284 50.9294 47.4768 50.9094C47.5253 50.8893 47.5714 50.8646 47.6151 50.8354C47.6586 50.8062 47.699 50.7732 47.7362 50.7362C47.7732 50.699 47.8063 50.6586 47.8354 50.6151C47.8646 50.5714 47.8893 50.5253 47.9094 50.4768C47.9294 50.4284 47.9445 50.3784 47.9547 50.3268C47.9651 50.2755 47.9701 50.2234 47.9701 50.1711V3.81927C47.9701 3.76693 47.9651 3.71484 47.9547 3.66354C47.9445 3.61198 47.9294 3.56198 47.9094 3.51354C47.8893 3.4651 47.8646 3.41901 47.8354 3.37526C47.8063 3.33177 47.7732 3.2914 47.7362 3.25416C47.699 3.21719 47.6586 3.18411 47.6151 3.15495C47.5714 3.12578 47.5253 3.10104 47.4768 3.08099C47.4284 3.06094 47.3784 3.04583 47.3268 3.03541C47.2755 3.02526 47.2234 3.02005 47.1711 3.02005ZM46.3719 13.4094V49.3719H1.61849V4.61849H46.3719V13.4094Z" fill="#356B00"/>
</g>
<path d="M2.4177 20.6018H8.81093C8.90963 20.6018 9.0052 20.5841 9.09739 20.5487C9.18958 20.5135 9.27239 20.4628 9.34557 20.3966L15.0393 15.2724C15.094 15.3099 15.1497 15.3458 15.2068 15.3799C15.2635 15.4141 15.3213 15.4464 15.3802 15.4771C15.4391 15.5076 15.499 15.5365 15.5594 15.5635C15.62 15.5906 15.6815 15.6156 15.7435 15.6391C15.8057 15.6622 15.8685 15.6839 15.9318 15.7034C15.9953 15.7229 16.0591 15.7404 16.1237 15.7562C16.188 15.7719 16.2529 15.7854 16.3182 15.7974C16.3836 15.8091 16.4492 15.8187 16.5151 15.8266C16.581 15.8344 16.6469 15.8401 16.7133 15.844C16.7794 15.8479 16.8458 15.8497 16.912 15.8495C16.9784 15.8492 17.0448 15.8471 17.1109 15.843C17.1771 15.8388 17.2432 15.8326 17.3091 15.8242C17.3747 15.8161 17.4404 15.806 17.5057 15.7937C17.5708 15.7818 17.6357 15.7677 17.7 15.7516C17.7643 15.7354 17.8281 15.7174 17.8914 15.6977C17.9547 15.6779 18.0174 15.656 18.0794 15.6323C18.1414 15.6086 18.2026 15.5831 18.263 15.5557C18.3234 15.5284 18.3831 15.4992 18.4417 15.4682C18.5003 15.4372 18.5581 15.4044 18.6148 15.3701C18.6713 15.3357 18.7271 15.2995 18.7815 15.2617C18.8362 15.224 18.8893 15.1844 18.9417 15.1435C18.9937 15.1023 19.0445 15.0599 19.0943 15.0156C19.1437 14.9716 19.1919 14.926 19.2388 14.8792C19.2857 14.832 19.331 14.7836 19.3747 14.7339C19.4187 14.6841 19.4609 14.6331 19.5018 14.5807C19.5427 14.5286 19.582 14.475 19.6195 14.4203C19.657 14.3656 19.693 14.3099 19.7271 14.2531C19.7615 14.1964 19.794 14.1385 19.8247 14.0797C19.8555 14.0208 19.8844 13.9612 19.9115 13.9005C19.9385 13.8401 19.9638 13.7786 19.9872 13.7167C20.0107 13.6547 20.0323 13.5919 20.0518 13.5286C20.0716 13.4651 20.0893 13.4013 20.1049 13.3367C20.1208 13.2724 20.1346 13.2076 20.1466 13.1422C20.1583 13.0771 20.1682 13.0115 20.1763 12.9456C20.1841 12.8797 20.1901 12.8135 20.194 12.7474C20.1979 12.6812 20.1997 12.6148 20.1997 12.5484C20.1997 12.482 20.1977 12.4159 20.1935 12.3497C20.1893 12.2833 20.1833 12.2174 20.1753 12.1516C20.1672 12.0857 20.157 12.0201 20.145 11.9549C20.1331 11.8896 20.119 11.8247 20.1031 11.7604C20.0872 11.6961 20.0693 11.632 20.0495 11.5687C20.0297 11.5055 20.0081 11.4427 19.9846 11.3807C19.9609 11.3187 19.9354 11.2576 19.9083 11.1971C19.881 11.1365 19.8518 11.0768 19.8211 11.0182C19.7901 10.9594 19.7575 10.9018 19.7232 10.8451C19.6888 10.7883 19.6529 10.7326 19.6151 10.6779C19.5773 10.6234 19.538 10.5701 19.4971 10.5177C19.4562 10.4656 19.4138 10.4146 19.3698 10.3651C19.3258 10.3154 19.2802 10.2672 19.2333 10.2203C19.1865 10.1732 19.138 10.1279 19.0883 10.0839C19.0388 10.0398 18.9878 9.99739 18.9354 9.95651C18.8833 9.91562 18.8299 9.8763 18.7753 9.83854C18.7206 9.80104 18.6648 9.76484 18.6081 9.73073C18.5513 9.69635 18.4935 9.6638 18.4349 9.63281C18.376 9.60208 18.3164 9.57318 18.256 9.54583C18.1956 9.51849 18.1341 9.49323 18.0721 9.46979C18.0102 9.44609 17.9474 9.42448 17.8841 9.40469C17.8208 9.38489 17.757 9.36719 17.6924 9.3513C17.6281 9.33542 17.5633 9.32135 17.4979 9.30937C17.4328 9.29739 17.3672 9.2875 17.3013 9.27943C17.2354 9.27135 17.1695 9.26536 17.1031 9.26146C17.037 9.25729 16.9706 9.25521 16.9044 9.25521C16.838 9.25521 16.7716 9.25729 16.7055 9.2612C16.6393 9.2651 16.5732 9.27109 16.5073 9.2789C16.4414 9.28698 16.3758 9.29687 16.3107 9.30885C16.2453 9.32083 16.1805 9.33463 16.1161 9.35052C16.0516 9.36614 15.9878 9.38411 15.9245 9.40364C15.8609 9.42344 15.7984 9.44505 15.7362 9.46849C15.6742 9.49193 15.613 9.51719 15.5523 9.54427C15.4919 9.57161 15.4323 9.60052 15.3734 9.63125C15.3146 9.66198 15.2568 9.69453 15.2 9.7289C15.1432 9.76302 15.0875 9.79896 15.0328 9.83672C14.9781 9.87422 14.9247 9.91354 14.8724 9.95443C14.82 9.99531 14.7693 10.0378 14.7195 10.0815C14.6698 10.1255 14.6213 10.1708 14.5745 10.2177C14.5273 10.2646 14.482 10.3128 14.4378 10.3625C14.3937 10.412 14.3513 10.4628 14.3102 10.5151C14.2693 10.5672 14.2299 10.6206 14.1922 10.675C14.1544 10.7297 14.1182 10.7854 14.0838 10.8419C14.0495 10.8987 14.0167 10.9565 13.9857 11.0151C13.9549 11.074 13.9258 11.1333 13.8984 11.1937C13.8711 11.2544 13.8456 11.3156 13.8219 11.3776C13.7982 11.4396 13.7766 11.5021 13.7568 11.5654C13.7367 11.6286 13.7187 11.6927 13.7029 11.757C13.687 11.8214 13.6729 11.8862 13.6607 11.9516C13.6487 12.0167 13.6385 12.0823 13.6305 12.1482C13.6221 12.2138 13.6161 12.2799 13.612 12.3461C13.6078 12.4125 13.6057 12.4786 13.6055 12.5451C13.6055 12.6115 13.6073 12.6776 13.6109 12.7437C13.6148 12.8102 13.6208 12.876 13.6286 12.9419C13.6365 13.0078 13.6463 13.0734 13.6581 13.1388C13.6698 13.2042 13.6836 13.269 13.6992 13.3333C13.7151 13.3979 13.7328 13.4617 13.7523 13.5253C13.7719 13.5885 13.7932 13.6513 13.8167 13.7135C13.8401 13.7755 13.8654 13.837 13.8924 13.8974C13.9195 13.9581 13.9482 14.0177 13.9789 14.0766L8.50416 19.0034H2.4177C2.3651 19.0034 2.31328 19.0086 2.26171 19.0187C2.21041 19.0292 2.16041 19.0443 2.11171 19.0643C2.06328 19.0844 2.01718 19.1091 1.97369 19.1383C1.92994 19.1674 1.88958 19.2005 1.8526 19.2375C1.81536 19.2747 1.78229 19.3151 1.75312 19.3586C1.72395 19.4023 1.69947 19.4484 1.67942 19.4969C1.65937 19.5453 1.64401 19.5953 1.63385 19.6469C1.62369 19.6982 1.61848 19.7503 1.61848 19.8026C1.61848 19.8552 1.62369 19.907 1.63385 19.9586C1.64401 20.0102 1.65937 20.0599 1.67942 20.1086C1.69947 20.157 1.72395 20.2031 1.75312 20.2466C1.78229 20.2904 1.81536 20.3307 1.8526 20.3677C1.88958 20.4049 1.92994 20.438 1.97369 20.4672C2.01718 20.4964 2.06328 20.5208 2.11171 20.5409C2.16041 20.5612 2.21041 20.5763 2.26171 20.5865C2.31328 20.5966 2.3651 20.6018 2.4177 20.6018ZM16.8026 11.0117C16.8549 11.0117 16.9073 11.0143 16.9594 11.0195C17.0115 11.0247 17.063 11.0323 17.1146 11.0424C17.1659 11.0529 17.2167 11.0654 17.2667 11.0807C17.3167 11.0958 17.3659 11.1135 17.4143 11.1336C17.4628 11.1536 17.5099 11.1758 17.556 11.2005C17.6023 11.2253 17.6471 11.2521 17.6906 11.2812C17.7341 11.3102 17.776 11.3414 17.8167 11.3747C17.857 11.4078 17.8958 11.443 17.9328 11.4799C17.9698 11.5169 18.0049 11.5557 18.0383 11.5961C18.0713 11.6367 18.1026 11.6786 18.1315 11.7221C18.1607 11.7656 18.1875 11.8107 18.2122 11.8568C18.237 11.9029 18.2594 11.9503 18.2794 11.9984C18.2995 12.0469 18.3169 12.0961 18.3323 12.1461C18.3474 12.1964 18.3601 12.2469 18.3703 12.2984C18.3805 12.3497 18.3883 12.4013 18.3932 12.4534C18.3984 12.5055 18.401 12.5578 18.401 12.6102C18.401 12.6625 18.3984 12.7148 18.3932 12.7669C18.3883 12.819 18.3805 12.8706 18.3703 12.9219C18.3601 12.9734 18.3474 13.024 18.3323 13.0742C18.3169 13.1242 18.2995 13.1734 18.2794 13.2219C18.2594 13.2703 18.237 13.3174 18.2122 13.3635C18.1875 13.4099 18.1607 13.4547 18.1315 13.4982C18.1026 13.5417 18.0713 13.5836 18.0383 13.6242C18.0049 13.6646 17.9698 13.7034 17.9328 13.7404C17.8958 13.7773 17.857 13.8125 17.8167 13.8456C17.776 13.8789 17.7341 13.9102 17.6906 13.9391C17.6471 13.9682 17.6023 13.9951 17.556 14.0198C17.5099 14.0445 17.4628 14.0669 17.4143 14.0867C17.3659 14.1068 17.3167 14.1245 17.2667 14.1396C17.2167 14.1549 17.1659 14.1674 17.1146 14.1779C17.063 14.188 17.0115 14.1956 16.9594 14.2008C16.9073 14.206 16.8549 14.2086 16.8026 14.2086C16.7503 14.2086 16.6982 14.206 16.6461 14.2008C16.594 14.1956 16.5422 14.188 16.4909 14.1779C16.4396 14.1674 16.3888 14.1549 16.3388 14.1396C16.2885 14.1245 16.2393 14.1068 16.1909 14.0867C16.1427 14.0669 16.0953 14.0445 16.0492 14.0198C16.0031 13.9951 15.9581 13.9682 15.9146 13.9391C15.8711 13.9102 15.8292 13.8789 15.7888 13.8456C15.7482 13.8125 15.7094 13.7773 15.6724 13.7404C15.6354 13.7034 15.6003 13.6646 15.5672 13.6242C15.5338 13.5836 15.5029 13.5417 15.4737 13.4982C15.4445 13.4547 15.4177 13.4099 15.393 13.3635C15.3685 13.3174 15.3461 13.2703 15.326 13.2219C15.306 13.1734 15.2883 13.1242 15.2732 13.0742C15.2581 13.024 15.2453 12.9734 15.2352 12.9219C15.2247 12.8706 15.2172 12.819 15.212 12.7669C15.2068 12.7148 15.2044 12.6625 15.2044 12.6102C15.2044 12.5578 15.207 12.5057 15.2122 12.4536C15.2174 12.4016 15.225 12.3497 15.2354 12.2984C15.2456 12.2471 15.2583 12.1964 15.2734 12.1464C15.2888 12.0964 15.3062 12.0471 15.3263 11.9987C15.3463 11.9505 15.3687 11.9031 15.3935 11.857C15.4182 11.8109 15.445 11.7661 15.4742 11.7227C15.5034 11.6792 15.5344 11.637 15.5677 11.5966C15.6008 11.5562 15.6359 11.5174 15.6729 11.4805C15.7099 11.4435 15.7487 11.4083 15.7891 11.375C15.8297 11.3419 15.8716 11.3107 15.9151 11.2818C15.9586 11.2526 16.0034 11.2258 16.0495 11.201C16.0956 11.1763 16.143 11.1539 16.1911 11.1339C16.2396 11.1138 16.2888 11.0964 16.3388 11.081C16.3891 11.0659 16.4396 11.0531 16.4909 11.0427C16.5422 11.0326 16.594 11.0247 16.6461 11.0198C16.6982 11.0146 16.7503 11.012 16.8026 11.0117Z" fill="#356B00"/>
<path d="M2.4177 23.7984H18.07L21.8318 27.5602C21.9068 27.6352 21.9932 27.693 22.0909 27.7333C22.1888 27.774 22.2909 27.7943 22.3969 27.7943H28.9036C28.9393 27.931 28.9838 28.0648 29.0372 28.1958C29.0906 28.3266 29.1523 28.4534 29.2226 28.576C29.293 28.6984 29.3711 28.8159 29.4568 28.9281C29.5427 29.0406 29.6354 29.1466 29.7354 29.2466C29.8354 29.3464 29.9414 29.4393 30.0536 29.5253C30.1659 29.6109 30.2833 29.6891 30.406 29.7594C30.5286 29.8294 30.6555 29.8914 30.7862 29.9448C30.9172 29.9982 31.0508 30.0427 31.1878 30.0784V34.1878C31.1878 34.2401 31.1927 34.2922 31.2031 34.3435C31.2133 34.3951 31.2284 34.4451 31.2484 34.4935C31.2685 34.5419 31.2932 34.588 31.3224 34.6318C31.3516 34.6753 31.3846 34.7156 31.4216 34.7529C31.4588 34.7898 31.4992 34.8229 31.5427 34.8521C31.5865 34.8813 31.6325 34.906 31.681 34.926C31.7294 34.9461 31.7794 34.9612 31.831 34.9714C31.8823 34.9818 31.9344 34.9867 31.9867 34.9867H38.4937C38.5096 35.049 38.5276 35.1104 38.5474 35.1716C38.5672 35.2326 38.5885 35.293 38.612 35.3526C38.6354 35.4125 38.6604 35.4714 38.6875 35.5297C38.7143 35.5878 38.743 35.6453 38.7734 35.7018C38.8039 35.7583 38.8359 35.8138 38.8695 35.8682C38.9034 35.9229 38.9388 35.9763 38.9755 36.0289C39.0125 36.0813 39.051 36.1326 39.0911 36.1828C39.1312 36.2328 39.1726 36.2818 39.2156 36.3294C39.2586 36.3768 39.3029 36.4232 39.3487 36.4682C39.3945 36.513 39.4417 36.5568 39.4901 36.5987C39.5383 36.6409 39.588 36.6815 39.6388 36.7206C39.6896 36.7599 39.7417 36.7974 39.7948 36.8333C39.8479 36.8693 39.9018 36.9036 39.957 36.9365C40.0122 36.9693 40.0682 37.0003 40.1253 37.0297C40.1823 37.0591 40.2404 37.0867 40.299 37.1125C40.3575 37.1385 40.4172 37.1625 40.4773 37.1849C40.5375 37.207 40.5982 37.2276 40.6596 37.2464C40.7208 37.2648 40.7828 37.2818 40.8453 37.2966C40.9075 37.3115 40.9703 37.3245 41.0336 37.3357C41.0966 37.3469 41.1601 37.356 41.2239 37.3635C41.2875 37.3708 41.3516 37.376 41.4156 37.3797C41.4797 37.3831 41.5437 37.3846 41.6078 37.3844C41.6721 37.3839 41.7362 37.3815 41.8 37.3773C41.8641 37.3732 41.9279 37.3669 41.9917 37.3589C42.0552 37.3508 42.1185 37.3409 42.1815 37.3289C42.2445 37.3169 42.3073 37.3031 42.3695 37.2875C42.4318 37.2719 42.4935 37.2544 42.5544 37.2349C42.6156 37.2156 42.6763 37.1943 42.7359 37.1714C42.7958 37.1484 42.8549 37.1234 42.9135 37.0969C42.9719 37.0703 43.0294 37.0422 43.0859 37.012C43.1427 36.982 43.1984 36.9503 43.2531 36.9169C43.3081 36.8833 43.3617 36.8484 43.4143 36.8117C43.4669 36.7753 43.5185 36.737 43.569 36.6971C43.6193 36.6576 43.6685 36.6161 43.7161 36.5737C43.7641 36.531 43.8107 36.4867 43.856 36.4414C43.901 36.3958 43.945 36.349 43.9872 36.3008C44.0297 36.2526 44.0706 36.2034 44.1101 36.1529C44.1495 36.1021 44.1875 36.0505 44.2237 35.9977C44.2601 35.9445 44.2948 35.8906 44.3279 35.8357C44.3609 35.7807 44.3924 35.725 44.4221 35.668C44.4518 35.6112 44.4797 35.5534 44.506 35.4951C44.5323 35.4365 44.5565 35.3771 44.5794 35.3172C44.6021 35.257 44.6229 35.1964 44.6419 35.1352C44.6609 35.074 44.6779 35.0122 44.6932 34.9497C44.7086 34.8875 44.7219 34.8247 44.7336 34.7617C44.745 34.6987 44.7547 34.6352 44.7622 34.5716C44.77 34.5078 44.7758 34.444 44.7797 34.3799C44.7836 34.3159 44.7854 34.2518 44.7854 34.1878C44.7854 34.1234 44.7836 34.0594 44.7797 33.9953C44.7758 33.9313 44.77 33.8674 44.7622 33.8039C44.7547 33.7401 44.745 33.6768 44.7336 33.6135C44.7219 33.5505 44.7086 33.4878 44.6932 33.4255C44.6779 33.3633 44.6609 33.3013 44.6419 33.2401C44.6229 33.1789 44.6021 33.1182 44.5792 33.0583C44.5565 32.9982 44.5323 32.9391 44.506 32.8805C44.4797 32.8219 44.4518 32.7641 44.4221 32.7073C44.3924 32.6505 44.3609 32.5945 44.3279 32.5396C44.2948 32.4846 44.2601 32.4307 44.2237 32.3779C44.1875 32.325 44.1495 32.2732 44.1101 32.2227C44.0706 32.1719 44.0297 32.1227 43.9872 32.0745C43.945 32.0263 43.901 31.9794 43.856 31.9341C43.8107 31.8885 43.7641 31.8445 43.7161 31.8018C43.6685 31.7591 43.6193 31.718 43.569 31.6781C43.5185 31.6383 43.4669 31.6003 43.4143 31.5635C43.3617 31.5268 43.3081 31.4919 43.2531 31.4586C43.1984 31.425 43.1427 31.3935 43.0859 31.3633C43.0294 31.3333 42.9719 31.3049 42.9135 31.2784C42.8549 31.2518 42.7958 31.2271 42.7359 31.2039C42.6763 31.181 42.6156 31.1596 42.5544 31.1404C42.4935 31.1211 42.4318 31.1034 42.3695 31.0878C42.3073 31.0721 42.2445 31.0583 42.1815 31.0464C42.1185 31.0346 42.0552 31.0245 41.9917 31.0164C41.9279 31.0083 41.8641 31.0023 41.8 30.9979C41.7362 30.9938 41.6721 30.9914 41.6078 30.9911C41.5437 30.9906 41.4797 30.9922 41.4156 30.9956C41.3516 30.9992 41.2875 31.0047 41.2239 31.012C41.1601 31.0193 41.0966 31.0284 41.0336 31.0396C40.9703 31.0508 40.9075 31.0638 40.845 31.0786C40.7828 31.0935 40.7208 31.1104 40.6596 31.1292C40.5982 31.1477 40.5375 31.1682 40.4773 31.1904C40.4172 31.2128 40.3575 31.237 40.299 31.2628C40.2404 31.2885 40.1823 31.3164 40.1253 31.3456C40.0682 31.375 40.0122 31.406 39.957 31.4388C39.9018 31.4716 39.8479 31.506 39.7948 31.5419C39.7417 31.5779 39.6896 31.6156 39.6388 31.6547C39.588 31.6938 39.5383 31.7344 39.4901 31.7766C39.4417 31.8188 39.3945 31.8622 39.3487 31.907C39.3029 31.9521 39.2586 31.9984 39.2156 32.0461C39.1726 32.0938 39.1312 32.1424 39.0911 32.1927C39.051 32.2427 39.0125 32.294 38.9755 32.3464C38.9388 32.399 38.9034 32.4523 38.8695 32.507C38.8359 32.5615 38.8039 32.6172 38.7734 32.6737C38.743 32.7302 38.7143 32.7875 38.6875 32.8456C38.6604 32.9039 38.6354 32.9628 38.612 33.0227C38.5885 33.0823 38.5672 33.1427 38.5474 33.2036C38.5276 33.2648 38.5096 33.3263 38.4937 33.3885H32.7859V30.0784C32.8763 30.0552 32.9656 30.0281 33.0536 29.9971C33.1417 29.9661 33.2281 29.9313 33.313 29.8927C33.3982 29.8539 33.4812 29.8117 33.5625 29.7659C33.6437 29.7201 33.7229 29.6706 33.7997 29.6177C33.8766 29.5648 33.951 29.5089 34.0232 29.4495C34.095 29.3901 34.1643 29.3276 34.231 29.2622C34.2974 29.1966 34.3609 29.1284 34.4216 29.0573C34.482 28.9865 34.5393 28.9128 34.5935 28.8367C34.6474 28.7607 34.6982 28.6826 34.7453 28.6018C34.7924 28.5214 34.8362 28.4391 34.876 28.3547C34.9161 28.2703 34.9523 28.1844 34.9846 28.0969C35.0172 28.0094 35.0456 27.9206 35.0703 27.8305C35.095 27.7406 35.1156 27.6497 35.1323 27.5578C35.149 27.4659 35.1614 27.3737 35.17 27.2807C35.1786 27.1878 35.1831 27.0945 35.1833 27.0013C35.1838 26.9081 35.1802 26.8148 35.1724 26.7219C35.1646 26.6289 35.1526 26.5362 35.1367 26.4443C35.1208 26.3523 35.1008 26.2612 35.0771 26.1711C35.0531 26.081 35.0253 25.9919 34.9935 25.9042C34.9617 25.8164 34.9263 25.7302 34.887 25.6456C34.8476 25.5609 34.8047 25.4781 34.7583 25.3971C34.7117 25.3164 34.6617 25.2375 34.6083 25.1612C34.5547 25.0846 34.4982 25.0107 34.438 24.9391C34.3781 24.8674 34.3151 24.7987 34.2492 24.7328C34.1831 24.6669 34.1143 24.6039 34.043 24.544C33.9713 24.4839 33.8974 24.4273 33.8208 24.3737C33.7443 24.3203 33.6656 24.2703 33.5849 24.2237C33.5039 24.1771 33.4211 24.1344 33.3365 24.0951C33.2518 24.0557 33.1656 24.0201 33.0779 23.9885C32.9901 23.9568 32.901 23.9289 32.8109 23.9049C32.7206 23.881 32.6297 23.8612 32.5375 23.8453C32.4456 23.8294 32.3531 23.8174 32.2601 23.8096C32.1672 23.8018 32.074 23.7982 31.9807 23.7984C31.8875 23.799 31.7943 23.8034 31.7013 23.812C31.6083 23.8206 31.5159 23.8331 31.4242 23.8497C31.3323 23.8664 31.2414 23.887 31.1513 23.9117C31.0615 23.9365 30.9726 23.9648 30.8851 23.9974C30.7976 24.0297 30.7117 24.0659 30.6273 24.106C30.543 24.1458 30.4607 24.1896 30.3799 24.2367C30.2995 24.2839 30.2213 24.3346 30.1453 24.3885C30.0693 24.4427 29.9956 24.5 29.9245 24.5604C29.8536 24.6211 29.7854 24.6846 29.7198 24.751C29.6544 24.8177 29.5919 24.887 29.5325 24.9589C29.4732 25.031 29.4172 25.1052 29.3643 25.1823C29.3115 25.2591 29.262 25.3383 29.2161 25.4195C29.1703 25.5008 29.1279 25.5839 29.0893 25.6687C29.0508 25.7539 29.0159 25.8404 28.9849 25.9284C28.9539 26.0164 28.9268 26.1055 28.9036 26.1961H22.7276L18.9659 22.4344C18.8911 22.3594 18.8047 22.3016 18.7068 22.2609C18.6088 22.2206 18.507 22.2003 18.401 22.2003H2.4177C2.3651 22.2003 2.31328 22.2052 2.26171 22.2156C2.21041 22.2258 2.16041 22.2409 2.11171 22.2609C2.06328 22.281 2.01718 22.3057 1.97369 22.3349C1.92994 22.3641 1.88958 22.3971 1.8526 22.4341C1.81536 22.4714 1.78229 22.5117 1.75312 22.5552C1.72395 22.599 1.69947 22.6451 1.67942 22.6935C1.65937 22.7419 1.64401 22.7919 1.63385 22.8435C1.62369 22.8948 1.61848 22.9469 1.61848 22.9992C1.61848 23.0518 1.62369 23.1036 1.63385 23.1552C1.64401 23.2068 1.65937 23.2568 1.67942 23.3052C1.69947 23.3536 1.72395 23.3997 1.75312 23.4432C1.78229 23.487 1.81536 23.5273 1.8526 23.5643C1.88958 23.6016 1.92994 23.6346 1.97369 23.6638C2.01718 23.693 2.06328 23.7174 2.11171 23.7378C2.16041 23.7578 2.21041 23.7729 2.26171 23.7831C2.31328 23.7935 2.3651 23.7984 2.4177 23.7984ZM41.5768 32.5893C41.6292 32.5893 41.6815 32.5919 41.7336 32.5971C41.7857 32.6021 41.8372 32.6099 41.8885 32.6201C41.9401 32.6302 41.9906 32.643 42.0409 32.6581C42.0909 32.6734 42.1401 32.6909 42.1885 32.7109C42.2367 32.731 42.2841 32.7534 42.3302 32.7781C42.3766 32.8026 42.4213 32.8297 42.4648 32.8586C42.5083 32.8878 42.5503 32.919 42.5909 32.9521C42.6312 32.9854 42.67 33.0206 42.707 33.0576C42.744 33.0945 42.7792 33.1333 42.8122 33.1737C42.8456 33.2141 42.8768 33.2563 42.9057 33.2997C42.9349 33.3432 42.9617 33.388 42.9865 33.4341C43.0112 33.4805 43.0333 33.5276 43.0534 33.576C43.0734 33.6245 43.0911 33.6737 43.1062 33.7237C43.1216 33.7737 43.1341 33.8245 43.1445 33.8758C43.1547 33.9271 43.1622 33.9789 43.1674 34.031C43.1726 34.0831 43.1753 34.1354 43.1753 34.1878C43.1753 34.2401 43.1726 34.2922 43.1674 34.3443C43.1622 34.3964 43.1547 34.4482 43.1445 34.4995C43.1341 34.5508 43.1216 34.6016 43.1062 34.6516C43.0911 34.7018 43.0734 34.751 43.0534 34.7992C43.0333 34.8477 43.0112 34.8951 42.9865 34.9411C42.9617 34.9872 42.9349 35.032 42.9057 35.0755C42.8768 35.1193 42.8456 35.1612 42.8122 35.2016C42.7792 35.2422 42.744 35.2807 42.707 35.318C42.67 35.3549 42.6312 35.3901 42.5909 35.4232C42.5503 35.4565 42.5083 35.4875 42.4648 35.5167C42.4213 35.5458 42.3766 35.5727 42.3302 35.5974C42.2841 35.6219 42.2367 35.6443 42.1885 35.6643C42.1401 35.6844 42.0909 35.7021 42.0409 35.7172C41.9906 35.7323 41.9401 35.7451 41.8885 35.7552C41.8372 35.7656 41.7857 35.7732 41.7336 35.7784C41.6815 35.7833 41.6292 35.7859 41.5768 35.7859C41.5245 35.7859 41.4721 35.7833 41.42 35.7784C41.368 35.7732 41.3164 35.7656 41.2651 35.7552C41.2135 35.7451 41.163 35.7323 41.1128 35.7172C41.0628 35.7021 41.0135 35.6844 40.9651 35.6643C40.9169 35.6443 40.8695 35.6219 40.8234 35.5974C40.7771 35.5727 40.7323 35.5458 40.6888 35.5167C40.6453 35.4875 40.6034 35.4565 40.5628 35.4232C40.5224 35.3901 40.4836 35.3549 40.4466 35.318C40.4096 35.2807 40.3745 35.2422 40.3414 35.2016C40.3081 35.1612 40.2768 35.1193 40.2479 35.0755C40.2187 35.032 40.1919 34.9872 40.1672 34.9411C40.1424 34.8951 40.1203 34.8477 40.1003 34.7992C40.0802 34.751 40.0625 34.7018 40.0474 34.6516C40.032 34.6016 40.0195 34.5508 40.0091 34.4995C39.999 34.4482 39.9914 34.3964 39.9862 34.3443C39.981 34.2922 39.9784 34.2401 39.9784 34.1878C39.9786 34.1354 39.9812 34.0831 39.9865 34.031C39.9914 33.9789 39.9992 33.9273 40.0094 33.876C40.0198 33.8247 40.0325 33.774 40.0476 33.724C40.063 33.6737 40.0805 33.6245 40.1005 33.5763C40.1206 33.5279 40.143 33.4807 40.1677 33.4346C40.1924 33.3883 40.2193 33.3435 40.2484 33.3C40.2773 33.2565 40.3086 33.2146 40.3417 33.1742C40.375 33.1336 40.4101 33.0951 40.4471 33.0578C40.4841 33.0208 40.5229 32.9859 40.5633 32.9526C40.6036 32.9195 40.6458 32.8883 40.6893 32.8591C40.7328 32.8302 40.7776 32.8031 40.8237 32.7786C40.8698 32.7539 40.9172 32.7315 40.9654 32.7115C41.0138 32.6914 41.063 32.6737 41.113 32.6586C41.163 32.6432 41.2138 32.6305 41.2651 32.6203C41.3164 32.6102 41.3682 32.6023 41.4203 32.5971C41.4724 32.5919 41.5245 32.5893 41.5768 32.5893ZM31.9867 25.3969C32.0391 25.3969 32.0914 25.3995 32.1435 25.4044C32.1956 25.4096 32.2474 25.4174 32.2987 25.4276C32.35 25.4378 32.4008 25.4505 32.4508 25.4656C32.5008 25.4807 32.55 25.4984 32.5984 25.5185C32.6469 25.5385 32.694 25.5609 32.7404 25.5857C32.7865 25.6102 32.8312 25.6372 32.8747 25.6661C32.9182 25.6953 32.9604 25.7263 33.0008 25.7596C33.0411 25.793 33.0799 25.8279 33.1169 25.8648C33.1539 25.9021 33.1891 25.9406 33.2224 25.9813C33.2555 26.0216 33.2867 26.0635 33.3159 26.1073C33.3448 26.1508 33.3719 26.1956 33.3963 26.2417C33.4211 26.2878 33.4435 26.3352 33.4635 26.3836C33.4836 26.4318 33.501 26.481 33.5164 26.5312C33.5315 26.5813 33.5443 26.632 33.5544 26.6833C33.5646 26.7346 33.5724 26.7865 33.5773 26.8385C33.5825 26.8906 33.5851 26.9427 33.5851 26.9951C33.5851 27.0474 33.5825 27.0997 33.5773 27.1518C33.5724 27.2039 33.5646 27.2557 33.5544 27.307C33.5443 27.3583 33.5315 27.4091 33.5164 27.4591C33.501 27.5091 33.4836 27.5583 33.4635 27.6068C33.4435 27.6552 33.4211 27.7023 33.3963 27.7487C33.3719 27.7948 33.3448 27.8396 33.3159 27.8831C33.2867 27.9266 33.2555 27.9688 33.2224 28.0091C33.1891 28.0495 33.1539 28.0883 33.1169 28.1253C33.0799 28.1622 33.0411 28.1974 33.0008 28.2307C32.9604 28.2638 32.9182 28.2951 32.8747 28.3242C32.8312 28.3531 32.7865 28.3802 32.7404 28.4047C32.694 28.4294 32.6469 28.4518 32.5984 28.4719C32.55 28.4919 32.5008 28.5094 32.4508 28.5247C32.4008 28.5398 32.35 28.5526 32.2987 28.5628C32.2474 28.5729 32.1956 28.5807 32.1435 28.5857C32.0914 28.5909 32.0391 28.5935 31.9867 28.5935C31.9344 28.5935 31.8823 28.5909 31.8302 28.5857C31.7781 28.5807 31.7263 28.5729 31.675 28.5628C31.6237 28.5526 31.5729 28.5398 31.5229 28.5247C31.4726 28.5094 31.4234 28.4919 31.3753 28.4719C31.3268 28.4518 31.2794 28.4294 31.2333 28.4047C31.1872 28.3802 31.1424 28.3531 31.099 28.3242C31.0552 28.2951 31.0133 28.2638 30.9729 28.2307C30.9323 28.1974 30.8937 28.1622 30.8565 28.1253C30.8195 28.0883 30.7846 28.0495 30.7513 28.0091C30.718 27.9688 30.687 27.9266 30.6578 27.8831C30.6286 27.8396 30.6018 27.7948 30.5773 27.7487C30.5526 27.7023 30.5302 27.6552 30.5101 27.6068C30.4901 27.5583 30.4724 27.5091 30.4573 27.4591C30.4422 27.4091 30.4294 27.3583 30.4193 27.307C30.4091 27.2557 30.4013 27.2039 30.3961 27.1518C30.3911 27.0997 30.3885 27.0474 30.3885 26.9951C30.3885 26.9427 30.3911 26.8906 30.3963 26.8385C30.4016 26.7865 30.4091 26.7349 30.4195 26.6833C30.4297 26.632 30.4424 26.5815 30.4575 26.5312C30.4729 26.4812 30.4906 26.432 30.5107 26.3839C30.5307 26.3354 30.5531 26.2883 30.5776 26.2419C30.6023 26.1958 30.6292 26.151 30.6583 26.1076C30.6875 26.0641 30.7185 26.0221 30.7518 25.9815C30.7849 25.9411 30.82 25.9023 30.857 25.8654C30.894 25.8284 30.9328 25.7932 30.9732 25.7602C31.0138 25.7268 31.0557 25.6958 31.0992 25.6667C31.1427 25.6375 31.1875 25.6107 31.2336 25.5859C31.2799 25.5615 31.3271 25.5391 31.3755 25.519C31.4237 25.499 31.4729 25.4813 31.5229 25.4659C31.5732 25.4508 31.6237 25.438 31.675 25.4279C31.7266 25.4174 31.7781 25.4099 31.8302 25.4047C31.8823 25.3995 31.9344 25.3969 31.9867 25.3969Z" fill="#356B00"/>
<path d="M2.4177 26.9951H16.4719L20.2333 30.7568C20.3083 30.8318 20.3948 30.8896 20.4927 30.9302C20.5906 30.9706 20.6924 30.9909 20.7984 30.9909H26.3927V38.9825C26.3927 39.0352 26.3977 39.087 26.4081 39.1385C26.4182 39.1901 26.4333 39.2401 26.4534 39.2885C26.4737 39.337 26.4982 39.3831 26.5273 39.4266C26.5565 39.4703 26.5896 39.5107 26.6268 39.5477C26.6638 39.5849 26.7042 39.618 26.7479 39.6471C26.7914 39.6763 26.8375 39.7008 26.8859 39.7211C26.9344 39.7411 26.9844 39.7562 27.0359 39.7664C27.0875 39.7768 27.1393 39.7818 27.1919 39.7818C27.2443 39.7818 27.2964 39.7768 27.3477 39.7664C27.3992 39.7562 27.4492 39.7411 27.4977 39.7211C27.5461 39.7008 27.5922 39.6763 27.6359 39.6471C27.6794 39.618 27.7198 39.5849 27.757 39.5477C27.794 39.5107 27.8271 39.4703 27.8562 39.4266C27.8854 39.3831 27.9102 39.337 27.9302 39.2885C27.9503 39.2401 27.9654 39.1901 27.9755 39.1385C27.9859 39.087 27.9909 39.0352 27.9909 38.9825V30.1919C27.9909 30.1393 27.9859 30.0875 27.9755 30.0359C27.9654 29.9844 27.9503 29.9344 27.9302 29.8859C27.9102 29.8375 27.8854 29.7914 27.8562 29.7479C27.8271 29.7042 27.794 29.6638 27.757 29.6268C27.7198 29.5896 27.6794 29.5565 27.6359 29.5273C27.5922 29.4982 27.5461 29.4737 27.4977 29.4534C27.4492 29.4333 27.3992 29.4182 27.3477 29.4081C27.2964 29.3977 27.2443 29.3927 27.1919 29.3927H21.1294L17.3677 25.631C17.2927 25.556 17.2062 25.4982 17.1086 25.4578C17.0107 25.4172 16.9086 25.3969 16.8026 25.3969H2.4177C2.3651 25.3969 2.31328 25.4018 2.26171 25.4122C2.21041 25.4224 2.16041 25.4375 2.11171 25.4576C2.06328 25.4779 2.01718 25.5023 1.97369 25.5315C1.92994 25.5607 1.88958 25.5937 1.8526 25.631C1.81536 25.668 1.78229 25.7083 1.75312 25.7521C1.72395 25.7956 1.69947 25.8417 1.67942 25.8901C1.65937 25.9385 1.64401 25.9885 1.63385 26.0401C1.62369 26.0917 1.61848 26.1435 1.61848 26.1961C1.61848 26.2484 1.62369 26.3005 1.63385 26.3518C1.64401 26.4034 1.65937 26.4534 1.67942 26.5018C1.69947 26.5503 1.72395 26.5964 1.75312 26.6401C1.78229 26.6836 1.81536 26.724 1.8526 26.7612C1.88958 26.7982 1.92994 26.8312 1.97369 26.8604C2.01718 26.8896 2.06328 26.9143 2.11171 26.9344C2.16041 26.9544 2.21041 26.9695 2.26171 26.9797C2.31328 26.9901 2.3651 26.9951 2.4177 26.9951Z" fill="#356B00"/>
<path d="M45.5727 19.0034H33.1169L29.5893 15.476V5.41771C29.5893 5.3651 29.5841 5.31328 29.574 5.26172C29.5638 5.21042 29.5487 5.16042 29.5284 5.11172C29.5083 5.06328 29.4839 5.01719 29.4547 4.9737C29.4255 4.92995 29.3925 4.88958 29.3552 4.8526C29.3182 4.81536 29.2779 4.78229 29.2341 4.75312C29.1906 4.72396 29.1445 4.69948 29.0961 4.67943C29.0474 4.65937 28.9977 4.64401 28.9461 4.63385C28.8945 4.6237 28.8427 4.61849 28.7901 4.61849C28.7378 4.61849 28.6857 4.6237 28.6341 4.63385C28.5828 4.64401 28.5328 4.65937 28.4844 4.67943C28.4359 4.69948 28.3898 4.72396 28.3461 4.75312C28.3026 4.78229 28.2622 4.81536 28.225 4.8526C28.188 4.88958 28.155 4.92995 28.1258 4.9737C28.0966 5.01719 28.0719 5.06328 28.0518 5.11172C28.0318 5.16042 28.0167 5.21042 28.0063 5.26172C27.9961 5.31328 27.9909 5.3651 27.9909 5.41771V15.8068C27.9912 15.9128 28.0112 16.0148 28.0518 16.1125C28.0925 16.2104 28.1503 16.2969 28.2253 16.3719L32.2211 20.3677C32.2958 20.4427 32.3823 20.5003 32.4802 20.5409C32.5781 20.5815 32.68 20.6018 32.7859 20.6018H45.5727C45.6253 20.6018 45.6771 20.5966 45.7287 20.5865C45.78 20.5763 45.83 20.5612 45.8784 20.5409C45.9271 20.5208 45.9729 20.4964 46.0167 20.4672C46.0602 20.438 46.1005 20.4049 46.1378 20.3677C46.1747 20.3307 46.2081 20.2904 46.2372 20.2466C46.2664 20.2031 46.2909 20.157 46.3109 20.1086C46.331 20.0599 46.3464 20.0102 46.3565 19.9586C46.3667 19.907 46.3719 19.8552 46.3719 19.8026C46.3719 19.7503 46.3667 19.6982 46.3565 19.6469C46.3464 19.5953 46.331 19.5453 46.3109 19.4969C46.2909 19.4484 46.2664 19.4023 46.2372 19.3586C46.2081 19.3151 46.1747 19.2747 46.1378 19.2375C46.1005 19.2005 46.0602 19.1674 46.0167 19.1383C45.9729 19.1091 45.9271 19.0844 45.8784 19.0643C45.83 19.0443 45.78 19.0292 45.7287 19.0187C45.6771 19.0086 45.6253 19.0034 45.5727 19.0034Z" fill="#356B00"/>
<path d="M45.5727 15.8068H34.7151L32.7859 13.8776V5.41771C32.7859 5.3651 32.781 5.31328 32.7706 5.26172C32.7604 5.21042 32.7453 5.16042 32.7253 5.11172C32.7049 5.06328 32.6805 5.01719 32.6513 4.9737C32.6221 4.92995 32.5891 4.88958 32.5518 4.8526C32.5148 4.81536 32.4745 4.78229 32.4307 4.75312C32.3872 4.72396 32.3411 4.69948 32.2927 4.67943C32.2443 4.65937 32.1943 4.64401 32.1427 4.63385C32.0911 4.6237 32.0393 4.61849 31.9867 4.61849C31.9344 4.61849 31.8823 4.6237 31.831 4.63385C31.7794 4.64401 31.7294 4.65937 31.681 4.67943C31.6326 4.69948 31.5865 4.72396 31.5427 4.75312C31.4992 4.78229 31.4589 4.81536 31.4216 4.8526C31.3846 4.88958 31.3516 4.92995 31.3224 4.9737C31.2932 5.01719 31.2685 5.06328 31.2484 5.11172C31.2284 5.16042 31.2133 5.21042 31.2031 5.26172C31.1927 5.31328 31.1878 5.3651 31.1878 5.41771V14.2086C31.1878 14.3146 31.2081 14.4164 31.2484 14.5143C31.2891 14.6122 31.3469 14.6987 31.4219 14.7734L33.8193 17.1711C33.8943 17.2458 33.9807 17.3036 34.0786 17.3443C34.1763 17.3849 34.2784 17.4052 34.3844 17.4052H45.5727C45.6253 17.4052 45.6771 17.4 45.7286 17.3898C45.7799 17.3797 45.8299 17.3643 45.8784 17.3443C45.9271 17.3242 45.9729 17.2997 46.0167 17.2706C46.0602 17.2414 46.1005 17.2081 46.1378 17.1711C46.1747 17.1341 46.2081 17.0935 46.2372 17.05C46.2664 17.0062 46.2909 16.9604 46.3109 16.9117C46.331 16.8633 46.3464 16.8133 46.3565 16.762C46.3667 16.7104 46.3719 16.6586 46.3719 16.606C46.3719 16.5536 46.3667 16.5016 46.3565 16.45C46.3464 16.3987 46.331 16.3487 46.3109 16.3003C46.2909 16.2516 46.2664 16.2057 46.2372 16.162C46.2081 16.1185 46.1747 16.0781 46.1378 16.0409C46.1005 16.0039 46.0602 15.9706 46.0167 15.9414C45.9729 15.9122 45.9271 15.8878 45.8784 15.8677C45.8299 15.8477 45.7799 15.8326 45.7286 15.8221C45.6771 15.812 45.6253 15.8068 45.5727 15.8068Z" fill="#356B00"/>
<path d="M2.4177 42.1794H7.21276C7.28177 42.1794 7.34947 42.1706 7.41614 42.1529C7.48307 42.1354 7.54635 42.1096 7.60624 42.0758C7.6664 42.0417 7.72109 42.0005 7.77057 41.9523C7.82005 41.9042 7.86249 41.8505 7.89791 41.7914L10.0628 38.1836H12.1211C12.1372 38.2456 12.1549 38.3073 12.1747 38.3682C12.1945 38.4292 12.2161 38.4896 12.2396 38.5495C12.2628 38.6091 12.288 38.6682 12.3148 38.7263C12.3419 38.7846 12.3706 38.8419 12.401 38.8984C12.4312 38.9549 12.4633 39.0104 12.4971 39.0651C12.5307 39.1195 12.5661 39.1732 12.6031 39.2255C12.6401 39.2779 12.6786 39.3292 12.7185 39.3794C12.7586 39.4294 12.8003 39.4784 12.8432 39.526C12.8862 39.5737 12.9305 39.6198 12.9763 39.6648C13.0221 39.7099 13.069 39.7534 13.1174 39.7956C13.1659 39.8375 13.2154 39.8781 13.2664 39.9174C13.3172 39.9565 13.369 39.994 13.4221 40.0299C13.4753 40.0661 13.5294 40.1005 13.5846 40.1331C13.6398 40.1659 13.6958 40.1969 13.7529 40.2263C13.8099 40.2557 13.8677 40.2833 13.9266 40.3091C13.9852 40.3352 14.0445 40.3591 14.1047 40.3815C14.1648 40.4039 14.2255 40.4242 14.287 40.443C14.3484 40.4617 14.4104 40.4784 14.4727 40.4932C14.5352 40.5083 14.5979 40.5214 14.6609 40.5323C14.7242 40.5435 14.7878 40.5529 14.8513 40.5602C14.9151 40.5674 14.9789 40.5729 15.043 40.5763C15.107 40.5797 15.1713 40.5812 15.2354 40.581C15.2995 40.5805 15.3635 40.5781 15.4276 40.574C15.4917 40.5698 15.5555 40.5635 15.619 40.5555C15.6828 40.5474 15.7461 40.5375 15.8091 40.5255C15.8721 40.5135 15.9349 40.5 15.9969 40.4841C16.0591 40.4685 16.1208 40.451 16.182 40.4315C16.2432 40.4122 16.3036 40.3911 16.3635 40.368C16.4234 40.345 16.4825 40.3203 16.5409 40.2937C16.5992 40.2669 16.6568 40.2388 16.7135 40.2086C16.7703 40.1786 16.826 40.1469 16.8807 40.1135C16.9354 40.0802 16.9893 40.045 17.0419 40.0083C17.0945 39.9719 17.1461 39.9336 17.1963 39.894C17.2469 39.8542 17.2958 39.813 17.3437 39.7703C17.3917 39.7276 17.4383 39.6833 17.4833 39.638C17.5286 39.5924 17.5724 39.5456 17.6148 39.4974C17.6573 39.4495 17.6982 39.4 17.7378 39.3495C17.7771 39.2987 17.8148 39.2471 17.8513 39.1943C17.8875 39.1414 17.9224 39.0875 17.9555 39.0325C17.9885 38.9773 18.0198 38.9216 18.0495 38.8646C18.0792 38.8078 18.1073 38.7503 18.1333 38.6917C18.1596 38.6331 18.1841 38.5737 18.2068 38.5138C18.2294 38.4536 18.2503 38.3932 18.2693 38.3318C18.2883 38.2706 18.3055 38.2089 18.3208 38.1466C18.3362 38.0841 18.3495 38.0216 18.3609 37.9583C18.3724 37.8953 18.382 37.8318 18.3898 37.7682C18.3976 37.7044 18.4034 37.6406 18.4073 37.5766C18.4109 37.5125 18.413 37.4484 18.413 37.3844C18.413 37.32 18.4109 37.256 18.4073 37.1919C18.4034 37.1281 18.3976 37.0641 18.3898 37.0005C18.382 36.9367 18.3724 36.8734 18.3609 36.8102C18.3495 36.7471 18.3362 36.6844 18.3208 36.6221C18.3055 36.5599 18.2883 36.4982 18.2693 36.4367C18.2503 36.3755 18.2294 36.3148 18.2068 36.2549C18.1841 36.1948 18.1596 36.1357 18.1333 36.0771C18.1073 36.0185 18.0792 35.9609 18.0495 35.9039C18.0198 35.8471 17.9885 35.7911 17.9555 35.7362C17.9224 35.6812 17.8875 35.6273 17.8513 35.5745C17.8148 35.5216 17.7771 35.4698 17.7378 35.4193C17.6982 35.3687 17.6573 35.3193 17.6148 35.2711C17.5724 35.2229 17.5286 35.1763 17.4833 35.1307C17.4383 35.0852 17.3917 35.0411 17.3437 34.9984C17.2958 34.9557 17.2469 34.9146 17.1963 34.8747C17.1461 34.8352 17.0945 34.7969 17.0419 34.7602C16.9893 34.7237 16.9354 34.6885 16.8807 34.6552C16.826 34.6219 16.7703 34.5901 16.7135 34.5599C16.6568 34.5299 16.5992 34.5016 16.5409 34.475C16.4825 34.4484 16.4234 34.4237 16.3635 34.4005C16.3036 34.3776 16.2432 34.3565 16.182 34.337C16.1208 34.3177 16.0591 34.3 15.9969 34.2844C15.9349 34.2687 15.8721 34.2549 15.8091 34.2432C15.7461 34.2312 15.6828 34.2211 15.619 34.213C15.5555 34.2049 15.4917 34.199 15.4276 34.1945C15.3635 34.1904 15.2995 34.188 15.2354 34.1878C15.1713 34.1872 15.107 34.1888 15.043 34.1924C14.9789 34.1958 14.9151 34.2013 14.8513 34.2086C14.7878 34.2159 14.7242 34.225 14.6609 34.2362C14.5979 34.2474 14.5352 34.2604 14.4727 34.2753C14.4104 34.2904 14.3484 34.307 14.287 34.3258C14.2255 34.3443 14.1648 34.3648 14.1047 34.3872C14.0445 34.4094 13.9852 34.4336 13.9266 34.4594C13.8677 34.4854 13.8099 34.513 13.7529 34.5422C13.6958 34.5716 13.6398 34.6029 13.5846 34.6354C13.5294 34.6682 13.4753 34.7026 13.4221 34.7385C13.369 34.7745 13.3172 34.8122 13.2664 34.8513C13.2154 34.8904 13.1659 34.931 13.1174 34.9732C13.069 35.0154 13.0221 35.0589 12.9763 35.1039C12.9305 35.1487 12.8862 35.195 12.8432 35.2427C12.8003 35.2904 12.7586 35.3391 12.7185 35.3893C12.6786 35.4393 12.6401 35.4906 12.6031 35.5432C12.5661 35.5956 12.5307 35.649 12.4971 35.7036C12.4633 35.7583 12.4312 35.8138 12.401 35.8703C12.3706 35.9268 12.3419 35.9841 12.3148 36.0424C12.288 36.1005 12.2628 36.1596 12.2396 36.2193C12.2161 36.2789 12.1945 36.3393 12.1747 36.4005C12.1549 36.4615 12.1372 36.5232 12.1211 36.5852H9.61015C9.54114 36.5852 9.47343 36.594 9.4065 36.6115C9.33984 36.6292 9.27656 36.6549 9.2164 36.6888C9.1565 36.7229 9.10156 36.7638 9.05234 36.812C9.00286 36.8602 8.96041 36.9138 8.92499 36.9729L6.75989 40.581H2.4177C2.3651 40.581 2.31328 40.5862 2.26171 40.5964C2.21041 40.6065 2.16041 40.6219 2.11171 40.6419C2.06328 40.662 2.01718 40.6865 1.97369 40.7156C1.92994 40.7448 1.88958 40.7779 1.8526 40.8151C1.81536 40.8521 1.78229 40.8924 1.75312 40.9362C1.72395 40.9797 1.69947 41.0258 1.67942 41.0742C1.65937 41.1229 1.64401 41.1727 1.63385 41.2242C1.62369 41.2758 1.61848 41.3276 1.61848 41.3802C1.61848 41.4325 1.62369 41.4846 1.63385 41.5362C1.64401 41.5875 1.65937 41.6375 1.67942 41.6859C1.69947 41.7344 1.72395 41.7805 1.75312 41.8242C1.78229 41.8677 1.81536 41.9081 1.8526 41.9453C1.88958 41.9823 1.92994 42.0154 1.97369 42.0445C2.01718 42.0737 2.06328 42.0984 2.11171 42.1185C2.16041 42.1385 2.21041 42.1536 2.26171 42.1641C2.31328 42.1742 2.3651 42.1794 2.4177 42.1794ZM15.2044 35.7859C15.2568 35.7859 15.3088 35.7885 15.3609 35.7937C15.413 35.7987 15.4648 35.8065 15.5161 35.8167C15.5674 35.8268 15.6182 35.8396 15.6682 35.8547C15.7185 35.87 15.7677 35.8875 15.8159 35.9075C15.8643 35.9276 15.9117 35.95 15.9578 35.9747C16.0039 35.9995 16.0487 36.0263 16.0922 36.0555C16.1359 36.0844 16.1779 36.1156 16.2182 36.1487C16.2588 36.182 16.2974 36.2172 16.3346 36.2542C16.3716 36.2911 16.4068 36.3299 16.4398 36.3703C16.4732 36.4109 16.5042 36.4529 16.5333 36.4964C16.5625 36.5398 16.5893 36.5846 16.6138 36.631C16.6385 36.6771 16.6609 36.7242 16.681 36.7727C16.701 36.8211 16.7187 36.8703 16.7338 36.9203C16.749 36.9706 16.7617 37.0211 16.7719 37.0724C16.782 37.124 16.7898 37.1755 16.795 37.2276C16.8 37.2797 16.8026 37.332 16.8026 37.3844C16.8026 37.4367 16.8 37.4888 16.795 37.5409C16.7898 37.593 16.782 37.6448 16.7719 37.6961C16.7617 37.7474 16.749 37.7982 16.7338 37.8482C16.7187 37.8984 16.701 37.9477 16.681 37.9961C16.6609 38.0443 16.6385 38.0917 16.6138 38.1378C16.5893 38.1839 16.5625 38.2289 16.5333 38.2724C16.5042 38.3159 16.4732 38.3578 16.4398 38.3982C16.4068 38.4388 16.3716 38.4776 16.3346 38.5146C16.2974 38.5516 16.2588 38.5867 16.2182 38.6198C16.1779 38.6531 16.1359 38.6841 16.0922 38.7133C16.0487 38.7424 16.0039 38.7693 15.9578 38.794C15.9117 38.8185 15.8643 38.8409 15.8159 38.8609C15.7677 38.881 15.7185 38.8987 15.6682 38.9138C15.6182 38.9289 15.5674 38.9417 15.5161 38.9518C15.4648 38.9622 15.413 38.9698 15.3609 38.975C15.3088 38.9802 15.2568 38.9825 15.2044 38.9825C15.1521 38.9825 15.0997 38.9802 15.0477 38.975C14.9956 38.9698 14.9437 38.9622 14.8924 38.9518C14.8411 38.9417 14.7904 38.9289 14.7404 38.9138C14.6904 38.8987 14.6411 38.881 14.5927 38.8609C14.5443 38.8409 14.4971 38.8185 14.4508 38.794C14.4047 38.7693 14.3599 38.7424 14.3164 38.7133C14.2729 38.6841 14.2307 38.6531 14.1904 38.6198C14.15 38.5867 14.1112 38.5516 14.0742 38.5146C14.0372 38.4776 14.0021 38.4388 13.9687 38.3982C13.9357 38.3578 13.9044 38.3159 13.8753 38.2724C13.8463 38.2289 13.8193 38.1839 13.7948 38.1378C13.77 38.0917 13.7477 38.0443 13.7276 37.9961C13.7075 37.9477 13.6901 37.8984 13.6747 37.8482C13.6596 37.7982 13.6469 37.7474 13.6367 37.6961C13.6266 37.6448 13.6187 37.593 13.6138 37.5409C13.6086 37.4888 13.606 37.4367 13.606 37.3844C13.606 37.332 13.6086 37.2797 13.6138 37.2276C13.619 37.1755 13.6268 37.124 13.637 37.0727C13.6471 37.0214 13.6599 36.9706 13.6753 36.9206C13.6904 36.8706 13.7081 36.8214 13.7281 36.7729C13.7482 36.7245 13.7706 36.6773 13.7953 36.6312C13.8198 36.5852 13.8469 36.5401 13.8758 36.4966C13.9049 36.4531 13.9362 36.4112 13.9693 36.3708C14.0026 36.3302 14.0375 36.2917 14.0745 36.2547C14.1117 36.2177 14.1503 36.1825 14.1909 36.1492C14.2312 36.1161 14.2732 36.0849 14.3167 36.0557C14.3602 36.0268 14.4049 36 14.4513 35.9753C14.4974 35.9505 14.5445 35.9281 14.593 35.9081C14.6411 35.888 14.6904 35.8703 14.7406 35.8552C14.7906 35.8398 14.8414 35.8273 14.8927 35.8169C14.944 35.8068 14.9956 35.799 15.0477 35.7937C15.0997 35.7885 15.1521 35.7859 15.2044 35.7859Z" fill="#356B00"/>
<path d="M2.4177 45.376H12.8068C12.8594 45.376 12.9112 45.3708 12.9628 45.3607C13.0143 45.3505 13.0641 45.3352 13.1128 45.3151C13.1612 45.2951 13.2073 45.2706 13.2508 45.2414C13.2945 45.2122 13.3349 45.1789 13.3719 45.1419C13.4091 45.1047 13.4422 45.0643 13.4713 45.0208C13.5005 44.9771 13.525 44.9312 13.545 44.8826C13.5654 44.8341 13.5805 44.7841 13.5906 44.7328C13.6008 44.6812 13.606 44.6294 13.606 44.5768C13.606 44.5245 13.6008 44.4724 13.5906 44.4208C13.5805 44.3695 13.5654 44.3195 13.545 44.2711C13.525 44.2224 13.5005 44.1766 13.4713 44.1328C13.4422 44.0893 13.4091 44.049 13.3719 44.0117C13.3349 43.9747 13.2945 43.9414 13.2508 43.9122C13.2073 43.8831 13.1612 43.8586 13.1128 43.8385C13.0641 43.8185 13.0143 43.8031 12.9628 43.793C12.9112 43.7828 12.8594 43.7776 12.8068 43.7776H2.4177C2.3651 43.7776 2.31328 43.7828 2.26171 43.793C2.21041 43.8031 2.16041 43.8185 2.11171 43.8385C2.06328 43.8586 2.01718 43.8831 1.97369 43.9122C1.92994 43.9414 1.88958 43.9747 1.8526 44.0117C1.81536 44.049 1.78229 44.0893 1.75312 44.1328C1.72395 44.1766 1.69947 44.2224 1.67942 44.2711C1.65937 44.3195 1.64401 44.3695 1.63385 44.4208C1.62369 44.4724 1.61848 44.5245 1.61848 44.5768C1.61848 44.6294 1.62369 44.6812 1.63385 44.7328C1.64401 44.7841 1.65937 44.8341 1.67942 44.8826C1.69947 44.9312 1.72395 44.9771 1.75312 45.0208C1.78229 45.0643 1.81536 45.1047 1.8526 45.1419C1.88958 45.1789 1.92994 45.2122 1.97369 45.2414C2.01718 45.2706 2.06328 45.2951 2.11171 45.3151C2.16041 45.3352 2.21041 45.3505 2.26171 45.3607C2.31328 45.3708 2.3651 45.376 2.4177 45.376Z" fill="#356B00"/>
<path d="M23.1961 5.41771V15.9203C23.1338 15.9365 23.0724 15.9542 23.0112 15.974C22.9503 15.9937 22.8898 16.0154 22.8302 16.0388C22.7703 16.062 22.7114 16.0872 22.6531 16.1141C22.595 16.1411 22.5375 16.1698 22.481 16.2C22.4245 16.2305 22.369 16.2625 22.3146 16.2964C22.2599 16.3299 22.2065 16.3654 22.1539 16.4023C22.1016 16.4393 22.0503 16.4779 22 16.5177C21.95 16.5578 21.901 16.5992 21.8534 16.6422C21.806 16.6852 21.7596 16.7297 21.7146 16.7755C21.6698 16.8211 21.626 16.8682 21.5841 16.9167C21.5419 16.9651 21.5013 17.0146 21.4622 17.0654C21.4229 17.1164 21.3854 17.1682 21.3495 17.2214C21.3135 17.2745 21.2792 17.3286 21.2463 17.3839C21.2135 17.4388 21.1825 17.4951 21.1531 17.5521C21.1237 17.6091 21.0961 17.6669 21.0703 17.7255C21.0443 17.7844 21.0203 17.8437 20.9979 17.9039C20.9758 17.9641 20.9552 18.0247 20.9364 18.0862C20.918 18.1477 20.901 18.2094 20.8862 18.2719C20.8713 18.3341 20.8583 18.3971 20.8471 18.4602C20.8359 18.5234 20.8268 18.5867 20.8193 18.6505C20.812 18.7143 20.8068 18.7781 20.8031 18.8422C20.7997 18.9062 20.7982 18.9703 20.7984 19.0346C20.7989 19.0987 20.8013 19.1628 20.8055 19.2268C20.8096 19.2909 20.8159 19.3547 20.8239 19.4182C20.832 19.482 20.8419 19.5453 20.8539 19.6083C20.8659 19.6714 20.8797 19.7339 20.8953 19.7961C20.9109 19.8583 20.9284 19.9201 20.9479 19.9812C20.9672 20.0424 20.9885 20.1029 21.0114 20.1628C21.0344 20.2227 21.0594 20.2818 21.0859 20.3401C21.1125 20.3984 21.1409 20.456 21.1708 20.5128C21.2008 20.5695 21.2325 20.625 21.2659 20.6799C21.2995 20.7346 21.3344 20.7883 21.3711 20.8411C21.4075 20.8937 21.4458 20.9453 21.4857 20.9956C21.5253 21.0458 21.5667 21.0951 21.6094 21.143C21.6518 21.1909 21.6961 21.2372 21.7414 21.2826C21.787 21.3279 21.8338 21.3716 21.882 21.4141C21.9302 21.4565 21.9794 21.4974 22.0299 21.5367C22.0807 21.5763 22.1323 21.6141 22.1854 21.6505C22.2383 21.6867 22.2922 21.7214 22.3471 21.7544C22.4021 21.7875 22.4578 21.819 22.5148 21.8487C22.5716 21.8784 22.6294 21.9065 22.688 21.9326C22.7463 21.9589 22.8057 21.9833 22.8656 22.006C22.9258 22.0286 22.9864 22.0495 23.0476 22.0685C23.1088 22.0875 23.1706 22.1047 23.2331 22.1201C23.2953 22.1352 23.3581 22.1487 23.4211 22.1602C23.4841 22.1716 23.5476 22.1812 23.6112 22.1891C23.675 22.1966 23.7388 22.2026 23.8029 22.2062C23.8669 22.2102 23.931 22.2122 23.995 22.2122C24.0594 22.2122 24.1234 22.2102 24.1875 22.2062C24.2516 22.2026 24.3154 22.1966 24.3789 22.1891C24.4427 22.1812 24.506 22.1716 24.5693 22.1602C24.6323 22.1487 24.695 22.1352 24.7573 22.1201C24.8195 22.1047 24.8815 22.0875 24.9427 22.0685C25.0039 22.0495 25.0646 22.0286 25.1245 22.006C25.1846 21.9833 25.244 21.9589 25.3023 21.9326C25.3609 21.9065 25.4187 21.8784 25.4755 21.8487C25.5323 21.819 25.5883 21.7875 25.6432 21.7544C25.6982 21.7214 25.7521 21.6867 25.8049 21.6505C25.8578 21.6141 25.9096 21.5763 25.9601 21.5367C26.0109 21.4974 26.0601 21.4565 26.1083 21.4141C26.1565 21.3716 26.2034 21.3279 26.2487 21.2826C26.2943 21.2372 26.3383 21.1909 26.381 21.143C26.4237 21.0951 26.4651 21.0458 26.5047 20.9956C26.5445 20.9453 26.5825 20.8937 26.6193 20.8411C26.656 20.7883 26.6909 20.7346 26.7242 20.6799C26.7578 20.625 26.7896 20.5695 26.8195 20.5128C26.8495 20.456 26.8779 20.3984 26.9044 20.3401C26.931 20.2818 26.9557 20.2227 26.9789 20.1628C27.0018 20.1029 27.0232 20.0424 27.0424 19.9812C27.0617 19.9201 27.0794 19.8583 27.095 19.7961C27.1107 19.7339 27.1245 19.6714 27.1364 19.6083C27.1482 19.5453 27.1583 19.482 27.1664 19.4182C27.1745 19.3547 27.1805 19.2909 27.1849 19.2268C27.1891 19.1628 27.1914 19.0987 27.1917 19.0346C27.1922 18.9703 27.1906 18.9062 27.1872 18.8422C27.1836 18.7781 27.1781 18.7143 27.1708 18.6505C27.1635 18.5867 27.1544 18.5234 27.1432 18.4602C27.132 18.3971 27.119 18.3341 27.1042 18.2719C27.0893 18.2094 27.0724 18.1477 27.0536 18.0862C27.0351 18.0247 27.0146 17.9641 26.9924 17.9039C26.97 17.8437 26.9458 17.7844 26.92 17.7255C26.8943 17.6669 26.8667 17.6091 26.8372 17.5521C26.8078 17.4951 26.7768 17.4388 26.744 17.3839C26.7112 17.3286 26.6768 17.2745 26.6409 17.2214C26.6049 17.1682 26.5672 17.1164 26.5281 17.0654C26.4891 17.0146 26.4484 16.9651 26.4062 16.9167C26.3641 16.8682 26.3206 16.8211 26.2758 16.7755C26.2307 16.7297 26.1844 16.6852 26.1367 16.6422C26.0893 16.5992 26.0404 16.5578 25.9901 16.5177C25.9401 16.4779 25.8888 16.4393 25.8365 16.4023C25.7838 16.3654 25.7305 16.3299 25.6758 16.2964C25.6213 16.2625 25.5656 16.2305 25.5091 16.2C25.4529 16.1698 25.3953 16.1411 25.3372 16.1141C25.2789 16.0872 25.22 16.062 25.1601 16.0388C25.1005 16.0154 25.0401 15.9937 24.9792 15.974C24.918 15.9542 24.8565 15.9365 24.7943 15.9203V5.41771C24.7943 5.3651 24.7893 5.31328 24.7789 5.26172C24.7687 5.21042 24.7536 5.16042 24.7336 5.11172C24.7133 5.06328 24.6888 5.01719 24.6596 4.9737C24.6305 4.92995 24.5974 4.88958 24.5601 4.8526C24.5232 4.81536 24.4828 4.78229 24.4391 4.75312C24.3956 4.72396 24.3495 4.69948 24.301 4.67943C24.2526 4.65937 24.2026 4.64401 24.151 4.63385C24.0995 4.6237 24.0476 4.61849 23.995 4.61849C23.9427 4.61849 23.8906 4.6237 23.8393 4.63385C23.7878 4.64401 23.7378 4.65937 23.6893 4.67943C23.6409 4.69948 23.5948 4.72396 23.551 4.75312C23.5075 4.78229 23.4672 4.81536 23.4299 4.8526C23.393 4.88958 23.3599 4.92995 23.3307 4.9737C23.3016 5.01719 23.2768 5.06328 23.2568 5.11172C23.2367 5.16042 23.2216 5.21042 23.2114 5.26172C23.201 5.31328 23.1961 5.3651 23.1961 5.41771ZM25.5935 19.0034C25.5935 19.0557 25.5909 19.1081 25.5857 19.1602C25.5807 19.2122 25.5729 19.2641 25.5628 19.3154C25.5526 19.3667 25.5398 19.4174 25.5247 19.4674C25.5094 19.5174 25.4919 19.5667 25.4719 19.6151C25.4518 19.6635 25.4294 19.7107 25.4047 19.757C25.3802 19.8031 25.3531 19.8479 25.3242 19.8914C25.295 19.9349 25.2638 19.9771 25.2307 20.0174C25.1974 20.0578 25.1622 20.0966 25.1253 20.1336C25.0883 20.1708 25.0495 20.2057 25.0091 20.2391C24.9687 20.2721 24.9266 20.3034 24.8831 20.3326C24.8396 20.3615 24.7948 20.3885 24.7487 20.413C24.7023 20.4378 24.6552 20.4602 24.6068 20.4802C24.5583 20.5003 24.5091 20.5177 24.4591 20.5331C24.4091 20.5482 24.3583 20.5609 24.307 20.5711C24.2557 20.5812 24.2039 20.5891 24.1518 20.594C24.0997 20.5992 24.0474 20.6018 23.995 20.6018C23.9427 20.6018 23.8906 20.5992 23.8385 20.594C23.7864 20.5891 23.7346 20.5812 23.6833 20.5711C23.632 20.5609 23.5812 20.5482 23.5312 20.5331C23.481 20.5177 23.4318 20.5003 23.3836 20.4802C23.3351 20.4602 23.2878 20.4378 23.2417 20.413C23.1956 20.3885 23.1508 20.3615 23.1073 20.3326C23.0635 20.3034 23.0216 20.2721 22.9812 20.2391C22.9406 20.2057 22.9021 20.1708 22.8648 20.1336C22.8279 20.0966 22.793 20.0578 22.7596 20.0174C22.7263 19.9771 22.6953 19.9349 22.6661 19.8914C22.6372 19.8479 22.6101 19.8031 22.5857 19.757C22.5609 19.7107 22.5385 19.6635 22.5185 19.6151C22.4984 19.5667 22.4807 19.5174 22.4656 19.4674C22.4505 19.4174 22.4378 19.3667 22.4276 19.3154C22.4174 19.2641 22.4096 19.2122 22.4044 19.1602C22.3995 19.1081 22.3969 19.0557 22.3969 19.0034C22.3969 18.951 22.3995 18.899 22.4044 18.8469C22.4096 18.7948 22.4174 18.743 22.4276 18.6917C22.4378 18.6404 22.4505 18.5896 22.4656 18.5396C22.4807 18.4893 22.4984 18.4401 22.5185 18.3919C22.5385 18.3435 22.5609 18.2961 22.5857 18.25C22.6101 18.2039 22.6372 18.1591 22.6661 18.1156C22.6953 18.0719 22.7263 18.0299 22.7596 17.9896C22.793 17.949 22.8279 17.9104 22.8648 17.8732C22.9021 17.8362 22.9406 17.8013 22.9812 17.768C23.0216 17.7346 23.0635 17.7036 23.1073 17.6745C23.1508 17.6456 23.1956 17.6185 23.2417 17.594C23.2878 17.5693 23.3351 17.5469 23.3836 17.5268C23.4318 17.5068 23.481 17.4891 23.5312 17.474C23.5812 17.4589 23.632 17.4461 23.6833 17.4359C23.7346 17.4258 23.7864 17.418 23.8385 17.4128C23.8906 17.4078 23.9427 17.4052 23.995 17.4052C24.0474 17.4052 24.0997 17.4078 24.1518 17.413C24.2039 17.4182 24.2555 17.4258 24.3068 17.4362C24.3581 17.4464 24.4088 17.4591 24.4588 17.4742C24.5091 17.4896 24.5583 17.5073 24.6065 17.5273C24.6549 17.5474 24.7021 17.5698 24.7482 17.5943C24.7945 17.619 24.8393 17.6458 24.8828 17.675C24.9263 17.7042 24.9682 17.7352 25.0086 17.7685C25.0492 17.8016 25.0878 17.8367 25.125 17.8737C25.162 17.9107 25.1969 17.9495 25.2302 17.9898C25.2633 18.0305 25.2945 18.0724 25.3237 18.1159C25.3526 18.1594 25.3797 18.2042 25.4042 18.2503C25.4289 18.2966 25.4513 18.3437 25.4713 18.3922C25.4914 18.4404 25.5091 18.4896 25.5242 18.5396C25.5396 18.5898 25.5523 18.6404 25.5625 18.6917C25.5726 18.7432 25.5805 18.7948 25.5857 18.8469C25.5909 18.899 25.5935 18.951 25.5935 19.0034Z" fill="#356B00"/>
<path d="M45.5727 39.7818H35.9825C35.8766 39.7818 35.7747 39.8021 35.6768 39.8427C35.5789 39.8833 35.4924 39.9411 35.4177 40.0159L31.656 43.7776H25.4799C25.4443 43.6409 25.3997 43.507 25.3463 43.3763C25.293 43.2456 25.2312 43.1188 25.1609 42.9961C25.0906 42.8734 25.0128 42.756 24.9268 42.6438C24.8409 42.5315 24.7482 42.4255 24.6482 42.3255C24.5482 42.2255 24.4422 42.1326 24.3299 42.0469C24.2177 41.9609 24.1003 41.8828 23.9776 41.8128C23.8549 41.7424 23.7281 41.6807 23.5974 41.6273C23.4667 41.5737 23.3328 41.5292 23.1961 41.4938V33.3885C23.1961 33.3359 23.1909 33.2841 23.1807 33.2326C23.1703 33.181 23.1552 33.1313 23.1352 33.0826C23.1151 33.0341 23.0904 32.988 23.0612 32.9445C23.032 32.9008 22.999 32.8604 22.962 32.8234C22.9247 32.7862 22.8844 32.7531 22.8409 32.724C22.7971 32.6948 22.751 32.6703 22.7026 32.6503C22.6542 32.6302 22.6042 32.6148 22.5526 32.6047C22.5013 32.5945 22.4492 32.5893 22.3969 32.5893H19.531L15.7693 28.8276C15.6945 28.7526 15.6081 28.6951 15.5102 28.6544C15.4122 28.6138 15.3104 28.5935 15.2044 28.5935H2.4177C2.3651 28.5935 2.31328 28.5987 2.26171 28.6089C2.21041 28.619 2.16041 28.6344 2.11171 28.6544C2.06328 28.6745 2.01718 28.699 1.97369 28.7281C1.92994 28.7573 1.88958 28.7904 1.8526 28.8276C1.81536 28.8646 1.78229 28.9049 1.75312 28.9487C1.72395 28.9922 1.69947 29.0383 1.67942 29.0867C1.65937 29.1354 1.64401 29.1852 1.63385 29.2367C1.62369 29.2883 1.61848 29.3401 1.61848 29.3927C1.61848 29.4451 1.62369 29.4971 1.63385 29.5487C1.64401 29.6 1.65937 29.65 1.67942 29.6984C1.69947 29.7469 1.72395 29.793 1.75312 29.8367C1.78229 29.8802 1.81536 29.9206 1.8526 29.9578C1.88958 29.9948 1.92994 30.0279 1.97369 30.057C2.01718 30.0862 2.06328 30.1109 2.11171 30.131C2.16041 30.151 2.21041 30.1661 2.26171 30.1766C2.31328 30.1867 2.3651 30.1919 2.4177 30.1919H14.8734L18.6352 33.9534C18.7102 34.0284 18.7964 34.0862 18.8943 34.1268C18.9922 34.1674 19.0943 34.1878 19.2003 34.1878H21.5977V41.4938C21.5073 41.5169 21.418 41.544 21.3299 41.575C21.2419 41.606 21.1555 41.6409 21.0706 41.6794C20.9857 41.718 20.9023 41.7602 20.8211 41.8063C20.7398 41.8521 20.6609 41.9013 20.5839 41.9542C20.507 42.007 20.4325 42.0633 20.3604 42.1227C20.2885 42.182 20.2193 42.2443 20.1529 42.3099C20.0862 42.3753 20.0227 42.4435 19.9622 42.5146C19.9016 42.5857 19.8443 42.6591 19.7904 42.7352C19.7362 42.8112 19.6854 42.8896 19.6383 42.9701C19.5911 43.0505 19.5477 43.1331 19.5075 43.2175C19.4677 43.3016 19.4315 43.3875 19.399 43.475C19.3664 43.5625 19.338 43.6513 19.3133 43.7414C19.2888 43.8315 19.268 43.9224 19.2513 44.0141C19.2346 44.106 19.2221 44.1984 19.2135 44.2914C19.2049 44.3841 19.2005 44.4773 19.2003 44.5706C19.1997 44.6641 19.2036 44.7573 19.2115 44.8503C19.2193 44.9432 19.231 45.0357 19.2469 45.1276C19.2628 45.2195 19.2828 45.3107 19.3068 45.4008C19.3305 45.4911 19.3583 45.5802 19.3901 45.668C19.4219 45.7557 19.4573 45.8419 19.4966 45.9266C19.5359 46.0112 19.5789 46.094 19.6255 46.1747C19.6719 46.2557 19.7219 46.3344 19.7755 46.4109C19.8289 46.4875 19.8857 46.5615 19.9456 46.6328C20.0055 46.7044 20.0685 46.7732 20.1344 46.8391C20.2005 46.9052 20.2693 46.9682 20.3406 47.0281C20.4122 47.088 20.4862 47.1448 20.5628 47.1982C20.6393 47.2516 20.718 47.3018 20.799 47.3482C20.8797 47.3948 20.9625 47.4378 21.0471 47.4771C21.1318 47.5164 21.218 47.5518 21.3057 47.5836C21.3935 47.6154 21.4825 47.643 21.5727 47.6669C21.663 47.6909 21.7542 47.7109 21.8461 47.7268C21.938 47.7427 22.0305 47.7544 22.1234 47.7622C22.2164 47.7701 22.3096 47.7737 22.4029 47.7734C22.4963 47.7732 22.5893 47.7685 22.6823 47.7602C22.7753 47.7516 22.8677 47.7388 22.9594 47.7221C23.0513 47.7055 23.1422 47.6849 23.2323 47.6604C23.3224 47.6357 23.4109 47.607 23.4984 47.5747C23.5859 47.5422 23.6719 47.506 23.7562 47.4661C23.8406 47.426 23.9232 47.3826 24.0036 47.3354C24.0841 47.288 24.1625 47.2375 24.2385 47.1833C24.3146 47.1294 24.388 47.0721 24.4591 47.0115C24.5302 46.951 24.5984 46.8875 24.6638 46.8208C24.7292 46.7544 24.7917 46.6852 24.851 46.613C24.9104 46.5411 24.9667 46.4667 25.0195 46.3898C25.0721 46.3128 25.1216 46.2336 25.1674 46.1523C25.2135 46.0711 25.2557 45.988 25.2943 45.9031C25.3328 45.8182 25.3677 45.7318 25.3987 45.6438C25.4297 45.5557 25.4568 45.4664 25.4799 45.376H31.9867C32.0927 45.376 32.1948 45.3557 32.2927 45.3151C32.3906 45.2745 32.4768 45.2167 32.5518 45.1419L36.3135 41.3802H45.5727C45.6253 41.3802 45.6771 41.375 45.7286 41.3648C45.7799 41.3547 45.8299 41.3393 45.8784 41.3193C45.9271 41.2992 45.9729 41.2747 46.0167 41.2456C46.0602 41.2164 46.1005 41.1831 46.1378 41.1461C46.1747 41.1089 46.2081 41.0685 46.2372 41.025C46.2664 40.9813 46.2909 40.9354 46.3109 40.8867C46.331 40.8383 46.3464 40.7883 46.3565 40.737C46.3667 40.6854 46.3719 40.6336 46.3719 40.581C46.3719 40.5286 46.3667 40.4766 46.3565 40.425C46.3464 40.3737 46.331 40.3237 46.3109 40.2753C46.2909 40.2266 46.2664 40.1807 46.2372 40.137C46.2081 40.0935 46.1747 40.0531 46.1378 40.0159C46.1005 39.9789 46.0602 39.9456 46.0167 39.9164C45.9729 39.8872 45.9271 39.8628 45.8784 39.8427C45.8299 39.8227 45.7799 39.8073 45.7286 39.7971C45.6771 39.787 45.6253 39.7818 45.5727 39.7818ZM22.3969 46.1753C22.3445 46.1753 22.2922 46.1727 22.2401 46.1674C22.188 46.1622 22.1365 46.1547 22.0849 46.1445C22.0336 46.1341 21.9831 46.1216 21.9328 46.1063C21.8828 46.0911 21.8336 46.0734 21.7852 46.0534C21.7367 46.0333 21.6896 46.0112 21.6435 45.9865C21.5971 45.9617 21.5523 45.9349 21.5089 45.9057C21.4654 45.8768 21.4234 45.8456 21.3828 45.8122C21.3424 45.7792 21.3036 45.744 21.2667 45.707C21.2297 45.6701 21.1945 45.6313 21.1612 45.5909C21.1281 45.5503 21.0969 45.5083 21.068 45.4648C21.0388 45.4214 21.012 45.3766 20.9872 45.3302C20.9625 45.2841 20.9401 45.2367 20.92 45.1885C20.9 45.1401 20.8825 45.0909 20.8672 45.0409C20.8521 44.9906 20.8393 44.9401 20.8292 44.8885C20.819 44.8372 20.8112 44.7857 20.8062 44.7336C20.801 44.6815 20.7984 44.6292 20.7984 44.5768C20.7984 44.5245 20.801 44.4721 20.8062 44.4201C20.8112 44.368 20.819 44.3164 20.8292 44.2651C20.8393 44.2135 20.8521 44.163 20.8672 44.1128C20.8825 44.0628 20.9 44.0135 20.92 43.9651C20.9401 43.9169 20.9625 43.8695 20.9872 43.8234C21.012 43.7771 21.0388 43.7323 21.068 43.6888C21.0969 43.6453 21.1281 43.6034 21.1612 43.5628C21.1945 43.5224 21.2297 43.4836 21.2667 43.4466C21.3036 43.4096 21.3424 43.3745 21.3828 43.3414C21.4234 43.3081 21.4654 43.2768 21.5089 43.2479C21.5523 43.2188 21.5971 43.1919 21.6435 43.1672C21.6896 43.1424 21.7367 43.1203 21.7852 43.1003C21.8336 43.0802 21.8828 43.0625 21.9328 43.0474C21.9831 43.032 22.0336 43.0195 22.0849 43.0091C22.1365 42.999 22.188 42.9914 22.2401 42.9862C22.2922 42.981 22.3445 42.9784 22.3969 42.9784C22.4492 42.9784 22.5013 42.981 22.5534 42.9862C22.6055 42.9914 22.6573 42.999 22.7086 43.0091C22.7599 43.0195 22.8107 43.032 22.8607 43.0474C22.9109 43.0625 22.9602 43.0802 23.0086 43.1003C23.0568 43.1203 23.1042 43.1424 23.1503 43.1672C23.1964 43.1919 23.2414 43.2188 23.2849 43.2479C23.3284 43.2768 23.3703 43.3081 23.4107 43.3414C23.4513 43.3745 23.4901 43.4096 23.5271 43.4466C23.5641 43.4836 23.5992 43.5224 23.6323 43.5628C23.6656 43.6034 23.6966 43.6453 23.7258 43.6888C23.7549 43.7323 23.7818 43.7771 23.8065 43.8234C23.831 43.8695 23.8534 43.9169 23.8734 43.9651C23.8935 44.0135 23.9112 44.0628 23.9263 44.1128C23.9414 44.163 23.9542 44.2135 23.9643 44.2651C23.9747 44.3164 23.9823 44.368 23.9875 44.4201C23.9927 44.4721 23.995 44.5245 23.995 44.5768C23.995 44.6292 23.9924 44.6813 23.9872 44.7333C23.982 44.7854 23.9745 44.8372 23.9641 44.8885C23.9539 44.9398 23.9411 44.9906 23.926 45.0406C23.9107 45.0906 23.8932 45.1398 23.8732 45.1883C23.8531 45.2365 23.8307 45.2839 23.806 45.33C23.7812 45.376 23.7544 45.4208 23.7253 45.4643C23.6961 45.5081 23.6651 45.55 23.6318 45.5904C23.5987 45.6307 23.5635 45.6695 23.5266 45.7065C23.4896 45.7435 23.4508 45.7786 23.4104 45.812C23.3698 45.8451 23.3279 45.8763 23.2844 45.9052C23.2409 45.9344 23.1961 45.9612 23.15 45.9859C23.1039 46.0107 23.0565 46.0331 23.0083 46.0531C22.9599 46.0732 22.9107 46.0909 22.8607 46.106C22.8107 46.1211 22.7599 46.1339 22.7086 46.1443C22.6573 46.1544 22.6055 46.1622 22.5534 46.1674C22.5013 46.1724 22.4492 46.175 22.3969 46.1753Z" fill="#356B00"/>
<path d="M45.5727 42.9784H37.581C37.475 42.9786 37.3732 42.9987 37.2753 43.0393C37.1774 43.0799 37.0909 43.1378 37.0159 43.2128L33.8193 46.4094C33.7818 46.4464 33.7479 46.4867 33.7182 46.5302C33.6885 46.574 33.6635 46.6201 33.643 46.6688C33.6224 46.7172 33.607 46.7674 33.5964 46.819C33.5857 46.8708 33.5802 46.9232 33.58 46.9758C33.58 47.0286 33.5849 47.081 33.5948 47.1328C33.605 47.1844 33.6201 47.2349 33.6401 47.2836C33.6602 47.3323 33.6849 47.3789 33.7143 47.4227C33.7435 47.4667 33.7768 47.5073 33.8141 47.5445C33.8513 47.5818 33.8919 47.6151 33.9359 47.6445C33.98 47.6737 34.0263 47.6984 34.075 47.7185C34.124 47.7385 34.1742 47.7536 34.226 47.7638C34.2779 47.774 34.33 47.7789 34.3828 47.7786C34.4357 47.7784 34.4878 47.7729 34.5396 47.7622C34.5912 47.7518 34.6414 47.7362 34.6901 47.7156C34.7385 47.6951 34.7846 47.6701 34.8284 47.6404C34.8721 47.6107 34.9122 47.5771 34.9492 47.5393L37.912 44.5768H45.5727C45.6253 44.5768 45.6771 44.5716 45.7287 44.5615C45.78 44.5513 45.83 44.5362 45.8784 44.5159C45.9271 44.4958 45.9729 44.4714 46.0167 44.4422C46.0602 44.413 46.1005 44.3799 46.1378 44.3427C46.1747 44.3057 46.2081 44.2654 46.2372 44.2216C46.2664 44.1781 46.2909 44.132 46.3109 44.0836C46.331 44.0349 46.3464 43.9852 46.3565 43.9336C46.3667 43.882 46.3719 43.8302 46.3719 43.7776C46.3719 43.7253 46.3667 43.6732 46.3565 43.6219C46.3464 43.5703 46.331 43.5203 46.3109 43.4719C46.2909 43.4234 46.2664 43.3773 46.2372 43.3336C46.2081 43.2901 46.1747 43.2497 46.1378 43.2125C46.1005 43.1755 46.0602 43.1424 46.0167 43.1133C45.9729 43.0841 45.9271 43.0594 45.8784 43.0393C45.83 43.0193 45.78 43.0042 45.7287 42.9938C45.6771 42.9836 45.6253 42.9784 45.5727 42.9784Z" fill="#356B00"/>
<path d="M45.5727 12.6102H36.3135L35.9825 12.2792V5.41771C35.9825 5.3651 35.9776 5.31328 35.9672 5.26172C35.957 5.21042 35.9419 5.16042 35.9219 5.11172C35.9018 5.06328 35.8771 5.01719 35.8479 4.9737C35.8187 4.92995 35.7857 4.88958 35.7487 4.8526C35.7115 4.81536 35.6711 4.78229 35.6276 4.75312C35.5838 4.72396 35.5378 4.69948 35.4893 4.67943C35.4409 4.65937 35.3909 4.64401 35.3393 4.63385C35.288 4.6237 35.2359 4.61849 35.1836 4.61849C35.131 4.61849 35.0792 4.6237 35.0276 4.63385C34.976 4.64401 34.926 4.65937 34.8776 4.67943C34.8292 4.69948 34.7831 4.72396 34.7396 4.75312C34.6958 4.78229 34.6555 4.81536 34.6185 4.8526C34.5812 4.88958 34.5482 4.92995 34.519 4.9737C34.4898 5.01719 34.4654 5.06328 34.445 5.11172C34.425 5.16042 34.4099 5.21042 34.3997 5.26172C34.3893 5.31328 34.3844 5.3651 34.3844 5.41771V12.6102C34.3844 12.7161 34.4047 12.818 34.4453 12.9159C34.4857 13.0138 34.5435 13.1003 34.6185 13.1753L35.4177 13.9742C35.4924 14.0492 35.5789 14.107 35.6768 14.1477C35.7747 14.1883 35.8766 14.2086 35.9825 14.2086H45.5727C45.6253 14.2086 45.6771 14.2034 45.7286 14.1932C45.7799 14.1828 45.8299 14.1677 45.8784 14.1477C45.9271 14.1276 45.9729 14.1029 46.0167 14.0737C46.0602 14.0445 46.1005 14.0115 46.1378 13.9745C46.1747 13.9372 46.2081 13.8969 46.2372 13.8534C46.2664 13.8096 46.2909 13.7635 46.3109 13.7151C46.331 13.6667 46.3463 13.6167 46.3565 13.5654C46.3667 13.5138 46.3719 13.4617 46.3719 13.4094C46.3719 13.3568 46.3667 13.3049 46.3565 13.2534C46.3463 13.2021 46.331 13.1521 46.3109 13.1034C46.2909 13.0549 46.2664 13.0089 46.2372 12.9654C46.2081 12.9216 46.1747 12.8812 46.1378 12.8443C46.1005 12.807 46.0602 12.774 46.0167 12.7448C45.9729 12.7156 45.9271 12.6911 45.8784 12.6711C45.8299 12.651 45.7799 12.6357 45.7286 12.6255C45.6771 12.6154 45.6253 12.6102 45.5727 12.6102Z" fill="#356B00"/>
<path d="M2.4177 10.2128H10.4094C10.4617 10.2128 10.5138 10.2076 10.5654 10.1974C10.6167 10.187 10.6667 10.1719 10.7151 10.1518C10.7635 10.1318 10.8096 10.107 10.8534 10.0779C10.8969 10.0487 10.9372 10.0156 10.9745 9.97864C11.0115 9.9414 11.0445 9.90104 11.0737 9.85755C11.1029 9.8138 11.1276 9.76771 11.1477 9.71927C11.1677 9.67083 11.1828 9.62083 11.1932 9.56953C11.2034 9.51797 11.2086 9.46588 11.2086 9.41354V5.41771C11.2086 5.3651 11.2034 5.31328 11.1932 5.26172C11.1828 5.21042 11.1677 5.16042 11.1477 5.11172C11.1276 5.06328 11.1029 5.01719 11.0737 4.9737C11.0445 4.92995 11.0115 4.88958 10.9745 4.8526C10.9372 4.81536 10.8969 4.78229 10.8534 4.75312C10.8096 4.72396 10.7635 4.69948 10.7151 4.67943C10.6667 4.65937 10.6167 4.64401 10.5654 4.63385C10.5138 4.6237 10.4617 4.61849 10.4094 4.61849C10.3568 4.61849 10.3049 4.6237 10.2534 4.63385C10.2018 4.64401 10.1521 4.65937 10.1034 4.67943C10.0549 4.69948 10.0088 4.72396 9.96536 4.75312C9.92161 4.78229 9.88125 4.81536 9.84427 4.8526C9.80703 4.88958 9.77395 4.92995 9.74479 4.9737C9.71562 5.01719 9.69114 5.06328 9.67109 5.11172C9.65078 5.16042 9.63567 5.21042 9.62552 5.26172C9.61536 5.31328 9.61015 5.3651 9.61015 5.41771V8.61432H2.4177C2.3651 8.61432 2.31328 8.61953 2.26171 8.62969C2.21041 8.63984 2.16041 8.65521 2.11171 8.67526C2.06328 8.69531 2.01718 8.71979 1.97369 8.74896C1.92994 8.77812 1.88958 8.8112 1.8526 8.84844C1.81536 8.88542 1.78229 8.92578 1.75312 8.96953C1.72395 9.01302 1.69947 9.05911 1.67942 9.10755C1.65937 9.15625 1.64401 9.20625 1.63385 9.25755C1.62369 9.30911 1.61848 9.36094 1.61848 9.41354C1.61848 9.46588 1.62369 9.51797 1.63385 9.56953C1.64401 9.62083 1.65937 9.67083 1.67942 9.71927C1.69947 9.76771 1.72395 9.8138 1.75312 9.85755C1.78229 9.90104 1.81536 9.9414 1.8526 9.97864C1.88958 10.0156 1.92994 10.0487 1.97369 10.0779C2.01718 10.107 2.06328 10.1318 2.11171 10.1518C2.16041 10.1719 2.21041 10.187 2.26171 10.1974C2.31328 10.2076 2.3651 10.2128 2.4177 10.2128Z" fill="#356B00"/>
</g>
<defs>
<clipPath id="clip0_8_105">
<rect width="48" height="48" fill="white" transform="translate(0 3)"/>
</clipPath>
</defs>
</svg>
