<svg width="165" height="112" viewBox="0 0 165 112" fill="none" xmlns="http://www.w3.org/2000/svg">
<g clip-path="url(#clip0_26_541)">
<mask id="mask0_26_541" style="mask-type:luminance" maskUnits="userSpaceOnUse" x="58" y="58" width="107" height="54">
<path d="M58.7104 58.7483H164.913V111.891H58.7104V58.7483Z" fill="white"/>
</mask>
<g mask="url(#mask0_26_541)">
<path d="M160.6 111.898L58.8838 103.336L63.1491 58.872L164.865 67.4358L160.6 111.898Z" fill="#7AA500"/>
</g>
<path d="M155.918 107.274L64.3701 99.5645L67.8304 63.4974L159.378 71.2038L155.918 107.274Z" fill="#BEDC8B"/>
<path d="M66.9497 72.6824C67.4355 72.8053 67.9397 72.894 68.4586 72.938C73.22 73.3392 77.4273 70.0488 77.8544 65.5862C77.8955 65.1664 77.9014 64.7514 77.8735 64.3425L67.8304 63.4974L66.9497 72.6824Z" fill="#7AA500"/>
<path d="M65.2508 90.3809C65.7535 90.3397 66.2657 90.3377 66.7861 90.3809C71.5475 90.7808 75.0606 94.7247 74.6327 99.1866C74.5924 99.6057 74.5197 100.015 74.4155 100.411L64.3701 99.5645L65.2508 90.3809Z" fill="#7AA500"/>
<path d="M156.8 98.0886C156.312 97.965 155.81 97.8756 155.29 97.833C150.528 97.4318 146.321 100.724 145.894 105.186C145.853 105.605 145.848 106.02 145.876 106.428L155.918 107.274L156.8 98.0886Z" fill="#7AA500"/>
<path d="M158.498 80.3901C157.997 80.4313 157.483 80.432 156.964 80.3887C152.203 79.9888 148.69 76.0463 149.117 71.5851C149.158 71.1653 149.23 70.7551 149.335 70.3587L159.379 71.2038L158.498 80.3901Z" fill="#7AA500"/>
<path d="M123.42 86.3567C122.791 92.9273 116.595 97.7746 109.582 97.1865C102.569 96.5956 97.3947 90.7897 98.0251 84.2199C98.6563 77.6493 104.852 72.8005 111.864 73.3901C118.878 73.9823 124.052 79.7882 123.42 86.3567Z" fill="#7AA500"/>
<path d="M90.3576 83.5733C90.0127 87.1551 86.6361 89.7976 82.8126 89.4747C78.9905 89.1545 76.1717 85.9884 76.5151 82.408C76.8593 78.827 80.2359 76.1844 84.0565 76.5074C87.88 76.8289 90.7018 79.9922 90.3576 83.5733Z" fill="#7AA500"/>
<path d="M145.893 88.2482C145.55 91.8293 142.172 94.4718 138.348 94.1503C134.526 93.8294 131.708 90.664 132.05 87.0843C132.394 83.5019 135.772 80.86 139.594 81.1816C143.416 81.5038 146.235 84.6672 145.893 88.2482Z" fill="#7AA500"/>
<path d="M115.842 88.6461C115.981 87.1805 115.42 85.9788 114.155 85.0361C113.758 84.7386 112.727 84.2151 111.059 83.4675C110.01 83.001 109.517 82.4774 109.57 81.8927C109.658 80.992 110.365 80.5969 111.687 80.7075C112.49 80.7762 113.292 80.9658 114.091 81.2798C114.768 81.5451 115.112 81.6935 115.128 81.7271C115.225 81.6935 115.305 81.62 115.375 81.5018L116.215 80.0074C116.338 79.7916 116.399 79.6741 116.402 79.6542C116.433 79.3354 115.919 78.9802 114.865 78.5879C114.241 78.3556 113.636 78.1852 113.045 78.0615L113.185 76.5912L110.534 76.3679L110.387 77.898C109.427 78.0093 108.582 78.3281 107.859 78.8654C106.792 79.6556 106.196 80.7103 106.07 82.0253C105.969 83.0773 106.245 83.9931 106.9 84.7675C107.262 85.1962 108.344 85.8352 110.142 86.6892C111.576 87.3585 112.26 88.0139 112.2 88.6522C112.111 89.5935 111.453 90.0106 110.229 89.9075C109.468 89.8436 108.553 89.5585 107.49 89.0521C106.424 88.5464 105.944 88.297 106.044 88.306C105.944 88.297 105.856 88.374 105.779 88.5389L104.963 90.0917C104.862 90.361 104.803 90.4929 104.784 90.4943C104.804 90.8605 105.421 91.2996 106.649 91.8094C107.458 92.1474 108.234 92.3948 108.981 92.5569L108.84 94.0342L111.49 94.2575L111.637 92.739C112.598 92.636 113.43 92.3206 114.131 91.7847C115.145 91.0103 115.716 89.9625 115.842 88.6461Z" fill="#BEDC8B"/>
<path d="M161.475 66.5659L67.153 103.251L48.8853 62.0216L143.205 25.3369L161.475 66.5659Z" fill="#7AA500"/>
<path d="M155.036 64.5075L70.1442 97.5266L55.3228 64.0794L140.216 31.0616L155.036 64.5075Z" fill="#BEDC8B"/>
<path d="M59.0964 72.5965C59.5888 72.4955 60.0783 72.3533 60.5597 72.1664C64.9755 70.45 67.0693 65.7037 65.236 61.5667C65.0643 61.1779 64.8639 60.8068 64.6372 60.4578L55.3228 64.0794L59.0964 72.5965Z" fill="#7AA500"/>
<path d="M66.3687 89.0102C66.7928 88.7546 67.2464 88.5286 67.7285 88.343C72.1436 86.6247 77.2095 88.5863 79.0428 92.7218C79.2145 93.1121 79.3539 93.5072 79.4567 93.9029L70.1445 97.5266L66.3687 89.0102Z" fill="#7AA500"/>
<path d="M151.263 55.9904C150.77 56.0928 150.281 56.2336 149.799 56.4219C145.384 58.1396 143.288 62.8853 145.123 67.0222C145.294 67.4111 145.495 67.78 145.721 68.1305L155.036 64.5075L151.263 55.9904Z" fill="#7AA500"/>
<path d="M143.99 39.578C143.566 39.8336 143.113 40.0576 142.632 40.2459C138.215 41.9636 133.149 40.002 131.318 35.865C131.143 35.4762 131.007 35.0811 130.902 34.6846L140.216 31.0616L143.99 39.578Z" fill="#7AA500"/>
<path d="M115.886 60.1301C118.586 66.2224 115.502 73.2121 109 75.7406C102.498 78.2711 95.036 75.3819 92.3368 69.2882C89.639 63.1958 92.7199 56.2075 99.2242 53.677C105.726 51.1485 113.186 54.0377 115.886 60.1301Z" fill="#7AA500"/>
<path d="M85.2264 72.0537C86.6978 75.3744 85.0172 79.1849 81.4733 80.5646C77.9279 81.9429 73.8622 80.3674 72.3908 77.0467C70.9193 73.7254 72.5999 69.9162 76.1438 68.5379C79.6892 67.1596 83.7549 68.7337 85.2264 72.0537Z" fill="#7AA500"/>
<path d="M136.725 52.0259C138.196 55.3459 136.515 59.1551 132.97 60.5334C129.426 61.9124 125.36 60.3383 123.889 57.0176C122.416 53.6969 124.098 49.887 127.642 48.5087C131.186 47.1298 135.253 48.7039 136.725 52.0259Z" fill="#7AA500"/>
<path d="M110.31 65.4556C109.707 64.0959 108.612 63.2769 107.026 62.9938C106.528 62.9018 105.354 62.8866 103.506 62.9519C102.348 62.9938 101.649 62.7437 101.41 62.2051C101.037 61.3675 101.466 60.7106 102.695 60.2331C103.438 59.9439 104.243 59.7632 105.106 59.6938C105.837 59.6347 106.216 59.6161 106.247 59.6388C106.315 59.5673 106.351 59.467 106.352 59.331L106.358 57.6435C106.358 57.3975 106.355 57.2684 106.347 57.2491C106.216 56.953 105.586 56.8616 104.456 56.9729C103.79 57.0389 103.168 57.1509 102.583 57.2993L101.979 55.9368L99.5222 56.8932L100.148 58.3114C99.3541 58.8287 98.7648 59.478 98.3913 60.2668C97.8394 61.4307 97.8321 62.6249 98.3722 63.8451C98.8059 64.8215 99.5046 65.5106 100.468 65.9119C101.001 66.1338 102.276 66.23 104.292 66.2025C105.893 66.1709 106.826 66.454 107.088 67.0462C107.475 67.9175 107.1 68.5743 105.965 69.0168C105.257 69.2909 104.307 69.4352 103.114 69.449C101.921 69.4641 101.371 69.4531 101.464 69.418C101.371 69.4531 101.333 69.5603 101.346 69.7396L101.392 71.4697C101.436 71.7521 101.451 71.8957 101.432 71.9046C101.634 72.2213 102.397 72.3409 103.738 72.2571C104.621 72.2035 105.433 72.0867 106.173 71.9046L106.78 73.274L109.237 72.3169L108.615 70.9097C109.414 70.3999 109.996 69.7595 110.351 68.9804C110.864 67.8522 110.851 66.6759 110.31 65.4556Z" fill="#BEDC8B"/>
<mask id="mask1_26_541" style="mask-type:luminance" maskUnits="userSpaceOnUse" x="41" y="0" width="106" height="101">
<path d="M41.3394 0.0234985H146.259V100.259H41.3394V0.0234985Z" fill="white"/>
</mask>
<g mask="url(#mask1_26_541)">
<path d="M146.111 30.6638L76 100.235L41.355 69.5877L111.466 0.0178528L146.111 30.6638Z" fill="#7AA500"/>
</g>
<path d="M139.337 31.2472L76.2341 93.8645L48.1294 69.0044L111.232 6.38644L139.337 31.2472Z" fill="#BEDC8B"/>
<path d="M55.2855 75.3331C55.6913 75.0528 56.0759 74.7361 56.4347 74.3808C59.7166 71.1254 59.5596 65.9902 56.0832 62.9155C55.7552 62.6276 55.4117 62.3658 55.0528 62.1329L48.1294 69.0044L55.2855 75.3331Z" fill="#7AA500"/>
<path d="M69.0771 87.533C69.3538 87.1379 69.6687 86.76 70.0268 86.4048C73.3087 83.1467 78.7886 83.001 82.265 86.075C82.5923 86.3636 82.8888 86.6728 83.1574 86.9943L76.234 93.8645L69.0771 87.533Z" fill="#7AA500"/>
<path d="M132.181 24.9171C131.775 25.1988 131.391 25.5134 131.032 25.87C127.75 29.1268 127.907 34.2607 131.383 37.3361C131.71 37.6247 132.055 37.8857 132.414 38.1173L139.337 31.2471L132.181 24.9171Z" fill="#7AA500"/>
<path d="M118.389 12.7172C118.112 13.1123 117.798 13.4923 117.441 13.8461C114.157 17.1029 108.677 17.2513 105.201 14.1766C104.875 13.886 104.577 13.5795 104.309 13.2566L111.232 6.38644L118.389 12.7172Z" fill="#7AA500"/>
<path d="M101.692 42.2281C106.813 46.7574 107.042 54.3167 102.21 59.1125C97.3764 63.909 89.3066 64.1282 84.187 59.5976C79.0682 55.0683 78.8348 47.5104 83.6697 42.7125C88.5037 37.9167 96.5728 37.6996 101.692 42.2281Z" fill="#7AA500"/>
<path d="M78.9019 64.8421C81.6914 67.3114 81.819 71.4319 79.1822 74.0469C76.5483 76.6606 72.1502 76.7781 69.3607 74.3101C66.5697 71.8421 66.4428 67.7216 69.0781 65.108C71.7128 62.4929 76.1109 62.3747 78.9019 64.8421Z" fill="#7AA500"/>
<path d="M117.179 26.8588C119.971 29.3268 120.097 33.4472 117.462 36.0622C114.827 38.6766 110.43 38.7941 107.638 36.3261C104.849 33.8581 104.723 29.7376 107.358 27.1219C109.992 24.5083 114.39 24.3894 117.179 26.8588Z" fill="#7AA500"/>
<path d="M98.9223 49.2226C97.7811 48.2133 96.4241 47.8828 94.8529 48.2318C94.3568 48.339 93.2787 48.7739 91.6201 49.5407C90.5824 50.0217 89.8346 50.0615 89.3796 49.6617C88.6773 49.0385 88.7822 48.2751 89.6952 47.3695C90.2485 46.8206 90.9031 46.3485 91.6612 45.9535C92.3041 45.6202 92.6402 45.4588 92.6791 45.467C92.71 45.3763 92.699 45.2705 92.6417 45.1455L91.91 43.6036C91.8022 43.381 91.7434 43.2622 91.728 43.2484C91.4792 43.0292 90.8643 43.1852 89.8838 43.7184C89.3026 44.0338 88.7852 44.3752 88.3155 44.7346L87.1699 43.7211L85.3433 45.5344L86.5344 46.589C86.0338 47.3641 85.7785 48.1831 85.7829 49.0453C85.7851 50.3206 86.3002 51.4123 87.3255 52.32C88.1452 53.0455 89.0831 53.4069 90.1377 53.4056C90.7204 53.4028 91.9276 53.0043 93.755 52.2066C95.203 51.5656 96.1768 51.4673 96.6751 51.907C97.4083 52.5556 97.351 53.2984 96.5078 54.1359C95.9823 54.6554 95.1787 55.1514 94.0955 55.6228C93.0116 56.0928 92.5045 56.292 92.5749 56.2233C92.5045 56.292 92.517 56.4054 92.6072 56.5627L93.4027 58.1245C93.5664 58.3649 93.642 58.492 93.6317 58.5058C93.9495 58.7174 94.6995 58.5346 95.8877 57.9472C96.67 57.5597 97.3606 57.1419 97.9579 56.6933L99.1087 57.7108L100.935 55.8969L99.7523 54.8498C100.261 54.0796 100.512 53.2723 100.495 52.4258C100.474 51.198 99.9482 50.1309 98.9223 49.2226Z" fill="#BEDC8B"/>
<mask id="mask2_26_541" style="mask-type:luminance" maskUnits="userSpaceOnUse" x="3" y="95" width="62" height="17">
<path d="M3.47559 95.6859H64.9103V111.896H3.47559V95.6859Z" fill="white"/>
</mask>
<g mask="url(#mask2_26_541)">
<path d="M64.8046 101.809V95.7979H3.57764V101.809C3.57764 107.378 17.2843 111.891 34.1915 111.891C51.0972 111.891 64.8046 107.378 64.8046 101.809Z" fill="#F89E19"/>
</g>
<path d="M34.1915 105.436C17.2843 105.436 3.57764 100.923 3.57764 95.3547C3.57764 89.7852 17.2843 85.2718 34.1915 85.2718C51.0972 85.2718 64.8046 89.7852 64.8046 95.3547C64.8046 100.923 51.0972 105.436 34.1915 105.436Z" fill="#F5C116"/>
<path d="M36.0344 99.2903C37.2607 99.2141 38.2603 99.0265 39.0301 98.7269C39.8014 98.4281 40.186 98.0756 40.186 97.6723C40.186 97.3102 39.863 96.9976 39.215 96.7371C38.567 96.4761 37.5095 96.2727 36.0344 96.1332V99.2903ZM32.4721 90.6826C31.5063 90.7891 30.735 90.9725 30.1633 91.2302C29.588 91.4926 29.3018 91.7764 29.3018 92.089C29.3018 92.3769 29.5652 92.6408 30.0885 92.8874C30.6132 93.1306 31.4051 93.3306 32.4721 93.4811V90.6826ZM32.4721 99.1749V95.7855C29.2621 95.4839 26.9093 95.0277 25.4093 94.4148C23.9107 93.8033 23.1621 93.0606 23.1621 92.1873C23.1621 91.3023 24.0083 90.5582 25.7043 89.9577C27.3966 89.3551 29.654 89.0102 32.4721 88.9188V88.117H36.0344V88.9188C38.6367 89.0205 40.7055 89.3139 42.2467 89.7962C43.79 90.2793 44.7712 90.9231 45.1947 91.7345L38.9802 92.0011C38.6044 91.3642 37.6196 90.9334 36.0344 90.7066V93.8699C39.9651 94.2176 42.6445 94.6745 44.066 95.2324C45.4919 95.7903 46.2023 96.5077 46.2023 97.3809C46.2023 98.358 45.3077 99.179 43.5178 99.8476C41.7198 100.517 39.2268 100.926 36.0344 101.079V102.591H32.4721V101.118C29.6371 101.005 27.3357 100.657 25.5685 100.074C23.8006 99.491 22.6711 98.6699 22.1787 97.6084L28.5892 97.3809C28.8541 97.8111 29.3436 98.1835 30.0657 98.4981C30.7835 98.808 31.5871 99.0368 32.4721 99.1749Z" fill="#F89E19"/>
<path d="M61.3457 105.847L61.3384 105.834V100.393C61.7024 100.163 62.0436 99.93 62.3533 99.6923V105.079C62.0473 105.341 61.7156 105.598 61.3457 105.847Z" fill="#E98B1B"/>
<path d="M59.8217 106.751C59.6977 106.721 59.6118 106.674 59.6118 106.62V101.354C59.9685 101.179 60.3039 100.998 60.626 100.817V106.302C60.3699 106.456 60.1013 106.605 59.8217 106.751Z" fill="#E98B1B"/>
<path d="M63.0654 104.406V99.0849C63.4742 98.7049 63.8125 98.3119 64.0804 97.9107V102.88C63.861 103.401 63.5234 103.912 63.0654 104.406Z" fill="#E98B1B"/>
<path d="M58.1441 107.548C57.9929 107.52 57.8828 107.468 57.8828 107.406V102.12C58.2351 101.978 58.5712 101.832 58.8992 101.686V107.21C58.6549 107.325 58.4031 107.439 58.1441 107.548Z" fill="#E98B1B"/>
<path d="M56.2521 108.286C56.1971 108.258 56.1567 108.227 56.1567 108.192V102.753C56.5046 102.637 56.8422 102.515 57.1724 102.393V107.944C56.873 108.06 56.567 108.174 56.2521 108.286Z" fill="#E98B1B"/>
<path d="M54.4307 108.877V103.295C54.7756 103.196 55.1139 103.091 55.4464 102.987V108.561C55.1139 108.67 54.7778 108.776 54.4307 108.877Z" fill="#E98B1B"/>
<path d="M52.7021 109.351V103.764C53.0463 103.677 53.3869 103.589 53.7178 103.5V109.081C53.3861 109.175 53.0471 109.265 52.7021 109.351Z" fill="#E98B1B"/>
<path d="M50.9756 109.767V104.164C51.3205 104.091 51.6566 104.013 51.992 103.933V109.529C51.6566 109.611 51.3205 109.69 50.9756 109.767Z" fill="#E98B1B"/>
<path d="M49.2495 110.118V104.511C49.5915 104.448 49.9298 104.382 50.263 104.314V109.915C49.9298 109.985 49.5915 110.053 49.2495 110.118Z" fill="#E98B1B"/>
<path d="M47.5234 110.422V104.812C47.8654 104.756 48.2015 104.701 48.5369 104.64V110.251C48.203 110.31 47.8625 110.368 47.5234 110.422Z" fill="#E98B1B"/>
<path d="M45.7959 110.682V105.064C46.1364 105.019 46.4747 104.971 46.8094 104.919V110.533C46.4747 110.584 46.1364 110.635 45.7959 110.682Z" fill="#E98B1B"/>
<path d="M22.5887 110.682C22.246 110.635 21.9069 110.584 21.5737 110.533V104.919C21.9069 104.971 22.246 105.019 22.5887 105.064V110.682Z" fill="#E98B1B"/>
<path d="M20.8592 110.422C20.5187 110.368 20.1789 110.31 19.8457 110.251V104.64C20.1811 104.701 20.5179 104.756 20.8592 104.812V110.422Z" fill="#E98B1B"/>
<path d="M19.1324 110.118C18.7904 110.053 18.4521 109.985 18.1182 109.915V104.314C18.4521 104.382 18.7904 104.448 19.1324 104.511V110.118Z" fill="#E98B1B"/>
<path d="M17.4063 109.767C17.0629 109.69 16.7238 109.611 16.3906 109.529V103.933C16.7238 104.013 17.0629 104.091 17.4063 104.164V109.767Z" fill="#E98B1B"/>
<path d="M15.6793 109.351C15.3343 109.265 14.996 109.175 14.6636 109.081V103.5C14.9946 103.589 15.3351 103.677 15.6793 103.764V109.351Z" fill="#E98B1B"/>
<path d="M31.2215 111.395C30.881 111.384 30.5456 111.37 30.208 111.356V105.728C30.5456 105.743 30.881 105.757 31.2215 105.768V111.395Z" fill="#E98B1B"/>
<path d="M29.4952 111.323C29.1547 111.307 28.8171 111.285 28.4795 111.264V105.638C28.8171 105.659 29.1547 105.682 29.4952 105.699V111.323Z" fill="#E98B1B"/>
<path d="M32.95 111.437C32.6102 111.429 32.2704 111.421 31.9351 111.415V105.786C32.2704 105.794 32.6102 105.8 32.95 105.806V111.437Z" fill="#E98B1B"/>
<path d="M34.1917 111.446C34.0141 111.446 33.8373 111.441 33.6626 111.439V105.811C33.8373 105.813 34.0141 105.815 34.1917 105.815C34.3532 105.815 34.5154 105.814 34.6761 105.813V111.439C34.5154 111.441 34.3532 111.446 34.1917 111.446Z" fill="#E98B1B"/>
<path d="M35.3901 111.437V105.806C35.7277 105.802 36.0668 105.796 36.4051 105.788V111.415C36.0668 111.424 35.7277 111.429 35.3901 111.437Z" fill="#E98B1B"/>
<path d="M37.1162 111.396V105.771C37.4575 105.758 37.7936 105.744 38.1312 105.73V111.358C37.7936 111.371 37.4575 111.387 37.1162 111.396Z" fill="#E98B1B"/>
<path d="M38.8438 111.326V105.701C39.1843 105.684 39.5197 105.662 39.8587 105.64V111.267C39.5197 111.288 39.1843 111.309 38.8438 111.326Z" fill="#E98B1B"/>
<path d="M40.5688 111.219V105.594C40.9101 105.572 41.2484 105.546 41.5845 105.518V111.143C41.2506 111.169 40.9101 111.195 40.5688 111.219Z" fill="#E98B1B"/>
<path d="M42.2964 111.079V105.456C42.6369 105.426 42.9774 105.396 43.3121 105.361V110.98C42.9774 111.016 42.6369 111.047 42.2964 111.079Z" fill="#E98B1B"/>
<path d="M44.0234 110.901V105.282C44.364 105.244 44.7037 105.205 45.0391 105.161V110.782C44.7037 110.823 44.364 110.862 44.0234 110.901Z" fill="#E98B1B"/>
<path d="M27.7684 111.217C27.4286 111.192 27.0903 111.168 26.752 111.14V105.516C27.0903 105.542 27.4286 105.568 27.7684 105.592V111.217Z" fill="#E98B1B"/>
<path d="M26.0423 111.075C25.701 111.044 25.3613 111.01 25.0259 110.977V105.355C25.3613 105.39 25.701 105.421 26.0423 105.452V111.075Z" fill="#E98B1B"/>
<path d="M24.3143 110.896C23.9738 110.858 23.6354 110.817 23.2993 110.774V105.157C23.634 105.199 23.9738 105.238 24.3143 105.277V110.896Z" fill="#E98B1B"/>
<path d="M13.9512 108.877C13.6056 108.776 13.2665 108.67 12.9355 108.561V102.987C13.2665 103.091 13.6078 103.196 13.9512 103.295V108.877Z" fill="#E98B1B"/>
<path d="M12.1288 108.286C11.8161 108.174 11.5072 108.06 11.21 107.944V102.393C11.5395 102.515 11.8771 102.637 12.2257 102.753V108.192C12.2257 108.227 12.1846 108.258 12.1288 108.286Z" fill="#E98B1B"/>
<path d="M10.2376 107.548C9.97779 107.439 9.72827 107.325 9.48242 107.21V101.686C9.8112 101.832 10.1466 101.978 10.4981 102.12V107.406C10.4981 107.468 10.388 107.52 10.2376 107.548Z" fill="#E98B1B"/>
<path d="M8.55921 106.751C8.28254 106.605 8.01174 106.456 7.75635 106.302V100.817C8.07779 100.998 8.41317 101.179 8.77131 101.354V106.62C8.77131 106.674 8.68471 106.721 8.55921 106.751Z" fill="#E98B1B"/>
<path d="M7.03643 105.847C6.66582 105.598 6.33484 105.341 6.02881 105.079V99.6923C6.33924 99.93 6.68123 100.163 7.04303 100.393V105.834L7.03643 105.847Z" fill="#E98B1B"/>
<path d="M5.31647 104.406C4.85926 103.912 4.52168 103.403 4.30078 102.88V97.9107C4.56938 98.3119 4.90917 98.7049 5.31647 99.0849V104.406Z" fill="#E98B1B"/>
<path d="M66.0029 93.4165V87.4045H4.77588V93.4165C4.77588 98.9846 18.4818 103.5 35.3897 103.5C52.2962 103.5 66.0029 98.9846 66.0029 93.4165Z" fill="#F89E19"/>
<path d="M35.3897 97.0429C18.4818 97.0429 4.77588 92.5301 4.77588 86.9613C4.77588 81.3939 18.4818 76.8798 35.3897 76.8798C52.2962 76.8798 66.0029 81.3939 66.0029 86.9613C66.0029 92.5301 52.2962 97.0429 35.3897 97.0429Z" fill="#F5C116"/>
<path d="M37.2326 90.8969C38.4582 90.8221 39.457 90.6338 40.2283 90.3349C40.9974 90.036 41.3835 89.6842 41.3835 89.2802C41.3835 88.9188 41.0598 88.6062 40.4118 88.3444C39.7645 88.0833 38.7085 87.8806 37.2326 87.7412V90.8969ZM33.6704 82.2892C32.7046 82.3964 31.9333 82.5798 31.3608 82.8388C30.7877 83.0986 30.5015 83.3844 30.5015 83.6977C30.5015 83.9835 30.7627 84.2501 31.2867 84.494C31.8122 84.7372 32.6033 84.9372 33.6704 85.0883V82.2892ZM33.6704 90.7849V87.3956C30.4611 87.0912 28.1068 86.6357 26.606 86.0221C25.1096 85.4113 24.3596 84.6685 24.3596 83.7939C24.3596 82.9089 25.208 82.1648 26.9018 81.5643C28.5948 80.9638 30.853 80.6168 33.6704 80.5261V79.725H37.2326V80.5261C39.835 80.6271 41.9038 80.9205 43.4471 81.4028C44.9876 81.8852 45.9695 82.5317 46.3929 83.3411L40.1792 83.6097C39.8034 82.9708 38.8186 82.54 37.2326 82.3146V85.4772C41.1626 85.827 43.842 86.2825 45.265 86.8397C46.6902 87.3983 47.4013 88.1143 47.4013 88.9875C47.4013 89.9639 46.503 90.787 44.7146 91.4549C42.9173 92.1241 40.4258 92.5343 37.2326 92.6854V94.1984H33.6704V92.7246C30.8361 92.6133 28.5347 92.2663 26.7645 91.6823C24.9981 91.0976 23.8701 90.2765 23.377 89.2157L29.7881 88.9875C30.0516 89.4197 30.5404 89.7914 31.2625 90.1061C31.9824 90.4167 32.7846 90.6434 33.6704 90.7849Z" fill="#F89E19"/>
<path d="M62.5435 97.4558L62.5361 97.4421V92.0011C62.8994 91.7716 63.2414 91.538 63.5533 91.2989V96.6877C63.2458 96.9474 62.9133 97.2044 62.5435 97.4558Z" fill="#E98B1B"/>
<path d="M61.0202 98.36C60.8962 98.3277 60.8081 98.2831 60.8081 98.2281V92.9616C61.167 92.7857 61.5016 92.6078 61.8253 92.4243V97.91C61.5691 98.0625 61.2991 98.213 61.0202 98.36Z" fill="#E98B1B"/>
<path d="M64.2646 96.013V90.6949C64.672 90.3129 65.0103 89.9199 65.2781 89.5193V94.487C65.0594 95.0078 64.7197 95.5196 64.2646 96.013Z" fill="#E98B1B"/>
<path d="M59.3423 99.1571C59.1904 99.1268 59.0811 99.076 59.0811 99.0135V93.7257C59.4348 93.5841 59.7702 93.4405 60.0982 93.2921V98.8169C59.8524 98.9324 59.6021 99.0457 59.3423 99.1571Z" fill="#E98B1B"/>
<path d="M57.4504 99.8929C57.3961 99.8661 57.3564 99.8345 57.3564 99.7988V94.3612C57.7021 94.2437 58.0412 94.1214 58.3707 93.9991V99.5528C58.0712 99.6682 57.7652 99.7809 57.4504 99.8929Z" fill="#E98B1B"/>
<path d="M55.6284 100.485V94.9026C55.9733 94.803 56.3139 94.7006 56.6441 94.5948V100.168C56.3139 100.277 55.9755 100.383 55.6284 100.485Z" fill="#E98B1B"/>
<path d="M53.9014 100.961V95.3705C54.2441 95.2853 54.5846 95.1974 54.9156 95.1067V100.689C54.5839 100.781 54.2463 100.871 53.9014 100.961Z" fill="#E98B1B"/>
<path d="M52.1729 101.374V95.7725C52.5192 95.6976 52.8539 95.62 53.1907 95.5416V101.138C52.8539 101.218 52.5192 101.297 52.1729 101.374Z" fill="#E98B1B"/>
<path d="M50.4468 101.725V96.1201C50.7873 96.0556 51.1286 95.991 51.4617 95.9216V101.524C51.1286 101.593 50.7873 101.659 50.4468 101.725Z" fill="#E98B1B"/>
<path d="M48.7222 102.03V96.4204C49.062 96.3661 49.3988 96.3077 49.7357 96.25V101.859C49.401 101.919 49.062 101.974 48.7222 102.03Z" fill="#E98B1B"/>
<path d="M46.9932 102.29V96.6719C47.3337 96.6279 47.6735 96.5777 48.0074 96.5262V102.142C47.6735 102.192 47.3337 102.243 46.9932 102.29Z" fill="#E98B1B"/>
<path d="M23.785 102.29C23.4445 102.243 23.1061 102.192 22.7715 102.142V96.5262C23.1061 96.5777 23.4445 96.6279 23.785 96.6719V102.29Z" fill="#E98B1B"/>
<path d="M22.0582 102.03C21.7162 101.974 21.3771 101.919 21.0439 101.859V96.25C21.3801 96.3077 21.7162 96.3661 22.0582 96.4204V102.03Z" fill="#E98B1B"/>
<path d="M20.3314 101.725C19.9894 101.659 19.6496 101.593 19.3164 101.524V95.9216C19.6496 95.991 19.9894 96.0556 20.3314 96.1201V101.725Z" fill="#E98B1B"/>
<path d="M18.6053 101.374C18.2604 101.297 17.9228 101.218 17.5889 101.138V95.5416C17.9228 95.62 18.2604 95.6976 18.6053 95.7725V101.374Z" fill="#E98B1B"/>
<path d="M16.877 100.961C16.5336 100.871 16.1938 100.781 15.8628 100.689V95.1067C16.1923 95.1974 16.5343 95.2853 16.877 95.3705V100.961Z" fill="#E98B1B"/>
<path d="M32.4205 103.004C32.08 102.991 31.7431 102.978 31.4048 102.963V97.3363C31.7431 97.3514 32.08 97.3644 32.4205 97.3768V103.004Z" fill="#E98B1B"/>
<path d="M30.6944 102.932C30.3539 102.915 30.0163 102.893 29.6787 102.871V97.2456C30.0163 97.2676 30.3539 97.2882 30.6944 97.3067V102.932Z" fill="#E98B1B"/>
<path d="M34.1473 103.043C33.8068 103.037 33.4692 103.03 33.1338 103.021V97.3947C33.4692 97.4029 33.8068 97.4098 34.1473 97.4139V103.043Z" fill="#E98B1B"/>
<path d="M35.3897 103.052C35.2114 103.052 35.0367 103.048 34.8599 103.047V97.4187C35.0367 97.4208 35.2114 97.4249 35.3897 97.4249C35.5519 97.4249 35.7126 97.4215 35.8756 97.4208V103.047C35.7126 103.048 35.5519 103.052 35.3897 103.052Z" fill="#E98B1B"/>
<path d="M36.5884 103.043V97.4139C36.9252 97.4098 37.265 97.4036 37.6026 97.3947V103.023C37.265 103.031 36.9252 103.037 36.5884 103.043Z" fill="#E98B1B"/>
<path d="M38.314 103.005V97.3775C38.6552 97.3665 38.9921 97.3514 39.3289 97.3376V102.963C38.9921 102.98 38.6552 102.995 38.314 103.005Z" fill="#E98B1B"/>
<path d="M40.042 102.934V97.3081C40.384 97.2916 40.7179 97.2697 41.0569 97.2484V102.875C40.7179 102.895 40.384 102.917 40.042 102.934Z" fill="#E98B1B"/>
<path d="M41.7681 102.827V97.2044C42.1101 97.1783 42.4462 97.1528 42.7823 97.126V102.751C42.4484 102.779 42.1101 102.804 41.7681 102.827Z" fill="#E98B1B"/>
<path d="M43.4941 102.685V97.0635C43.8354 97.0326 44.1767 97.0037 44.5106 96.9673V102.588C44.1767 102.624 43.8354 102.654 43.4941 102.685Z" fill="#E98B1B"/>
<path d="M45.2212 102.509V96.8897C45.5639 96.8512 45.903 96.8121 46.2369 96.7701V102.388C45.903 102.43 45.5639 102.471 45.2212 102.509Z" fill="#E98B1B"/>
<path d="M28.9656 102.825C28.6266 102.801 28.2875 102.775 27.9507 102.747V97.124C28.2875 97.1501 28.6266 97.1769 28.9656 97.2002V102.825Z" fill="#E98B1B"/>
<path d="M27.2403 102.681C26.899 102.651 26.5615 102.62 26.2246 102.585V96.9639C26.5615 96.9975 26.899 97.0285 27.2403 97.0607V102.681Z" fill="#E98B1B"/>
<path d="M25.5125 102.504C25.1713 102.465 24.8329 102.424 24.4976 102.38V96.7653C24.8329 96.8079 25.1713 96.8464 25.5125 96.8842V102.504Z" fill="#E98B1B"/>
<path d="M15.1505 100.485C14.8041 100.383 14.4657 100.277 14.1348 100.168V94.5948C14.4657 94.7006 14.8055 94.803 15.1505 94.9026V100.485Z" fill="#E98B1B"/>
<path d="M13.329 99.8929C13.0141 99.7809 12.7066 99.6682 12.4087 99.5528V93.9991C12.7375 94.1214 13.0765 94.2437 13.4236 94.3612V99.7988C13.4236 99.8345 13.3826 99.8661 13.329 99.8929Z" fill="#E98B1B"/>
<path d="M11.4361 99.1571C11.1755 99.0457 10.926 98.9324 10.6802 98.8169V93.2921C11.0082 93.4405 11.3458 93.5841 11.6973 93.7257V99.0135C11.6973 99.076 11.588 99.1268 11.4361 99.1571Z" fill="#E98B1B"/>
<path d="M9.75746 98.36C9.47931 98.213 9.20925 98.0625 8.95459 97.91V92.4243C9.27676 92.6078 9.61215 92.7857 9.96808 92.9616V98.2281C9.96808 98.2831 9.88222 98.3277 9.75746 98.36Z" fill="#E98B1B"/>
<path d="M8.23492 97.4558C7.86504 97.2044 7.53186 96.9474 7.22656 96.6877V91.2989C7.53699 91.538 7.87898 91.7716 8.24299 92.0011V97.4421L8.23492 97.4558Z" fill="#E98B1B"/>
<path d="M6.51545 96.013C6.0575 95.5196 5.71918 95.0105 5.50049 94.487V89.8292C5.63772 89.9124 5.77936 89.9962 5.92394 90.0779C6.10154 90.2854 6.29895 90.4923 6.51545 90.6949V96.013Z" fill="#E98B1B"/>
<path d="M63.0339 85.0244V79.0118H1.80762V85.0244C1.80762 90.5946 15.5143 95.1067 32.4207 95.1067C49.3264 95.1067 63.0339 90.5946 63.0339 85.0244Z" fill="#F89E19"/>
<path d="M32.4207 88.6516C15.5143 88.6516 1.80762 84.1367 1.80762 78.5686C1.80762 73.0005 15.5143 68.4864 32.4207 68.4864C49.3264 68.4864 63.0339 73.0005 63.0339 78.5686C63.0339 84.1367 49.3264 88.6516 32.4207 88.6516Z" fill="#F5C116"/>
<path d="M34.2636 82.5056C35.49 82.4286 36.4895 82.2431 37.2608 81.9422C38.0292 81.644 38.413 81.2908 38.413 80.8868C38.413 80.5261 38.0916 80.2142 37.4443 79.9531C36.7963 79.692 35.7395 79.4879 34.2636 79.3491V82.5056ZM30.7014 73.8971C29.7349 74.005 28.9643 74.1878 28.3926 74.4461C27.8194 74.7058 27.5317 74.9916 27.5317 75.3043C27.5317 75.5922 27.7945 75.8567 28.3185 76.1006C28.8425 76.3473 29.635 76.5458 30.7014 76.6963V73.8971ZM30.7014 82.3915V79.0022C27.4914 78.6991 25.1386 78.2443 23.6385 77.6307C22.1407 77.0179 21.3914 76.2758 21.3914 75.4018C21.3914 74.5176 22.2383 73.7735 23.9343 73.1709C25.6273 72.5717 27.8847 72.2248 30.7014 72.1334V71.3322H34.2636V72.1334C36.8667 72.2358 38.9355 72.5278 40.4774 73.0108C42.0193 73.4931 43.0005 74.1383 43.4247 74.9484L37.2109 75.2163C36.8337 74.578 35.8503 74.1465 34.2636 73.9219V77.0852C38.1943 77.4342 40.8737 77.8891 42.2967 78.4463C43.7212 79.0063 44.433 79.7208 44.433 80.5948C44.433 81.5725 43.537 82.3936 41.747 83.0621C39.9505 83.7307 37.4575 84.1408 34.2636 84.2934V85.805H30.7014V84.3346C27.8686 84.2199 25.5664 83.8736 23.797 83.2895C22.0284 82.7076 20.9004 81.8845 20.4087 80.8215L26.8199 80.5948C27.0833 81.027 27.5728 81.3973 28.2935 81.712C29.0134 82.0239 29.817 82.25 30.7014 82.3915Z" fill="#F89E19"/>
<path d="M59.5752 89.0625L59.5679 89.0508V83.6098C59.9311 83.3782 60.2731 83.1446 60.5836 82.9062V88.2957C60.2783 88.5554 59.9451 88.813 59.5752 89.0625Z" fill="#E98B1B"/>
<path d="M58.0514 89.968C57.9274 89.9357 57.8394 89.8897 57.8394 89.8368V84.5682C58.1982 84.3937 58.5329 84.2144 58.8565 84.0316V89.5166C58.6004 89.6698 58.3289 89.8203 58.0514 89.968Z" fill="#E98B1B"/>
<path d="M61.2959 87.6196V82.3015C61.7039 81.9182 62.0423 81.5272 62.3094 81.1273V86.0949C62.0892 86.6171 61.7524 87.1276 61.2959 87.6196Z" fill="#E98B1B"/>
<path d="M56.3733 90.7637C56.2221 90.7348 56.1128 90.6826 56.1128 90.6214V85.3329C56.4643 85.1914 56.8019 85.0471 57.1285 84.8987V90.4263C56.8841 90.5403 56.6331 90.6537 56.3733 90.7637Z" fill="#E98B1B"/>
<path d="M54.4819 91.4995C54.4261 91.4727 54.3857 91.4418 54.3857 91.4075V85.9685C54.7351 85.8503 55.0719 85.7308 55.4014 85.6078V91.1601C55.1035 91.2762 54.7945 91.3903 54.4819 91.4995Z" fill="#E98B1B"/>
<path d="M52.6597 92.0932V86.5113C53.0046 86.4117 53.3429 86.3072 53.6754 86.2014V91.7764C53.3429 91.8857 53.0053 91.9908 52.6597 92.0932Z" fill="#E98B1B"/>
<path d="M50.9326 92.5672V86.9792C51.2753 86.8933 51.6166 86.806 51.9476 86.7147V92.2958C51.6144 92.3893 51.2761 92.4779 50.9326 92.5672Z" fill="#E98B1B"/>
<path d="M49.2051 92.9816V87.3805C49.5493 87.3063 49.8854 87.2279 50.22 87.1496V92.7445C49.8854 92.8263 49.5493 92.9053 49.2051 92.9816Z" fill="#E98B1B"/>
<path d="M47.4785 93.3313V87.7274C47.819 87.6628 48.1596 87.5976 48.4927 87.5295V93.1306C48.1596 93.2007 47.819 93.2694 47.4785 93.3313Z" fill="#E98B1B"/>
<path d="M45.7515 93.6391V88.029C46.0942 87.9727 46.4303 87.9143 46.7672 87.8566V93.4666C46.434 93.5257 46.092 93.5841 45.7515 93.6391Z" fill="#E98B1B"/>
<path d="M44.0234 93.8967V88.2798C44.3654 88.2345 44.7037 88.1843 45.0391 88.1349V93.7497C44.7037 93.8005 44.3654 93.8493 44.0234 93.8967Z" fill="#E98B1B"/>
<path d="M20.8182 93.8967C20.4769 93.8493 20.1364 93.8005 19.8032 93.7497V88.1349C20.1364 88.1843 20.4769 88.2345 20.8182 88.2798V93.8967Z" fill="#E98B1B"/>
<path d="M19.0899 93.6391C18.7494 93.5841 18.4081 93.5257 18.0742 93.4666V87.8566C18.4096 87.9143 18.7479 87.9727 19.0899 88.029V93.6391Z" fill="#E98B1B"/>
<path d="M17.3631 93.3313C17.0196 93.2694 16.6828 93.2007 16.3481 93.1306V87.5295C16.6828 87.5976 17.0196 87.6628 17.3631 87.7274V93.3313Z" fill="#E98B1B"/>
<path d="M15.6353 92.9816C15.2904 92.9053 14.9528 92.8263 14.6211 92.7445V87.1496C14.9528 87.2279 15.2904 87.3063 15.6353 87.3805V92.9816Z" fill="#E98B1B"/>
<path d="M13.9092 92.5672C13.5643 92.4779 13.226 92.3893 12.8936 92.2958V86.7147C13.2253 86.806 13.5658 86.8933 13.9092 86.9792V92.5672Z" fill="#E98B1B"/>
<path d="M29.4515 94.6113C29.111 94.6003 28.7748 94.5852 28.4365 94.5708V88.9442C28.7748 88.958 29.111 88.9724 29.4515 88.9841V94.6113Z" fill="#E98B1B"/>
<path d="M27.7261 94.5392C27.3842 94.5227 27.048 94.5014 26.7104 94.4801V88.8529C27.048 88.8742 27.3842 88.8948 27.7261 88.914V94.5392Z" fill="#E98B1B"/>
<path d="M31.179 94.6498C30.8392 94.6464 30.5016 94.6367 30.1655 94.6299V89.0013C30.5016 89.0102 30.8392 89.0164 31.179 89.0212V94.6498Z" fill="#E98B1B"/>
<path d="M32.4207 94.6594C32.2439 94.6594 32.067 94.656 31.8916 94.656V89.0253C32.067 89.0274 32.2439 89.0322 32.4207 89.0322C32.5837 89.0322 32.7444 89.0295 32.9058 89.0274V94.656C32.7444 94.656 32.5837 94.6594 32.4207 94.6594Z" fill="#E98B1B"/>
<path d="M33.6191 94.6498V89.0212C33.9582 89.0184 34.295 89.0123 34.6341 89.0033V94.6298C34.295 94.6388 33.9582 94.6463 33.6191 94.6498Z" fill="#E98B1B"/>
<path d="M35.3452 94.6113V88.9841C35.685 88.9731 36.0233 88.96 36.3609 88.9463V94.5721C36.0233 94.5866 35.685 94.6024 35.3452 94.6113Z" fill="#E98B1B"/>
<path d="M37.0718 94.5412V88.9154C37.413 88.8989 37.7491 88.8769 38.0867 88.857V94.4821C37.7491 94.5021 37.413 94.5254 37.0718 94.5412Z" fill="#E98B1B"/>
<path d="M38.7983 94.4354V88.8109C39.1403 88.7869 39.4786 88.7608 39.814 88.7333V94.3578C39.4808 94.3859 39.1403 94.4114 38.7983 94.4354Z" fill="#E98B1B"/>
<path d="M40.5259 94.2946V88.6715C40.8664 88.6406 41.2069 88.6103 41.5408 88.576V94.1956C41.2069 94.2314 40.8664 94.2637 40.5259 94.2946Z" fill="#E98B1B"/>
<path d="M42.2524 94.1173V88.4983C42.5937 88.4578 42.9327 88.42 43.2681 88.3781V93.9957C42.9327 94.039 42.5937 94.0781 42.2524 94.1173Z" fill="#E98B1B"/>
<path d="M25.9976 94.432C25.6578 94.4072 25.3195 94.3839 24.9819 94.3536V88.7306C25.3195 88.758 25.6578 88.7835 25.9976 88.8075V94.432Z" fill="#E98B1B"/>
<path d="M24.2708 94.2898C23.931 94.2595 23.5912 94.2279 23.2559 94.1915V88.5712C23.5912 88.6062 23.931 88.6364 24.2708 88.6674V94.2898Z" fill="#E98B1B"/>
<path d="M22.5435 94.1111C22.203 94.072 21.8647 94.0314 21.5293 93.9902V88.3719C21.8625 88.4145 22.203 88.4551 22.5435 88.4928V94.1111Z" fill="#E98B1B"/>
<path d="M12.1817 92.0932C11.8346 91.9908 11.497 91.8857 11.166 91.7764V86.2014C11.497 86.3072 11.8368 86.4117 12.1817 86.5113V92.0932Z" fill="#E98B1B"/>
<path d="M10.3602 91.4995C10.0439 91.3903 9.73643 91.2762 9.43994 91.1601V85.6078C9.77019 85.7308 10.1063 85.8503 10.4542 85.9685V91.4075C10.4542 91.4418 10.4138 91.4727 10.3602 91.4995Z" fill="#E98B1B"/>
<path d="M8.46659 90.7637C8.20532 90.6537 7.95801 90.5403 7.71289 90.4263V84.8987C8.03947 85.0471 8.37559 85.1914 8.72858 85.3329V90.6214C8.72858 90.6826 8.61777 90.7348 8.46659 90.7637Z" fill="#E98B1B"/>
<path d="M6.78895 89.968C6.51081 89.8203 6.24074 89.6698 5.98535 89.5166V84.0316C6.30826 84.2144 6.64144 84.3937 7.00031 84.5682V89.8368C7.00031 89.8897 6.91371 89.9357 6.78895 89.968Z" fill="#E98B1B"/>
<path d="M5.26543 89.0625C4.89629 88.813 4.56311 88.5554 4.25781 88.2957V82.9062C4.56824 83.1446 4.91023 83.3782 5.2735 83.6098V89.0508L5.26543 89.0625Z" fill="#E98B1B"/>
<path d="M3.54523 87.6196C3.09096 87.1276 2.75117 86.6171 2.53174 86.0949V81.1273C2.79814 81.5272 3.13939 81.9182 3.54523 82.3015V87.6196Z" fill="#E98B1B"/>
<mask id="mask3_26_541" style="mask-type:luminance" maskUnits="userSpaceOnUse" x="5" y="68" width="63" height="17">
<path d="M5.91797 68.4225H67.2352V84.7805H5.91797V68.4225Z" fill="white"/>
</mask>
<g mask="url(#mask3_26_541)">
<path d="M67.2006 74.5588V68.5482H5.9751V74.5588C5.9751 80.129 19.6811 84.6424 36.5882 84.6424C53.4939 84.6424 67.2006 80.129 67.2006 74.5588Z" fill="#F89E19"/>
</g>
<mask id="mask4_26_541" style="mask-type:luminance" maskUnits="userSpaceOnUse" x="5" y="57" width="63" height="22">
<path d="M5.91797 57.8689H67.2352V78.2725H5.91797V57.8689Z" fill="white"/>
</mask>
<g mask="url(#mask4_26_541)">
<path d="M36.5882 78.1866C19.6811 78.1866 5.9751 73.6711 5.9751 68.105C5.9751 62.5348 19.6811 58.0228 36.5882 58.0228C53.4939 58.0228 67.2006 62.5348 67.2006 68.105C67.2006 73.6711 53.4939 78.1866 36.5882 78.1866Z" fill="#F5C116"/>
</g>
<path d="M38.4311 72.0413C39.6567 71.9644 40.657 71.7775 41.4283 71.4779C42.1967 71.1783 42.5812 70.8252 42.5812 70.4219C42.5812 70.0612 42.2598 69.7492 41.6103 69.4874C40.9637 69.227 39.907 69.0237 38.4311 68.8842V72.0413ZM34.8674 63.4335C33.9031 63.5394 33.1318 63.7228 32.5601 63.9805C31.9862 64.2422 31.6992 64.5281 31.6992 64.84C31.6992 65.1265 31.9605 65.391 32.4845 65.637C33.0099 65.8816 33.8025 66.0809 34.8674 66.2307V63.4335ZM34.8674 71.9273V68.5365C31.6574 68.2335 29.306 67.7787 27.8038 67.1658C26.3081 66.5543 25.5581 65.8115 25.5581 64.9383C25.5581 64.0519 26.4072 63.3092 28.101 62.7073C29.7948 62.1061 32.0508 61.7598 34.8674 61.6691V60.8666H38.4311V61.6691C41.0342 61.7715 43.103 62.0649 44.6449 62.5472C46.186 63.0282 47.1687 63.674 47.5922 64.4848L41.3791 64.7507C41.0019 64.1131 40.0178 63.6843 38.4311 63.4576V66.6202C42.3618 66.9686 45.0397 67.4255 46.4634 67.9827C47.8879 68.5413 48.5998 69.258 48.5998 70.1305C48.5998 71.1076 47.7022 71.928 45.913 72.5965C44.1172 73.2685 41.6235 73.6766 38.4311 73.8298V75.3414H34.8674V73.8697C32.0346 73.7556 29.7332 73.4079 27.9638 72.8253C26.1966 72.2426 25.0679 71.4209 24.5762 70.3573L30.9859 70.1305C31.2494 70.5613 31.7389 70.9344 32.461 71.2471C33.1802 71.5583 33.9838 71.7878 34.8674 71.9273Z" fill="#F89E19"/>
<path d="M63.7429 78.5981L63.7334 78.5851V73.1441C64.0974 72.9132 64.4401 72.681 64.7498 72.4426V77.83C64.4438 78.0918 64.1113 78.348 63.7429 78.5981Z" fill="#E98B1B"/>
<path d="M62.2187 79.503C62.0954 79.4714 62.0073 79.4247 62.0073 79.3711V74.1033C62.3655 73.9301 62.7008 73.7487 63.0237 73.568V79.0523C62.7684 79.2042 62.4983 79.356 62.2187 79.503Z" fill="#E98B1B"/>
<path d="M65.4624 77.1553V71.8359C65.8704 71.4539 66.2095 71.0615 66.4759 70.6617V75.6306C66.2572 76.1528 65.9189 76.6619 65.4624 77.1553Z" fill="#E98B1B"/>
<path d="M60.5415 80.3001C60.3896 80.2712 60.2803 80.219 60.2803 80.1571V74.8707C60.6318 74.7258 60.9679 74.5815 61.2967 74.4351V79.9613C61.0501 80.0754 60.7999 80.1888 60.5415 80.3001Z" fill="#E98B1B"/>
<path d="M58.6481 81.0352C58.5924 81.0091 58.5542 80.9782 58.5542 80.9418V75.5042C58.9013 75.3867 59.2389 75.2665 59.5684 75.1421V80.6951C59.269 80.8106 58.9637 80.9246 58.6481 81.0352Z" fill="#E98B1B"/>
<path d="M56.8281 81.6275V76.0456C57.1723 75.9474 57.5114 75.8416 57.8431 75.7365V81.3121C57.5114 81.42 57.1723 81.5251 56.8281 81.6275Z" fill="#E98B1B"/>
<path d="M55.0991 82.1016V76.5149C55.4426 76.4276 55.7824 76.3404 56.1133 76.2497V81.8322C55.7816 81.9257 55.4448 82.0136 55.0991 82.1016Z" fill="#E98B1B"/>
<path d="M53.3706 82.5166V76.9155C53.7155 76.8413 54.0524 76.7629 54.3878 76.6839V82.2802C54.0524 82.3606 53.7155 82.4417 53.3706 82.5166Z" fill="#E98B1B"/>
<path d="M51.6445 82.8677V77.2639C51.9873 77.1972 52.3263 77.1333 52.6595 77.066V82.6671C52.3263 82.7372 51.9873 82.8038 51.6445 82.8677Z" fill="#E98B1B"/>
<path d="M49.9185 83.1735V77.5641C50.2604 77.5071 50.5973 77.45 50.9334 77.391V83.0031C50.6002 83.0615 50.2582 83.1185 49.9185 83.1735Z" fill="#E98B1B"/>
<path d="M48.1909 83.4332V77.8142C48.5322 77.7688 48.8698 77.7214 49.2066 77.6706V83.2847C48.8698 83.3349 48.5322 83.3844 48.1909 83.4332Z" fill="#E98B1B"/>
<path d="M24.9844 83.4332C24.6425 83.3844 24.3049 83.3349 23.9673 83.2847V77.6706C24.3049 77.7214 24.6425 77.7688 24.9844 77.8142V83.4332Z" fill="#E98B1B"/>
<path d="M23.2559 83.1735C22.9154 83.1185 22.5756 83.0615 22.2417 83.0031V77.391C22.5793 77.45 22.9139 77.5071 23.2559 77.5641V83.1735Z" fill="#E98B1B"/>
<path d="M21.5299 82.8677C21.1864 82.8038 20.8495 82.7372 20.5142 82.6671V77.066C20.8495 77.1333 21.1864 77.1972 21.5299 77.2639V82.8677Z" fill="#E98B1B"/>
<path d="M19.8033 82.5166C19.4591 82.4417 19.1208 82.3606 18.7876 82.2802V76.6839C19.1208 76.7629 19.4591 76.8413 19.8033 76.9155V82.5166Z" fill="#E98B1B"/>
<path d="M18.076 82.1016C17.7311 82.0136 17.392 81.9257 17.061 81.8322V76.2497C17.3913 76.3404 17.7318 76.4276 18.076 76.5149V82.1016Z" fill="#E98B1B"/>
<path d="M33.6192 84.147C33.278 84.1347 32.9426 84.1209 32.6035 84.1072V78.4807C32.9426 78.4937 33.278 78.5074 33.6192 78.5198V84.147Z" fill="#E98B1B"/>
<path d="M31.8914 84.0735C31.5516 84.0577 31.2126 84.0364 30.8779 84.0144V78.3907C31.2126 78.4092 31.5516 78.4326 31.8914 78.4504V84.0735Z" fill="#E98B1B"/>
<path d="M35.3465 84.1862C35.0052 84.1814 34.6684 84.1731 34.3315 84.1642V78.5377C34.6684 78.5446 35.0052 78.5507 35.3465 78.5569V84.1862Z" fill="#E98B1B"/>
<path d="M36.5882 84.1958C36.4099 84.1958 36.2352 84.1924 36.0576 84.1903V78.5617C36.2352 78.5638 36.4099 78.5665 36.5882 78.5665C36.7504 78.5665 36.9111 78.5652 37.0718 78.5638V84.1903C36.9111 84.1924 36.7504 84.1958 36.5882 84.1958Z" fill="#E98B1B"/>
<path d="M37.7866 84.1862V78.5569C38.1249 78.5528 38.4618 78.5466 38.8016 78.5397V84.1663C38.4618 84.1738 38.1249 84.1814 37.7866 84.1862Z" fill="#E98B1B"/>
<path d="M39.5112 84.147V78.5205C39.8532 78.5095 40.1901 78.4958 40.5262 78.4807V84.1079C40.1901 84.1209 39.8532 84.1367 39.5112 84.147Z" fill="#E98B1B"/>
<path d="M41.2397 84.0756V78.4504C41.5803 78.4346 41.9171 78.4126 42.2547 78.3913V84.0165C41.9171 84.0385 41.5803 84.0604 41.2397 84.0756Z" fill="#E98B1B"/>
<path d="M42.9673 83.9698V78.346C43.3063 78.3219 43.6439 78.2958 43.9815 78.269V83.8935C43.6461 83.9203 43.3063 83.9457 42.9673 83.9698Z" fill="#E98B1B"/>
<path d="M44.6929 83.8303V78.2072C45.0327 78.177 45.3754 78.146 45.7086 78.1117V83.7307C45.3754 83.7657 45.0327 83.798 44.6929 83.8303Z" fill="#E98B1B"/>
<path d="M46.4209 83.653V78.0334C46.7614 77.9935 47.1005 77.9551 47.4344 77.9131V83.5314C47.1005 83.5733 46.7614 83.6125 46.4209 83.653Z" fill="#E98B1B"/>
<path d="M30.1656 83.9677C29.8258 83.9416 29.486 83.9182 29.1499 83.8901V78.2663C29.486 78.2931 29.8258 78.3185 30.1656 78.3426V83.9677Z" fill="#E98B1B"/>
<path d="M28.4395 83.8255C28.0975 83.7939 27.7577 83.7629 27.4238 83.7279V78.1069C27.7577 78.1419 28.0975 78.1721 28.4395 78.2031V83.8255Z" fill="#E98B1B"/>
<path d="M26.7103 83.6468C26.369 83.6097 26.0322 83.5678 25.6953 83.5245V77.9083C26.0322 77.9502 26.369 77.9894 26.7103 78.0286V83.6468Z" fill="#E98B1B"/>
<path d="M16.3477 81.6275C16.0028 81.5251 15.663 81.42 15.3335 81.3121V75.7365C15.663 75.8416 16.0028 75.9474 16.3477 76.0456V81.6275Z" fill="#E98B1B"/>
<path d="M14.5262 81.0352C14.2114 80.9246 13.9061 80.8106 13.6074 80.6951V75.1421C13.9362 75.2665 14.2745 75.3867 14.6209 75.5042V80.9418C14.6209 80.9782 14.5813 81.0091 14.5262 81.0352Z" fill="#E98B1B"/>
<path d="M12.6346 80.3001C12.374 80.1888 12.1245 80.0754 11.8794 79.9613V74.4351C12.206 74.5815 12.545 74.7258 12.8936 74.8707V80.1571C12.8936 80.219 12.7857 80.2712 12.6346 80.3001Z" fill="#E98B1B"/>
<path d="M10.9559 79.503C10.6771 79.356 10.407 79.2042 10.1523 79.0523V73.568C10.4745 73.7487 10.8114 73.9301 11.168 74.1033V79.3711C11.168 79.4247 11.0807 79.4714 10.9559 79.503Z" fill="#E98B1B"/>
<path d="M9.43243 78.5981C9.06255 78.348 8.7301 78.0918 8.42334 77.83V72.4426C8.73377 72.681 9.07723 72.9132 9.44197 73.1441V78.5851L9.43243 78.5981Z" fill="#E98B1B"/>
<path d="M7.71369 77.1553C7.25648 76.6619 6.91743 76.1528 6.69727 75.6306V71.7081C7.02604 71.8448 7.36436 71.9781 7.71369 72.1073V77.1553Z" fill="#E98B1B"/>
<mask id="mask5_26_541" style="mask-type:luminance" maskUnits="userSpaceOnUse" x="0" y="59" width="62" height="17">
<path d="M0.0234375 59.276H61.3407V75.6341H0.0234375V59.276Z" fill="white"/>
</mask>
<g mask="url(#mask5_26_541)">
<path d="M61.2863 65.4385V59.4265H0.0585938V65.4385C0.0585938 71.008 13.7646 75.52 30.6717 75.52C47.5803 75.52 61.2863 71.008 61.2863 65.4385Z" fill="#F89E19"/>
</g>
<mask id="mask6_26_541" style="mask-type:luminance" maskUnits="userSpaceOnUse" x="0" y="48" width="62" height="22">
<path d="M0.0234375 48.8983H61.3407V69.126H0.0234375V48.8983Z" fill="white"/>
</mask>
<g mask="url(#mask6_26_541)">
<path d="M30.6717 69.0649C13.7646 69.0649 0.0585938 64.5521 0.0585938 58.984C0.0585938 53.4132 13.7646 48.9004 30.6717 48.9004C47.5803 48.9004 61.2863 53.4132 61.2863 58.984C61.2863 64.5521 47.5803 69.0649 30.6717 69.0649Z" fill="#F5C116"/>
</g>
<path d="M32.5161 62.9203C33.7417 62.8426 34.7412 62.6551 35.5125 62.3569C36.2794 62.0566 36.6662 61.7042 36.6662 61.3008C36.6662 60.9401 36.3425 60.6282 35.696 60.3657C35.0472 60.1046 33.9919 59.9026 32.5161 59.7631V62.9203ZM28.9524 54.3111C27.9858 54.4183 27.2167 54.6011 26.645 54.8587C26.0704 55.1205 25.7842 55.405 25.7842 55.719C25.7842 56.0055 26.0462 56.2693 26.5694 56.516C27.0934 56.7592 27.8868 56.9592 28.9524 57.1096V54.3111ZM28.9524 62.8049V59.4155C25.7424 59.1132 23.3903 58.6569 21.8902 58.0447C20.3931 57.4339 19.6423 56.6884 19.6423 55.8172C19.6423 54.9295 20.49 54.1882 22.1845 53.5863C23.8783 52.9837 26.1357 52.6388 28.9524 52.5467V51.7469H32.5161V52.5467C35.117 52.6491 37.1872 52.9425 38.7284 53.4248C40.2717 53.9085 41.2529 54.5516 41.6757 55.3638L35.4619 55.6283C35.0847 54.9941 34.1005 54.5619 32.5161 54.3352V57.4985C36.4453 57.8469 39.1262 58.3045 40.5477 58.8617C41.9729 59.4203 42.6855 60.1369 42.6855 61.0081C42.6855 61.9859 41.7872 62.809 39.9973 63.4775C38.2007 64.146 35.7077 64.5555 32.5161 64.7074V66.2203H28.9524V64.7479C26.1196 64.6332 23.8167 64.2869 22.0487 63.7043C20.2808 63.1209 19.1528 62.2985 18.6597 61.2356L25.0709 61.0081C25.3343 61.4403 25.8238 61.812 26.5452 62.1274C27.2652 62.4366 28.0673 62.6654 28.9524 62.8049Z" fill="#F89E19"/>
<path d="M57.8269 69.4757L57.8188 69.4634V64.0231C58.1821 63.7922 58.5241 63.56 58.8338 63.3209V68.7076C58.5285 68.9707 58.1961 69.227 57.8269 69.4757Z" fill="#E98B1B"/>
<path d="M56.3032 70.3813C56.1784 70.3497 56.0918 70.3037 56.0918 70.2494V64.9816C56.4485 64.8077 56.7838 64.6277 57.1053 64.4449V69.932C56.8514 70.0845 56.5806 70.2336 56.3032 70.3813Z" fill="#E98B1B"/>
<path d="M59.5474 68.0349V62.7149C59.7477 62.5273 59.9319 62.3363 60.0992 62.1439C60.26 62.0319 60.4141 61.9185 60.5623 61.8045V66.5089C60.3422 67.0304 60.0031 67.5416 59.5474 68.0349Z" fill="#E98B1B"/>
<path d="M54.6243 71.1783C54.4731 71.1481 54.3652 71.0979 54.3652 71.0354V65.7483C54.7153 65.6061 55.0529 65.4618 55.3809 65.3141V70.8389C55.1358 70.9543 54.8848 71.0677 54.6243 71.1783Z" fill="#E98B1B"/>
<path d="M52.7336 71.9149C52.6778 71.8867 52.6367 71.8558 52.6367 71.8215V66.3818C52.986 66.2657 53.3222 66.1434 53.6524 66.0218V71.5741C53.3545 71.6902 53.047 71.8036 52.7336 71.9149Z" fill="#E98B1B"/>
<path d="M50.9106 72.5065V66.9239C51.2556 66.825 51.5946 66.724 51.9263 66.6168V72.1904C51.5946 72.299 51.257 72.4041 50.9106 72.5065Z" fill="#E98B1B"/>
<path d="M49.1841 72.9806V67.3925C49.5283 67.3053 49.8673 67.2187 50.1998 67.1287V72.7112C49.8666 72.8033 49.529 72.8926 49.1841 72.9806Z" fill="#E98B1B"/>
<path d="M47.4556 73.3956V67.7945C47.8005 67.7203 48.1373 67.6419 48.4735 67.5636V73.1592C48.1373 73.2396 47.8005 73.3186 47.4556 73.3956Z" fill="#E98B1B"/>
<path d="M45.731 73.7473V68.1414C46.0715 68.0768 46.4091 68.0123 46.7452 67.9435V73.5453C46.4091 73.614 46.0715 73.6814 45.731 73.7473Z" fill="#E98B1B"/>
<path d="M44.0044 74.0524V68.4424C44.3456 68.386 44.681 68.3311 45.0179 68.2706V73.8806C44.6832 73.9404 44.3427 73.9974 44.0044 74.0524Z" fill="#E98B1B"/>
<path d="M42.2759 74.3121V68.6938C42.6164 68.6485 42.9562 68.5997 43.2894 68.5482V74.1617C42.9562 74.2139 42.6164 74.264 42.2759 74.3121Z" fill="#E98B1B"/>
<path d="M19.0694 74.3121C18.7252 74.264 18.3884 74.2139 18.0537 74.1617V68.5482C18.3884 68.5997 18.7252 68.6485 19.0694 68.6938V74.3121Z" fill="#E98B1B"/>
<path d="M17.3409 74.0524C17.0004 73.9974 16.6598 73.9404 16.3267 73.8806V68.2706C16.6606 68.3311 16.9996 68.386 17.3409 68.4424V74.0524Z" fill="#E98B1B"/>
<path d="M15.6138 73.7473C15.2718 73.6814 14.9328 73.614 14.5996 73.5453V67.9435C14.9328 68.0123 15.2718 68.0768 15.6138 68.1414V73.7473Z" fill="#E98B1B"/>
<path d="M13.8873 73.3956C13.5423 73.3186 13.2055 73.2396 12.8716 73.1592V67.5636C13.2055 67.6419 13.5423 67.7203 13.8873 67.7945V73.3956Z" fill="#E98B1B"/>
<path d="M12.1597 72.9806C11.8163 72.8926 11.4787 72.8033 11.1455 72.7112V67.1287C11.4758 67.2187 11.817 67.3053 12.1597 67.3925V72.9806Z" fill="#E98B1B"/>
<path d="M27.7025 75.026C27.3634 75.0137 27.0258 74.9999 26.6875 74.9855V69.3583C27.0258 69.3713 27.3634 69.3858 27.7025 69.3974V75.026Z" fill="#E98B1B"/>
<path d="M25.9766 74.9518C25.6354 74.9367 25.2985 74.9154 24.9609 74.8934V69.2682C25.2985 69.2882 25.6354 69.3115 25.9766 69.328V74.9518Z" fill="#E98B1B"/>
<path d="M29.43 75.0652C29.0909 75.0576 28.7519 75.0507 28.4165 75.0439V69.4153C28.7519 69.4235 29.0909 69.4283 29.43 69.4345V75.0652Z" fill="#E98B1B"/>
<path d="M30.6717 75.0748C30.4941 75.0748 30.3194 75.0707 30.1426 75.0693V69.4407C30.3194 69.4407 30.4941 69.4449 30.6717 69.4449C30.8346 69.4449 30.9953 69.4435 31.1575 69.4407V75.0693C30.9953 75.0707 30.8346 75.0748 30.6717 75.0748Z" fill="#E98B1B"/>
<path d="M31.8711 75.0652V69.4345C32.2094 69.4304 32.547 69.4256 32.8853 69.4174V75.0446C32.547 75.0521 32.2094 75.0576 31.8711 75.0652Z" fill="#E98B1B"/>
<path d="M33.5972 75.026V69.4008C33.9377 69.3878 34.276 69.3727 34.6114 69.3596V74.9868C34.276 75.0006 33.9377 75.0171 33.5972 75.026Z" fill="#E98B1B"/>
<path d="M35.3237 74.9566V69.3294C35.6643 69.3136 36.0011 69.2916 36.3394 69.2703V74.8968C36.0011 74.9175 35.6643 74.9388 35.3237 74.9566Z" fill="#E98B1B"/>
<path d="M37.0498 74.8474V69.2243C37.3911 69.2009 37.7286 69.1748 38.0655 69.148V74.7725C37.7308 74.7986 37.3911 74.824 37.0498 74.8474Z" fill="#E98B1B"/>
<path d="M38.7759 74.7079V69.0855C39.1171 69.0546 39.4569 69.0257 39.7945 68.9893V74.6097C39.4569 74.6461 39.1171 74.677 38.7759 74.7079Z" fill="#E98B1B"/>
<path d="M40.5049 74.5306V68.911C40.8454 68.8732 41.1837 68.834 41.5191 68.7907V74.409C41.1837 74.4516 40.8454 74.4915 40.5049 74.5306Z" fill="#E98B1B"/>
<path d="M24.2481 74.8467C23.9098 74.8213 23.5707 74.7972 23.2339 74.7691V69.1446C23.5707 69.1721 23.9098 69.1982 24.2481 69.2209V74.8467Z" fill="#E98B1B"/>
<path d="M22.522 74.7038C22.1815 74.6729 21.8432 74.6406 21.5078 74.6055V68.9845C21.8432 69.0195 22.1815 69.0505 22.522 69.0821V74.7038Z" fill="#E98B1B"/>
<path d="M20.7955 74.5258C20.455 74.4873 20.1174 74.4461 19.7798 74.4035V68.7859C20.1159 68.8278 20.455 68.8684 20.7955 68.9075V74.5258Z" fill="#E98B1B"/>
<path d="M10.4327 72.5065C10.0856 72.4041 9.74944 72.299 9.41699 72.1904V66.6168C9.74944 66.724 10.0878 66.825 10.4327 66.9239V72.5065Z" fill="#E98B1B"/>
<path d="M8.61121 71.9149C8.29637 71.8036 7.98887 71.6902 7.69092 71.5741V66.0218C8.02043 66.1434 8.35875 66.2657 8.70588 66.3818V71.8215C8.70588 71.8558 8.66625 71.8867 8.61121 71.9149Z" fill="#E98B1B"/>
<path d="M6.71854 71.1783C6.45948 71.0677 6.20776 70.9543 5.96338 70.8389V65.3141C6.29216 65.4618 6.62754 65.6061 6.9798 65.7483V71.0354C6.9798 71.0979 6.87046 71.1481 6.71854 71.1783Z" fill="#E98B1B"/>
<path d="M5.04164 70.3813C4.76203 70.2336 4.48976 70.0845 4.2373 69.932V64.4449C4.55948 64.6277 4.89413 64.8077 5.25153 64.9816V70.2494C5.25153 70.3037 5.1642 70.3497 5.04164 70.3813Z" fill="#E98B1B"/>
<path d="M3.51763 69.4757C3.14775 69.227 2.81457 68.9707 2.50928 68.7076V63.3209C2.81971 63.56 3.1617 63.7922 3.52644 64.0231V69.4634L3.51763 69.4757Z" fill="#E98B1B"/>
<path d="M1.79816 68.0349C1.34022 67.5416 1.00337 67.0318 0.783203 66.5089V61.5413C1.05034 61.9419 1.39012 62.3335 1.79816 62.7149V68.0349Z" fill="#E98B1B"/>
<path d="M62.9907 57.8613V51.8486H1.76514V57.8613C1.76514 63.4294 15.4704 67.9435 32.3775 67.9435C49.2847 67.9435 62.9907 63.4294 62.9907 57.8613Z" fill="#F89E19"/>
<path d="M32.3775 61.4877C15.4704 61.4877 1.76514 56.975 1.76514 51.4068C1.76514 45.838 15.4704 41.3232 32.3775 41.3232C49.2847 41.3232 62.9907 45.838 62.9907 51.4068C62.9907 56.975 49.2847 61.4877 32.3775 61.4877Z" fill="#F5C116"/>
<path d="M34.2224 55.3418C35.448 55.2655 36.4468 55.08 37.2166 54.7804C37.985 54.4815 38.3717 54.1291 38.3717 53.7251C38.3717 53.3616 38.0496 53.051 37.4016 52.7906C36.7521 52.5288 35.6975 52.3262 34.2224 52.186V55.3418ZM30.6579 46.734C29.6929 46.8432 28.9216 47.0246 28.3506 47.2823C27.7774 47.5441 27.489 47.8285 27.489 48.1425C27.489 48.4283 27.7517 48.6929 28.2757 48.9388C28.799 49.1834 29.5923 49.3827 30.6579 49.5332V46.734ZM30.6579 55.2305V51.8397C27.4487 51.536 25.0958 51.0798 23.5958 50.4676C22.0994 49.8561 21.3479 49.1134 21.3479 48.2387C21.3479 47.3537 22.1963 46.611 23.8915 46.0098C25.5839 45.4086 27.8405 45.0616 30.6579 44.9703V44.1698H34.2224V44.9703C36.824 45.0719 38.8928 45.3653 40.4354 45.8477C41.9758 46.3307 42.9585 46.9758 43.3812 47.7859L37.1689 48.0546C36.7917 47.4156 35.8083 46.9855 34.2224 46.7587V49.9214C38.1508 50.2718 40.831 50.7273 42.2525 51.2845C43.677 51.8438 44.3896 52.5591 44.3896 53.4317C44.3896 54.4094 43.4928 55.2318 41.7036 55.9004C39.907 56.5689 37.4133 56.9791 34.2224 57.1302V58.6432H30.6579V57.1708C27.8237 57.0574 25.5244 56.7091 23.7543 56.1271C21.9864 55.5431 20.8584 54.7213 20.3667 53.6598L26.7764 53.4317C27.0391 53.8632 27.5286 54.2349 28.2508 54.5496C28.97 54.8615 29.7729 55.0882 30.6579 55.2305Z" fill="#F89E19"/>
<path d="M59.5322 61.8993L59.5234 61.8876V56.4445C59.8874 56.2157 60.2309 55.9814 60.5413 55.7437V61.1339C60.2338 61.3929 59.9014 61.6492 59.5322 61.8993Z" fill="#E98B1B"/>
<path d="M58.0073 62.8035C57.8854 62.774 57.7988 62.7266 57.7988 62.6736V57.4058C58.154 57.2306 58.4909 57.0499 58.8131 56.8678V62.3548C58.5584 62.5081 58.2883 62.6572 58.0073 62.8035Z" fill="#E98B1B"/>
<path d="M61.252 60.4578V55.1384C61.6607 54.7564 61.9983 54.3634 62.2676 53.9642V58.9318C62.0475 59.4533 61.7084 59.9638 61.252 60.4578Z" fill="#E98B1B"/>
<path d="M56.3311 63.6026C56.1784 63.571 56.0698 63.5208 56.0698 63.4597V58.1712C56.4206 58.029 56.7582 57.884 57.0862 57.7363V63.2618C56.8411 63.3786 56.5901 63.4906 56.3311 63.6026Z" fill="#E98B1B"/>
<path d="M54.4394 64.3378C54.3844 64.311 54.3447 64.2787 54.3447 64.2443V58.8054C54.6911 58.6886 55.0287 58.5669 55.3582 58.4446V63.997C55.0595 64.1131 54.7528 64.2264 54.4394 64.3378Z" fill="#E98B1B"/>
<path d="M52.6187 64.9279V59.3468C52.9614 59.2478 53.3012 59.1455 53.6321 59.0383V64.6133C53.3012 64.7218 52.965 64.8276 52.6187 64.9279Z" fill="#E98B1B"/>
<path d="M50.8887 65.4041V59.8154C51.2321 59.7288 51.5734 59.6429 51.9044 59.5515V65.1334C51.5719 65.2261 51.2336 65.3161 50.8887 65.4041Z" fill="#E98B1B"/>
<path d="M49.1611 65.8184V60.2173C49.5061 60.1431 49.8436 60.0648 50.1783 59.9865V65.5821C49.8436 65.6618 49.5061 65.7415 49.1611 65.8184Z" fill="#E98B1B"/>
<path d="M47.4346 66.1695V60.5643C47.7773 60.4997 48.1171 60.4358 48.4503 60.3657V65.9675C48.1171 66.039 47.7773 66.1042 47.4346 66.1695Z" fill="#E98B1B"/>
<path d="M45.7085 66.4753V60.8645C46.0527 60.8096 46.3866 60.7525 46.7242 60.6935V66.3035C46.391 66.3626 46.0512 66.4203 45.7085 66.4753Z" fill="#E98B1B"/>
<path d="M43.9814 66.735V61.1174C44.3234 61.0714 44.661 61.0233 44.9971 60.9724V66.5873C44.661 66.6367 44.3234 66.6876 43.9814 66.735Z" fill="#E98B1B"/>
<path d="M20.7737 66.735C20.4325 66.6876 20.0942 66.6367 19.7588 66.5873V60.9724C20.0942 61.0233 20.4325 61.0714 20.7737 61.1174V66.735Z" fill="#E98B1B"/>
<path d="M19.0465 66.4753C18.7059 66.4203 18.3654 66.3626 18.0308 66.3035V60.6935C18.3676 60.7525 18.7052 60.8096 19.0465 60.8645V66.4753Z" fill="#E98B1B"/>
<path d="M17.3211 66.1695C16.9777 66.1042 16.6393 66.039 16.3062 65.9675V60.3657C16.6393 60.4358 16.9777 60.4997 17.3211 60.5643V66.1695Z" fill="#E98B1B"/>
<path d="M15.5948 65.8184C15.2477 65.7415 14.9108 65.6618 14.5776 65.5821V59.9865C14.9108 60.0648 15.2477 60.1431 15.5948 60.2173V65.8184Z" fill="#E98B1B"/>
<path d="M13.8668 65.4041C13.5204 65.3161 13.1835 65.2261 12.8525 65.1334V59.5515C13.1821 59.6429 13.5226 59.7288 13.8668 59.8154V65.4041Z" fill="#E98B1B"/>
<path d="M29.4088 67.4475C29.069 67.4365 28.7314 67.4214 28.3945 67.4083V61.7811C28.7314 61.7942 29.069 61.81 29.4088 61.8203V67.4475Z" fill="#E98B1B"/>
<path d="M27.6827 67.3767C27.3422 67.3582 27.0038 67.3396 26.667 67.3162V61.6911C27.0038 61.7103 27.3422 61.7344 27.6827 61.7509V67.3767Z" fill="#E98B1B"/>
<path d="M31.137 67.488C30.7965 67.4805 30.4575 67.4729 30.1221 67.4667V61.8395C30.4575 61.8464 30.7965 61.8546 31.137 61.8574V67.488Z" fill="#E98B1B"/>
<path d="M32.3775 67.4977C32.2007 67.4977 32.0267 67.4929 31.8477 67.4929V61.8636C32.0267 61.8656 32.2007 61.8698 32.3775 61.8698C32.5404 61.8698 32.7026 61.8663 32.8641 61.8656V67.4929C32.7026 67.4929 32.5404 67.4977 32.3775 67.4977Z" fill="#E98B1B"/>
<path d="M33.5752 67.488V61.8574C33.9165 61.8567 34.254 61.8484 34.5909 61.8395V67.4674C34.254 67.475 33.9165 67.4805 33.5752 67.488Z" fill="#E98B1B"/>
<path d="M35.3027 67.4495V61.8223C35.6425 61.81 35.9808 61.7969 36.317 61.7832V67.4097C35.9808 67.4248 35.6425 67.4392 35.3027 67.4495Z" fill="#E98B1B"/>
<path d="M37.0293 67.3781V61.7529C37.3713 61.7351 37.7089 61.7138 38.045 61.6938V67.319C37.7089 67.3396 37.3713 67.3623 37.0293 67.3781Z" fill="#E98B1B"/>
<path d="M38.7578 67.2709V61.6492C39.0976 61.6238 39.4359 61.5977 39.7713 61.5716V67.1946C39.4367 67.2242 39.0976 67.2482 38.7578 67.2709Z" fill="#E98B1B"/>
<path d="M40.4824 67.1307V61.5097C40.8229 61.4774 41.1642 61.4486 41.5003 61.4121V67.0318C41.1642 67.0689 40.8229 67.0998 40.4824 67.1307Z" fill="#E98B1B"/>
<path d="M42.2114 66.9542V61.3352C42.5512 61.296 42.891 61.2562 43.2249 61.2136V66.8339C42.891 66.8758 42.5512 66.915 42.2114 66.9542Z" fill="#E98B1B"/>
<path d="M25.9554 67.2682C25.6163 67.2448 25.2758 67.2201 24.9404 67.1919V61.5674C25.2758 61.5956 25.6163 61.621 25.9554 61.6451V67.2682Z" fill="#E98B1B"/>
<path d="M24.2271 67.1266C23.8873 67.0957 23.5475 67.0634 23.2144 67.0297V61.408C23.5475 61.4431 23.8873 61.4733 24.2271 61.5042V67.1266Z" fill="#E98B1B"/>
<path d="M22.5006 66.9494C22.16 66.9102 21.8224 66.8683 21.4849 66.8271V61.2095C21.8202 61.2521 22.16 61.2912 22.5006 61.3304V66.9494Z" fill="#E98B1B"/>
<path d="M12.1375 64.9279C11.7911 64.8276 11.4528 64.7218 11.1226 64.6133V59.0383C11.4528 59.1455 11.7926 59.2478 12.1375 59.3468V64.9279Z" fill="#E98B1B"/>
<path d="M10.3163 64.3378C10.0014 64.2264 9.69395 64.1131 9.39746 63.997V58.4446C9.72624 58.5669 10.0646 58.6886 10.411 58.8054V64.2443C10.411 64.2787 10.3721 64.311 10.3163 64.3378Z" fill="#E98B1B"/>
<path d="M8.42338 63.6026C8.16358 63.4906 7.91406 63.3786 7.66895 63.2618V57.7363C7.99626 57.884 8.33384 58.029 8.68464 58.1712V63.4597C8.68464 63.5208 8.57602 63.571 8.42338 63.6026Z" fill="#E98B1B"/>
<path d="M6.74647 62.8035C6.46686 62.6572 6.19753 62.5081 5.94287 62.3548V56.8678C6.26505 57.0499 6.59969 57.2306 6.9571 57.4058V62.6736C6.9571 62.7266 6.8705 62.774 6.74647 62.8035Z" fill="#E98B1B"/>
<path d="M5.22295 61.8993C4.85455 61.6492 4.52136 61.3929 4.21387 61.1339V55.7437C4.5243 55.9814 4.86702 56.2157 5.23176 56.4445V61.8876L5.22295 61.8993Z" fill="#E98B1B"/>
<path d="M3.50446 60.4578C3.04725 59.9638 2.70747 59.454 2.48877 58.9318V53.9642C2.7559 54.3634 3.09569 54.7564 3.50446 55.1384V60.4578Z" fill="#E98B1B"/>
<mask id="mask7_26_541" style="mask-type:luminance" maskUnits="userSpaceOnUse" x="5" y="42" width="63" height="17">
<path d="M5.91797 42.2144H67.2352V58.5724H5.91797V42.2144Z" fill="white"/>
</mask>
<g mask="url(#mask7_26_541)">
<path d="M67.2006 48.361V42.349H5.9751V48.361C5.9751 53.9305 19.6811 58.4446 36.5882 58.4446C53.4939 58.4446 67.2006 53.9305 67.2006 48.361Z" fill="#F89E19"/>
</g>
<mask id="mask8_26_541" style="mask-type:luminance" maskUnits="userSpaceOnUse" x="5" y="31" width="63" height="22">
<path d="M5.91797 31.8209H67.2352V52.0644H5.91797V31.8209Z" fill="white"/>
</mask>
<g mask="url(#mask8_26_541)">
<path d="M36.5882 51.9895C19.6811 51.9895 5.9751 47.4747 5.9751 41.9066C5.9751 36.3378 19.6811 31.825 36.5882 31.825C53.4939 31.825 67.2006 36.3378 67.2006 41.9066C67.2006 47.4747 53.4939 51.9895 36.5882 51.9895Z" fill="#F5C116"/>
</g>
<path d="M38.4311 45.8429C39.6567 45.7673 40.657 45.5804 41.4283 45.2815C42.1967 44.9813 42.5812 44.6288 42.5812 44.2248C42.5812 43.8634 42.2598 43.5508 41.6103 43.291C40.9637 43.0286 39.907 42.8259 38.4311 42.6864V45.8429ZM34.8674 37.2358C33.9031 37.3423 33.1318 37.5257 32.5601 37.7841C31.9862 38.0438 31.6992 38.3289 31.6992 38.6422C31.6992 38.9301 31.9605 39.194 32.4845 39.4386C33.0099 39.6852 33.8025 39.8824 34.8674 40.0329V37.2358ZM34.8674 45.7302V42.3401C31.6574 42.0357 29.306 41.5809 27.8038 40.9666C26.3081 40.3558 25.5581 39.6131 25.5581 38.7384C25.5581 37.8542 26.4072 37.1107 28.101 36.5088C29.7948 35.9083 32.0508 35.5614 34.8674 35.4707V34.6695H38.4311V35.4707C41.0342 35.5724 43.103 35.8657 44.6449 36.3488C46.186 36.8297 47.1687 37.4763 47.5922 38.2856L41.3791 38.5543C41.0019 37.9153 40.0178 37.4852 38.4311 37.2598V40.4211C42.3618 40.7722 45.0397 41.2257 46.4634 41.7843C47.8879 42.3436 48.5998 43.0588 48.5998 43.9328C48.5998 44.9105 47.7022 45.7316 45.913 46.3994C44.1172 47.07 41.6235 47.4788 38.4311 47.6313V49.1429H34.8674V47.6712C32.0346 47.5578 29.7332 47.2115 27.9638 46.6268C26.1966 46.0442 25.0679 45.2224 24.5762 44.1602L30.9859 43.9328C31.2494 44.365 31.7389 44.736 32.461 45.0507C33.1802 45.3612 33.9838 45.588 34.8674 45.7302Z" fill="#F89E19"/>
<path d="M63.7429 52.401L63.7334 52.3873V46.9477C64.0974 46.7161 64.4401 46.4832 64.7498 46.2434V51.6322C64.4438 51.8933 64.1113 52.1489 63.7429 52.401Z" fill="#E98B1B"/>
<path d="M62.2187 53.3046C62.0954 53.2736 62.0073 53.2276 62.0073 53.1726V47.9068C62.3655 47.7323 62.7008 47.5509 63.0237 47.3695V52.8545C62.7684 53.0077 62.4983 53.1575 62.2187 53.3046Z" fill="#E98B1B"/>
<path d="M65.4624 50.9575V45.6395C65.8704 45.2574 66.2095 44.8651 66.4759 44.4652V49.4328C66.2572 49.953 65.9189 50.4642 65.4624 50.9575Z" fill="#E98B1B"/>
<path d="M60.5415 54.1036C60.3896 54.0734 60.2803 54.0205 60.2803 53.9587V48.6716C60.6318 48.5286 60.9679 48.385 61.2967 48.2366V53.7622C61.0501 53.8783 60.7999 53.9903 60.5415 54.1036Z" fill="#E98B1B"/>
<path d="M58.6481 54.8374C58.5924 54.8113 58.5542 54.7804 58.5542 54.7454V49.3064C58.9013 49.1883 59.2389 49.0666 59.5684 48.9443V54.4967C59.269 54.6128 58.9637 54.7275 58.6481 54.8374Z" fill="#E98B1B"/>
<path d="M56.8281 55.4311V49.8472C57.1723 49.7489 57.5114 49.6452 57.8431 49.5394V55.113C57.5114 55.2215 57.1723 55.328 56.8281 55.4311Z" fill="#E98B1B"/>
<path d="M55.0991 55.9052V50.3151C55.4426 50.2306 55.7824 50.1419 56.1133 50.0512V55.6338C55.7816 55.7265 55.4448 55.8179 55.0991 55.9052Z" fill="#E98B1B"/>
<path d="M53.3706 56.3195V50.7191C53.7155 50.6421 54.0524 50.5645 54.3878 50.4868V56.0818C54.0524 56.1642 53.7155 56.2432 53.3706 56.3195Z" fill="#E98B1B"/>
<path d="M51.6445 56.6692V51.064C51.9873 51.0008 52.3263 50.9355 52.6595 50.8668V56.4686C52.3263 56.5387 51.9873 56.606 51.6445 56.6692Z" fill="#E98B1B"/>
<path d="M49.9185 56.9757V51.3649C50.2604 51.3093 50.5973 51.2523 50.9334 51.1945V56.8039C50.6002 56.8637 50.2582 56.9207 49.9185 56.9757Z" fill="#E98B1B"/>
<path d="M48.1909 57.2347V51.6171C48.5322 51.5711 48.8698 51.5223 49.2066 51.4742V57.087C48.8698 57.1357 48.5322 57.1873 48.1909 57.2347Z" fill="#E98B1B"/>
<path d="M24.9844 57.2347C24.6425 57.1873 24.3049 57.1357 23.9673 57.087V51.4742C24.3049 51.5223 24.6425 51.5711 24.9844 51.6171V57.2347Z" fill="#E98B1B"/>
<path d="M23.2559 56.9757C22.9154 56.9207 22.5756 56.8637 22.2417 56.8039V51.1945C22.5793 51.2523 22.9139 51.3093 23.2559 51.3649V56.9757Z" fill="#E98B1B"/>
<path d="M21.5299 56.6692C21.1864 56.606 20.8495 56.5387 20.5142 56.4686V50.8668C20.8495 50.9355 21.1864 51.0008 21.5299 51.064V56.6692Z" fill="#E98B1B"/>
<path d="M19.8033 56.3195C19.4591 56.2432 19.1208 56.1642 18.7876 56.0818V50.4868C19.1208 50.5645 19.4591 50.6421 19.8033 50.7191V56.3195Z" fill="#E98B1B"/>
<path d="M18.076 55.9052C17.7311 55.8179 17.392 55.7265 17.061 55.6338V50.0512C17.3913 50.1419 17.7318 50.2306 18.076 50.3151V55.9052Z" fill="#E98B1B"/>
<path d="M33.6192 57.9472C33.278 57.9362 32.9426 57.9211 32.6035 57.908V52.2808C32.9426 52.2973 33.278 52.3111 33.6192 52.3214V57.9472Z" fill="#E98B1B"/>
<path d="M31.8914 57.8771C31.5516 57.8592 31.2126 57.8393 30.8779 57.818V52.1908C31.2126 52.2121 31.5516 52.2341 31.8914 52.2533V57.8771Z" fill="#E98B1B"/>
<path d="M35.3465 57.9877C35.0052 57.9822 34.6684 57.9754 34.3315 57.9664V52.3399C34.6684 52.3475 35.0052 52.353 35.3465 52.3605V57.9877Z" fill="#E98B1B"/>
<path d="M36.5882 57.9973C36.4099 57.9973 36.2352 57.9939 36.0576 57.9939V52.364C36.2352 52.3653 36.4099 52.3694 36.5882 52.3694C36.7504 52.3694 36.9111 52.366 37.0718 52.3653V57.9939C36.9111 57.9939 36.7504 57.9973 36.5882 57.9973Z" fill="#E98B1B"/>
<path d="M37.7866 57.9877V52.3605C38.1249 52.355 38.4618 52.3481 38.8016 52.3413V57.9678C38.4618 57.9754 38.1249 57.9822 37.7866 57.9877Z" fill="#E98B1B"/>
<path d="M39.5112 57.9493V52.3234C39.8532 52.3124 40.1901 52.2973 40.5262 52.2822V57.9101C40.1901 57.9245 39.8532 57.9403 39.5112 57.9493Z" fill="#E98B1B"/>
<path d="M41.2397 57.8785V52.254C41.5803 52.2361 41.9171 52.2142 42.2547 52.1935V57.8201C41.9171 57.84 41.5803 57.8634 41.2397 57.8785Z" fill="#E98B1B"/>
<path d="M42.9673 57.7734V52.1489C43.3063 52.1235 43.6439 52.0987 43.9815 52.0713V57.6957C43.6461 57.7239 43.3063 57.75 42.9673 57.7734Z" fill="#E98B1B"/>
<path d="M44.6929 57.6304V52.008C45.0327 51.9771 45.3754 51.9483 45.7086 51.9139V57.5342C45.3754 57.5707 45.0327 57.5995 44.6929 57.6304Z" fill="#E98B1B"/>
<path d="M46.4209 57.4546V51.8363C46.7614 51.7971 47.1005 51.758 47.4344 51.7154V57.3336C47.1005 57.3762 46.7614 57.4154 46.4209 57.4546Z" fill="#E98B1B"/>
<path d="M30.1656 57.7692C29.8258 57.7452 29.486 57.7198 29.1499 57.6916V52.0685C29.486 52.0953 29.8258 52.1214 30.1656 52.1448V57.7692Z" fill="#E98B1B"/>
<path d="M28.4395 57.6256C28.0975 57.5975 27.7577 57.5624 27.4238 57.5294V51.9084C27.7577 51.9441 28.0975 51.9744 28.4395 52.0053V57.6256Z" fill="#E98B1B"/>
<path d="M26.7103 57.4504C26.369 57.4099 26.0322 57.37 25.6953 57.3281V51.7105C26.0322 51.7538 26.369 51.7916 26.7103 51.8301V57.4504Z" fill="#E98B1B"/>
<path d="M16.3477 55.4311C16.0028 55.328 15.663 55.2215 15.3335 55.113V49.5394C15.663 49.6452 16.0028 49.7489 16.3477 49.8472V55.4311Z" fill="#E98B1B"/>
<path d="M14.5262 54.8374C14.2114 54.7275 13.9061 54.6128 13.6074 54.4967V48.9443C13.9362 49.0666 14.2745 49.1883 14.6209 49.3064V54.7454C14.6209 54.7804 14.5813 54.8113 14.5262 54.8374Z" fill="#E98B1B"/>
<path d="M12.6346 54.1036C12.374 53.9903 12.1245 53.8783 11.8794 53.7622V48.2366C12.206 48.385 12.545 48.5286 12.8936 48.6716V53.9587C12.8936 54.0205 12.7857 54.0734 12.6346 54.1036Z" fill="#E98B1B"/>
<path d="M10.9559 53.3046C10.6771 53.1575 10.407 53.0077 10.1523 52.8545V47.3695C10.4745 47.5509 10.8114 47.7323 11.168 47.9068V53.1726C11.168 53.2276 11.0807 53.2736 10.9559 53.3046Z" fill="#E98B1B"/>
<path d="M9.43243 52.401C9.06255 52.1489 8.7301 51.8933 8.42334 51.6322V46.2434C8.73377 46.4832 9.07723 46.7161 9.44197 46.9477V52.3873L9.43243 52.401Z" fill="#E98B1B"/>
<path d="M7.71369 50.9575C7.25648 50.4642 6.91743 49.9543 6.69727 49.4328V44.4652C6.96733 44.8651 7.30419 45.2574 7.71369 45.6395V50.9575Z" fill="#E98B1B"/>
</g>
<defs>
<clipPath id="clip0_26_541">
<rect width="165" height="112" fill="white"/>
</clipPath>
</defs>
</svg>
