<svg width="86" height="113" viewBox="0 0 86 113" fill="none" xmlns="http://www.w3.org/2000/svg">
<g clip-path="url(#clip0_26_201)">
<path d="M58.2573 2.12048V29.824H82.189L58.2573 2.12048Z" fill="#7AA500"/>
<mask id="mask0_26_201" style="mask-type:luminance" maskUnits="userSpaceOnUse" x="0" y="0" width="86" height="113">
<path d="M0.0112305 0.118713H86.0001V112.998H0.0112305V0.118713Z" fill="white"/>
</mask>
<g mask="url(#mask0_26_201)">
<path d="M85.9884 35.7647H54.4448C52.6786 35.7647 49.9381 33.7341 49.9381 31.8397V0.118713H7.43782C3.10051 0.118713 0.0229492 3.28063 0.0229492 7.92616V105.934C0.0229492 110.462 2.61865 112.998 6.11711 112.998H79.4428C83.0884 112.998 85.989 109.528 85.989 106.091V35.7647H85.9884ZM13.8954 29.8241H39.5054C40.6849 29.8241 41.6398 31.5325 41.6398 32.7944C41.6398 34.0575 40.6849 35.7647 39.5054 35.7647H13.8954C12.716 35.7647 11.7611 34.0575 11.7611 32.7944C11.7611 31.5325 12.716 29.8241 13.8954 29.8241ZM73.6529 95.1748H13.8954C12.716 95.1748 11.7611 93.4688 11.7611 92.2044C11.7611 90.9394 12.716 89.2341 13.8954 89.2341H73.6529C74.8312 89.2341 75.7873 90.94 75.7873 92.2044C75.7873 93.4688 74.8312 95.1748 73.6529 95.1748ZM73.6529 83.2928H13.8954C12.716 83.2928 11.7611 81.5843 11.7611 80.3224C11.7611 79.0574 12.716 77.3521 13.8954 77.3521H73.6529C74.8312 77.3521 75.7873 79.058 75.7873 80.3224C75.7873 81.5843 74.8312 83.2928 73.6529 83.2928ZM73.6529 71.4108H13.8954C12.716 71.4108 11.7611 69.7048 11.7611 68.4404C11.7611 67.176 12.716 65.4701 13.8954 65.4701H73.6529C74.8312 65.4701 75.7873 67.176 75.7873 68.4404C75.7873 69.7048 74.8312 71.4108 73.6529 71.4108ZM73.6529 59.5288H13.8954C12.716 59.5288 11.7611 57.8203 11.7611 56.5584C11.7611 55.2947 12.716 53.5881 13.8954 53.5881H73.6529C74.8312 53.5881 75.7873 55.2953 75.7873 56.5584C75.7873 57.8203 74.8312 59.5288 73.6529 59.5288ZM73.6529 47.6467H13.8954C12.716 47.6467 11.7611 45.9383 11.7611 44.6758C11.7611 43.4126 12.716 41.7054 13.8954 41.7054H73.6529C74.8312 41.7054 75.7873 43.4126 75.7873 44.6758C75.7873 45.9383 74.8312 47.6467 73.6529 47.6467Z" fill="#7AA500"/>
</g>
</g>
<defs>
<clipPath id="clip0_26_201">
<rect width="86" height="113" fill="white"/>
</clipPath>
</defs>
</svg>
