<svg width="597" height="450" viewBox="0 0 597 450" fill="none" xmlns="http://www.w3.org/2000/svg">
<g clip-path="url(#clip0_276_698)">
<mask id="mask0_276_698" style="mask-type:luminance" maskUnits="userSpaceOnUse" x="403" y="39" width="142" height="159">
<path d="M403.576 77.377L497.003 39.94L544.988 159.692L451.562 197.129L403.576 77.377Z" fill="white"/>
</mask>
<g mask="url(#mask0_276_698)">
<path d="M536.337 163.199L460.296 193.669C455.505 195.589 450.131 193.418 448.29 188.824L407.035 85.8691C405.192 81.2715 407.58 75.9902 412.372 74.0701L488.413 43.5997C493.203 41.68 498.578 43.8508 500.421 48.4483L541.676 151.403C543.517 155.998 541.128 161.279 536.337 163.199Z" fill="#7AA500"/>
</g>
<path d="M531.851 151.969L455.781 182.451L416.854 85.3038L492.923 54.8219L531.851 151.969Z" fill="#FAFAFA"/>
<mask id="mask1_276_698" style="mask-type:luminance" maskUnits="userSpaceOnUse" x="422" y="40" width="59" height="44">
<path d="M422.855 59.4401L470.65 40.2883L480.163 64.0275L432.368 83.1793L422.855 59.4401Z" fill="white"/>
</mask>
<g mask="url(#mask1_276_698)">
<path d="M480.068 63.8492L432.39 82.9543L425.542 65.8634C424.111 62.292 425.968 58.1839 429.693 56.691L463.883 42.9907C467.609 41.4978 471.789 43.1869 473.22 46.7583L480.068 63.8492Z" fill="#192746"/>
</g>
<path d="M442.754 56.0369L435.467 58.957C433.274 59.8354 432.18 62.2542 433.023 64.3577C433.866 66.4611 436.327 67.4524 438.519 66.5739L445.806 63.6539L442.754 56.0369Z" fill="white"/>
<path d="M461.268 48.6184L453.98 51.5384L457.033 59.1553L464.32 56.2353C466.513 55.3565 467.608 52.9401 466.766 50.8367C465.923 48.7333 463.461 47.7396 461.268 48.6184Z" fill="white"/>
<path d="M459.141 91.8224L489.497 79.6582" stroke="#192746" stroke-width="5" stroke-miterlimit="10" stroke-linecap="round"/>
<path d="M464.014 103.986L494.37 91.8217" stroke="#192746" stroke-width="5" stroke-miterlimit="10" stroke-linecap="round"/>
<path d="M468.891 116.153L499.247 103.988" stroke="#192746" stroke-width="5" stroke-miterlimit="10" stroke-linecap="round"/>
<path d="M473.764 128.317L504.12 116.153" stroke="#192746" stroke-width="5" stroke-miterlimit="10" stroke-linecap="round"/>
<path d="M478.639 140.48L508.995 128.316" stroke="#192746" stroke-width="5" stroke-miterlimit="10" stroke-linecap="round"/>
<path d="M483.514 152.647L513.87 140.483" stroke="#192746" stroke-width="5" stroke-miterlimit="10" stroke-linecap="round"/>
<path d="M448.958 108.248L437.871 112.69L433.609 102.053L444.696 97.6107L448.958 108.248Z" stroke="#192746" stroke-width="5" stroke-miterlimit="10" stroke-linecap="round" stroke-linejoin="round"/>
<path d="M458.706 132.576L447.619 137.018L443.358 126.383L454.445 121.941L458.706 132.576Z" stroke="#192746" stroke-width="5" stroke-miterlimit="10" stroke-linecap="round" stroke-linejoin="round"/>
<path d="M468.456 156.907L457.369 161.349L453.106 150.711L464.193 146.269L468.456 156.907Z" stroke="#192746" stroke-width="5" stroke-miterlimit="10" stroke-linecap="round" stroke-linejoin="round"/>
<path d="M437.729 104.365L443.593 106.589L446.92 86.9621" stroke="#D64151" stroke-width="5" stroke-miterlimit="10" stroke-linecap="round" stroke-linejoin="round"/>
<path d="M447.491 128.729L453.355 130.953L456.682 111.326" stroke="#D64151" stroke-width="5" stroke-miterlimit="10" stroke-linecap="round" stroke-linejoin="round"/>
<path d="M457.255 153.092L463.119 155.316L466.445 135.689" stroke="#D64151" stroke-width="5" stroke-miterlimit="10" stroke-linecap="round" stroke-linejoin="round"/>
</g>
<path d="M14.7 291V249.6L109.5 114H166.8V246.6H191.4V291H166.8V330H115.5V291H14.7ZM119.1 170.4L68.7 246.6H119.1V170.4ZM408.45 291V249.6L503.25 114H560.55V246.6H585.15V291H560.55V330H509.25V291H408.45ZM512.85 170.4L462.45 246.6H512.85V170.4Z" fill="#356B00"/>
<g clip-path="url(#clip1_276_698)">
<mask id="mask2_276_698" style="mask-type:luminance" maskUnits="userSpaceOnUse" x="201" y="119" width="199" height="200">
<path d="M201.035 119.034H400.001V319H201.035V119.034Z" fill="white"/>
</mask>
<g mask="url(#mask2_276_698)">
<path d="M399.93 218.986C399.93 274.182 355.408 318.931 300.481 318.931C245.555 318.931 201.035 274.182 201.035 218.986C201.035 163.784 245.555 119.034 300.481 119.034C355.408 119.034 399.93 163.784 399.93 218.986Z" fill="#356B00"/>
</g>
<path d="M365.068 164.985C349.582 146.506 326.405 134.756 300.48 134.756C253.864 134.756 216.074 172.729 216.074 219.578C216.074 253.122 235.452 282.104 263.562 295.871C274.717 301.336 287.239 304.407 300.48 304.407C347.096 304.407 384.884 266.424 384.884 219.578C384.884 198.78 377.423 179.745 365.068 164.985Z" fill="#FFFFFD"/>
<path d="M302.185 168.159C302.185 168.628 301.426 169.004 300.481 169.004C299.541 169.004 298.773 168.628 298.773 168.159V144.402C298.773 143.939 299.541 143.563 300.481 143.563C301.426 143.563 302.185 143.939 302.185 144.402V168.159Z" fill="#6D8896"/>
<path d="M302.185 296.375C302.185 296.838 301.426 297.217 300.48 297.217C299.541 297.217 298.773 296.838 298.773 296.375V272.615C298.773 272.151 299.541 271.772 300.48 271.772C301.426 271.772 302.185 272.151 302.185 272.615V296.375Z" fill="#6D8896"/>
<path d="M353.23 222.099C352.767 222.099 352.393 221.336 352.393 220.388C352.393 219.442 352.767 218.673 353.23 218.673H376.869C377.336 218.673 377.706 219.442 377.706 220.388C377.706 221.336 377.336 222.099 376.869 222.099H353.23Z" fill="#6D8896"/>
<path d="M296.123 219.769L298.341 223.816L247.361 252.111L242.072 252.518L245.135 248.065L296.123 219.769Z" fill="#EC3223"/>
<path d="M224.436 222.099C223.976 222.099 223.602 221.334 223.602 220.388C223.602 219.442 223.976 218.673 224.436 218.673H248.075C248.537 218.673 248.915 219.442 248.915 220.388C248.915 221.334 248.537 222.099 248.075 222.099H224.436Z" fill="#6D8896"/>
<path d="M298.11 215.692C302.613 215.692 306.259 219.362 306.259 223.886C306.259 228.41 302.613 232.077 298.11 232.077C293.606 232.077 289.953 228.41 289.953 223.886C289.953 219.362 293.606 215.692 298.11 215.692Z" fill="#0C1A23"/>
<path d="M298.693 217.788L291.832 223.886L271.15 200.05V192.603L278.012 193.95L298.693 217.788Z" fill="#0C1A23"/>
<path d="M301.978 224.267L298.105 218.36L353.663 181.547L360.112 181.324L357.542 187.452L301.978 224.267Z" fill="#0C1A23"/>
</g>
<g clip-path="url(#clip2_276_698)">
<path d="M118.033 116.444C118.033 116.444 145.429 113.071 153.363 107.874C161.297 102.678 154.037 71.905 150.772 71.0901C147.508 70.2758 115.207 76.8981 115.207 76.8981L118.033 116.444Z" fill="#FFAE3A"/>
<path d="M108.971 74.9956C108.971 74.9956 105.477 111.558 106.138 113.077C106.799 114.599 112.277 116.535 114.544 117.045C116.811 117.554 118.133 116.691 118.322 115.95C118.512 115.211 115.206 76.8969 115.206 76.8969L108.972 74.9943L108.971 74.9956Z" fill="#FFD49C"/>
<path d="M114.072 65.2808L115.205 76.8981L164.129 69.5617L162.617 59.3712L114.072 65.2808Z" fill="#7CB539"/>
<mask id="mask3_276_698" style="mask-type:luminance" maskUnits="userSpaceOnUse" x="115" y="69" width="56" height="50">
<path d="M115.205 69.4605H170.942V119H115.205V69.4605Z" fill="white"/>
</mask>
<g mask="url(#mask3_276_698)">
<path d="M164.128 69.5618C164.128 69.5618 165.262 84.6417 167.622 94.5259C169.983 104.41 170.928 107.715 170.928 107.715C170.928 107.715 164.41 112.968 151.472 116.128C138.532 119.287 122.477 118.879 122.477 118.879C122.477 118.879 116.15 89.7357 115.205 76.8968L164.129 69.5605L164.128 69.5618Z" fill="#FFEED9"/>
</g>
<path d="M143.595 101.247L132.322 103.231L131.924 100.598L136.225 93.7939C137.267 91.9965 137.717 90.6346 137.578 89.7091C137.464 88.9591 137.227 88.4158 136.865 88.0769C136.501 87.7396 136.033 87.6221 135.456 87.7229C134.886 87.8237 134.463 88.1666 134.186 88.7518C133.91 89.3366 133.832 90.0215 133.95 90.8024L130.201 91.4632C130.039 90.3939 130.137 89.362 130.495 88.3695C130.854 87.3771 131.434 86.5472 132.238 85.8809C133.041 85.2158 133.985 84.7859 135.073 84.5945C136.818 84.2864 138.228 84.4851 139.304 85.1892C140.378 85.8933 141.038 87.0595 141.285 88.6875C141.389 89.3731 141.372 90.0635 141.233 90.7547C141.094 91.4464 140.83 92.1939 140.439 92.9958C140.049 93.7982 139.388 94.8953 138.46 96.2881L136.767 99.253L143.125 98.1332L143.596 101.245L143.595 101.247Z" fill="#7CB539"/>
<path d="M154.444 86.2237C154.572 87.069 154.49 87.8503 154.2 88.5643C153.909 89.2796 153.454 89.8927 152.832 90.4021C153.663 90.6737 154.358 91.1229 154.916 91.7502C155.474 92.3771 155.825 93.1739 155.972 94.138C156.208 95.6947 155.896 97.0107 155.038 98.0885C154.179 99.1651 152.878 99.8581 151.131 100.166C149.378 100.475 147.927 100.265 146.776 99.5371C145.625 98.8107 144.933 97.6728 144.698 96.1247C144.557 95.191 144.654 94.326 144.989 93.5292C145.324 92.7328 145.867 92.0553 146.619 91.4966C145.871 91.2267 145.252 90.8037 144.763 90.2257C144.273 89.649 143.964 88.9363 143.837 88.091C143.607 86.5751 143.903 85.2943 144.724 84.2469C145.546 83.2013 146.767 82.5354 148.386 82.2509C150.021 81.9625 151.382 82.1741 152.468 82.8838C153.555 83.5935 154.213 84.7065 154.443 86.2224L154.444 86.2237ZM148.857 85.3643C148.353 85.4522 147.998 85.6972 147.789 86.0993C147.58 86.5009 147.523 87.0175 147.619 87.6474C147.714 88.2704 147.923 88.7488 148.247 89.0848C148.571 89.4208 148.992 89.5439 149.51 89.4529C150.019 89.3633 150.374 89.1045 150.571 88.6763C150.768 88.2477 150.82 87.7229 150.725 87.0999C150.631 86.4769 150.425 86.0096 150.109 85.6972C149.792 85.3836 149.374 85.2733 148.857 85.3643ZM152.172 94.477C152.063 93.7587 151.807 93.2365 151.405 92.9092C151.003 92.5831 150.52 92.4698 149.959 92.5676C149.397 92.6672 148.971 92.94 148.682 93.388C148.392 93.836 148.303 94.4195 148.411 95.1378C148.516 95.832 148.774 96.3499 149.187 96.6915C149.599 97.033 150.089 97.1536 150.659 97.0527C151.214 96.9545 151.631 96.676 151.911 96.2169C152.191 95.7578 152.278 95.1768 152.172 94.4757V94.477Z" fill="#7CB539"/>
<path d="M119.125 79.597C121.951 79.2679 124.775 78.9028 127.593 78.4995C128.379 78.3875 129.164 78.2712 129.949 78.1536C130.195 78.1159 130.091 77.7112 129.845 77.749C127.069 78.1665 124.287 78.5471 121.501 78.8916C120.709 78.9895 119.917 79.0847 119.125 79.177C118.879 79.2049 118.876 79.6262 119.125 79.597Z" fill="#DD423A"/>
<path d="M131.252 77.6988C134.843 77.325 138.399 76.6518 141.924 75.8413C145.45 75.0308 148.947 74.0872 152.449 73.1621C154.463 72.6301 156.477 72.098 158.489 71.5664C158.732 71.5016 158.629 71.0974 158.385 71.1618C154.84 72.098 151.298 73.0428 147.753 73.9671C144.273 74.8724 140.78 75.7362 137.251 76.3939C135.261 76.7651 133.261 77.0689 131.252 77.2787C131.006 77.304 131.003 77.7254 131.252 77.6988Z" fill="#DD423A"/>
<path d="M120.639 104.253C122.57 106.435 124.705 108.402 127.007 110.114C127.658 110.599 128.322 111.062 128.998 111.506C129.212 111.647 129.408 111.283 129.195 111.143C126.825 109.589 124.605 107.778 122.58 105.736C122.009 105.16 121.454 104.567 120.914 103.957C120.74 103.76 120.466 104.057 120.639 104.253Z" fill="#DD423A"/>
<path d="M131.16 109.896C133.012 111.123 134.958 112.179 136.975 113.058C137.207 113.159 137.308 112.753 137.079 112.654C135.095 111.787 133.18 110.742 131.357 109.533C131.143 109.392 130.947 109.755 131.161 109.896H131.16Z" fill="#DD423A"/>
<path d="M125.06 112.49C125.818 112.753 126.576 113.017 127.335 113.281C127.574 113.363 127.676 112.959 127.439 112.876C126.681 112.613 125.923 112.348 125.164 112.085C124.926 112.003 124.823 112.407 125.06 112.49Z" fill="#DD423A"/>
<path d="M165.942 104.2C165.275 105.309 164.129 106.007 163.099 106.664C161.945 107.397 160.749 108.048 159.54 108.667C158.861 109.014 158.178 109.35 157.495 109.686C157.268 109.798 157.465 110.159 157.691 110.049C158.938 109.437 160.184 108.821 161.402 108.146C162.62 107.472 163.774 106.794 164.852 105.951C165.401 105.521 165.905 105.03 166.277 104.413C166.413 104.186 166.077 103.975 165.94 104.202L165.942 104.2Z" fill="#DD423A"/>
<path d="M126.064 63.7371C126.069 63.8113 126.074 63.8576 126.077 63.8787C126.074 63.8435 126.073 63.81 126.071 63.7748C126.068 63.7624 126.067 63.7495 126.064 63.7371Z" fill="white" stroke="black" stroke-width="1.69993" stroke-miterlimit="10"/>
<path d="M120.479 66.2806C120.479 66.2806 120.475 66.275 120.473 66.2708C120.473 66.2708 120.473 66.2733 120.473 66.275C120.474 66.2776 120.476 66.2806 120.478 66.2819L120.479 66.2806Z" fill="white" stroke="black" stroke-width="1.69993" stroke-miterlimit="10"/>
<path d="M128.269 63.5538C128.244 63.3243 128.208 63.093 128.16 62.8634C127.866 61.4848 127.047 60.2877 125.946 59.5334C124.876 58.8014 123.596 58.5761 122.356 58.7735C121.061 58.979 119.958 59.8037 119.187 60.9163C118.634 61.7131 118.269 62.7167 118.121 63.6963C118.066 64.0674 118.034 64.4343 118.033 64.7994L120.247 64.5308C120.248 64.4969 120.251 64.4609 120.254 64.4244C120.256 64.4146 120.264 64.3433 120.269 64.2983C120.277 64.2451 120.286 64.1863 120.29 64.1683C120.308 64.0588 120.33 63.9512 120.355 63.8435C120.404 63.6281 120.466 63.4165 120.536 63.2093C120.549 63.1728 120.579 63.114 120.588 63.0737C120.614 63.0119 120.64 62.9518 120.666 62.8918C120.736 62.7403 120.814 62.5905 120.897 62.4464C120.934 62.382 120.972 62.3202 121.014 62.2589C121.017 62.2503 121.025 62.2391 121.034 62.2267C121.055 62.2001 121.077 62.1692 121.09 62.1555C121.138 62.095 121.189 62.0349 121.239 61.9774C121.322 61.8839 121.412 61.7942 121.501 61.7101C121.509 61.7045 121.52 61.6946 121.533 61.6835C121.557 61.6637 121.582 61.6427 121.595 61.6333C121.691 61.5616 121.789 61.496 121.891 61.4359C121.934 61.4093 121.987 61.3715 122.04 61.3376C122.048 61.3364 122.058 61.3321 122.079 61.3252C122.1 61.3166 122.122 61.3072 122.141 61.2986C122.19 61.2789 122.241 61.2578 122.29 61.2424C122.403 61.2021 122.52 61.1669 122.637 61.139C122.696 61.1248 122.753 61.1124 122.812 61.1012C122.834 61.0999 122.859 61.0969 122.872 61.0956C122.938 61.0901 123.005 61.0858 123.071 61.0832C123.184 61.0789 123.296 61.0789 123.406 61.0845L123.562 61.0969C123.562 61.0969 123.576 61.0982 123.587 61.1012C123.618 61.1055 123.649 61.1111 123.664 61.1154C123.716 61.1248 123.768 61.1347 123.817 61.1488C123.934 61.1767 124.048 61.2102 124.161 61.251C124.204 61.2651 124.247 61.2832 124.288 61.3029C124.296 61.3072 124.305 61.3085 124.313 61.311C124.338 61.3166 124.362 61.3265 124.387 61.3394C124.391 61.3406 124.392 61.3406 124.396 61.3432C124.414 61.3518 124.435 61.3587 124.456 61.366C124.439 61.3617 124.426 61.3574 124.413 61.3531C124.461 61.3771 124.508 61.4037 124.553 61.4286C124.653 61.4848 124.749 61.5462 124.844 61.6123C124.888 61.6414 124.932 61.6736 124.975 61.7058C124.978 61.7075 124.982 61.7114 124.984 61.7144C125.145 61.8641 125.302 62.0139 125.443 62.1876C125.465 62.2168 125.49 62.2477 125.512 62.2769C125.586 62.3889 125.652 62.5026 125.716 62.6202C125.768 62.7193 125.812 62.8214 125.858 62.9209C125.88 62.981 125.901 63.0415 125.919 63.1003C125.966 63.2582 126.006 63.4178 126.037 63.5787C126.047 63.6306 126.056 63.6825 126.063 63.734C126.062 63.7104 126.06 63.6868 126.058 63.6547C126.062 63.695 126.067 63.7328 126.071 63.7722L126.076 63.8014C126.076 63.8014 126.078 63.8113 126.078 63.8168C126.085 63.8688 126.083 63.9233 126.076 63.8743C126.089 64.0494 126.095 64.227 126.093 64.4034C126.092 64.5253 126.088 64.6471 126.08 64.7685C126.076 64.8303 126.071 64.8904 126.066 64.9522C126.065 64.9788 126.045 65.1131 126.045 65.1273C126.047 65.1255 126.047 65.1212 126.049 65.1144C126.04 65.1805 126.031 65.2448 126.019 65.3105C125.997 65.4448 125.971 65.5791 125.944 65.7134C125.891 65.9657 125.827 66.2162 125.757 66.4638C125.687 66.7131 125.609 66.9594 125.524 67.2014C125.485 67.3151 125.445 67.4297 125.403 67.543C125.382 67.6004 125.36 67.6567 125.341 67.7124C125.337 67.7253 125.329 67.742 125.323 67.7631C125.315 67.7811 125.308 67.8008 125.3 67.8189V67.8231C125.3 67.8231 125.295 67.8373 125.291 67.8429C125.291 67.8429 125.288 67.8553 125.286 67.8579C125.187 68.1312 125.134 68.3831 125.212 68.6869C125.282 68.9641 125.482 69.2648 125.722 69.4009C126.196 69.6725 126.999 69.5884 127.24 68.9722C127.909 67.2645 128.47 65.4126 128.271 63.5482L128.269 63.5538ZM122.072 61.3222C122.119 61.293 122.168 61.2707 122.211 61.2621C122.19 61.272 122.116 61.3029 122.072 61.3222Z" fill="#731932"/>
<path d="M124.29 61.3029C124.235 61.2874 124.228 61.2943 124.414 61.3531C124.408 61.3505 124.402 61.3462 124.396 61.3432C124.361 61.3295 124.325 61.3166 124.29 61.3029Z" fill="#731932"/>
<path d="M131.112 64.6149C131.112 64.6149 131.108 64.6089 131.105 64.605C131.105 64.605 131.105 64.6076 131.105 64.6089C131.107 64.6119 131.11 64.6149 131.111 64.6162L131.112 64.6149Z" fill="white" stroke="black" stroke-width="1.69993" stroke-miterlimit="10"/>
<path d="M138.933 62.2546C138.914 61.9019 138.868 61.5479 138.793 61.1965C138.499 59.8192 137.68 58.6208 136.577 57.8664C135.507 57.134 134.229 56.9087 132.987 57.1061C131.695 57.3134 130.591 58.1376 129.818 59.2494C129.265 60.047 128.9 61.0493 128.754 62.0293C128.679 62.5275 128.65 63.0205 128.671 63.5032L130.866 63.2359V63.2123C130.868 63.1029 130.871 62.9922 130.878 62.8832C130.881 62.8412 130.883 62.7991 130.887 62.7601C130.887 62.7502 130.896 62.679 130.9 62.6326C130.909 62.5794 130.918 62.5206 130.92 62.5026C130.941 62.3932 130.963 62.2855 130.987 62.1778C131.036 61.9637 131.098 61.7522 131.168 61.5449C131.181 61.5084 131.211 61.4471 131.22 61.4076C131.246 61.3475 131.27 61.2862 131.298 61.2257C131.368 61.0746 131.445 60.9249 131.529 60.7807C131.567 60.7164 131.604 60.6546 131.643 60.5932C131.648 60.5876 131.656 60.5748 131.665 60.561C131.686 60.5344 131.708 60.5048 131.719 60.4894C131.768 60.4293 131.818 60.3692 131.868 60.3143C131.953 60.2208 132.042 60.1311 132.132 60.0457C132.14 60.0401 132.151 60.0303 132.162 60.0191C132.188 59.9994 132.211 59.9788 132.227 59.9689C132.323 59.899 132.422 59.8329 132.523 59.7715C132.566 59.7449 132.617 59.7098 132.672 59.6763C132.677 59.675 132.69 59.6707 132.71 59.6621C132.732 59.654 132.753 59.6441 132.775 59.6355C132.822 59.6162 132.873 59.5978 132.923 59.5797C133.037 59.539 133.153 59.5055 133.27 59.4776C133.328 59.4635 133.387 59.4493 133.446 59.4394C133.467 59.4381 133.49 59.4339 133.505 59.4339C133.571 59.4283 133.639 59.4214 133.705 59.4201C133.817 59.4158 133.928 59.4188 134.04 59.4244C134.092 59.4257 134.143 59.43 134.195 59.4369C134.2 59.4369 134.21 59.4369 134.218 59.4381C134.249 59.4437 134.282 59.448 134.297 59.4523C134.348 59.4622 134.398 59.4746 134.45 59.4858C134.564 59.5137 134.679 59.5476 134.793 59.5879C134.836 59.6033 134.879 59.6218 134.92 59.6398C134.951 59.6484 134.991 59.6621 135.026 59.6806C135.033 59.6844 135.039 59.6887 135.044 59.69C135.092 59.7166 135.139 59.7406 135.184 59.766C135.284 59.823 135.38 59.8835 135.475 59.9492C135.519 59.9788 135.561 60.011 135.606 60.0444C135.609 60.0457 135.611 60.0487 135.615 60.05C135.776 60.201 135.931 60.3508 136.072 60.5246C136.096 60.5525 136.118 60.5821 136.142 60.6142C136.214 60.7232 136.282 60.8395 136.343 60.9571C136.396 61.0549 136.441 61.157 136.487 61.2579C136.508 61.3184 136.527 61.3784 136.546 61.4372C136.595 61.5925 136.635 61.7547 136.667 61.9144C136.676 61.9663 136.684 62.0182 136.693 62.0701C136.692 62.0572 136.692 62.0461 136.692 62.0336C136.695 62.0572 136.697 62.0838 136.699 62.1079C136.701 62.1173 136.703 62.1272 136.705 62.137C136.714 62.1933 136.714 62.2632 136.706 62.2113C136.714 62.3147 136.719 62.4185 136.72 62.5219C136.722 62.5936 136.722 62.6678 136.722 62.7416C136.72 62.8635 136.714 62.9853 136.707 63.1072C136.703 63.1673 136.699 63.229 136.694 63.2891C136.693 63.3131 136.676 63.4208 136.676 63.4573C136.671 63.523 136.659 63.5843 136.649 63.6487C136.627 63.7847 136.601 63.9177 136.573 64.052C136.521 64.3056 136.457 64.5545 136.386 64.8038C136.316 65.0513 136.238 65.2963 136.155 65.5401C136.116 65.6563 136.076 65.7696 136.034 65.8829C136.012 65.9391 135.991 65.9949 135.971 66.0524C135.968 66.0648 135.96 66.0815 135.954 66.1026C135.948 66.1167 135.942 66.1309 135.937 66.1446C135.935 66.1489 135.935 66.1502 135.933 66.1545C135.931 66.1545 135.931 66.1558 135.931 66.1558V66.1601C135.927 66.1686 135.926 66.1742 135.922 66.1798C135.921 66.188 135.921 66.1922 135.917 66.1953C135.819 66.4669 135.765 66.7174 135.843 67.0238C135.913 67.301 136.113 67.6018 136.352 67.7404C136.827 68.0094 137.63 67.9266 137.87 67.3096C138.495 65.7151 139.027 63.9932 138.931 62.2533L138.933 62.2546ZM132.685 59.6664C132.741 59.6342 132.797 59.6046 132.846 59.5991C132.821 59.6089 132.725 59.6497 132.685 59.6664Z" fill="#731932"/>
<path d="M136.695 62.0714C136.7 62.1456 136.706 62.1915 136.708 62.2125C136.706 62.1778 136.704 62.1439 136.702 62.1091C136.699 62.0962 136.698 62.0838 136.695 62.0714Z" fill="white" stroke="black" stroke-width="1.69993" stroke-miterlimit="10"/>
<path d="M134.922 59.6385C134.868 59.623 134.861 59.6299 135.047 59.6887C135.04 59.6861 135.035 59.6818 135.029 59.6788C134.994 59.6651 134.957 59.6522 134.922 59.6385Z" fill="white" stroke="black" stroke-width="1.69993" stroke-miterlimit="10"/>
<path d="M142.075 62.8858C142.075 62.8858 142.071 62.8802 142.068 62.8763C142.068 62.8763 142.068 62.8789 142.068 62.8802C142.07 62.8832 142.072 62.8858 142.074 62.8875L142.075 62.8858Z" fill="white" stroke="black" stroke-width="1.69993" stroke-miterlimit="10"/>
<path d="M149.755 59.469C149.464 58.0904 148.643 56.8933 147.542 56.139C146.472 55.404 145.193 55.1813 143.952 55.3786C142.657 55.5846 141.555 56.4089 140.782 57.5219C140.229 58.3183 139.865 59.3193 139.717 60.2993C139.621 60.936 139.6 61.5561 139.663 62.1666L141.848 61.8989C141.839 61.762 141.832 61.6234 141.832 61.4836C141.832 61.3716 141.836 61.2621 141.843 61.1514C141.845 61.1098 141.848 61.0704 141.851 61.0283C141.852 61.0184 141.86 60.9472 141.865 60.9026C141.873 60.8494 141.882 60.7889 141.886 60.7709C141.904 60.6632 141.926 60.5555 141.952 60.4473C142 60.2319 142.061 60.0204 142.131 59.8136C142.144 59.7771 142.174 59.7183 142.183 59.6763C142.209 59.6162 142.235 59.5544 142.262 59.4969C142.332 59.3429 142.409 59.1961 142.492 59.0507C142.531 58.9889 142.567 58.9245 142.609 58.8627C142.613 58.8572 142.622 58.8447 142.63 58.8336C142.65 58.8057 142.674 58.7761 142.685 58.7619C142.733 58.7006 142.784 58.6418 142.835 58.5843C142.918 58.4907 143.007 58.4011 143.099 58.3157C143.104 58.3101 143.116 58.3015 143.129 58.2891C143.154 58.2693 143.178 58.2483 143.191 58.2384C143.288 58.1685 143.386 58.1029 143.487 58.0411C143.53 58.0175 143.583 57.9797 143.636 57.9462C143.644 57.9445 143.657 57.9402 143.675 57.9321C143.697 57.9235 143.718 57.9166 143.738 57.9055C143.787 57.8857 143.837 57.8677 143.887 57.8493C144.001 57.8089 144.116 57.7755 144.233 57.7471C144.293 57.7334 144.35 57.7205 144.408 57.7094C144.43 57.7081 144.455 57.7038 144.468 57.7038C144.534 57.6982 144.603 57.6939 144.669 57.6914C144.781 57.6871 144.891 57.6871 145.002 57.6927C145.055 57.6969 145.107 57.6982 145.158 57.7051C145.166 57.7051 145.173 57.7068 145.183 57.7068C145.214 57.7124 145.248 57.7193 145.262 57.7205C145.311 57.7304 145.363 57.7429 145.414 57.7544C145.531 57.7836 145.645 57.8188 145.758 57.8566C145.8 57.872 145.843 57.89 145.885 57.9081C145.915 57.9166 145.958 57.9321 145.99 57.9488H145.992C146.012 57.9587 146.03 57.9668 146.051 57.9728C146.037 57.9686 146.024 57.9643 146.011 57.96C146.057 57.984 146.106 58.0076 146.151 58.0355C146.249 58.0917 146.347 58.1531 146.442 58.2174C146.484 58.2496 146.528 58.2818 146.571 58.3127C146.575 58.3144 146.579 58.317 146.583 58.3213C146.742 58.471 146.899 58.6208 147.04 58.7945C147.064 58.8237 147.086 58.8546 147.108 58.8838H147.11C147.182 58.9958 147.249 59.1095 147.311 59.227C147.363 59.3249 147.407 59.427 147.455 59.5278C147.476 59.5879 147.495 59.6484 147.515 59.7072C147.563 59.8651 147.602 60.0247 147.633 60.1856C147.642 60.2375 147.651 60.2894 147.658 60.3396C147.658 60.3272 147.657 60.316 147.657 60.3032C147.661 60.3298 147.665 60.3538 147.666 60.3774C147.668 60.3903 147.67 60.3997 147.671 60.4096C147.681 60.4628 147.681 60.5327 147.671 60.4838C147.685 60.6589 147.692 60.8352 147.689 61.0129C147.689 61.0704 147.687 61.1291 147.685 61.1879C147.683 61.2497 147.679 61.3141 147.675 61.3771C147.671 61.4372 147.666 61.4986 147.662 61.5591C147.661 61.5814 147.646 61.6792 147.644 61.7187V61.7225C147.637 61.7886 147.626 61.853 147.614 61.9186C147.592 62.0547 147.567 62.1877 147.539 62.322C147.486 62.5751 147.422 62.827 147.352 63.0737C147.282 63.32 147.205 63.5663 147.122 63.8113C147.081 63.9246 147.042 64.0396 147 64.1528C146.979 64.2086 146.959 64.2661 146.937 64.3223C146.926 64.3489 146.903 64.4077 146.889 64.4523C146.888 64.4579 146.885 64.4622 146.884 64.4678C146.883 64.4734 146.88 64.4777 146.879 64.4819C146.783 64.7493 146.732 64.9968 146.809 65.2938C146.879 65.5735 147.079 65.8717 147.319 66.0103C147.793 66.2819 148.595 66.1965 148.837 65.5821C149.414 64.1052 149.911 62.5236 149.907 60.9193C149.906 60.4362 149.859 59.9522 149.758 59.469H149.755ZM143.648 57.9364C143.701 57.9042 143.76 57.8746 143.808 57.869C143.783 57.8815 143.687 57.9196 143.648 57.9364Z" fill="#731932"/>
<path d="M145.885 57.9081C145.831 57.893 145.824 57.8999 146.009 57.9587C146.003 57.9557 145.998 57.9518 145.992 57.9488C145.956 57.9347 145.92 57.9222 145.885 57.9081Z" fill="white" stroke="black" stroke-width="1.69993" stroke-miterlimit="10"/>
<path d="M147.658 60.3409C147.664 60.4151 147.669 60.4615 147.671 60.4825C147.669 60.4473 147.667 60.4138 147.665 60.3791C147.662 60.3662 147.661 60.3538 147.658 60.3409Z" fill="white" stroke="black" stroke-width="1.69993" stroke-miterlimit="10"/>
<path d="M153.122 61.6234C153.122 61.6234 153.118 61.6178 153.115 61.6135C153.115 61.6135 153.115 61.6161 153.115 61.6178C153.117 61.6204 153.119 61.6234 153.121 61.6247L153.122 61.6234Z" fill="white" stroke="black" stroke-width="1.69993" stroke-miterlimit="10"/>
<path d="M158.709 59.0798C158.714 59.1541 158.719 59.2004 158.722 59.2214C158.719 59.1862 158.718 59.1528 158.715 59.1176C158.713 59.1051 158.712 59.0923 158.709 59.0798Z" fill="white" stroke="black" stroke-width="1.69993" stroke-miterlimit="10"/>
<path d="M156.934 56.6457C156.879 56.6303 156.873 56.6371 157.059 56.6959C157.052 56.6933 157.047 56.689 157.04 56.686C157.005 56.6723 156.969 56.6594 156.934 56.6457Z" fill="white" stroke="black" stroke-width="1.69993" stroke-miterlimit="10"/>
<path d="M160.805 58.2049C160.511 56.8263 159.692 55.6292 158.589 54.8749C157.519 54.1429 156.24 53.9172 154.999 54.1145C153.707 54.3205 152.602 55.1452 151.829 56.2578C151.276 57.0542 150.912 58.0582 150.765 59.0378C150.674 59.6441 150.651 60.2375 150.703 60.821L152.889 60.5554C152.884 60.4434 152.878 60.3314 152.878 60.2207C152.879 60.1113 152.883 60.0011 152.889 59.8916C152.89 59.8496 152.894 59.808 152.898 59.7659C152.898 59.7561 152.908 59.6861 152.912 59.6398C152.92 59.5866 152.929 59.5278 152.932 59.5098C152.953 59.4003 152.975 59.2926 152.998 59.185C153.047 58.9708 153.11 58.758 153.18 58.5508C153.192 58.5173 153.223 58.4555 153.232 58.4148C153.258 58.3534 153.281 58.2933 153.31 58.2328C153.38 58.0818 153.456 57.932 153.541 57.7879C153.578 57.7235 153.616 57.6617 153.655 57.6004C153.66 57.5918 153.668 57.5819 153.677 57.5682C153.697 57.5416 153.72 57.5107 153.73 57.4965C153.779 57.4365 153.83 57.3764 153.879 57.3189C153.965 57.2249 154.052 57.1357 154.144 57.0516C154.152 57.046 154.162 57.0361 154.174 57.025C154.2 57.0052 154.223 56.9842 154.239 56.9743C154.333 56.9031 154.433 56.8375 154.533 56.777C154.577 56.7504 154.629 56.7126 154.685 56.6791C154.69 56.6779 154.703 56.6736 154.723 56.6667C154.744 56.6581 154.766 56.6482 154.787 56.6401C154.835 56.6204 154.886 56.5993 154.935 56.5839C155.05 56.5436 155.166 56.5097 155.283 56.4805C155.34 56.4663 155.4 56.4539 155.457 56.444C155.482 56.4397 155.504 56.4384 155.518 56.4354C155.584 56.4298 155.652 56.426 155.718 56.423C155.829 56.4187 155.942 56.4217 156.053 56.4273C156.105 56.4286 156.156 56.4329 156.208 56.4371C156.213 56.4384 156.223 56.4384 156.23 56.441C156.262 56.4453 156.295 56.4509 156.309 56.4552C156.361 56.465 156.411 56.4775 156.463 56.4886C156.577 56.5169 156.692 56.5504 156.806 56.5912C156.849 56.6049 156.892 56.6246 156.933 56.6427C156.941 56.6444 156.948 56.647 156.958 56.6513C156.98 56.6568 157.005 56.6667 157.027 56.6779H157.028C157.028 56.6779 157.034 56.6821 157.037 56.6834H157.039C157.059 56.6916 157.079 56.6989 157.098 56.707C157.084 56.7015 157.071 56.6972 157.058 56.6933C157.106 56.7169 157.153 56.7435 157.198 56.7688C157.298 56.8263 157.394 56.8864 157.489 56.952C157.533 56.9816 157.576 57.0138 157.62 57.046C157.621 57.0503 157.625 57.0516 157.629 57.0542C157.79 57.2039 157.946 57.3554 158.086 57.5274C158.11 57.557 158.132 57.5875 158.156 57.6171C158.228 57.7291 158.296 57.8424 158.357 57.9599C158.409 58.0595 158.455 58.1616 158.501 58.2637C158.522 58.3212 158.541 58.3813 158.561 58.4431C158.609 58.5984 158.648 58.758 158.681 58.9202C158.69 58.9721 158.698 59.024 158.707 59.0755C158.706 59.0519 158.703 59.0279 158.702 58.9974C158.703 59.0352 158.71 59.073 158.714 59.1133C158.715 59.1232 158.718 59.133 158.719 59.1429C158.728 59.1987 158.728 59.2686 158.72 59.2171C158.733 59.3922 158.738 59.5698 158.737 59.7462C158.737 59.7784 158.736 59.8105 158.733 59.8402C158.732 59.9324 158.728 60.0234 158.722 60.113C158.718 60.1731 158.714 60.2332 158.708 60.295C158.707 60.3216 158.687 60.4589 158.687 60.47C158.688 60.4657 158.692 60.4546 158.695 60.4336C158.687 60.5078 158.673 60.579 158.662 60.6533C158.64 60.7863 158.614 60.9219 158.584 61.0566C158.532 61.3085 158.467 61.559 158.397 61.8066C158.327 62.0559 158.249 62.3022 158.166 62.5442C158.127 62.6579 158.087 62.7725 158.045 62.8857C158.023 62.9432 158.003 62.9994 157.983 63.0552C157.978 63.0681 157.97 63.0874 157.965 63.1071C157.96 63.1213 157.953 63.135 157.948 63.1492C157.943 63.1629 157.936 63.1758 157.934 63.1857C157.932 63.1938 157.93 63.1981 157.929 63.2011C157.829 63.474 157.777 63.7259 157.855 64.0297C157.925 64.3068 158.125 64.6076 158.363 64.7462C158.838 65.0152 159.641 64.9324 159.881 64.315C160.469 62.8145 160.974 61.202 160.952 59.5698C160.947 59.115 160.9 58.6559 160.804 58.2006L160.805 58.2049ZM154.716 56.6637C154.764 56.6345 154.812 56.6105 154.856 56.6036C154.835 56.6135 154.762 56.6444 154.716 56.6637Z" fill="#731932"/>
<path d="M114.073 65.2809C114.073 65.2809 110.988 65.5808 110.673 66.2806C110.357 66.9805 108.783 74.0439 108.973 74.9956C109.162 75.9464 115.206 76.8981 115.206 76.8981C115.206 76.8981 114.703 67.7953 114.072 65.2826L114.073 65.2809Z" fill="#3B8C28"/>
<path d="M111.524 78.3707L111.334 78.9826C111.302 79.086 111.372 79.216 111.471 79.2413C111.578 79.2679 111.676 79.2066 111.711 79.0946L111.9 78.4827C111.932 78.3793 111.862 78.2489 111.764 78.2235C111.656 78.1969 111.559 78.2587 111.524 78.3707Z" fill="#DD423A"/>
<path d="M110.659 82.6035C110.35 85.9366 110.089 89.2752 109.88 92.6165C109.671 95.9581 109.513 99.3049 109.405 102.652C109.344 104.529 109.3 106.405 109.272 108.283C109.268 108.553 109.657 108.553 109.661 108.283C109.713 104.934 109.814 101.587 109.967 98.2408C110.119 94.8953 110.323 91.5528 110.576 88.2141C110.717 86.3425 110.875 84.4726 111.049 82.6052C111.074 82.3362 110.684 82.3379 110.66 82.6052L110.659 82.6035Z" fill="#DD423A"/>
<path d="M112.23 85.2926C111.781 88.8861 111.558 92.5101 111.571 96.1371C111.574 97.163 111.598 98.188 111.638 99.2127C111.648 99.4813 112.038 99.4826 112.027 99.2127C111.883 95.6204 111.968 92.0188 112.283 88.4394C112.373 87.4259 112.479 86.4142 112.605 85.4046C112.619 85.2913 112.58 85.1806 112.468 85.1458C112.378 85.1179 112.243 85.1806 112.228 85.2926H112.23Z" fill="#DD423A"/>
<path d="M111.611 101.964C111.611 104.56 111.611 107.155 111.611 109.75C111.611 110.484 111.611 111.217 111.611 111.949C111.611 112.22 112 112.22 112 111.949C112 109.354 112 106.759 112 104.164C112 103.43 112 102.697 112 101.964C112 101.694 111.611 101.694 111.611 101.964Z" fill="#DD423A"/>
<path d="M115.672 102.677C115.479 104.742 115.385 106.818 115.389 108.892C115.389 109.163 115.778 109.163 115.778 108.892C115.774 106.816 115.869 104.742 116.061 102.677C116.086 102.408 115.696 102.41 115.672 102.677Z" fill="#DD423A"/>
</g>
<defs>
<clipPath id="clip0_276_698">
<rect width="100.695" height="138.655" fill="white" transform="translate(400 68.4542) rotate(-21.8365)"/>
</clipPath>
<clipPath id="clip1_276_698">
<rect width="199" height="200" fill="white" transform="translate(201 119)"/>
</clipPath>
<clipPath id="clip2_276_698">
<rect width="65" height="65" fill="white" transform="translate(106 54)"/>
</clipPath>
</defs>
</svg>
