<svg width="41" height="40" viewBox="0 0 41 40" fill="none" xmlns="http://www.w3.org/2000/svg">
<g clip-path="url(#clip0_21_692)">
<mask id="mask0_21_692" style="mask-type:luminance" maskUnits="userSpaceOnUse" x="0" y="0" width="41" height="40">
<path d="M0.0405273 0.0317383H40.0247V40H0.0405273V0.0317383Z" fill="white"/>
</mask>
<g mask="url(#mask0_21_692)">
<path fill-rule="evenodd" clip-rule="evenodd" d="M19.9529 -0.0709229C8.89904 -0.0709229 -0.0620117 8.88679 -0.0620117 19.9365C-0.0620117 30.9863 8.89904 39.944 19.9529 39.944C31.007 39.944 39.9679 30.9863 39.9679 19.9365C39.9679 8.88679 31.007 -0.0709229 19.9529 -0.0709229Z" fill="white"/>
</g>
<path fill-rule="evenodd" clip-rule="evenodd" d="M19.9524 8.13715C15.7009 8.13715 12.2544 11.5826 12.2544 15.8325C12.2544 20.0824 15.7009 23.5276 19.9524 23.5276C24.2041 23.5276 27.6504 20.0824 27.6504 15.8325C27.6504 11.5826 24.2041 8.13715 19.9524 8.13715Z" fill="#9CD300"/>
<path fill-rule="evenodd" clip-rule="evenodd" d="M34.0836 34.1054L33.7238 33.5147C30.9728 28.7736 25.8367 25.5797 19.9525 25.5797C14.0621 25.5797 8.92106 28.7806 6.17265 33.5304L6.15817 33.5558L5.84229 34.1264C9.46084 37.7219 14.4471 39.944 19.9525 39.944C25.4685 39.944 30.4634 37.7133 34.0836 34.1054Z" fill="#9CD300"/>
</g>
<defs>
<clipPath id="clip0_21_692">
<rect width="40" height="40" fill="white" transform="translate(0.0244141)"/>
</clipPath>
</defs>
</svg>
