<svg width="118" height="113" viewBox="0 0 118 113" fill="none" xmlns="http://www.w3.org/2000/svg">
<g clip-path="url(#clip0_28_886)">
<path d="M73.7745 112.741C69.1029 113.614 64.5738 110.672 63.6729 106.186L63.2685 104.158L62.3257 99.3981L79.5663 97.3298L80.1892 101.015L80.602 103.051C81.5022 107.536 78.4467 111.876 73.7745 112.741Z" fill="#D88A1A"/>
<path d="M66.771 23.4347L45.6075 27.3622L44.7911 23.3054C43.6632 17.6971 47.4848 12.2665 53.3269 11.1837C59.169 10.1009 64.8176 13.7696 65.9455 19.3779L66.771 23.4347Z" fill="#E9951C"/>
<path d="M114.047 94.7426L27.2983 110.841L27.5337 110.341C32.3994 100.141 33.8221 88.7375 31.5998 77.7218L28.4682 62.1559C24.8568 44.2058 37.0801 26.8376 55.7768 23.3704C74.4736 19.9032 92.5641 31.6384 96.1755 49.588L99.8959 68.0638C101.748 77.2531 106.067 85.8282 112.422 92.9322L114.047 94.7426Z" fill="#F9AD2A"/>
<path d="M108.912 33.116L104.678 32.3081C104.905 31.2253 105.014 30.1345 105.014 29.0591C105.014 19.9357 97.2865 12.5092 87.7737 12.5092C87.5132 12.5092 87.252 12.5253 86.9908 12.5494L86.7045 12.5655L86.4355 8.43622L86.6961 8.42012C87.0501 8.39598 87.4119 8.37122 87.7737 8.37122C99.6604 8.37122 109.324 17.6488 109.324 29.0591C109.324 30.4087 109.189 31.7664 108.912 33.116Z" fill="#7AA500"/>
<mask id="mask0_28_886" style="mask-type:luminance" maskUnits="userSpaceOnUse" x="85" y="0" width="33" height="35">
<path d="M85.8071 0H117.926V34.8668H85.8071V0Z" fill="white"/>
</mask>
<g mask="url(#mask0_28_886)">
<path d="M117.364 34.7324L113.13 33.9245C113.467 32.3161 113.635 30.6755 113.635 29.0591C113.635 15.37 102.035 4.23389 87.7743 4.23389C87.3789 4.23389 86.9914 4.26608 86.6044 4.29023L86.1665 4.31499L85.897 0.185086L86.3013 0.160942C86.7895 0.12875 87.2777 0.0965576 87.7743 0.0965576C104.417 0.0965576 117.945 13.0911 117.945 29.0591C117.945 30.9424 117.751 32.8578 117.364 34.7324Z" fill="#7AA500"/>
</g>
<path d="M100.452 31.4922L96.2258 30.6836C96.3355 30.1345 96.3942 29.5928 96.3942 29.0592C96.3942 24.4934 92.53 20.7845 87.7739 20.7845C87.5385 20.8167 87.3953 20.8328 87.2522 20.8489L86.9658 16.7115C87.3192 16.6707 87.5469 16.6465 87.7739 16.6465C94.9045 16.6465 100.704 22.2146 100.704 29.0592C100.704 29.8596 100.62 30.6756 100.452 31.4922Z" fill="#7AA500"/>
<path d="M11.5731 47.6304C10.8656 46.4424 10.2762 45.1894 9.83898 43.9209C6.05926 33.0999 12.1619 21.3578 23.4256 17.7374C23.779 17.6167 24.133 17.5275 24.4864 17.447L24.7218 17.382L25.833 21.3825L25.5641 21.4469C25.3113 21.5113 25.0585 21.5763 24.7979 21.6568C15.7817 24.5584 10.8992 33.9487 13.9218 42.6035C14.2752 43.6219 14.7466 44.6241 15.3186 45.5856L11.5731 47.6304Z" fill="#7AA500"/>
<path d="M4.09789 51.7517C3.10475 50.0869 2.28832 48.3331 1.66535 46.547C-0.894233 39.2097 -0.329951 31.3547 3.26468 24.4371C6.85932 17.5114 13.0464 12.3396 20.6903 9.88245C21.1785 9.72891 21.6583 9.60819 22.1465 9.48685L22.5083 9.39771L23.6111 13.3982L23.2325 13.4867C22.8366 13.592 22.4496 13.6892 22.062 13.8099C15.5131 15.9191 10.2012 20.34 7.12824 26.2795C4.04759 32.2109 3.5594 38.9428 5.74817 45.2302C6.27827 46.7656 6.98507 48.2687 7.83569 49.6988L4.09789 51.7517Z" fill="#7AA500"/>
<path d="M19.0564 43.5166C18.6269 42.8059 18.2735 42.0543 18.0045 41.2861C15.7481 34.8055 19.4014 27.7504 26.1612 25.5842C26.3804 25.5118 26.6074 25.4635 26.8267 25.4227L28.0642 29.399C27.9211 29.4312 27.7695 29.4634 27.6264 29.4876C23.0296 30.9505 20.5886 35.6536 22.0957 39.9773C22.2724 40.4782 22.5078 40.979 22.7942 41.4643L19.0564 43.5166Z" fill="#7AA500"/>
<path d="M42.5687 100.546L38.9824 98.251C41.4408 94.711 42.3159 90.4604 41.4491 86.2828L40.8178 83.2524L45.0431 82.4439L45.6751 85.4743C46.7689 90.7272 45.6661 96.0854 42.5687 100.546Z" fill="#F9C055"/>
</g>
<defs>
<clipPath id="clip0_28_886">
<rect width="118" height="113" fill="white"/>
</clipPath>
</defs>
</svg>
